<svg xmlns="http://www.w3.org/2000/svg">
  <symbol id="usa-en" viewBox="0 0 20.8 20.8">
    <defs>
      <clipPath id="clip-path">
        <path d="M0,0H20.8V20.8H0Z" fill="none"/>
      </clipPath>
    </defs>
    <g clip-path="url(#clip-path)">
      <path d="M10.4,20.8A10.4,10.4,0,1,0,0,10.4,10.4,10.4,0,0,0,10.4,20.8Z" fill="#f0f0f0"/>
      <g transform="translate(0.358 2.26)">
        <path d="M17.218,16.017H28.07a10.409,10.409,0,0,0-.358-2.713H17.218Z" transform="translate(-7.628 -7.878)" fill="#d80027"/>
        <path d="M17.218,6.625h9.326a10.455,10.455,0,0,0-2.4-2.713H17.218Z" transform="translate(-7.628 -3.912)" fill="#d80027"/>
        <path d="M13.269,34.348a10.355,10.355,0,0,0,6.474-2.261H6.8a10.356,10.356,0,0,0,6.474,2.261Z" transform="translate(-3.227 -15.808)" fill="#d80027"/>
        <path d="M1.788,25.407H19.535A10.337,10.337,0,0,0,20.7,22.694H.62a10.337,10.337,0,0,0,1.168,2.713Z" transform="translate(-0.62 -11.842)" fill="#d80027"/>
      </g>
      <path d="M4.817,1.624h.948l-.882.64L5.22,3.3l-.882-.64-.882.64.291-.9A10.457,10.457,0,0,0,1.731,4.654h.3l-.561.408q-.131.219-.252.444l.268.825-.5-.363Q.8,6.362.65,6.775l.3.909h1.09l-.882.64L1.49,9.36.608,8.72.08,9.1A10.5,10.5,0,0,0,0,10.4H10.4V0A10.351,10.351,0,0,0,4.817,1.624Zm.4,7.736-.882-.64-.882.64.337-1.036-.882-.64H4l.337-1.036.337,1.036h1.09l-.882.64ZM4.884,5.294,5.22,6.33l-.882-.64-.882.64.337-1.036-.882-.64H4l.337-1.036.337,1.036h1.09ZM8.951,9.36l-.882-.64-.882.64.337-1.036-.882-.64h1.09l.337-1.036.337,1.036H9.5l-.882.64ZM8.614,5.294,8.951,6.33l-.882-.64-.882.64.337-1.036-.882-.64h1.09l.337-1.036.337,1.036H9.5Zm0-3.03L8.951,3.3l-.882-.64-.882.64.337-1.036-.882-.64h1.09L8.069.588l.337,1.036H9.5Z" transform="translate(0)" fill="#0052b4"/>
    </g>
  </symbol>
  <symbol id="sa-ar" viewBox="0 0 21 21">
    <g transform="translate(-0.001)">
      <circle cx="10.5" cy="10.5" r="10.5" transform="translate(0.001)" fill="#3d9635"/>
      <g transform="translate(3.244 3.703)">
        <path d="M4.7,9.1c-.044.69-.1,1.912.417,2.035.63.065.283-1.2.51-1.434.043-.112.124-.112.129.029v1.08a.5.5,0,0,0,.36.519c.167-.013.276-.007.34.177q.042.929.078,1.858s.385.129.4-1.044a12.3,12.3,0,0,1-.036-1.4c0-.13.15-.142.257-.071.167.13.239.289.494.225.391-.124.623-.334.63-.673a3.25,3.25,0,0,0-.175-.962c.017-.059-.078-.206-.058-.265.069.124.174.112.2,0a.969.969,0,0,0-.334-.584c-.139-.136-.343-.107-.417.183a1.706,1.706,0,0,0,.321,1.032,1.138,1.138,0,0,1,.079.519.234.234,0,0,1-.319-.071s-.314-.265-.314-.318A1.408,1.408,0,0,0,7.237,9.1a1.135,1.135,0,0,0-.2-.446c-.077-.1-.182-.1-.232,0a1.739,1.739,0,0,0,.025,1.1c.069.235.181.383.13.383-.043.136-.132.1-.2-.053a4.224,4.224,0,0,1-.108-1.009c-.029-.265-.061-.835-.215-.979-.094-.142-.236-.071-.286.065a5.666,5.666,0,0,0,.016.766,9.194,9.194,0,0,1,.193,1.239c.013.584-.3.25-.286-.041a2.977,2.977,0,0,0-.011-1.115c-.051-.153-.111-.189-.237-.159-.1-.013-.353.3-.424.82a4.669,4.669,0,0,0-.083.508c-.037.265-.193.454-.3-.042C4.92,9.78,4.863,8.9,4.7,9.1" transform="translate(-4.562 -7.706)" fill="#fff"/>
        <path d="M6.435,12.649c-.557.313-1.1.6-1.646.891a1.745,1.745,0,0,1,1.3-1.186c.334.012.25.148.343.295" transform="translate(-4.582 -8.422)" fill="#fff"/>
        <path d="M8.689,8.028a.469.469,0,0,0-.105.035.35.35,0,0,0-.22.431c.159,1.085.26,1.912.417,2.991.028.13-.069.3-.19.284-.208-.159-.26-.484-.614-.467a.738.738,0,0,0-.584.619,1.771,1.771,0,0,0,0,.708.478.478,0,0,0,.584.167c.155-.071.285-.25.34-.206.034.071-.005.637-.733,1.068-.45.224-.806.283-1-.13-.117-.259.009-1.239-.282-1.014-.867,2.513,2.028,2.867,2.353.106.021-.077.083-.154.131-.135.022.012.037.041.042.1-.067,2.5-2.238,2.661-2.607,1.882a2.622,2.622,0,0,1-.13-.844A.483.483,0,0,0,6,13.346c-.088-.07-.206.124-.233.461a3.364,3.364,0,0,0-.026.6c.115,1.983,2.912,1.133,3.369-.5a6.273,6.273,0,0,0,.075-1.561h.009L9.2,12.34c.283.334.668.041.756-.071a.12.12,0,0,1,.194-.023.426.426,0,0,0,.675-.212,8.342,8.342,0,0,0,.094-.938.751.751,0,0,0-.3.141.1.1,0,0,0-.023.048c-.011.083-.023.177-.036.265a.238.238,0,0,1-.006.023.064.064,0,0,1-.028.024.091.091,0,0,1-.142-.071c-.066-.334-.341-.39-.509.141-.115.107-.317.124-.34-.023.029-.36-.1-.407-.356-.242-.083-.708-.167-1.38-.25-2.087.109,0,.2.088.3-.048a4.258,4.258,0,0,0-.453-1.2l-.02-.024A.01.01,0,0,1,8.75,8.04H8.74c-.005-.006-.013-.006-.014-.012s-.025-.006-.037,0M7.911,11.9a.145.145,0,0,1,.154.106.208.208,0,0,1-.032.189c-.023.042-.1.024-.151.024a.137.137,0,0,1-.136-.077c-.02-.065.035-.13.062-.183s.005-.012.009-.018a.2.2,0,0,1,.094-.042" transform="translate(-4.738 -7.707)" fill="#fff"/>
        <path d="M11.356,7.958a.521.521,0,0,0-.2.059.465.465,0,0,0-.062.56c.11.053.22.184.145.25-.309.372-1.12,1-1.161,1.115v.012h.007a1.9,1.9,0,0,0,.6.006V9.955a9.017,9.017,0,0,0,1-1.133c-.041-.041-.083-.071-.124-.112a.083.083,0,0,1,0-.13.4.4,0,0,0,.034-.566.451.451,0,0,0-.25-.053m-.038.325c.051-.006.11.053.14.124s.016.154-.034.171-.119-.041-.153-.118-.015-.159.038-.171c0,0,0-.006.009-.006" transform="translate(-6.843 -7.696)" fill="#fff"/>
        <path d="M4.806,14.823a2.034,2.034,0,0,0-.167,1.628.324.324,0,0,0,.35.129c.193-.094.28-.537.232-.7-.064-.119-.115-.136-.181-.036-.134.307-.192.094-.2-.083a4.583,4.583,0,0,1,.037-.873c.034-.241,0-.171-.068-.07" transform="translate(-4.54 -8.814)" fill="#fff"/>
        <path d="M20.065,12.789c-.3-.726-.711-1.44-.842-1.712S18.1,9.184,17.95,9c-.324-.431.524.183-.108-.679-.239-.23-.25-.242-.457-.431-.1-.083-.346-.224-.387.012a1.492,1.492,0,0,0,.021.513,1.822,1.822,0,0,0,.25.437,33.056,33.056,0,0,1,2.763,4.991c.137-.07.108-.926.027-1.049" transform="translate(-10.006 -7.664)" fill="#fff"/>
        <path d="M19.1,15.24c-.061.071.143.395.409.389.442-.053.835-.334,1.192-1.074a2.056,2.056,0,0,0,.273-.826,20.321,20.321,0,0,0-.3-4.174.738.738,0,0,1,.011-.289c.028-.041.126,0,.177-.094.078-.089-.2-.808-.357-1.085-.056-.124-.076-.206-.167.012a1.741,1.741,0,0,0-.155.791c.211,1.641.276,3.089.417,4.726a.722.722,0,0,1-.1.484,4.141,4.141,0,0,1-1.4,1.145" transform="translate(-10.642 -7.696)" fill="#fff"/>
        <path d="M25.133,18.1c-.32.207-.32.448-.06.454A1.524,1.524,0,0,0,26.4,17.84a2.6,2.6,0,0,0,.215-.918,24.348,24.348,0,0,0-.24-4.513,2.239,2.239,0,0,1-.044-.425c.03-.077.173.012.221-.083.078-.083-.37-.737-.53-1.014-.053-.124-.073-.207-.167.018a1.4,1.4,0,0,0-.092.785,48.684,48.684,0,0,1,.444,5.1,1.643,1.643,0,0,1-.089.417,3.062,3.062,0,0,1-.433.573c-.147.118-.454.235-.554.324" transform="translate(-13.149 -8.159)" fill="#fff"/>
        <path d="M26.352,13.611c-.005-.417.011-.779-.005-1.092s-.14-1.481-.18-1.728-.089-.631-.149-.933a2.839,2.839,0,0,1-.055-.531c.023-.083.126.006.172-.094a3.553,3.553,0,0,0-.417-1.31c-.058-.124-.167-.083-.3.119-.127.129-.083.424-.033.708a29.246,29.246,0,0,1,.5,5.6c-.018.148.467-.454.462-.737" transform="translate(-13.224 -7.678)" fill="#fff"/>
        <path d="M23.593,11.691c-.2-.006-.62-.437-.742-.69a.54.54,0,0,1,.023-.372c.074-.053.189-.118.273-.053,0,0,.088.135.072.154.109.058.156.023.167-.03.007-.083-.034-.135-.034-.23.046-.265.312-.3.417-.136a1.05,1.05,0,0,1,.112.46c0,.077-.109-.012-.167.006s-.076.1-.083.167c-.013.195-.032.5-.034.726" transform="translate(-12.81 -8.072)" fill="#fff"/>
        <path d="M19.134,14.077c.057-.573-.018-1.729-.023-2.065-.018-.791-.136-2.319-.189-2.573-.063-.483.174.053.14-.23a3.211,3.211,0,0,0-.592-1.245c-.088-.142-.083-.171-.225.035a1.657,1.657,0,0,0,.018.968,19.85,19.85,0,0,1,.372,2.809,28.157,28.157,0,0,1,.023,2.986c.151,0,.392-.277.476-.685" transform="translate(-10.084 -7.678)" fill="#fff"/>
        <path d="M26.708,13.165c-.35-.668-.884-1.446-1.025-1.712s-1.347-2.248-1.5-2.421c-.441-.513.2-.083-.083-.49a3.71,3.71,0,0,0-.521-.566c-.1-.071-.167-.219-.2.023a5.427,5.427,0,0,0-.016.649.869.869,0,0,0,.175.4A37.757,37.757,0,0,1,26.7,14.212c.134-.07.088-.926.005-1.044" transform="translate(-12.898 -7.681)" fill="#fff"/>
        <path d="M15.5,21.782a.336.336,0,0,0-.154.276.451.451,0,0,0,.091.338c-2.1,0-5.331-.059-6.02-.059-.389,0-1.612-.083-1.635-.083.248.593.69.913,1.139.826.935,0,5.261-.018,6.491-.018a1.213,1.213,0,0,0,.078.791l0,.006s0,.007.007.006h0c.082.036.118-.071.147-.141a5.045,5.045,0,0,0,.944-.006c.046.118.093.23.18.212.154-.059.274-.088.279-.637,0,0-.016-.933-.365-.873-.083.018-.313.059-.313.059a6.045,6.045,0,0,0-.766-.083.62.62,0,0,0,.017-.4.077.077,0,0,0-.072-.035h-.006a.038.038,0,0,1-.006-.012v-.006a1.59,1.59,0,0,1-.034-.159H15.5m.143,1.336c.3.023.593.006.9.029a.314.314,0,0,1-.008.271c0,.006,0,.006,0,.006h-.009c-.1-.006-.157-.006-.256-.012,0-.012,0-.018,0-.029a.125.125,0,0,0-.236-.012V23.4a.05.05,0,0,0,0,.018,1.243,1.243,0,0,1-.392-.023.311.311,0,0,1,.013-.277" transform="translate(-5.075 -9.978)" fill="#fff"/>
        <path d="M12.257,8.475c-.32,1.026.185,2.159.534,2.053.25.112.412-.431.517-1.021.072-.167.124-.183.161-.1-.011.791.049.968.23,1.2a.527.527,0,0,0,.76.012c.026-.023.313-.348.313-.348a.171.171,0,0,1,.261-.012c.093.094.083.265.286.377a.565.565,0,0,0,.625-.147c.115-.219.14-.3.193-.378.083-.124.222-.07.222-.029-.013.071-.091.136-.04.26.1.083.123.029.181.012.2-.112.357-.608.357-.608.007-.189-.083-.171-.147-.129s-.083.071-.16.124c-.1.012-.292.088-.386-.077-.1-.2-.1-.483-.176-.684,0-.012-.128-.313-.008-.334.059.012.188.053.21-.071.065-.118-.136-.46-.272-.625a.276.276,0,0,0-.443-.018.592.592,0,0,0-.119.366.63.63,0,0,0,.106.5,1.646,1.646,0,0,1,.25,1.009.368.368,0,0,1-.326.189c-.083-.023-.225-.065-.3-.679a4.852,4.852,0,0,0-.162-1.434c-.064-.189-.109-.372-.265-.047a.8.8,0,0,0-.092.7,2.32,2.32,0,0,1,.1,1.091,1.967,1.967,0,0,1-.187.3.286.286,0,0,1-.394.059.474.474,0,0,1-.24-.375,5.993,5.993,0,0,0-.039-1.21c-.1-.225-.256-.142-.323-.077a2.875,2.875,0,0,0-.592,1.363c-.092.33-.19.235-.257.1-.167-.171-.177-1.54-.377-1.316" transform="translate(-8.11 -7.646)" fill="#fff"/>
        <path d="M12.839,11.188c0,.006,0,.006-.009.006V11.2c-.021.012-.048.053-.1.1a.569.569,0,0,0-.1.442c0,.03.175.567.324.95a3.313,3.313,0,0,1,.124,1.281,3,3,0,0,1-1.148,1.345.531.531,0,0,1-.479,0v-.006A.342.342,0,0,1,11.313,15a2.93,2.93,0,0,0,1.155-1.336A1.564,1.564,0,0,0,12.5,12.7a1.019,1.019,0,0,0-.2-.442v-.006c.064-.035.23.106.258.018a1.449,1.449,0,0,0-.334-.685.26.26,0,0,0-.407-.029c-.138.089-.167.4-.1.679.075.2.278.236.422.649v.006a.88.88,0,0,1-.025.431,4.579,4.579,0,0,1-.864.908l-.006.006v.007h-.009v-.007a.954.954,0,0,0,0-.135c0-.118.043-.4.039-.454v-.006c-.246.183-.334.737-.377.9a11.18,11.18,0,0,0-1.753,1.351c-.215.372,1.479-.437,1.67-.531a.009.009,0,0,1,.008.006,1.539,1.539,0,0,0,.151.348.841.841,0,0,0,.913.334,3.041,3.041,0,0,0,1.322-1.239c.05-.083.131-.148.2-.083a2.029,2.029,0,0,0,1.871,1.1c.211-.29.112-.437.025-.49-.028-.023-.457-.212-.522-.4-.041-.171.058-.325.265-.443a8.162,8.162,0,0,0,1.727-.372,1.837,1.837,0,0,1,.19-.668.3.3,0,0,1,.1-.119v-.012a.034.034,0,0,0,0-.012l-.1-.065-1.877-.012a.227.227,0,0,1-.053-.029v-.035a.114.114,0,0,1,.059-.042c.451-.065,1.246-.212,1.3-1.08a.721.721,0,0,0-.66-.82.742.742,0,0,0-.575.855c-.016.113.037.342-.068.366-.691.077-1.444.561-1.472.909h-.009l-.005.006H13.6l-.008-.006a.2.2,0,0,1-.092-.213,4.54,4.54,0,0,0-.475-1.805c-.1-.112-.139-.154-.167-.159h-.012m2.744.773a.258.258,0,0,1,.262.218V12.2l-.012.012c-.037.041-.117.035-.2-.018a.226.226,0,0,1-.115-.167v-.007c0-.012.005-.018.008-.018l.005-.012c0-.006,0-.006.009-.012a.059.059,0,0,1,.044-.018m-1.746,1.782h.018a4.834,4.834,0,0,0,.786.1c.218.018.326.206.122.289s-.395.136-.395.467a.494.494,0,0,1,0,.283c0,.006-.005.012-.008.012V14.9h-.006l-.009.006a.008.008,0,0,1-.008.006c-.05.006-.119-.053-.173-.077a1.221,1.221,0,0,1-.521-.867.212.212,0,0,1,.2-.23" transform="translate(-7.092 -8.229)" fill="#fff"/>
        <path d="M7.51,8.535c.218.112.623.065.606-.325,0-.035-.007-.153-.009-.183-.043-.118-.167-.094-.192.03-.009.035.013.1-.017.124s-.088.006-.083-.1a.174.174,0,0,0-.035-.094.056.056,0,0,0-.053-.018c-.029.006-.029.012-.043.041a.276.276,0,0,0-.017.089c-.005.041-.02.053-.045.059s-.019.006-.044-.012-.032-.024-.032-.053A.536.536,0,0,0,7.537,8a.1.1,0,0,0-.054-.035c-.119,0-.127.153-.119.212-.01.012-.014.283.146.36" transform="translate(-5.006 -7.695)" fill="#fff"/>
        <path d="M15.108,12.152c.216.113.731.048.607-.334a1.809,1.809,0,0,0-.013-.183c-.043-.118-.162-.088-.191.03-.007.041.017.106-.014.129s-.089,0-.083-.106a.156.156,0,0,0-.035-.089.058.058,0,0,0-.049-.018c-.028.006-.028.012-.045.041a.344.344,0,0,0-.016.088c0,.042-.018.053-.043.059s-.018.006-.043-.012-.032-.023-.032-.053a.261.261,0,0,0-.014-.094.083.083,0,0,0-.053-.035c-.117,0-.124.153-.119.212-.007.006-.012.277.149.36" transform="translate(-8.748 -8.29)" fill="#fff"/>
        <path d="M19.537,10.655c.215.112.622.059.605-.334,0-.029-.007-.147-.009-.183-.046-.112-.167-.088-.192.036-.01.035.013.1-.019.118-.016.023-.083.012-.083-.1A.219.219,0,0,0,19.8,10.1a.1.1,0,0,0-.048-.006c-.028,0-.028.006-.046.035a.365.365,0,0,0-.017.094.047.047,0,0,1-.043.053c-.028.006-.023.006-.042-.012a.066.066,0,0,1-.032-.053.46.46,0,0,0-.014-.1.133.133,0,0,0-.053-.023c-.118,0-.128.153-.119.206-.008.012-.013.283.148.36" transform="translate(-10.532 -8.044)" fill="#fff"/>
        <path d="M21.813,13.423a1.641,1.641,0,0,0-.126,1.439,1.11,1.11,0,0,0,.466.6.3.3,0,0,0,.488-.059c.22-.26.226-.914.328-1.044.075-.242.256-.2.345-.094a.964.964,0,0,0,.316.307.489.489,0,0,0,.7.053.861.861,0,0,0,.372-.508,20.757,20.757,0,0,0,.028-2.985c-.011-.071-.214-1.227-.214-1.24s-.029-.589-.05-.726c-.005-.058-.017-.077.036-.07.055.058.06.064.1.076.055.013.105-.094.073-.195-.167-.354-.345-.714-.517-1.062-.039-.053-.094-.1-.162.006a.446.446,0,0,0-.125.319c.016.25.055.513.069.767.069.43.138.867.207,1.3.064.927.083,1.776.147,2.7a1.837,1.837,0,0,1-.223.962s-.151.106-.255-.006a3.462,3.462,0,0,1-.379-.567c-.155-.159-.259-.118-.369,0a5.961,5.961,0,0,0-.645,1.369c-.055.094-.2.177-.37-.006a2.153,2.153,0,0,1-.23-1.336" transform="translate(-12.603 -7.679)" fill="#fff"/>
        <path d="M19.636,8.041a.835.835,0,0,1,.285.744c-.039.265-.14.56-.215.519s.053-.265-.021-.508c-.046-.159-.308-.442-.281-.531a.178.178,0,0,1,.232-.225" transform="translate(-10.492 -7.707)" fill="#fff"/>
        <path d="M22.41,13.7a7.274,7.274,0,0,0-.041-1.169c-.012-.306-.311-2.839-.374-3.074-.073-.442.293-.058.25-.318-.125-.325-.44-.8-.538-1.085-.063-.124-.037-.23-.167-.03a2.785,2.785,0,0,0-.119,1.11,27.061,27.061,0,0,1,.594,5.333c.149,0,.322-.383.4-.766" transform="translate(-11.404 -7.688)" fill="#fff"/>
        <path d="M25.439,11.678c.181.106.283.655.264.814-.034.289-.128.6-.2.56s.014-.43-.021-.549c-.043-.171-.281-.483-.256-.578a.184.184,0,0,1,.209-.25" transform="translate(-13.205 -8.309)" fill="#fff"/>
        <path d="M10.8,13.639c.167.071.267.478.25.6-.034.212-.124.437-.187.417s.015-.319-.021-.407c-.013-.218-.25-.334-.242-.425-.045-.171.1-.2.2-.177" transform="translate(-6.962 -8.633)" fill="#fff"/>
        <path d="M5.393,7.88c.25.083.264.5.25.619-.034.218-.124.454-.189.425s0-.325-.035-.417c-.036-.136-.25-.366-.222-.437-.048-.148.094-.219.2-.189" transform="translate(-4.647 -7.682)" fill="#fff"/>
        <path d="M11.292,10.206a.538.538,0,0,0-.146.668.271.271,0,0,0,.31.107c.188.029.3-.4.3-.4s.006-.118-.215.106c-.1.024-.107-.018-.131-.077a.589.589,0,0,1,.028-.33c.034-.107-.038-.154-.145-.077" transform="translate(-7.175 -8.061)" fill="#fff"/>
        <path d="M12.991,7.682a.8.8,0,0,0-.291.554c-.008.142-.032.142.053.236.063.1.124.088.246.012a.287.287,0,0,0,.119-.189c.03-.167-.154.077-.179-.106s.078-.236.19-.407c0-.112,0-.189-.138-.1" transform="translate(-7.796 -7.644)" fill="#fff"/>
        <path d="M14.42,7.925a3.831,3.831,0,0,0-.083.643c-.034.159.151.23.232.023a2.1,2.1,0,0,0,.131-.7c-.037-.242-.184-.23-.28.036" transform="translate(-8.443 -7.656)" fill="#fff"/>
        <path d="M23.156,12.8c.027-.024,1.027-.827,1.027-.827.1-.041.083.417.034.407a3.962,3.962,0,0,1-1.061.835c-.048.036-.1-.312,0-.412" transform="translate(-12.855 -8.358)" fill="#fff"/>
        <path d="M24.22,12.953c.179.1.25.678.229.835.007.307-.167.554-.239.519s.008-.383-.027-.508a2.711,2.711,0,0,1-.167-.584c-.05-.2.1-.3.2-.265" transform="translate(-13.004 -8.519)" fill="#fff"/>
        <path d="M17.116,15.893a1.511,1.511,0,0,1,.285-.277.159.159,0,0,1,.194.041c.018.107-.062.213-.037.36.02.059.037.13.134.1a.622.622,0,0,1,.466-.154c.125,0,.126.235.052.235a3.215,3.215,0,0,0-.636.25.133.133,0,0,1-.185-.029.223.223,0,0,1-.018-.206c.008-.119-.034-.183-.124-.177-.067.047-.124.07-.158-.012-.012-.065-.017-.1.027-.136" transform="translate(-9.672 -8.957)" fill="#fff"/>
        <path d="M25.483,16.262a.156.156,0,0,1,0,.218c-.072.077-.119.112-.191.189-.032.065-.053.159.048.189.186.059.62-.25.62-.265A.156.156,0,0,0,26,16.421c-.041-.053-.132-.023-.193-.023-.032,0-.128-.023-.083-.112a.858.858,0,0,0,.078-.167c.028-.077.006-.124-.1-.167a.818.818,0,0,0-.267,0c-.064.018-.083.053-.1.136,0,.129.076.124.151.177" transform="translate(-13.212 -9.014)" fill="#fff"/>
      </g>
    </g>
  </symbol>
</svg>