<svg xmlns="http://www.w3.org/2000/svg" xmlns:xlink="http://www.w3.org/1999/xlink" width="557.665" height="414" viewBox="0 0 557.665 414">
  <defs>
    <clipPath id="clip-path">
      <path id="Path_339" data-name="Path 339" d="M291.2,446.587a13.017,13.017,0,0,1-5.438-1.488c-27.238-14.187-48.335-37.635-61.066-54.461a201.1,201.1,0,0,1-13.643-20.2l6.526-27.958s6.142,15.93,30.821,31.717c24.663,15.786,54,20.9,63.481,36.723C320.275,424.931,305.48,447.307,291.2,446.587Z" transform="translate(-211.05 -342.48)" fill="#fff" stroke="#263238" stroke-linecap="round" stroke-linejoin="round" stroke-width="1"/>
    </clipPath>
    <clipPath id="clip-path-2">
      <path id="Path_346" data-name="Path 346" d="M373.247,431.471s-10.092-.3-23.592.144c-20.409.64-48.607,2.943-61.5,10.444l-.608-.208-11.8-4.111s-.08-.112-.24-.352c-2.175-3.231-19.721-28.39-44.752-38.642L195.31,299.71s36.8,1.647,56.892,34.836l10.092,3.647s60.059-17.786,93.679-11.388Z" transform="translate(-195.31 -299.71)" fill="#92e3a9" stroke="#263238" stroke-linecap="round" stroke-linejoin="round" stroke-width="1"/>
    </clipPath>
    <clipPath id="clip-path-3">
      <path id="Path_353" data-name="Path 353" d="M380.184,467.354c-10.156,2.767-21.192-15.083-34.66-34.564v-.016c-8.893-12.859-18.841-26.439-30.277-35.236-.912-.688-1.839-1.36-2.767-2L319.166,362c13.883,7.277,22.488,18.937,36.9,30.917,23.192,19.305,43.744,31.157,49.438,39.7S397.586,462.6,380.184,467.354Z" transform="translate(-312.48 -362)" fill="#fff" stroke="#263238" stroke-linecap="round" stroke-linejoin="round" stroke-width="1"/>
    </clipPath>
    <clipPath id="clip-path-4">
      <path id="Path_357" data-name="Path 357" d="M348,401.745a5.555,5.555,0,0,1-3.247,2.591,11.17,11.17,0,0,1-1.1.368c-.08.016-.192.032-.3.064-10.732,2.8-34.884-3.023-34.884-3.023s-15.818-7.517-16.778-9.293a43.567,43.567,0,0,1-1.775-4.318c-.256-.752-.432-1.264-.432-1.264s-5.694-3.167-6.334-5.694c-.624-2.527-1.9-3.167,1.583-3.647,3.487-.464,22.456,0,22.456,0l-20.553-8.381s-13.611-6.862-14.875-9.277c-1.264-2.431-2.847-4.015,4.111-3.055,6.957.944,22.152,5.374,22.152,5.374l11.9,2.527-11.9-5.07s-23.416-2.831-18.985-10.108h13.291c4.43,0,18.6,1.663,22.456,2.847,3.871,1.184,29.461,17.082,29.461,17.082" transform="translate(-270.649 -349.54)" fill="#fff" stroke="#263238" stroke-linecap="round" stroke-linejoin="round" stroke-width="1"/>
    </clipPath>
    <clipPath id="clip-path-5">
      <path id="Path_361" data-name="Path 361" d="M136.785,426.985l58.563,17.65,107.181-24.454S237.064,401.548,236.449,402,136.785,426.985,136.785,426.985Z" transform="translate(-136.785 -401.988)" fill="#0e3c54" stroke="#263238" stroke-linecap="round" stroke-linejoin="round" stroke-width="1"/>
    </clipPath>
    <clipPath id="clip-path-6">
      <path id="Path_365" data-name="Path 365" d="M138.664,411.076c-4.1.285-5.136,15.1-.841,20.626l94.606-19.631,7.591-17.952Z" transform="translate(-135.055 -394.119)" fill="#0e3c54" stroke="#263238" stroke-linecap="round" stroke-linejoin="round" stroke-width="1"/>
    </clipPath>
    <clipPath id="clip-path-7">
      <path id="Path_373" data-name="Path 373" d="M140.022,406.036s7.26,7.676.721,17.573A16.652,16.652,0,0,1,140.022,406.036Z" transform="translate(-137.826 -406.036)" fill="#acdad7" stroke="#263238" stroke-linecap="round" stroke-linejoin="round" stroke-width="1"/>
    </clipPath>
    <clipPath id="clip-path-8">
      <path id="Path_377" data-name="Path 377" d="M288.629,420.615l102.285,4.2-9.975,35.206-125.815-4.8Z" transform="translate(-255.123 -420.615)" fill="#fff" stroke="#263238" stroke-linecap="round" stroke-linejoin="round" stroke-width="1"/>
    </clipPath>
  </defs>
  <g id="Group_277" data-name="Group 277" transform="translate(-707 -5325)">
    <g id="Group_276" data-name="Group 276" transform="translate(707 5325)">
      <path id="Path_310" data-name="Path 310" d="M485.372,510.12c-8.573,7.133-74.612,52.458-168.852,45.155-5.07-42.9-24.407-219.138-2.415-246.76,0,0,53.357-25.447,102.508-14.763s68.28,20.921,71.782,29.781C491.051,330.235,487.26,455.019,485.372,510.12Z" transform="translate(27.755 -162.498)" fill="#58b6b0" stroke="#263238" stroke-width="1"/>
      <path id="Path_311" data-name="Path 311" d="M402.39,327.052c-28.31,24.519-64.777,19.337-63.977.512.128-2.943,3.279-6.59,3.279-6.59s-.416-.624-1.1-1.7c-1.056-1.6-2.767-4.206-4.75-7.245-3.5-5.422-7.885-12.236-10.94-17.194-2.559-4.222,61.242-43.473,61.242-20.9,0,31.8,15.61,37.779,15.61,37.779C407.589,314.08,413.059,317.823,402.39,327.052Z" transform="translate(40.346 -176.973)" fill="#fff" stroke="#263238" stroke-linecap="round" stroke-linejoin="round" stroke-width="1"/>
      <path id="Path_312" data-name="Path 312" d="M385.9,334.9s-5.705,19.571-2.993,25.181" transform="translate(74.726 -136.262)" fill="none" stroke="#263238" stroke-linecap="round" stroke-linejoin="round" stroke-width="1"/>
      <path id="Path_313" data-name="Path 313" d="M407.649,299.357c0,18.892-56.351,37.395-72.864,18.446" transform="translate(46.318 -157.568)" fill="none" stroke="#263238" stroke-linecap="round" stroke-linejoin="round" stroke-width="1"/>
      <path id="Path_314" data-name="Path 314" d="M363.139,285.73s-3.792,14.229-21.351,25.354A6.621,6.621,0,0,0,338,308.09a5.241,5.241,0,0,0-1.535-.048c-1.056-1.6-2.767-4.206-4.75-7.245C340.683,294.287,363.139,285.73,363.139,285.73Z" transform="translate(44.475 -165.737)" fill="#263238"/>
      <g id="Group_251" data-name="Group 251" transform="translate(324.352 0)">
        <path id="Path_315" data-name="Path 315" d="M386.2,309.549s-.184,14.048-3.156,16.9c-22.319,21.405-44.13,23.1-47.732,17.45-24.226-37.993-18.5-48.013-20.972-54.481-4.363-11.426-9.72-30.069-7.359-41.366,5.276-25.231,52.82-44.725,77.8-19.425,11.994,12.146,15.786,38.492,13.253,60.435" transform="translate(-295.045 -207.05)" fill="#fff" stroke="#263238" stroke-linecap="round" stroke-linejoin="round" stroke-width="1"/>
        <path id="Path_316" data-name="Path 316" d="M316.3,255.3s-6.66-2.991-8.1.579" transform="translate(-293.975 -184.682)" fill="none" stroke="#263238" stroke-linecap="round" stroke-linejoin="round" stroke-width="1"/>
        <path id="Path_317" data-name="Path 317" d="M323.372,255.8s13.869-5.806,20.1,1.238" transform="translate(-284.875 -185.028)" fill="none" stroke="#263238" stroke-linecap="round" stroke-linejoin="round" stroke-width="1"/>
        <path id="Path_318" data-name="Path 318" d="M334.985,262.454c.225,2.081-.79,3.9-2.271,4.061s-2.866-1.395-3.093-3.476.79-3.9,2.271-4.063S334.757,260.372,334.985,262.454Z" transform="translate(-281.149 -181.78)" fill="#263238"/>
        <path id="Path_319" data-name="Path 319" d="M318.006,262.847c.227,2.081-.79,3.9-2.271,4.061s-2.866-1.395-3.092-3.475.788-3.9,2.27-4.061S317.779,260.766,318.006,262.847Z" transform="translate(-291.326 -181.544)" fill="#263238"/>
        <path id="Path_320" data-name="Path 320" d="M317.408,258.124c1.935,3.119.876,8.44-1.673,15.742s-.3,9.955,9.51,10.689" transform="translate(-290.034 -182.284)" fill="#fff" stroke="#263238" stroke-linecap="round" stroke-linejoin="round" stroke-width="1"/>
        <path id="Path_321" data-name="Path 321" d="M321.318,284.2s12.827-1.169,18.656-4.381" transform="translate(-286.107 -169.279)" fill="none" stroke="#263238" stroke-linecap="round" stroke-linejoin="round" stroke-width="1"/>
        <path id="Path_322" data-name="Path 322" d="M415.553,253.112c0-9.505-9.373-29-25.829-31.189h0c-9.44-9.888-22.921-13.522-39.266-9.765-37.767,8.683-49.266,45.972-50.926,52.153-.16.576-.229.894-.229.894l10.11-2.567-4.36,8.5,5.3,3.5-1.214,1.345,6.135,5.915-1.919-10.8c1.185-6.988,9.209-16.733,9.209-16.733-4.678,5.612-5.267,13.1-5.267,13.1,3.169-8.306,22.392-15.935,22.392-15.935-6.227,5.048-9.542,14.94-9.542,14.94,5.927-7.293,19.794-12.018,28.665-14.526,3,7.223,7.744,14.755,14.528,18.929,6.39,3.931,6.166,12.045,6.166,12.045,11.108,7.265,14.366,19.777,14.366,19.777l7.74,10.588S415.566,296.083,415.553,253.112Z" transform="translate(-299.303 -210.707)" fill="#e49a00"/>
        <path id="Path_323" data-name="Path 323" d="M351.8,264.6c-2.589-5.556,6.817-20.585,13.475-18.723,3.744,1.048,8.637,7.876,9.589,15.051s-4.117,20.729-9.525,23.745c-3.431,1.915-6.259-3.3-6.259-3.3" transform="translate(-268.1 -189.723)" fill="#fff" stroke="#263238" stroke-linecap="round" stroke-linejoin="round" stroke-width="1"/>
      </g>
      <g id="Group_252" data-name="Group 252" transform="translate(0 304.096)">
        <path id="Path_324" data-name="Path 324" d="M96.511,443.08l180.712-42.245L654.176,444.36l-97.038,66.379Z" transform="translate(-96.511 -400.835)" fill="rgba(88,182,176,0.1)"/>
      </g>
      <path id="Path_326" data-name="Path 326" d="M194.291,444.665l73.158-32.331,92.489,4.775L318.81,452.277Z" transform="translate(-37.898 -89.846)" fill="#fff" stroke="#263238" stroke-linecap="round" stroke-linejoin="round" stroke-width="1"/>
      <g id="Group_253" data-name="Group 253" transform="translate(246.993 144.439)">
        <path id="Path_327" data-name="Path 327" d="M349.376,301.014c-23.465,9.6-28.526,31.167-68.388,116.427,0,0-17.717,3.637-27.208,25.151s6.327,38.5,24.676,37.916c0,0,7.337,6.375,22.334,5.742s81.632-102.442,81.632-102.442Z" transform="translate(-250.937 -301.014)" fill="#58b6b0"/>
        <path id="Path_328" data-name="Path 328" d="M274.088,376.927c10.5,9.35,16.522,23.054,13.323,38.239" transform="translate(-237.059 -255.509)" fill="none" stroke="#263238" stroke-linecap="round" stroke-linejoin="round" stroke-width="1"/>
        <path id="Path_329" data-name="Path 329" d="M280.418,379.736s12.9,2.813,14.886,19.334" transform="translate(-233.265 -253.826)" fill="none" stroke="#263238" stroke-linecap="round" stroke-linejoin="round" stroke-width="1"/>
        <path id="Path_330" data-name="Path 330" d="M306.624,367.325s-9.852-21.748-6.108-47.457" transform="translate(-221.726 -289.712)" fill="none" stroke="#263238" stroke-linecap="round" stroke-linejoin="round" stroke-width="1"/>
        <path id="Path_331" data-name="Path 331" d="M302.9,335.942c-.98,6.718,5.963,42.476,5.916,80.088" transform="translate(-219.846 -280.077)" fill="none" stroke="#263238" stroke-linecap="round" stroke-linejoin="round" stroke-width="1"/>
      </g>
      <g id="Group_254" data-name="Group 254" transform="translate(391.38 151.48)">
        <path id="Path_332" data-name="Path 332" d="M455.132,305.416c29.354,14.752,32.846,60.131,5.145,114.377-19.555,38.3-46.559,94.835-63.643,98.63s-33.737-6.846-33.737-6.846-14.4-.675-18.745-10.9c-11.9-28.046,18.349-63.328,30.249-54.873,0,0,38-82.641,44.925-87.846" transform="translate(-341.079 -305.416)" fill="#58b6b0" stroke="#03151e" stroke-width="1"/>
        <path id="Path_333" data-name="Path 333" d="M341.562,431.235c-3.939-19.3,26.432-42.076,32.971-37.857,0,0,22.568,1.265,25.943,16.872" transform="translate(-341.21 -252.994)" fill="none" stroke="#263238" stroke-linecap="round" stroke-linejoin="round" stroke-width="1"/>
        <path id="Path_334" data-name="Path 334" d="M393.12,444.916c13.214-23.309,36.173-67.989,36.173-67.989" transform="translate(-310.094 -262.55)" fill="none" stroke="#263238" stroke-linecap="round" stroke-linejoin="round" stroke-width="1"/>
        <path id="Path_335" data-name="Path 335" d="M362.044,394.821s15.818-9.458,27.63-.51" transform="translate(-328.722 -254.437)" fill="none" stroke="#263238" stroke-linecap="round" stroke-linejoin="round" stroke-width="1"/>
        <path id="Path_336" data-name="Path 336" d="M365.378,416.654s8.738-19.158,17.634-36.836,29.129-43.652,37.566-44.917" transform="translate(-326.724 -287.742)" fill="none" stroke="#263238" stroke-linecap="round" stroke-linejoin="round" stroke-width="1"/>
      </g>
      <g id="Group_266" data-name="Group 266" transform="translate(158.022 141.547)">
        <g id="Group_256" data-name="Group 256" transform="translate(25.175 69.214)">
          <path id="Path_337" data-name="Path 337" d="M291.2,446.587a13.017,13.017,0,0,1-5.438-1.488c-27.238-14.187-48.335-37.635-61.066-54.461a201.1,201.1,0,0,1-13.643-20.2l6.526-27.958s6.142,15.93,30.821,31.717c24.663,15.786,54,20.9,63.481,36.723C320.275,424.931,305.48,447.307,291.2,446.587Z" transform="translate(-211.05 -342.48)" fill="#fff"/>
          <g id="Group_255" data-name="Group 255" clip-path="url(#clip-path)">
            <path id="Path_338" data-name="Path 338" d="M291.2,446.587a26.466,26.466,0,0,0-1.631-5.9c-5.71-14.3-40.258-42.721-40.258-42.721-8.221-.256-17.258-3.679-24.615-7.325a201.1,201.1,0,0,1-13.643-20.2l6.526-27.958s6.142,15.93,30.821,31.717c24.663,15.786,54,20.9,63.481,36.723C320.275,424.931,305.48,447.307,291.2,446.587Z" transform="translate(-211.05 -342.48)" fill="rgba(88,182,176,0.1)"/>
          </g>
          <path id="Path_340" data-name="Path 340" d="M291.2,446.587a13.017,13.017,0,0,1-5.438-1.488c-27.238-14.187-48.335-37.635-61.066-54.461a201.1,201.1,0,0,1-13.643-20.2l6.526-27.958s6.142,15.93,30.821,31.717c24.663,15.786,54,20.9,63.481,36.723C320.275,424.931,305.48,447.307,291.2,446.587Z" transform="translate(-211.05 -342.48)" fill="none" stroke="#263238" stroke-linecap="round" stroke-linejoin="round" stroke-width="1"/>
        </g>
        <path id="Path_341" data-name="Path 341" d="M233.175,363.355s-3.375,14.921-12.268,11.577c-4.821-1.814-14.046-16.148-15.793-23.369Z" transform="translate(-189.433 -267.822)" fill="#fff" stroke="#263238" stroke-linecap="round" stroke-linejoin="round" stroke-width="1"/>
        <g id="Group_259" data-name="Group 259">
          <path id="Path_342" data-name="Path 342" d="M198.152,302.961l7.26-3.755s20.525.181,33.255,10.529c11.564,9.4,17.423,24.135,17.423,24.135s44.936-24.812,90.816-10.574L365.632,427.6,279.6,433.28l-53.7-51.062Z" transform="translate(-193.606 -299.206)" fill="#fff" stroke="#263238" stroke-linecap="round" stroke-linejoin="round" stroke-width="1"/>
          <g id="Group_258" data-name="Group 258" transform="translate(0 0.806)">
            <path id="Path_343" data-name="Path 343" d="M373.247,431.471s-10.092-.3-23.592.144c-20.409.64-48.607,2.943-61.5,10.444l-.608-.208-11.8-4.111s-.08-.112-.24-.352c-2.175-3.231-19.721-28.39-44.752-38.642L195.31,299.71s36.8,1.647,56.892,34.836l10.092,3.647s60.059-17.786,93.679-11.388Z" transform="translate(-195.31 -299.71)" fill="#58b6b0"/>
            <g id="Group_257" data-name="Group 257" clip-path="url(#clip-path-2)">
              <path id="Path_344" data-name="Path 344" d="M275.505,437.389c-2.175-3.231-19.721-28.39-44.752-38.642L195.31,299.71s36.8,1.647,56.892,34.836Z" transform="translate(-195.31 -299.71)" fill="rgba(0,0,0,0.7)" opacity="0.3"/>
              <path id="Path_345" data-name="Path 345" d="M323.921,416.879c-20.409.64-48.607,2.943-61.5,10.444l-.608-.208L238.24,327.055s19.286-4.333,25.223-2.143C263.463,324.912,302.667,353.85,323.921,416.879Z" transform="translate(-169.576 -284.974)" fill="rgba(0,0,0,0.7)" opacity="0.3"/>
            </g>
            <path id="Path_347" data-name="Path 347" d="M373.247,431.471s-10.092-.3-23.592.144c-20.409.64-48.607,2.943-61.5,10.444l-.608-.208-11.8-4.111s-.08-.112-.24-.352c-2.175-3.231-19.721-28.39-44.752-38.642L195.31,299.71s36.8,1.647,56.892,34.836l10.092,3.647s60.059-17.786,93.679-11.388Z" transform="translate(-195.31 -299.71)" fill="none" stroke="#263238" stroke-linecap="round" stroke-linejoin="round" stroke-width="1"/>
          </g>
          <line id="Line_5" data-name="Line 5" x2="23.149" y2="96.014" transform="translate(66.979 39.292)" fill="none" stroke="#263238" stroke-linecap="round" stroke-linejoin="round" stroke-width="1"/>
          <line id="Line_6" data-name="Line 6" x1="22.486" y1="95.954" transform="translate(57.952 42.89)" fill="none" stroke="#263238" stroke-linecap="round" stroke-linejoin="round" stroke-width="1"/>
        </g>
        <g id="Group_260" data-name="Group 260" transform="translate(11.348 40.742)">
          <path id="Path_348" data-name="Path 348" d="M214.362,381.259c-5.141-1.432-15.486-32.289-10.745-45.568,0,0,5.632-9.774,7.922-10.443,3.589-1.048,18.048-.742,17.349,1.69-1.617,5.625-12.709,5.529-12.709,5.529l-3.6,6.588.155,3.637s5.221-3.807,7.148-3.7c.98.053,6.108,2.564,10.168,4.715,3.476,1.841,5.6,2.834,4.821,4.509-2.572,5.532-13.544,1.651-13.544,1.651l-4.115,6.209s3.981.688,5.729.889c1.911.221,16.215,9.825,15.778,11.031-1.708,4.7-15.436-.384-15.436-.384l-2.433,2.023s10.12,2.617,11.146,2.994c1.612.593,7.77,5.339,7.674,5.878-.74,4.155-9.237,1.1-9.237,1.1L223,379.3a9.349,9.349,0,0,1-3.978,2.052" transform="translate(-202.405 -324.679)" fill="#fff" stroke="#263238" stroke-linecap="round" stroke-linejoin="round" stroke-width="1"/>
          <path id="Path_349" data-name="Path 349" d="M211.493,335.942s-4.746,4.034-6.039,5.2-.931,4.88-.931,4.88" transform="translate(-201.164 -317.927)" fill="none" stroke="#263238" stroke-linecap="round" stroke-linejoin="round" stroke-width="1"/>
          <path id="Path_350" data-name="Path 350" d="M206.689,347.356c-.03,4.074,2.722,6.531,3.976,7.842s-2,4.883,1.587,7.444" transform="translate(-199.837 -311.085)" fill="none" stroke="#263238" stroke-linecap="round" stroke-linejoin="round" stroke-width="1"/>
        </g>
        <g id="Group_265" data-name="Group 265" transform="translate(120.5 80.506)">
          <g id="Group_262" data-name="Group 262" transform="translate(66.906 19.929)">
            <path id="Path_351" data-name="Path 351" d="M380.184,467.354c-10.156,2.767-21.192-15.083-34.66-34.564v-.016c-8.893-12.859-18.841-26.439-30.277-35.236-.912-.688-1.839-1.36-2.767-2L319.166,362c13.883,7.277,22.488,18.937,36.9,30.917,23.192,19.305,43.744,31.157,49.438,39.7S397.586,462.6,380.184,467.354Z" transform="translate(-312.48 -362)" fill="#fff"/>
            <g id="Group_261" data-name="Group 261" clip-path="url(#clip-path-3)">
              <path id="Path_352" data-name="Path 352" d="M344.487,419.707c-8.893-12.859-18.841-26.439-30.277-35.236a11.225,11.225,0,0,0,4.43-.672S336.714,398.515,344.487,419.707Z" transform="translate(-311.443 -348.932)" fill="rgba(88,182,176,0.1)"/>
            </g>
            <path id="Path_354" data-name="Path 354" d="M380.184,467.354c-10.156,2.767-21.192-15.083-34.66-34.564v-.016c-8.893-12.859-18.841-26.439-30.277-35.236-.912-.688-1.839-1.36-2.767-2L319.166,362c13.883,7.277,22.488,18.937,36.9,30.917,23.192,19.305,43.744,31.157,49.438,39.7S397.586,462.6,380.184,467.354Z" transform="translate(-312.48 -362)" fill="none" stroke="#263238" stroke-linecap="round" stroke-linejoin="round" stroke-width="1"/>
          </g>
          <g id="Group_264" data-name="Group 264">
            <path id="Path_355" data-name="Path 355" d="M348,401.745a5.555,5.555,0,0,1-3.247,2.591,11.17,11.17,0,0,1-1.1.368c-.08.016-.192.032-.3.064-10.732,2.8-34.884-3.023-34.884-3.023s-15.818-7.517-16.778-9.293a43.567,43.567,0,0,1-1.775-4.318c-.256-.752-.432-1.264-.432-1.264s-5.694-3.167-6.334-5.694c-.624-2.527-1.9-3.167,1.583-3.647,3.487-.464,22.456,0,22.456,0l-20.553-8.381s-13.611-6.862-14.875-9.277c-1.264-2.431-2.847-4.015,4.111-3.055,6.957.944,22.152,5.374,22.152,5.374l11.9,2.527-11.9-5.07s-23.416-2.831-18.985-10.108h13.291c4.43,0,18.6,1.663,22.456,2.847,3.871,1.184,29.461,17.082,29.461,17.082" transform="translate(-270.649 -349.54)" fill="#fff"/>
            <g id="Group_263" data-name="Group 263" clip-path="url(#clip-path-4)">
              <path id="Path_356" data-name="Path 356" d="M336.127,390.3c-10.732,2.8-34.883-3.023-34.883-3.023s-15.818-7.517-16.778-9.293a43.527,43.527,0,0,1-1.775-4.318l19.417,2.175a8.245,8.245,0,0,0,0,7.965C304.266,387.681,328.866,391.616,336.127,390.3Z" transform="translate(-263.431 -335.076)" fill="rgba(88,182,176,0.1)"/>
            </g>
            <path id="Path_358" data-name="Path 358" d="M348,401.745a5.555,5.555,0,0,1-3.247,2.591,11.17,11.17,0,0,1-1.1.368c-.08.016-.192.032-.3.064-10.732,2.8-34.884-3.023-34.884-3.023s-15.818-7.517-16.778-9.293a43.567,43.567,0,0,1-1.775-4.318c-.256-.752-.432-1.264-.432-1.264s-5.694-3.167-6.334-5.694c-.624-2.527-1.9-3.167,1.583-3.647,3.487-.464,22.456,0,22.456,0l-20.553-8.381s-13.611-6.862-14.875-9.277c-1.264-2.431-2.847-4.015,4.111-3.055,6.957.944,22.152,5.374,22.152,5.374l11.9,2.527-11.9-5.07s-23.416-2.831-18.985-10.108h13.291c4.43,0,18.6,1.663,22.456,2.847,3.871,1.184,29.461,17.082,29.461,17.082" transform="translate(-270.649 -349.54)" fill="none" stroke="#263238" stroke-linecap="round" stroke-linejoin="round" stroke-width="1"/>
          </g>
          <line id="Line_7" data-name="Line 7" x2="23.376" y2="3.436" transform="translate(18.823 37.329)" fill="none" stroke="#263238" stroke-linecap="round" stroke-linejoin="round" stroke-width="1"/>
        </g>
      </g>
      <g id="Group_273" data-name="Group 273" transform="translate(61.648 293.354)">
        <g id="Group_268" data-name="Group 268" transform="translate(2.768 12.586)">
          <path id="Path_359" data-name="Path 359" d="M136.785,426.985l58.563,17.65,107.181-24.454S237.064,401.548,236.449,402,136.785,426.985,136.785,426.985Z" transform="translate(-136.785 -401.988)" fill="#0e3c54"/>
          <g id="Group_267" data-name="Group 267" clip-path="url(#clip-path-5)">
            <path id="Path_360" data-name="Path 360" d="M136.785,426.985l58.563,17.65,107.181-24.454S237.064,401.548,236.449,402,136.785,426.985,136.785,426.985Z" transform="translate(-136.785 -401.988)" fill="#0e3c54" opacity="0.3"/>
          </g>
          <path id="Path_362" data-name="Path 362" d="M136.785,426.985l58.563,17.65,107.181-24.454S237.064,401.548,236.449,402,136.785,426.985,136.785,426.985Z" transform="translate(-136.785 -401.988)" fill="none" stroke="#263238" stroke-linecap="round" stroke-linejoin="round" stroke-width="1"/>
        </g>
        <g id="Group_270" data-name="Group 270">
          <path id="Path_363" data-name="Path 363" d="M138.664,411.076c-4.1.285-5.136,15.1-.841,20.626l94.606-19.631,7.591-17.952Z" transform="translate(-135.055 -394.119)" fill="#0e3c54"/>
          <g id="Group_269" data-name="Group 269" clip-path="url(#clip-path-6)">
            <path id="Path_364" data-name="Path 364" d="M138.664,411.076c-4.1.285-5.136,15.1-.841,20.626l94.606-19.631,7.591-17.952Z" transform="translate(-135.055 -394.119)" fill="#0e3c54" opacity="0.3"/>
          </g>
          <path id="Path_366" data-name="Path 366" d="M138.664,411.076c-4.1.285-5.136,15.1-.841,20.626l94.606-19.631,7.591-17.952Z" transform="translate(-135.055 -394.119)" fill="none" stroke="#263238" stroke-linecap="round" stroke-linejoin="round" stroke-width="1"/>
        </g>
        <path id="Path_367" data-name="Path 367" d="M297.224,409.979s-1.409,7.8-.5,12.587L194.536,445.7,140.669,429.87s-5.6-9.907-.721-17.573l98.434-16.706Z" transform="translate(-133.319 -393.237)" fill="#fff" stroke="#263238" stroke-linecap="round" stroke-linejoin="round" stroke-width="1"/>
        <path id="Path_368" data-name="Path 368" d="M137.311,411.075l101.357-16.956L301.6,410.066l-105.858,21.1Z" transform="translate(-133.702 -394.119)" fill="#0e3c54" stroke="#263238" stroke-linecap="round" stroke-linejoin="round" stroke-width="1"/>
        <path id="Path_369" data-name="Path 369" d="M139.558,411.278l53.6,15.953,87.722-17.653" transform="translate(-132.355 -384.853)" fill="none" stroke="#263238" stroke-linecap="round" stroke-linejoin="round" stroke-width="1"/>
        <line id="Line_8" data-name="Line 8" x1="94.333" y2="20.128" transform="translate(68.782 26.356)" fill="none" stroke="#263238" stroke-linecap="round" stroke-linejoin="round" stroke-width="1"/>
        <path id="Path_370" data-name="Path 370" d="M140.355,414.567c.8.082,40.4,12.274,40.4,12.274" transform="translate(-131.877 -381.862)" fill="none" stroke="#263238" stroke-linecap="round" stroke-linejoin="round" stroke-width="1"/>
        <line id="Line_9" data-name="Line 9" y1="1.217" x2="7.507" transform="translate(155.407 21.445)" fill="none" stroke="#263238" stroke-linecap="round" stroke-linejoin="round" stroke-width="1"/>
        <line id="Line_10" data-name="Line 10" x1="3.968" y1="0.893" transform="translate(55.084 47.046)" fill="none" stroke="#263238" stroke-linecap="round" stroke-linejoin="round" stroke-width="1"/>
        <g id="Group_272" data-name="Group 272" transform="translate(4.433 19.06)">
          <path id="Path_371" data-name="Path 371" d="M140.022,406.036s7.26,7.676.721,17.573A16.652,16.652,0,0,1,140.022,406.036Z" transform="translate(-137.826 -406.036)" fill="#acdad7"/>
          <g id="Group_271" data-name="Group 271" clip-path="url(#clip-path-7)">
            <path id="Path_372" data-name="Path 372" d="M140.022,406.036s7.26,7.676.721,17.573A16.652,16.652,0,0,1,140.022,406.036Z" transform="translate(-137.826 -406.036)" fill="#acdad7" opacity="0.3"/>
          </g>
          <path id="Path_374" data-name="Path 374" d="M140.022,406.036s7.26,7.676.721,17.573A16.652,16.652,0,0,1,140.022,406.036Z" transform="translate(-137.826 -406.036)" fill="none" stroke="#263238" stroke-linecap="round" stroke-linejoin="round" stroke-width="1"/>
        </g>
      </g>
      <g id="Group_275" data-name="Group 275" transform="translate(253.689 335.733)">
        <path id="Path_375" data-name="Path 375" d="M288.629,420.615l102.285,4.2-9.975,35.206-125.815-4.8Z" transform="translate(-255.123 -420.615)" fill="#fff"/>
        <g id="Group_274" data-name="Group 274" clip-path="url(#clip-path-8)">
          <path id="Path_376" data-name="Path 376" d="M288.629,420.615l102.285,4.2-9.975,35.206-125.815-4.8Z" transform="translate(-255.123 -420.615)" fill="#0e3c54"/>
        </g>
        <path id="Path_378" data-name="Path 378" d="M288.629,420.615l102.285,4.2-9.975,35.206-125.815-4.8Z" transform="translate(-255.123 -420.615)" fill="none" stroke="#263238" stroke-linecap="round" stroke-linejoin="round" stroke-width="1"/>
      </g>
    </g>
    <g id="Logo" transform="translate(1107.604 5510.888)">
      <g id="Group_4" data-name="Group 4" transform="translate(36.772 0.781)">
        <g id="Group_2" data-name="Group 2">
          <g id="Group_1" data-name="Group 1">
            <path id="Path_1" data-name="Path 1" d="M1743.03,542.6q.093-.96.187-1.919.151-1.534.3-3.067a.485.485,0,0,1,.008-.072.406.406,0,0,0-.239-.55.422.422,0,0,1-.217-.355c-.114-.721-.226-1.441-.342-2.162a.576.576,0,0,1,.272-.592,2.109,2.109,0,0,1,.859-.351.438.438,0,0,1,.233.045c.255.109.505.227.783.354,0-.117,0-.215,0-.313a.264.264,0,0,1,.272-.287c.1-.011.209-.016.324-.024,0-.06.007-.112.007-.163,0-.615,0-1.229,0-1.844a.434.434,0,0,0-.049-.189.527.527,0,0,1,.615-.772.514.514,0,0,1,.356.5c0,.032,0,.065,0,.1.268,0,.526-.011.783,0,.215.012.428.053.641.084a.241.241,0,0,1,.225.21c.013.089.067.1.132.091.277-.026.554-.048.829-.086a.287.287,0,0,1,.315.114.266.266,0,0,1-.034.332c-.112.144-.22.29-.342.451.1.1.2.206.3.3a.284.284,0,0,1,.1.308.278.278,0,0,1-.248.187,4.428,4.428,0,0,1-1.788,0,.29.29,0,0,1-.254-.22.142.142,0,0,0-.106-.083c-.2,0-.393.018-.588.04a.136.136,0,0,0-.088.1,3.317,3.317,0,0,0,0,.446c0,.033.055.081.092.09a2.058,2.058,0,0,0,.244.02.252.252,0,0,1,.262.279c0,.1,0,.2,0,.322.284-.129.542-.25.8-.362a.4.4,0,0,1,.22-.035,2.212,2.212,0,0,1,.86.352.583.583,0,0,1,.262.621c-.116.681-.227,1.364-.322,2.048a.658.658,0,0,1-.393.542c-.1.047-.111.107-.1.2q.256,2.565.506,5.13c.005.052.007.1.012.163m-1.031-7.873a.219.219,0,0,1-.054.012c-.31-.034-.619-.071-.929-.1-.09-.009-.093-.062-.093-.129,0-.254,0-.509,0-.763,0-.122-.041-.163-.157-.159s-.211-.013-.317-.008-.138-.03-.138-.139c.005-.729,0-1.459,0-2.189V531.1l-.051-.021c-.027.038-.07.073-.077.114a1.754,1.754,0,0,0-.007.259q0,2.132,0,4.263c0,.195,0,.193-.195.2a6.465,6.465,0,0,0-1.771.279,2.622,2.622,0,0,0-.527.279c-.043.027-.053.108-.078.164a1.637,1.637,0,0,1,.233-.225,1.194,1.194,0,0,1,.3-.126,5.486,5.486,0,0,1,1.393-.2c.208-.007.418,0,.64,0,0,.067,0,.114,0,.161,0,.725,0,1.45,0,2.175,0,.134-.04.175-.17.2a1.283,1.283,0,0,0-1.078,1.2c.012.869.046,1.737.067,2.606,0,.1.039.12.13.119.509,0,1.018-.005,1.526,0,.121,0,.155-.036.154-.154-.005-.831-.005-1.661-.006-2.492a.9.9,0,0,0-.363-.749,4.625,4.625,0,0,0-.467-.282c.069,0,.134-.014.2-.014a1.12,1.12,0,0,1,1.179,1.137c-.03.8,0,1.6-.008,2.405,0,.111.027.15.144.148.374-.007.749-.005,1.123,0,.106,0,.143-.023.131-.138-.172-1.724-.339-3.448-.512-5.173a.321.321,0,0,0-.1-.193,2.042,2.042,0,0,0-.838-.458c-.305-.076-.615-.136-.916-.2,0,0,0-.006.01-.006a3.6,3.6,0,0,1,1.983.434.189.189,0,0,0,.294-.071c.077-.125-.027-.18-.107-.239a.724.724,0,0,0-.113-.063,4.056,4.056,0,0,0-1.286-.349c-.2-.027-.4-.048-.6-.072a5.7,5.7,0,0,1,2.186.324.209.209,0,0,0,.024-.046c.1-.63.2-1.26.295-1.891a.3.3,0,0,0-.083-.217,1.7,1.7,0,0,0-.84-.387C1747.8,534.114,1747.747,534.416,1747.7,534.726Zm-3.779-.938c.046.286.1.538.124.793.014.148.07.164.2.143.212-.035.427-.051.641-.075.046-.005.092-.013.139-.02l.022-.04c-.31.043-.33-.154-.346-.358a.15.15,0,0,0-.055-.108C1744.41,534.011,1744.177,533.907,1743.917,533.788Zm-.7,8.731c.11.032.17.021.173-.1s.02-.258.031-.388q.153-1.772.3-3.544c.027-.317.051-.634.076-.951l-.027,0Zm.064-6.075h.04a.945.945,0,0,0,0-.128c-.083-.608-.158-1.218-.258-1.823a.344.344,0,0,1,.158-.379,1.9,1.9,0,0,1,.237-.136c.09-.045.183-.082.275-.123a1.175,1.175,0,0,0-.641.233.365.365,0,0,0-.156.377c.03.165.05.332.08.5Q1743.145,535.7,1743.281,536.444Zm2.86-5.587a.266.266,0,0,0-.254-.275.122.122,0,0,0-.144.136.262.262,0,0,0,.255.259C1746.089,530.978,1746.145,530.941,1746.141,530.857Z" transform="translate(-1742.722 -530.314)" fill="#0e3c54"/>
            <path id="Path_2" data-name="Path 2" d="M1768.536,561.613c.05-.31.1-.612.151-.933a1.7,1.7,0,0,1,.839.387.3.3,0,0,1,.083.217c-.091.632-.194,1.261-.295,1.891a.191.191,0,0,1-.023.046,5.708,5.708,0,0,0-2.187-.324c.2.024.4.045.6.072a4.058,4.058,0,0,1,1.286.349.707.707,0,0,1,.113.063c.08.059.184.114.107.239a.19.19,0,0,1-.294.071,3.6,3.6,0,0,0-1.982-.434c-.007,0-.013.008-.01.006.3.065.61.125.916.2a2.04,2.04,0,0,1,.838.458.323.323,0,0,1,.1.193c.173,1.724.34,3.448.512,5.172.011.115-.026.139-.131.138-.375-.005-.749-.007-1.123,0-.118,0-.145-.037-.144-.148,0-.8-.022-1.6.008-2.405a1.12,1.12,0,0,0-1.179-1.137c-.065,0-.13.009-.2.014a4.634,4.634,0,0,1,.467.282.907.907,0,0,1,.363.749c0,.831,0,1.661.006,2.492,0,.119-.034.156-.155.154-.509-.006-1.018,0-1.526,0-.091,0-.127-.023-.13-.119-.021-.869-.055-1.737-.067-2.606a1.282,1.282,0,0,1,1.078-1.2c.13-.021.172-.062.17-.2-.007-.725,0-1.45,0-2.175v-.161c-.222,0-.431-.006-.639,0a5.489,5.489,0,0,0-1.393.2,1.2,1.2,0,0,0-.3.126,1.64,1.64,0,0,0-.233.225c.025-.056.034-.137.078-.164a2.611,2.611,0,0,1,.527-.279,6.457,6.457,0,0,1,1.771-.279c.2-.008.2-.006.195-.2q0-2.131,0-4.263a1.722,1.722,0,0,1,.007-.259c.006-.041.05-.076.077-.113l.051.021v.151c0,.73,0,1.459,0,2.189,0,.109.031.144.138.139s.211.011.316.008.161.038.157.159c-.009.254,0,.509,0,.763,0,.067,0,.12.092.129.31.031.62.068.93.1A.217.217,0,0,0,1768.536,561.613Z" transform="translate(-1763.561 -557.202)" fill="#fff"/>
            <path id="Path_3" data-name="Path 3" d="M1786.093,656.344c.26.119.493.223.723.334a.148.148,0,0,1,.055.108c.016.2.036.4.346.358l-.021.04c-.046.007-.092.015-.139.02-.214.024-.429.04-.64.076-.129.021-.185.005-.2-.143C1786.192,656.882,1786.139,656.629,1786.093,656.344Z" transform="translate(-1784.897 -652.87)" fill="#fff"/>
            <path id="Path_4" data-name="Path 4" d="M1760.666,797.228q.28-2.495.559-4.984l.027,0c-.025.317-.049.634-.076.951q-.152,1.772-.3,3.544c-.011.129-.028.258-.031.387S1760.776,797.261,1760.666,797.228Z" transform="translate(-1760.171 -785.024)" fill="#fff"/>
            <path id="Path_5" data-name="Path 5" d="M1750.513,661.347c-.089-.494-.18-.988-.268-1.482-.029-.165-.05-.332-.08-.5a.365.365,0,0,1,.157-.377,1.173,1.173,0,0,1,.64-.232c-.092.041-.185.078-.275.123a1.911,1.911,0,0,0-.237.136.344.344,0,0,0-.158.379c.1.606.175,1.215.258,1.823a1.009,1.009,0,0,1,0,.128Z" transform="translate(-1749.954 -655.217)" fill="#fff"/>
            <path id="Path_6" data-name="Path 6" d="M1852.733,540.3c0,.084-.052.121-.143.121a.261.261,0,0,1-.255-.26.122.122,0,0,1,.143-.136A.266.266,0,0,1,1852.733,540.3Z" transform="translate(-1849.314 -539.753)" fill="#fff"/>
          </g>
          <path id="Path_7" data-name="Path 7" d="M1754.848,640.039c-.012-.106.08-.182.161-.239a1.844,1.844,0,0,1,.411-.2,1.7,1.7,0,0,0,.19-.072.633.633,0,0,0,.1-.056l.122.792a.249.249,0,0,0,.05.134c.051.054.13.013.191,0,.09-.016.182-.018.273-.029s.192-.025.29-.033c.071-.006.152,0,.2-.061-.009.013-.079,0-.094,0a.277.277,0,0,1-.227-.191c-.027-.086,0-.194-.063-.265l.221-.2c0-.2-.069-.565.224-.593l.374-.031.1,2.608a3.75,3.75,0,0,0-2.247.671Z" transform="translate(-1754.512 -635.993)" fill="#e49a00"/>
          <path id="Path_8" data-name="Path 8" d="M1766.729,739.138l0,2.335s.019.15-.17.2a1.265,1.265,0,0,0-1.074,1.091l.036,1.742-1.14-.779.264-3.133s-.179-.818-.489-.9c0,0,.093-.1.171-.176a.884.884,0,0,1,.24-.134,4.428,4.428,0,0,1,.966-.2A6.274,6.274,0,0,1,1766.729,739.138Z" transform="translate(-1763.569 -733.369)" fill="#e49a00"/>
        </g>
        <path id="Path_9" data-name="Path 9" d="M1887.356,567.217c0-.048.468-.06.5-.058a1.461,1.461,0,0,1,.485.1c.186.074.328.257.527.29a.584.584,0,0,0,.267-.03,1.469,1.469,0,0,0,.138-.072.142.142,0,0,1,.07-.018c.048.006,0,.062-.011.08-.021.037-.041.075-.06.113a.442.442,0,0,0-.042.359.179.179,0,0,1,0,.169.494.494,0,0,1-.236.132,1.4,1.4,0,0,1-.659.088,1.031,1.031,0,0,1-.315-.055c-.095-.043-.1-.107-.161-.187-.095-.129-.495-.052-.492.124Z" transform="translate(-1883.369 -566.143)" fill="#fff"/>
        <g id="Group_3" data-name="Group 3" transform="translate(4.645 4.47)">
          <circle id="Ellipse_1" data-name="Ellipse 1" cx="0.319" cy="0.319" r="0.319" fill="#0e3c54"/>
          <circle id="Ellipse_2" data-name="Ellipse 2" cx="0.235" cy="0.235" r="0.235" transform="translate(0.717)" fill="#0e3c54"/>
          <circle id="Ellipse_3" data-name="Ellipse 3" cx="0.154" cy="0.154" r="0.154" transform="translate(0.563 0.638)" fill="#0e3c54"/>
        </g>
        <path id="Path_10" data-name="Path 10" d="M1755.772,656.344l-.186.093a2.327,2.327,0,0,0-.572.284.238.238,0,0,0-.1.186l.118.983.086.707.067.547.077-.07a3.312,3.312,0,0,1,.386-.246l-.352.081-.288-1.876a.263.263,0,0,1,.16-.278Z" transform="translate(-1754.577 -652.87)" fill="#cd8800"/>
        <path id="Path_11" data-name="Path 11" d="M1813.127,640.478l-.221.2.036.08s-.022.426.348.377c-.045.006-.133-.061-.165-.085a.311.311,0,0,1-.123-.181c-.009-.039,0-.079,0-.116s-.027-.043-.048-.064l.208-.184.011-.221c.006-.11-.012-.246.08-.326a.328.328,0,0,1,.179-.082.333.333,0,0,0-.222.067s-.094.074-.087.3Z" transform="translate(-1810.971 -636.858)" fill="#cd8800"/>
        <path id="Path_12" data-name="Path 12" d="M1764.4,739.833a3.908,3.908,0,0,1,.339.734,2.044,2.044,0,0,1,.025.888l-.068.938-.11,1.512,0,.062-.074-.05.092-1.111.154-1.822a1.41,1.41,0,0,0-.154-.732.868.868,0,0,0-.316-.377.942.942,0,0,1,.54-.344,4.637,4.637,0,0,1,.536-.125,8.259,8.259,0,0,1,1.49-.074S1764.661,739.509,1764.4,739.833Z" transform="translate(-1763.692 -733.562)" fill="#cd8800"/>
      </g>
      <g id="Group_11" data-name="Group 11" transform="translate(0 0)">
        <g id="Group_6" data-name="Group 6" transform="translate(10.282 5.498)">
          <path id="Path_13" data-name="Path 13" d="M843.391,736.555c-.133.018-.252.027-.367.052a7.32,7.32,0,0,1-3.226-.079,7.912,7.912,0,0,1-4.821-3.017,4.308,4.308,0,0,1-.856-2.413c-.876.223-1.708.455-2.552.638-.336.073-.395.228-.339.522a4.828,4.828,0,0,0,1.059,2.267,10.144,10.144,0,0,0,8.375,3.548,1.548,1.548,0,0,1,.454.139c-.149.066-.3.134-.446.2a.211.211,0,0,1-.072,0,11.257,11.257,0,0,1-5.961-1.443,2.021,2.021,0,0,0-.915-.236c-1.2-.014-3.569-.01-5.388-.005a19.645,19.645,0,0,0-.578-4.471,4.732,4.732,0,0,0-1-2.1,1.13,1.13,0,0,0-1.749-.075,2.593,2.593,0,0,0-.609.8c-.349.817-.637,1.659-.95,2.491-.026.068-.061.132-.091.2l-.08-.016v-2.3l-1.505.173a1.312,1.312,0,0,0-.022.172q.073,2.26.147,4.519a1.91,1.91,0,0,1,0,.394c-.028.153-.188.164-.314.152a2.743,2.743,0,0,1-.385-.143c-.15-.038-.773-.19-.869.011.1-.2.176-.507.249-.666a3.28,3.28,0,0,0-2.057-4.653,4.144,4.144,0,0,0-4.679,2.347,3.291,3.291,0,0,0,2.472,4.781,1.815,1.815,0,0,1,.242.081l-6.581,5.475,2.869,2.85c.009-.012.028-.043.05-.072l4.384-5.657q.537-.692,1.074-1.384.279-.358.559-.716c.127-.161.325-.473.538-.521s.212.109.212.261v1.33H821c0-.007,0-.015,0-.022s.018.015.028.022h22.422v-3.132ZM817.408,735.5a.793.793,0,0,1-.812-.748.68.68,0,0,1,.715-.653.8.8,0,0,1,.794.726A.688.688,0,0,1,817.408,735.5Zm8.518-1.889q-.378,1.111-.759,2.22-.193.561-.387,1.121c-.062.18-.127.359-.185.541-.039.12-.069.369-.218.407a.159.159,0,0,1-.176-.134.309.309,0,0,1,0-.128,1.012,1.012,0,0,1,.034-.113l.77-2.227.389-1.125.194-.563c.038-.111.078-.281.236-.26a.144.144,0,0,1,.119.109A.286.286,0,0,1,825.926,733.609Z" transform="translate(-809.195 -728.925)" fill="#0e3c54"/>
          <g id="Group_5" data-name="Group 5">
            <path id="Path_14" data-name="Path 14" d="M815.921,708.286c-.236.031-.47.061-.7.106-.107.021-.216.04-.324.054.2-.024-.022,0-.051,0l-.195.016a7.832,7.832,0,0,1-1.356-.035c-.209-.021.112.02-.018,0l-.161-.025q-.161-.027-.321-.059c-.2-.042-.407-.091-.608-.145a10.111,10.111,0,0,1-1.018-.33c-.054-.021-.181-.1-.233-.093.011,0,.176.077.049.02l-.137-.061q-.237-.109-.468-.232a7.633,7.633,0,0,1-.861-.538l-.12-.088c-.095-.07.044.021.04.031,0-.008-.17-.138-.193-.158q-.212-.179-.408-.373t-.351-.372q-.086-.1-.167-.2l-.082-.1q-.053-.068.041.054l-.063-.085a5.068,5.068,0,0,1-.337-.517c-.048-.085-.093-.171-.135-.259a.577.577,0,0,1-.066-.145q.061.146.028.064c-.01-.025-.02-.049-.029-.074a4.142,4.142,0,0,1-.18-.618c-.007-.036-.015-.071-.021-.107s-.013-.072-.018-.109q-.019-.131.006.043a.994.994,0,0,1-.027-.339.792.792,0,0,0-.989-.753c-.645.164-1.288.339-1.936.5a4.574,4.574,0,0,0-.966.272,1.081,1.081,0,0,0-.58.942,3.062,3.062,0,0,0,.16.9,6.249,6.249,0,0,0,.346.906,6.038,6.038,0,0,0,1.046,1.5,10.494,10.494,0,0,0,5.41,3.17,13.289,13.289,0,0,0,1.827.279q.447.038.9.047.222,0,.444,0a.605.605,0,0,0,.105,0c-.022.025-.157-.046-.038,0,.093.038.189.076.284.109l-.187-1.428c-.111.05-.225.1-.335.149-.225.109.4-.042.151-.053-.059,0-.12,0-.18,0q-.356.006-.712-.009-.322-.015-.643-.047c-.1-.01-.195-.016-.289-.034.214.039.018,0-.022,0l-.229-.037a11.065,11.065,0,0,1-1.294-.306q-.306-.092-.606-.2-.164-.06-.327-.125l-.109-.044q-.12-.05.024.011l-.108-.047c-.457-.2-.885-.465-1.346-.651a3.393,3.393,0,0,0-1.262-.194c-.752-.007-1.5-.007-2.255-.007q-1.423,0-2.846,0l.781.781a23.356,23.356,0,0,0-.258-2.965,12.375,12.375,0,0,0-.63-2.62,3.282,3.282,0,0,0-1.9-2.157,2.346,2.346,0,0,0-2.489,1.28,5.141,5.141,0,0,0-.368.825c-.1.241-.19.484-.281.728s-.18.488-.27.732l-.135.366c-.023.061-.046.122-.068.183q-.052.135.012-.027l-.048.1.882-.359-.081-.016.574.753v-2.3a.785.785,0,0,0-.781-.781l-1.5.173c-.31.036-.7.215-.754.574a3.108,3.108,0,0,0-.043.579q.009.266.017.532.017.532.035,1.063.034,1.03.067,2.06l.017.532c0,.082.006.164.01.247s-.034.278.02.073a.634.634,0,0,1,.389-.4q.214-.022.089-.021l.119.017q-.12-.039.043.024l-.094-.044q-.117-.051-.235-.1c-.036-.012-.071-.021-.107-.03-.582-.144-1.336-.214-1.694.385l1.35.789c.1-.214.176-.432.252-.655.01-.029.021-.058.031-.087.05-.157-.087.193-.014.031.06-.134.118-.271.169-.409a4.433,4.433,0,0,0,.24-1.147,4.178,4.178,0,0,0-.4-2.119,4.012,4.012,0,0,0-3.561-2.219,4.945,4.945,0,0,0-3.915,1.837,4.611,4.611,0,0,0-.906,4.165,3.865,3.865,0,0,0,1.227,1.871,4.415,4.415,0,0,0,1.144.671c.352.142.726.185,1.081.31l-.345-1.306-5.141,4.277-1.44,1.2a.788.788,0,0,0,0,1.1l2.869,2.85a.792.792,0,0,0,1.227-.158c.072-.107-.084.106-.01.007.033-.045.068-.088.1-.132l.164-.212.41-.529.737-.952,1.516-1.956q1.491-1.924,2.987-3.845c.079-.1.159-.2.236-.306.094-.127-.093.111-.022.027.032-.037.062-.075.1-.111.018-.018.08-.06.086-.082l-.087.07c.055-.029.049-.028-.02.006l-.056.026q-.776-.055-.78-.6c0,.036,0,.075,0,.111,0,.443,0,.887,0,1.33a.793.793,0,0,0,.781.781h1.34a.787.787,0,0,0,.781-.781l0-.022-1.334.552a.973.973,0,0,0,.609.251H813.2c.912,0,1.826.018,2.738,0h.038a.793.793,0,0,0,.781-.781v-2.841a4.008,4.008,0,0,0-.086-.8.786.786,0,0,0-.961-.546.8.8,0,0,0-.546.961c.014.069.022.141.041.208.027.1-.008-.116-.01-.113s0,.031,0,.041c0,.065,0,.131,0,.2v2.89l.781-.781H796.31c-.9,0-1.812-.027-2.715,0h-.038l.552.229-.027-.022a.8.8,0,0,0-.854-.162.771.771,0,0,0-.48.714l0,.022.781-.781h-1.34l.781.781c0-.443,0-.887,0-1.33a1.1,1.1,0,0,0-.209-.7.942.942,0,0,0-1.029-.3,1.334,1.334,0,0,0-.625.426c-.086.1-.164.205-.242.309l-.053.071q-.066.087.035-.044l-.08.1q-.4.51-.8,1.023-1.672,2.151-3.338,4.306l-.942,1.216c-.33.425-.692.841-.992,1.288l1.227-.158-2.869-2.85v1.1l5.105-4.247,1.476-1.228a.771.771,0,0,0,.2-.76.807.807,0,0,0-.546-.546c-.285-.1-.585-.136-.873-.233-.069-.023-.138-.057-.208-.077.225.066.036.013-.031-.02a3.218,3.218,0,0,1-.383-.224l-.068-.048c-.129-.087.146.122.027.022-.042-.035-.084-.069-.125-.106a3.108,3.108,0,0,1-.308-.319c-.017-.02-.033-.043-.051-.062.146.156.073.1.038.046s-.069-.1-.1-.149a3.893,3.893,0,0,1-.2-.367c-.077-.156.066.174-.007-.016-.024-.062-.046-.126-.066-.189a3.381,3.381,0,0,1-.1-.393c-.006-.033-.01-.067-.017-.1-.021-.1.023.217.009.066-.006-.069-.013-.137-.017-.206a3.55,3.55,0,0,1,0-.418c0-.071.018-.141.02-.212,0,.008-.033.207-.01.08.006-.035.012-.071.019-.106a3.883,3.883,0,0,1,.113-.447q.031-.1.066-.191a.83.83,0,0,0,.041-.106c-.036.162-.052.118-.025.06a4.8,4.8,0,0,1,.232-.443q.055-.091.115-.179c.027-.039.055-.077.081-.115s.081-.06-.037.046c.113-.1.2-.242.309-.351s.226-.212.345-.313c.1-.084-.036.029-.049.036a1.037,1.037,0,0,0,.112-.083q.094-.067.192-.129a4.281,4.281,0,0,1,.4-.226,1.307,1.307,0,0,0,.168-.078c-.159.109-.088.036-.016.009l.13-.048a4.111,4.111,0,0,1,.419-.122c.067-.016.135-.03.2-.042l.113-.019c.061-.009.03-.005-.094.012l.092-.01a3.905,3.905,0,0,1,.413-.018c.077,0,.154,0,.23.009l.092.008.092.01q-.185-.026-.093-.012a4.32,4.32,0,0,1,.432.093q.109.031.216.069l.084.031c.146.055-.153-.073-.023-.009a3.774,3.774,0,0,1,.382.208c.054.034.1.076.159.109.088.054-.156-.129-.04-.031.032.027.065.054.1.082a3.1,3.1,0,0,1,.283.283l.068.08c.081.094-.04-.051-.044-.059.041.072.1.137.144.207a3.8,3.8,0,0,1,.219.407c.054.113-.027-.062-.029-.07.011.046.036.093.052.139q.039.11.07.223t.054.229c.007.035.014.07.02.106.012.072,0,.18,0-.037,0,.16.026.319.022.481,0,.089-.008.178-.017.267,0,.03-.007.06-.01.089.022-.241.011-.087,0-.029a3.681,3.681,0,0,1-.124.493,2.263,2.263,0,0,0-.1.268c.025-.142.051-.116.021-.054-.043.091-.081.184-.116.278s-.058.166-.086.25l-.034.1c-.011.032-.023.064-.035.1q.073-.165.022-.054a.782.782,0,0,0,1.35.789.664.664,0,0,1-.216.218q-.224.084-.11.052c-.252.062-.134.014-.044.015.05,0,.1.009.148.01-.259-.007-.1-.014-.026,0s.147.029.219.048c.186.05-.124-.073.021,0a1.641,1.641,0,0,0,.33.134,1.052,1.052,0,0,0,1.314-.647,3.869,3.869,0,0,0,.027-1.109q-.034-1.063-.07-2.127-.017-.531-.035-1.063-.009-.266-.017-.531c0-.089-.007-.177-.008-.266,0-.256-.034.142-.008-.031l-.753.574,1.5-.173-.781-.781v2.3a.791.791,0,0,0,.574.753l.08.016a.8.8,0,0,0,.882-.359c.2-.418.348-.863.508-1.3.149-.407.3-.813.463-1.215l.062-.15.012-.03q.052-.124,0,.007a.7.7,0,0,1,.13-.242c.008-.012.065-.091.064-.093.011.017-.1.123,0,0,.067-.08.139-.155.212-.229.033-.033.066-.066.1-.1l.021-.019q.1-.083-.03.018c.022,0,.22-.135.22-.131s-.186.057-.052.025c.037-.009.076-.019.113-.03.1-.03-.207.007-.049.008.043,0,.093.006.136,0-.174.012-.133-.021-.05,0,.022.006.093.041.111.035-.066.022-.143-.075-.055-.02.042.026.086.052.129.077.092.055,0-.026-.033-.027.025,0,.083.075.1.094a2.07,2.07,0,0,0,.208.236c-.031.006-.091-.124,0,0,.027.038.053.077.078.117q.068.106.128.216t.113.223c.018.037.108.2.011.017a1.473,1.473,0,0,1,.062.155,12.4,12.4,0,0,1,.58,2.377q.028.175.054.351c.006.045.032.192,0,.016.01.063.017.128.024.192q.043.351.073.7c.043.492.067.985.079,1.478a.794.794,0,0,0,.781.781c1.648,0,3.3-.011,4.944,0l.411,0c.048,0,.1,0,.143.005.187,0-.169-.043.016,0,.112.026.22.055.33.089.177.055-.139-.083.018.009.05.03.1.055.153.083q.132.071.265.139.342.174.7.327a12.1,12.1,0,0,0,2.739.845,12.656,12.656,0,0,0,1.658.181q.386.016.773,0c.052,0,.105,0,.157,0a1.263,1.263,0,0,0,.485-.136c.13-.057.26-.115.39-.173a.774.774,0,0,0,.373-.779.8.8,0,0,0-.56-.65,2.625,2.625,0,0,0-.4-.136,3.062,3.062,0,0,0-.553-.029q-.375,0-.749-.021-.354-.02-.708-.058l-.174-.02c-.2-.025.127.019-.015,0-.123-.019-.245-.037-.367-.059a10.679,10.679,0,0,1-1.374-.336q-.322-.1-.636-.226c-.052-.021-.1-.044-.156-.063.213.08.038.016-.012-.007q-.165-.073-.328-.152a9.328,9.328,0,0,1-1.214-.711q-.142-.1-.28-.2l-.059-.045c-.069-.051.062.048.06.046-.051-.043-.1-.083-.156-.125q-.285-.232-.552-.484t-.529-.538q-.126-.137-.247-.279c-.042-.049-.082-.1-.123-.148-.057-.068.036.048.037.049a.629.629,0,0,1-.081-.111,4.66,4.66,0,0,1-.4-.683.927.927,0,0,0-.068-.149c.08.108.04.1.016.035l-.029-.077q-.073-.193-.13-.392c-.041-.143-.076-.287-.1-.433a.627.627,0,0,0-.018-.1c.006.015.014.2.017.1,0-.118-.022.115-.021.111.023-.1-.051.1-.051.105.047-.09-.074.093-.071.09s-.17.116-.081.067c-.206.113-.077.032.009.012.174-.042.349-.078.523-.12.679-.162,1.352-.346,2.028-.518l-.989-.753a5.18,5.18,0,0,0,.78,2.54,7.513,7.513,0,0,0,1.6,1.8,9.561,9.561,0,0,0,4.38,1.949,8.641,8.641,0,0,0,1.755.142,8.37,8.37,0,0,0,.92-.089c.13-.019.26-.041.389-.067a.96.96,0,0,0,.165-.031q-.184.024-.052.008l.111-.014a.859.859,0,0,0,.553-.229.794.794,0,0,0,.229-.553C816.685,708.689,816.355,708.23,815.921,708.286Z" transform="translate(-781.725 -701.437)" fill="#0e3c54"/>
            <path id="Path_15" data-name="Path 15" d="M1023.464,862.11a.9.9,0,0,1-.119-.007l.208.028a.855.855,0,0,1-.2-.056l.187.079a.867.867,0,0,1-.188-.109l.158.122a.833.833,0,0,1-.151-.15l.122.158a.789.789,0,0,1-.1-.166l.079.187a.731.731,0,0,1-.048-.176l.028.208a.687.687,0,0,1,0-.165l-.028.208a.638.638,0,0,1,.041-.154l-.079.186a.657.657,0,0,1,.083-.143l-.122.158a.7.7,0,0,1,.118-.119l-.158.122a.759.759,0,0,1,.165-.1l-.187.079a.806.806,0,0,1,.193-.052l-.208.028a.825.825,0,0,1,.21,0l-.208-.028a.839.839,0,0,1,.209.058l-.187-.079a.884.884,0,0,1,.185.108l-.158-.122a.863.863,0,0,1,.15.149l-.122-.158a.78.78,0,0,1,.1.17l-.079-.187a.666.666,0,0,1,.045.161l-.028-.208a.644.644,0,0,1,0,.167l.028-.208a.662.662,0,0,1-.043.158l.079-.187a.689.689,0,0,1-.086.148l.122-.158a.715.715,0,0,1-.129.128l.158-.122a.753.753,0,0,1-.161.093l.187-.079a.761.761,0,0,1-.185.05l.208-.028c-.03,0-.059.006-.089.006a.8.8,0,0,0-.781.781l.028.208a.781.781,0,0,0,.2.345l.158.122a.777.777,0,0,0,.394.107,2.316,2.316,0,0,0,.316-.037.73.73,0,0,0,.121-.03,1.439,1.439,0,0,0,.384-.182,2.068,2.068,0,0,0,.234-.188,1.952,1.952,0,0,0,.193-.241.665.665,0,0,0,.057-.092,1.839,1.839,0,0,0,.119-.287,1.788,1.788,0,0,0,.049-.306.667.667,0,0,0,0-.121,1.906,1.906,0,0,0-.043-.309,1.784,1.784,0,0,0-.113-.293,1.5,1.5,0,0,0-.24-.35,1.6,1.6,0,0,0-.33-.277.864.864,0,0,0-.1-.059,2.278,2.278,0,0,0-.3-.123.807.807,0,0,0-.115-.029,2.119,2.119,0,0,0-.327-.039.86.86,0,0,0-.11.006,1.418,1.418,0,0,0-.606.164.742.742,0,0,0-.1.056,2.115,2.115,0,0,0-.237.181.669.669,0,0,0-.08.082,2.031,2.031,0,0,0-.177.237,1.853,1.853,0,0,0-.124.281.632.632,0,0,0-.029.1,1.821,1.821,0,0,0-.039.316,1.922,1.922,0,0,0,.035.309.706.706,0,0,0,.027.116,1.418,1.418,0,0,0,.195.4,2,2,0,0,0,.2.248,2.2,2.2,0,0,0,.251.2.834.834,0,0,0,.113.068,2.21,2.21,0,0,0,.3.126.84.84,0,0,0,.132.031,2.129,2.129,0,0,0,.336.037.8.8,0,0,0,.781-.781l-.028-.208a.781.781,0,0,0-.2-.345l-.158-.122A.777.777,0,0,0,1023.464,862.11Z" transform="translate(-1015.25 -856.319)" fill="#0e3c54"/>
            <path id="Path_16" data-name="Path 16" d="M1299.342,834.323q-.289.851-.58,1.7t-.582,1.685c-.054.156-.11.312-.161.47-.031.094-.047.192-.085.283l.079-.187a.414.414,0,0,1-.045.081l.122-.158a.237.237,0,0,1-.04.041l.158-.122a.184.184,0,0,1-.036.021l.187-.079-.03.009.208-.028h-.029l.208.028a.161.161,0,0,1-.036-.009l.187.079a.206.206,0,0,1-.033-.02l.158.122a.212.212,0,0,1-.035-.035l.122.158a.271.271,0,0,1-.025-.044l.079.187a.255.255,0,0,1-.011-.041l.028.208a.33.33,0,0,1,0-.077l-.027.208a1.042,1.042,0,0,1,.058-.2l.074-.215.144-.417.29-.84.579-1.673.162-.469c.043-.123.079-.25.13-.37l-.079.187a.4.4,0,0,1,.041-.073l-.122.158a.234.234,0,0,1,.035-.036l-.158.122a.189.189,0,0,1,.031-.018l-.187.079a.172.172,0,0,1,.036-.011l-.208.028a.2.2,0,0,1,.051,0l-.208-.028a.178.178,0,0,1,.037.01l-.187-.079a.2.2,0,0,1,.032.02l-.158-.122a.223.223,0,0,1,.026.027l-.122-.158a.188.188,0,0,1,.018.033l-.079-.187a.21.21,0,0,1,.008.031l-.028-.208a.245.245,0,0,1,0,.051l.028-.208a.577.577,0,0,1-.024.088.592.592,0,0,0-.014.312.581.581,0,0,0,.092.291.874.874,0,0,0,.467.359l.208.028a.776.776,0,0,0,.394-.107l.158-.122a.785.785,0,0,0,.2-.345.647.647,0,0,0,.019-.063c.01-.042.014-.089.019-.129a1.13,1.13,0,0,0,.016-.129.923.923,0,0,0-.129-.476.956.956,0,0,0-.147-.187,1.631,1.631,0,0,0-.165-.128l-.024-.016a.935.935,0,0,0-.466-.123,1.063,1.063,0,0,0-.24.031.873.873,0,0,0-.122.048.8.8,0,0,0-.3.2,1.224,1.224,0,0,0-.267.464c-.053.142-.1.287-.149.431-.059.169-.118.339-.176.508l-.714,2.065c-.12.346-.246.691-.359,1.04a1.207,1.207,0,0,0-.042.218.871.871,0,0,0-.016.155c0,.042.011.092.016.129a.916.916,0,0,0,.021.136.968.968,0,0,0,.651.657l.019,0h.009l.207.028h.029l.1-.014a.735.735,0,0,0,.114-.016.818.818,0,0,0,.322-.167.91.91,0,0,0,.241-.26.42.42,0,0,0,.039-.067,2.107,2.107,0,0,0,.128-.334c.013-.05.026-.1.042-.15.056-.173.117-.343.177-.515q.177-.508.352-1.017.356-1.034.708-2.07l.086-.253a.592.592,0,0,0,.014-.312.8.8,0,0,0-.56-.65l-.208-.028a.78.78,0,0,0-.394.107l-.158.122A.781.781,0,0,0,1299.342,834.323Z" transform="translate(-1283.364 -829.847)" fill="#0e3c54"/>
          </g>
        </g>
        <g id="Group_8" data-name="Group 8" transform="translate(0 0)">
          <path id="Path_17" data-name="Path 17" d="M448.185,544.994a6.96,6.96,0,0,0-.38-5.139l-.066-.149-2.918.873a3.535,3.535,0,0,1,.077.739c0,1.065-.727,1.484-1.648.959a3.167,3.167,0,0,1-1.55-1.874c-.122-1.283,2.5-3.1,3.36-3.713,1.04-.739,2.207-1.227,3.292-1.884.5-.3.932-.694,1.395-1.041.535-.4,1.066-.8,1.592-1.214.254-.2.857-.546.49-.932a1.746,1.746,0,0,0-.715-.288q-.47-.148-.943-.287c-.63-.186-1.263-.364-1.9-.523a3.484,3.484,0,0,0-1.312-.188,3.007,3.007,0,0,0-1.481.266c-.414.165-.81.372-1.144.54-.317.16-.625.33-.917.5a14.741,14.741,0,0,0-2.587,1.877,15.686,15.686,0,0,0-2.751,3.092,5.163,5.163,0,0,0-.9,3.619c.492,2.064,2.691,4.252,4.337,5.443a6.72,6.72,0,0,0,3.611,1.43A2.8,2.8,0,0,0,448.185,544.994Z" transform="translate(-436.322 -529.534)" fill="#0e3c54"/>
          <g id="Group_7" data-name="Group 7">
            <path id="Path_18" data-name="Path 18" d="M421.339,517.667a7.572,7.572,0,0,0,0-4.56,11.993,11.993,0,0,0-.521-1.33l-.122-.158a.585.585,0,0,0-.251-.162.76.76,0,0,0-.509-.039l-.986.295-1.571.47-.361.108a.8.8,0,0,0-.467.359.858.858,0,0,0-.079.6q.028.134.047.269l-.028-.208a2.941,2.941,0,0,1,.015.732l.028-.208a1.527,1.527,0,0,1-.1.381l.079-.187a1.086,1.086,0,0,1-.135.233l.122-.158a.9.9,0,0,1-.141.141l.158-.122a.834.834,0,0,1-.182.106l.187-.079a.9.9,0,0,1-.209.055l.208-.028a1.09,1.09,0,0,1-.271,0l.208.028a1.555,1.555,0,0,1-.381-.109l.187.079a3.006,3.006,0,0,1-.633-.391l.158.122a4.174,4.174,0,0,1-.733-.725l.122.158a2.369,2.369,0,0,1-.3-.5l.079.187a1.356,1.356,0,0,1-.092-.324l.028.208a1.048,1.048,0,0,1,0-.26l-.028.208a1.5,1.5,0,0,1,.105-.375l-.079.187a3.037,3.037,0,0,1,.4-.661l-.122.158a9.872,9.872,0,0,1,1.8-1.688l-.158.122c.5-.383,1.006-.76,1.537-1.092.869-.544,1.805-.968,2.687-1.49a15.12,15.12,0,0,0,1.526-1.123l-.158.122c.633-.489,1.275-.966,1.907-1.456l-.158.122a2.128,2.128,0,0,0,.943-1.064,1.138,1.138,0,0,0-.321-1.1,1.792,1.792,0,0,0-.771-.4c-.956-.267-1.9-.573-2.863-.82-.27-.069-.54-.145-.812-.2a4.7,4.7,0,0,0-.572-.086,2.585,2.585,0,0,0-.6.036h.415a2.963,2.963,0,0,0-.58-.041,4.058,4.058,0,0,0-.594.082,4.674,4.674,0,0,0-.825.268,18.189,18.189,0,0,0-1.681.815,16.615,16.615,0,0,0-2.934,2.015,18.255,18.255,0,0,0-2.347,2.39,10.539,10.539,0,0,0-1,1.441,7.6,7.6,0,0,0-.659,1.556,4.835,4.835,0,0,0-.212,1.67,5,5,0,0,0,.446,1.649,9.843,9.843,0,0,0,1.71,2.545,15.385,15.385,0,0,0,2.1,1.965,12.827,12.827,0,0,0,1.326.927,8.036,8.036,0,0,0,1.552.712,6.3,6.3,0,0,0,1.7.308,3.934,3.934,0,0,0,.633-.021,4.22,4.22,0,0,0,.768-.146,3.475,3.475,0,0,0,2.067-1.767,5.475,5.475,0,0,0,.305-.744.782.782,0,1,0-1.507-.415c-.037.112-.078.223-.123.331l.079-.187a3.366,3.366,0,0,1-.43.748l.122-.158a2.7,2.7,0,0,1-.465.467l.158-.122a2.6,2.6,0,0,1-.562.328l.187-.079a3.011,3.011,0,0,1-.764.2l.208-.028a4.467,4.467,0,0,1-1.142-.014l.208.028a5.893,5.893,0,0,1-1.5-.414l.187.079a9.356,9.356,0,0,1-2.032-1.234l.158.122a15.441,15.441,0,0,1-2.106-1.963q-.283-.319-.544-.656l.122.158a8.3,8.3,0,0,1-1.09-1.806l.079.187a4.172,4.172,0,0,1-.3-1.015l.028.208a3.537,3.537,0,0,1,.007-.929l-.028.208a5.623,5.623,0,0,1,.4-1.408l-.079.187a8.272,8.272,0,0,1,1.087-1.806l-.122.158a17.958,17.958,0,0,1,2.34-2.435q.366-.323.752-.622l-.158.122a17.44,17.44,0,0,1,2.8-1.723c.277-.14.555-.278.842-.4l-.187.079a4.3,4.3,0,0,1,1.049-.311l-.208.028a2.12,2.12,0,0,1,.521-.008l-.208-.028.236.032.237-.032-.208.028a1.915,1.915,0,0,1,.482.01l-.208-.028a8.328,8.328,0,0,1,.816.187q.43.108.858.225.863.237,1.718.5c.13.04.26.083.391.118a2.845,2.845,0,0,1,.357.11l-.187-.079a.81.81,0,0,1,.172.1l-.158-.122a.6.6,0,0,1,.076.077l-.122-.158a.479.479,0,0,1,.063.105l-.079-.187a.406.406,0,0,1,.018.069l-.028-.208a.364.364,0,0,1,0,.084l.028-.208a.432.432,0,0,1-.022.081l.079-.187a.616.616,0,0,1-.073.125l.122-.158a1.461,1.461,0,0,1-.261.249l.158-.122c-.255.2-.513.392-.768.589l.158-.122q-.52.4-1.045.794c-.375.282-.741.576-1.112.863l.158-.122a12.5,12.5,0,0,1-1.829,1.106c-.622.328-1.247.652-1.834,1.041-.333.22-.657.457-.977.7-.425.316-.844.641-1.242.99a7.931,7.931,0,0,0-1.01,1.03,4.634,4.634,0,0,0-.462.665,2.442,2.442,0,0,0-.265.683,1.884,1.884,0,0,0,.036.948,3.147,3.147,0,0,0,.571,1,4.052,4.052,0,0,0,.6.607,4.388,4.388,0,0,0,.774.542,1.884,1.884,0,0,0,1.952.016,1.81,1.81,0,0,0,.459-.468,1.866,1.866,0,0,0,.211-.45,2.49,2.49,0,0,0,.1-.55,2.7,2.7,0,0,0,0-.482,5.207,5.207,0,0,0-.1-.693l-.546.961.986-.295,1.571-.47.361-.108-.882-.359c.048.108.1.215.142.324l-.079-.187a8.153,8.153,0,0,1,.571,2.031l-.028-.208a6.654,6.654,0,0,1,.006,1.741l.028-.208a6.848,6.848,0,0,1-.272,1.192.782.782,0,1,0,1.507.415Z" transform="translate(-408.723 -501.999)" fill="#0e3c54"/>
          </g>
        </g>
        <g id="Group_10" data-name="Group 10" transform="translate(9.581 4.967)">
          <path id="Path_19" data-name="Path 19" d="M786.848,710.551a2.173,2.173,0,0,0-2.216,2.139,2.455,2.455,0,0,0,2.456,2.36,2.175,2.175,0,0,0,2.252-2.1A2.46,2.46,0,0,0,786.848,710.551Z" transform="translate(-783.85 -709.77)" fill="#0e3c54"/>
          <g id="Group_9" data-name="Group 9">
            <path id="Path_20" data-name="Path 20" d="M759.285,682.19a3.59,3.59,0,0,0-.576.056,2.235,2.235,0,0,0-.354.086c-.058.019-.114.041-.17.064-.113.048-.228.093-.337.149a2.222,2.222,0,0,0-.3.186,3.54,3.54,0,0,0-.416.344,3.455,3.455,0,0,0-.344.42,2.125,2.125,0,0,0-.177.294,3.3,3.3,0,0,0-.207.507,3.247,3.247,0,0,0-.1.546,2.085,2.085,0,0,0-.014.363,3.492,3.492,0,0,0,.074.561,2.26,2.26,0,0,0,.1.337,2.928,2.928,0,0,0,.544.948,3.3,3.3,0,0,0,1.484,1.026,2.491,2.491,0,0,0,.35.1c.127.025.256.041.384.057.063.008.126.014.19.017a2.452,2.452,0,0,0,.381-.012,3.768,3.768,0,0,0,.563-.094,3.666,3.666,0,0,0,.519-.2,2.3,2.3,0,0,0,.313-.167q.075-.048.146-.1c.1-.074.2-.147.288-.228a2.18,2.18,0,0,0,.237-.245,3.352,3.352,0,0,0,.316-.436,3.273,3.273,0,0,0,.223-.489,2,2,0,0,0,.094-.334,3.216,3.216,0,0,0,.062-.557,3.65,3.65,0,0,0-.051-.554,2.284,2.284,0,0,0-.078-.349,3.7,3.7,0,0,0-.2-.5,2.366,2.366,0,0,0-.172-.3c-.067-.1-.143-.195-.217-.289q-.054-.069-.113-.135a2.485,2.485,0,0,0-.25-.242,3.323,3.323,0,0,0-1.625-.772,4.219,4.219,0,0,0-.564-.054.868.868,0,0,0-.552.229.87.87,0,0,0-.229.552l.028.208a.781.781,0,0,0,.2.345l.158.122a.776.776,0,0,0,.394.107,2.715,2.715,0,0,1,.332.023l-.208-.028a2.615,2.615,0,0,1,.656.178l-.187-.079a2.575,2.575,0,0,1,.57.333l-.158-.122a2.506,2.506,0,0,1,.441.44l-.122-.158a2.408,2.408,0,0,1,.313.535l-.079-.187a2.325,2.325,0,0,1,.158.58l-.028-.208a2.187,2.187,0,0,1,0,.577l.028-.208a2.025,2.025,0,0,1-.138.5l.079-.187a2.085,2.085,0,0,1-.27.461l.122-.158a2.212,2.212,0,0,1-.388.386l.158-.122a2.315,2.315,0,0,1-.507.3l.187-.079a2.383,2.383,0,0,1-.605.164l.208-.028a2.468,2.468,0,0,1-.649,0l.208.028a2.519,2.519,0,0,1-.626-.171l.187.079a2.575,2.575,0,0,1-.566-.33l.158.122a2.545,2.545,0,0,1-.452-.451l.122.158a2.424,2.424,0,0,1-.312-.531l.079.187a2.287,2.287,0,0,1-.157-.571l.028.208a2.147,2.147,0,0,1,0-.565l-.028.208a2.092,2.092,0,0,1,.145-.53l-.079.187a2.138,2.138,0,0,1,.274-.467l-.122.158a2.224,2.224,0,0,1,.4-.4l-.158.122a2.272,2.272,0,0,1,.49-.287l-.187.079a2.265,2.265,0,0,1,.571-.157l-.208.028a2.37,2.37,0,0,1,.321-.021.8.8,0,0,0,.782-.781l-.028-.208a.781.781,0,0,0-.2-.345l-.158-.122A.778.778,0,0,0,759.285,682.19Z" transform="translate(-756.287 -682.19)" fill="#0e3c54"/>
          </g>
        </g>
      </g>
      <path id="Path_21" data-name="Path 21" d="M800.108,703.4a2.175,2.175,0,0,1-2.252,2.1,2.455,2.455,0,0,1-2.456-2.36A2.173,2.173,0,0,1,797.616,701,2.46,2.46,0,0,1,800.108,703.4Z" transform="translate(-784.741 -695.516)" fill="#e49a00"/>
      <g id="Group_12" data-name="Group 12" transform="translate(12.419 19.896)">
        <circle id="Ellipse_4" data-name="Ellipse 4" cx="0.319" cy="0.319" r="0.319" transform="translate(0)" fill="#fff"/>
        <circle id="Ellipse_5" data-name="Ellipse 5" cx="0.235" cy="0.235" r="0.235" transform="translate(0.718)" fill="#fff"/>
        <circle id="Ellipse_6" data-name="Ellipse 6" cx="0.154" cy="0.154" r="0.154" transform="translate(0.563 0.638)" fill="#fff"/>
      </g>
      <path id="Path_22" data-name="Path 22" d="M1344.338,750.13c.175-.271.26-.589.459-.857a1.455,1.455,0,0,1,1.423-.683c.352.07.842.243.759.681a.428.428,0,0,1-.644.246,1.268,1.268,0,0,0-1.082-.057A1.6,1.6,0,0,0,1344.338,750.13Z" transform="translate(-1318.547 -741.771)" fill="#fff"/>
      <g id="Group_13" data-name="Group 13" transform="translate(29.455 4.205)">
        <path id="Path_23" data-name="Path 23" d="M1477.591,658.573l-.333-.4,1.137-1.037c-.135-.119-.259-.216-.369-.328a1.3,1.3,0,0,1-.166-1.487,1.284,1.284,0,0,1,1.289-.757,1.064,1.064,0,0,1,.882,1.288,1.933,1.933,0,0,1-.476.954C1478.949,657.42,1478.276,657.966,1477.591,658.573Zm.645-2.55c0,.014,0,.028,0,.041.047.517.572.613.958.363a.733.733,0,0,0-.045-1.229C1478.609,654.85,1478.219,655.549,1478.235,656.024Z" transform="translate(-1477.258 -654.557)" fill="#0e3c54"/>
        <path id="Path_24" data-name="Path 24" d="M1524.177,659.9c-.049-.1-.067-.207-.125-.3a.491.491,0,0,0-.455-.277c-.12.012-.291.053-.278.2a.144.144,0,0,0,.208.1.429.429,0,0,1,.366.017A.541.541,0,0,1,1524.177,659.9Z" transform="translate(-1522.048 -659.183)" fill="#fff"/>
      </g>
      <path id="Path_25" data-name="Path 25" d="M2003.305,969.172s0,.081-.333.119" transform="translate(-1959.026 -956.294)" fill="#cd8800"/>
      <g id="Group_20" data-name="Group 20" transform="translate(1.079 0.5)">
        <g id="Group_14" data-name="Group 14" transform="translate(10.278 5.513)">
          <path id="Path_26" data-name="Path 26" d="M854.158,727c-.133.018-.251.027-.367.051a7.32,7.32,0,0,1-3.226-.079,7.913,7.913,0,0,1-4.822-3.017,4.31,4.31,0,0,1-.855-2.413c-.876.222-1.708.454-2.552.638-.336.073-.395.227-.34.522a4.83,4.83,0,0,0,1.059,2.268,10.144,10.144,0,0,0,8.375,3.548,1.549,1.549,0,0,1,.453.14c-.149.066-.3.133-.446.2a.213.213,0,0,1-.072,0,11.255,11.255,0,0,1-5.961-1.443,2.022,2.022,0,0,0-.915-.236c-1.2-.015-3.569-.01-5.388-.005a19.649,19.649,0,0,0-.578-4.471,4.732,4.732,0,0,0-1-2.1,1.13,1.13,0,0,0-1.749-.075,2.586,2.586,0,0,0-.609.8c-.349.816-.637,1.659-.95,2.491-.025.067-.061.131-.091.2l-.08-.016v-2.3l-1.505.173a1.279,1.279,0,0,0-.022.172q.073,2.26.147,4.519a1.906,1.906,0,0,1,0,.394c-.028.154-.188.164-.314.152a2.722,2.722,0,0,1-.385-.143c-.15-.038-.773-.19-.869.011.1-.2.176-.507.249-.667a3.279,3.279,0,0,0-2.057-4.653,4.144,4.144,0,0,0-4.679,2.347,3.291,3.291,0,0,0,2.472,4.781,1.784,1.784,0,0,1,.242.081l-6.581,5.475,2.869,2.85c.009-.012.028-.043.05-.072l4.384-5.657q.537-.692,1.074-1.383l.559-.715c.127-.161.325-.474.538-.521s.212.109.212.261v1.33h1.34l0-.022.028.022h22.422V727.3Zm-25.982-1.058a.793.793,0,0,1-.812-.748.68.68,0,0,1,.715-.653.8.8,0,0,1,.794.726A.688.688,0,0,1,828.175,725.947Zm6.8,2.138a.939.939,0,0,1,.034-.113l.77-2.227.389-1.125.195-.563c.038-.11.078-.281.236-.26a.145.145,0,0,1,.119.109.286.286,0,0,1-.022.152q-.378,1.111-.758,2.22-.193.561-.387,1.121c-.063.18-.127.359-.185.541-.039.12-.069.369-.218.407a.159.159,0,0,1-.176-.134A.309.309,0,0,1,834.972,728.085Z" transform="translate(-820.741 -720.154)" fill="#58b6b0"/>
        </g>
        <path id="Path_27" data-name="Path 27" d="M456.245,521.047a3,3,0,0,1,1.481-.266,3.483,3.483,0,0,1,1.312.188c.637.159,1.271.337,1.9.523q.473.139.943.287a1.746,1.746,0,0,1,.714.288c.367.386-.237.733-.49.932-.526.412-1.057.814-1.592,1.214-.463.346-.9.74-1.395,1.041-1.085.658-2.251,1.145-3.292,1.884-.856.608-3.481,2.43-3.36,3.713a3.168,3.168,0,0,0,1.55,1.875c.922.525,1.647.107,1.648-.959a3.536,3.536,0,0,0-.077-.739l2.918-.873.067.149a6.96,6.96,0,0,1,.38,5.139,2.8,2.8,0,0,1-3.057,2.1,6.721,6.721,0,0,1-3.611-1.43c-1.647-1.191-3.845-3.379-4.337-5.443a5.164,5.164,0,0,1,.9-3.619,15.692,15.692,0,0,1,2.751-3.092,14.744,14.744,0,0,1,2.587-1.877c.293-.166.6-.336.917-.5C455.434,521.419,455.831,521.212,456.245,521.047Z" transform="translate(-447.872 -520.747)" fill="#58b6b0"/>
        <g id="Group_19" data-name="Group 19" transform="translate(0.006 0)">
          <path id="Path_28" data-name="Path 28" d="M1591.411,803.883a5.341,5.341,0,0,0,2.442,3.861s2.274,2.256,7,2.2C1600.857,809.944,1592.923,809.22,1591.411,803.883Z" transform="translate(-1559.895 -796.062)" fill="#469791"/>
          <g id="Group_18" data-name="Group 18">
            <path id="Path_29" data-name="Path 29" d="M799.514,525.005q-.524.4-1.053.8c-.368.276-.72.58-1.1.845a4.346,4.346,0,0,0-.948-.364c.2-.379.736-.484.934-.863a3.584,3.584,0,0,1-1.3-.292c.31-.224.732-.293.931-.672a5.989,5.989,0,0,0-1.181-.328c.234-.264.581-.372.7-.791a2.638,2.638,0,0,1-1.108-.1,6.969,6.969,0,0,0,.917-.844c.229.042.456.108.668.161.637.159,1.271.337,1.9.523l.195.059A2.116,2.116,0,0,0,799.514,525.005Z" transform="translate(-785.826 -522.337)" fill="#fff" opacity="0.5"/>
            <path id="Path_30" data-name="Path 30" d="M927.927,549.857c.367.386-.237.733-.49.932-.178.14-.359.278-.538.416a2.116,2.116,0,0,1-.434-1.863c.25.075.5.15.748.228A1.742,1.742,0,0,1,927.927,549.857Z" transform="translate(-913.21 -548.536)" fill="#e49a00"/>
            <g id="Group_15" data-name="Group 15" transform="translate(31.882 7.681)">
              <circle id="Ellipse_7" data-name="Ellipse 7" cx="0.319" cy="0.319" r="0.319" fill="#fff"/>
              <circle id="Ellipse_8" data-name="Ellipse 8" cx="0.235" cy="0.235" r="0.235" transform="translate(0.718)" fill="#fff"/>
              <circle id="Ellipse_9" data-name="Ellipse 9" cx="0.154" cy="0.154" r="0.154" transform="translate(0.563 0.638)" fill="#fff"/>
            </g>
            <path id="Path_31" data-name="Path 31" d="M1068.9,803.385c-.147-.287-.2-.612-.371-.9a1.456,1.456,0,0,0-1.348-.821c-.357.035-.862.157-.823.6a.428.428,0,0,0,.617.309,1.269,1.269,0,0,1,1.082.051A1.6,1.6,0,0,1,1068.9,803.385Z" transform="translate(-1049.311 -793.9)" fill="#fff"/>
            <path id="Path_32" data-name="Path 32" d="M1912.608,1026.406c.288.144.524.376.831.5a1.456,1.456,0,0,0,1.573-.135c.267-.239.6-.637.307-.973a.428.428,0,0,0-.68.116c-.206.394-.51.471-.9.6A1.6,1.6,0,0,1,1912.608,1026.406Z" transform="translate(-1872.238 -1011.742)" fill="#fff"/>
            <path id="Path_33" data-name="Path 33" d="M798.777,701.373s-2.124,2.181-1.642,4.085a2.274,2.274,0,0,1-1.189-2.537,1.93,1.93,0,0,1,.626-1.034,2.3,2.3,0,0,1,.992-.546,2.751,2.751,0,0,1,1.15.018Z" transform="translate(-786.312 -696.295)" fill="#cd8800"/>
            <path id="Path_34" data-name="Path 34" d="M457.814,529.826l.905-.272a7.252,7.252,0,0,1,.569,4.858,3.743,3.743,0,0,1-.651,1.481,3.239,3.239,0,0,1-2.911,1.055,6.714,6.714,0,0,1-2.946-1.257,14.938,14.938,0,0,1-3.406-3.228,5.75,5.75,0,0,1-1.247-2.548,5.942,5.942,0,0,1,1.623-4.413,17.037,17.037,0,0,1,5.871-4.679,4.87,4.87,0,0,1,2.956-.623,2.785,2.785,0,0,0-.933.259q-.481.151-.952.333A15.6,15.6,0,0,0,451.605,524a8.383,8.383,0,0,0-2.92,4.841,3.837,3.837,0,0,0,.715,2.607,13.368,13.368,0,0,0,4.979,4.453,2.887,2.887,0,0,0,2.452.344,3.512,3.512,0,0,0,1.9-3.967,10,10,0,0,0-.93-2.452Z" transform="translate(-448.084 -520.149)" fill="#469791"/>
            <path id="Path_35" data-name="Path 35" d="M723.622,1042.344c.317.059.607.216.938.254a1.456,1.456,0,0,0,1.474-.565c.19-.3.4-.779.026-1.02a.428.428,0,0,0-.621.3c-.089.435-.36.594-.7.825A1.6,1.6,0,0,1,723.622,1042.344Z" transform="translate(-716.026 -1026.599)" fill="#fff"/>
            <g id="Group_16" data-name="Group 16" transform="translate(9.574 10.133)">
              <circle id="Ellipse_10" data-name="Ellipse 10" cx="0.319" cy="0.319" r="0.319" fill="#fff"/>
              <circle id="Ellipse_11" data-name="Ellipse 11" cx="0.235" cy="0.235" r="0.235" transform="translate(0.718)" fill="#fff"/>
              <circle id="Ellipse_12" data-name="Ellipse 12" cx="0.154" cy="0.154" r="0.154" transform="translate(0.563 0.638)" fill="#fff"/>
            </g>
            <g id="Group_17" data-name="Group 17" transform="translate(11.928 6.153)">
              <circle id="Ellipse_13" data-name="Ellipse 13" cx="0.319" cy="0.319" r="0.319" fill="#fff"/>
              <circle id="Ellipse_14" data-name="Ellipse 14" cx="0.235" cy="0.235" r="0.235" transform="translate(0.717)" fill="#fff"/>
              <circle id="Ellipse_15" data-name="Ellipse 15" cx="0.154" cy="0.154" r="0.154" transform="translate(0.563 0.638)" fill="#fff"/>
            </g>
            <path id="Path_36" data-name="Path 36" d="M949.469,834.824a4.165,4.165,0,0,0-.734,2.314,3.221,3.221,0,0,0,3.008,3.224S948.056,838.385,949.469,834.824Z" transform="translate(-934.934 -826.15)" fill="#469791"/>
            <path id="Path_37" data-name="Path 37" d="M827.224,1039.243l-6.483,5.393.959.953,1.91,1.9-2.419-2.839Z" transform="translate(-810.469 -1024.934)" fill="#469791"/>
            <path id="Path_38" data-name="Path 38" d="M1240.343,776.26l-1.505.173.132,5.025s0,.342-.414.191c0,0,.275.316.514-.121l-.079-4.932Z" transform="translate(-1216.765 -769.2)" fill="#469791"/>
          </g>
        </g>
      </g>
      <g id="Group_21" data-name="Group 21" transform="translate(12.144 20.06)">
        <circle id="Ellipse_16" data-name="Ellipse 16" cx="0.319" cy="0.319" r="0.319" transform="translate(0 0)" fill="#fff"/>
        <circle id="Ellipse_17" data-name="Ellipse 17" cx="0.235" cy="0.235" r="0.235" transform="translate(0.717 0)" fill="#fff"/>
        <circle id="Ellipse_18" data-name="Ellipse 18" cx="0.154" cy="0.154" r="0.154" transform="translate(0.563 0.638)" fill="#fff"/>
      </g>
      <g id="Group_22" data-name="Group 22" transform="translate(18.955 21.339)">
        <path id="Path_39" data-name="Path 39" d="M1122.6,1278.637h-.269v-1.318h.269v.529h.566v-.529h.273v1.318h-.273v-.571h-.566Z" transform="translate(-1122.331 -1277.286)" fill="#0e3344"/>
        <path id="Path_40" data-name="Path 40" d="M1171.446,1289.934a.434.434,0,0,1,.362.164.524.524,0,0,1,.108.335.48.48,0,0,1-.16.375.462.462,0,0,1-.656-.034.493.493,0,0,1-.125-.341.5.5,0,0,1,.14-.37A.444.444,0,0,1,1171.446,1289.934Zm0,.8c.134,0,.2-.1.2-.3s-.068-.312-.2-.312-.2.1-.2.312S1171.312,1290.733,1171.446,1290.733Z" transform="translate(-1169.635 -1289.552)" fill="#0e3344"/>
        <path id="Path_41" data-name="Path 41" d="M1211.02,1290.188a.418.418,0,0,0-.233-.067c-.067,0-.1.029-.1.085s.045.091.135.113a.6.6,0,0,1,.229.094.28.28,0,0,1,.087.225.262.262,0,0,1-.095.213.385.385,0,0,1-.255.079.58.58,0,0,1-.383-.129l.1-.146a.407.407,0,0,0,.26.086.156.156,0,0,0,.1-.029.093.093,0,0,0,.037-.077q0-.088-.148-.115-.316-.06-.317-.308a.246.246,0,0,1,.1-.2.372.372,0,0,1,.242-.079.542.542,0,0,1,.344.115Z" transform="translate(-1207.978 -1289.552)" fill="#0e3344"/>
        <path id="Path_42" data-name="Path 42" d="M1242,1289.934a.436.436,0,0,1,.363.164.528.528,0,0,1,.108.335.481.481,0,0,1-.16.375.462.462,0,0,1-.656-.034.492.492,0,0,1-.125-.341.505.505,0,0,1,.139-.37A.445.445,0,0,1,1242,1289.934Zm0,.8q.2,0,.2-.3t-.2-.312q-.2,0-.2.312T1242,1290.733Z" transform="translate(-1238.242 -1289.552)" fill="#0e3344"/>
        <path id="Path_43" data-name="Path 43" d="M1283.84,1291.678a.342.342,0,0,1-.285.133.313.313,0,0,1-.255-.093.5.5,0,0,1-.076-.311v-.566h.258v.5a.386.386,0,0,0,.037.2.142.142,0,0,0,.129.057.231.231,0,0,0,.09-.021.112.112,0,0,0,.06-.044v-.689h.262v.945h-.2l-.023-.108Z" transform="translate(-1278.693 -1290.435)" fill="#0e3344"/>
        <path id="Path_44" data-name="Path 44" d="M1323.664,1290.051a.332.332,0,0,1,.125-.083.422.422,0,0,1,.159-.034.316.316,0,0,1,.259.1.5.5,0,0,1,.08.317v.556h-.265v-.545c0-.136-.06-.2-.181-.2a.281.281,0,0,0-.1.02.158.158,0,0,0-.071.045v.685h-.262v-.945h.223c.007.036.014.067.021.092Z" transform="translate(-1317.747 -1289.552)" fill="#0e3344"/>
        <path id="Path_45" data-name="Path 45" d="M1382.025,1277.319h.862v.218h-.589v.31h.491v.219h-.491v.352h.616v.219h-.889Z" transform="translate(-1374.711 -1277.286)" fill="#0e3344"/>
        <path id="Path_46" data-name="Path 46" d="M1418.567,1277.9l-.037-.1a.239.239,0,0,1-.109.089.354.354,0,0,1-.154.036.406.406,0,0,1-.339-.148.493.493,0,0,1-.1-.317.548.548,0,0,1,.158-.42.4.4,0,0,1,.285-.111.372.372,0,0,1,.242.079v-.3l.262-.146v1.339Zm-.052-.36v-.264a.207.207,0,0,0-.066-.114.178.178,0,0,0-.12-.045.2.2,0,0,0-.169.083.367.367,0,0,0-.062.225q0,.31.2.31a.2.2,0,0,0,.139-.059A.225.225,0,0,0,1418.515,1277.542Z" transform="translate(-1409.507 -1276.551)" fill="#0e3344"/>
        <path id="Path_47" data-name="Path 47" d="M1462.634,1291.678a.342.342,0,0,1-.285.133.313.313,0,0,1-.255-.093.5.5,0,0,1-.076-.311v-.566h.258v.5a.387.387,0,0,0,.037.2.142.142,0,0,0,.129.057.23.23,0,0,0,.09-.021.111.111,0,0,0,.06-.044v-.689h.262v.945h-.2l-.023-.108Z" transform="translate(-1452.451 -1290.435)" fill="#0e3344"/>
        <path id="Path_48" data-name="Path 48" d="M1500.793,1290.783a.482.482,0,0,1-.35.146.494.494,0,0,1-.383-.154.525.525,0,0,1,.036-.714.477.477,0,0,1,.335-.127.469.469,0,0,1,.352.137l-.079.142a.341.341,0,0,0-.231-.094.239.239,0,0,0-.192.09.355.355,0,0,0-.075.232.315.315,0,0,0,.074.215.239.239,0,0,0,.189.084.313.313,0,0,0,.235-.1Z" transform="translate(-1489.302 -1289.552)" fill="#0e3344"/>
        <path id="Path_49" data-name="Path 49" d="M1536.339,1290.9h-.21l-.021-.089a.434.434,0,0,1-.279.115.274.274,0,0,1-.315-.306.268.268,0,0,1,.131-.237.719.719,0,0,1,.393-.088h.044v0a.16.16,0,0,0-.037-.123.207.207,0,0,0-.135-.033.406.406,0,0,0-.252.087c-.025-.046-.049-.091-.071-.135a.827.827,0,0,1,.207-.124.619.619,0,0,1,.211-.032q.333,0,.333.416Zm-.265-.445h-.031a.382.382,0,0,0-.192.042.124.124,0,0,0-.073.11c0,.086.037.129.112.129a.2.2,0,0,0,.121-.04.155.155,0,0,0,.062-.1Z" transform="translate(-1523.879 -1289.552)" fill="#0e3344"/>
        <path id="Path_50" data-name="Path 50" d="M1573.2,1280.179h-.271v.468c0,.069.023.1.069.1a.336.336,0,0,0,.156-.054l.088.133a.515.515,0,0,1-.327.117q-.25,0-.25-.275v-.493h-.131v-.21h.133v-.169l.264-.14v.308h.268Z" transform="translate(-1559.851 -1279.562)" fill="#0e3344"/>
        <path id="Path_51" data-name="Path 51" d="M1603.271,1276.275a.16.16,0,0,1,.047-.116.149.149,0,0,1,.111-.049.161.161,0,0,1,.118.048.157.157,0,0,1,.049.116.159.159,0,0,1-.047.119.163.163,0,0,1-.119.046.15.15,0,0,1-.114-.047A.164.164,0,0,1,1603.271,1276.275Zm.3.242v.945h-.265v-.945Z" transform="translate(-1589.732 -1276.111)" fill="#0e3344"/>
        <path id="Path_52" data-name="Path 52" d="M1621.569,1289.934a.435.435,0,0,1,.362.164.527.527,0,0,1,.108.335.481.481,0,0,1-.161.375.462.462,0,0,1-.656-.034.493.493,0,0,1-.125-.341.5.5,0,0,1,.14-.37A.445.445,0,0,1,1621.569,1289.934Zm0,.8q.2,0,.2-.3t-.2-.312q-.2,0-.2.312T1621.569,1290.733Z" transform="translate(-1607.05 -1289.552)" fill="#0e3344"/>
        <path id="Path_53" data-name="Path 53" d="M1663.049,1290.051a.326.326,0,0,1,.125-.083.418.418,0,0,1,.158-.034.317.317,0,0,1,.26.1.5.5,0,0,1,.08.317v.556h-.265v-.545c0-.136-.06-.2-.181-.2a.279.279,0,0,0-.1.02.158.158,0,0,0-.071.045v.685h-.262v-.945h.223c.007.036.014.067.021.092Z" transform="translate(-1647.574 -1289.552)" fill="#0e3344"/>
        <path id="Path_54" data-name="Path 54" d="M1702.6,1290.9h-.21l-.021-.089a.435.435,0,0,1-.279.115.274.274,0,0,1-.314-.306.267.267,0,0,1,.131-.237.719.719,0,0,1,.393-.088h.044v0a.161.161,0,0,0-.037-.123.208.208,0,0,0-.135-.033.406.406,0,0,0-.252.087c-.025-.046-.048-.091-.071-.135a.83.83,0,0,1,.207-.124.62.62,0,0,1,.212-.032q.333,0,.333.416Zm-.264-.445h-.031a.38.38,0,0,0-.191.042.124.124,0,0,0-.073.11c0,.086.037.129.113.129a.194.194,0,0,0,.121-.04.155.155,0,0,0,.062-.1Z" transform="translate(-1685.453 -1289.552)" fill="#0e3344"/>
        <path id="Path_55" data-name="Path 55" d="M1741.766,1276.412v1.343h-.263v-1.206Z" transform="translate(-1724.075 -1276.404)" fill="#0e3344"/>
        <path id="Path_56" data-name="Path 56" d="M1779.423,1277.755v-1.316c.019,0,.074-.01.164-.017s.159-.01.206-.01q.5,0,.5.412a.421.421,0,0,1-.175.375.469.469,0,0,1-.275.081.387.387,0,0,1-.152-.017v.492Zm.273-1.11v.4a.376.376,0,0,0,.135.021.161.161,0,0,0,.131-.059.256.256,0,0,0,.048-.163c0-.141-.062-.21-.186-.21A.317.317,0,0,0,1779.7,1276.645Z" transform="translate(-1760.917 -1276.404)" fill="#0e3344"/>
        <path id="Path_57" data-name="Path 57" d="M1819.115,1276.412v1.343h-.262v-1.206Z" transform="translate(-1799.246 -1276.404)" fill="#0e3344"/>
        <path id="Path_58" data-name="Path 58" d="M1836.747,1290.9h-.21l-.021-.089a.434.434,0,0,1-.279.115.275.275,0,0,1-.315-.306.268.268,0,0,1,.132-.237.72.72,0,0,1,.394-.088h.043v0a.163.163,0,0,0-.037-.123.208.208,0,0,0-.135-.033.407.407,0,0,0-.252.087c-.025-.046-.049-.091-.071-.135a.823.823,0,0,1,.207-.124.619.619,0,0,1,.211-.032q.333,0,.333.416Zm-.264-.445h-.031a.382.382,0,0,0-.191.042.124.124,0,0,0-.073.11c0,.086.038.129.112.129a.2.2,0,0,0,.121-.04.154.154,0,0,0,.062-.1Z" transform="translate(-1815.826 -1289.552)" fill="#0e3344"/>
        <path id="Path_59" data-name="Path 59" d="M1873.6,1280.179h-.271v.468c0,.069.023.1.069.1a.336.336,0,0,0,.156-.054l.087.133a.513.513,0,0,1-.327.117c-.167,0-.25-.092-.25-.275v-.493h-.131v-.21h.133v-.169l.265-.14v.308h.269Z" transform="translate(-1851.705 -1279.562)" fill="#0e3344"/>
        <path id="Path_60" data-name="Path 60" d="M1902.547,1277.022v-.212h.148v-.125q0-.273.254-.273a.493.493,0,0,1,.31.113l-.1.137a.276.276,0,0,0-.141-.054q-.065,0-.065.1v.1h.258v.212h-.258v.733h-.262v-.733Z" transform="translate(-1880.498 -1276.404)" fill="#0e3344"/>
        <path id="Path_61" data-name="Path 61" d="M1930.512,1289.934a.436.436,0,0,1,.363.164.528.528,0,0,1,.108.335.48.48,0,0,1-.16.375.462.462,0,0,1-.656-.034.491.491,0,0,1-.125-.341.5.5,0,0,1,.14-.37A.443.443,0,0,1,1930.512,1289.934Zm0,.8c.135,0,.2-.1.2-.3s-.067-.312-.2-.312-.2.1-.2.312S1930.378,1290.733,1930.512,1290.733Z" transform="translate(-1907.236 -1289.552)" fill="#0e3344"/>
        <path id="Path_62" data-name="Path 62" d="M1971.962,1289.959l.025.084a.181.181,0,0,1,.08-.076.253.253,0,0,1,.122-.032.3.3,0,0,1,.279.177l-.221.121a.2.2,0,0,0-.146-.079.109.109,0,0,0-.1.073v.679h-.258v-.945Z" transform="translate(-1947.784 -1289.552)" fill="#0e3344"/>
        <path id="Path_63" data-name="Path 63" d="M2002.281,1290.051a.4.4,0,0,1,.292-.117.436.436,0,0,1,.214.051.275.275,0,0,1,.128.136.341.341,0,0,1,.143-.135.442.442,0,0,1,.211-.052q.333,0,.333.4v.566h-.265v-.5a.354.354,0,0,0-.041-.2.155.155,0,0,0-.136-.057.27.27,0,0,0-.223.108v.641h-.262v-.525a.268.268,0,0,0-.044-.174.19.19,0,0,0-.15-.051.357.357,0,0,0-.118.019.133.133,0,0,0-.072.045v.685h-.262v-.945h.223l.018.092Z" transform="translate(-1977.24 -1289.552)" fill="#0e3344"/>
      </g>
      <g id="Group_23" data-name="Group 23" transform="translate(18.955 18.481)">
        <path id="Path_64" data-name="Path 64" d="M1127.262,1172.724a.134.134,0,0,0,.149-.154.139.139,0,0,0-.149-.149.133.133,0,0,0-.151.149.154.154,0,0,0,.041.113A.151.151,0,0,0,1127.262,1172.724Z" transform="translate(-1126.611 -1172.422)" fill="#0e3344"/>
        <path id="Path_65" data-name="Path 65" d="M1114.461,1172.724a.134.134,0,0,0,.149-.154.139.139,0,0,0-.149-.149.133.133,0,0,0-.151.149.153.153,0,0,0,.041.113A.15.15,0,0,0,1114.461,1172.724Z" transform="translate(-1114.163 -1172.422)" fill="#0e3344"/>
        <path id="Path_66" data-name="Path 66" d="M1193.943,1237.924a.133.133,0,0,0-.151.149.152.152,0,0,0,.042.112.148.148,0,0,0,.11.041.134.134,0,0,0,.149-.154.139.139,0,0,0-.149-.149Z" transform="translate(-1191.454 -1236.118)" fill="#0e3344"/>
        <path id="Path_67" data-name="Path 67" d="M1181.142,1237.924a.133.133,0,0,0-.151.149.153.153,0,0,0,.041.112.149.149,0,0,0,.11.041.134.134,0,0,0,.149-.154.139.139,0,0,0-.149-.149Z" transform="translate(-1179.006 -1236.118)" fill="#0e3344"/>
        <path id="Path_68" data-name="Path 68" d="M1268.505,1237.924a.133.133,0,0,0-.151.149.151.151,0,0,0,.042.112.147.147,0,0,0,.109.041.134.134,0,0,0,.149-.154.147.147,0,0,0-.04-.109A.145.145,0,0,0,1268.505,1237.924Z" transform="translate(-1263.961 -1236.118)" fill="#0e3344"/>
        <path id="Path_69" data-name="Path 69" d="M1281.307,1237.924a.133.133,0,0,0-.151.149.152.152,0,0,0,.041.112.149.149,0,0,0,.11.041.134.134,0,0,0,.149-.154.139.139,0,0,0-.149-.149Z" transform="translate(-1276.41 -1236.118)" fill="#0e3344"/>
        <path id="Path_70" data-name="Path 70" d="M1403.082,1175.467a.134.134,0,0,0,.149-.153.138.138,0,0,0-.149-.149.148.148,0,0,0-.109.041.143.143,0,0,0-.042.108.153.153,0,0,0,.041.111A.146.146,0,0,0,1403.082,1175.467Z" transform="translate(-1394.828 -1175.089)" fill="#0e3344"/>
        <path id="Path_71" data-name="Path 71" d="M1390.364,1175.467a.133.133,0,0,0,.149-.153.154.154,0,0,0-.259-.108.145.145,0,0,0-.041.108.152.152,0,0,0,.041.112A.148.148,0,0,0,1390.364,1175.467Z" transform="translate(-1382.461 -1175.089)" fill="#0e3344"/>
        <path id="Path_72" data-name="Path 72" d="M1117.9,1177.744a.219.219,0,0,1-.045.156.2.2,0,0,1-.15.046h-.213a.167.167,0,0,1-.124-.038.18.18,0,0,1-.036-.127v-.575l-.289.151v.424a.178.178,0,0,1-.037.127.166.166,0,0,1-.124.038h-.7a1.581,1.581,0,0,0,.344-.311v-.126a.814.814,0,0,0-.266-.249.624.624,0,0,0-.652,0,.761.761,0,0,0-.26.245v.131l.041.048a1.385,1.385,0,0,0,.119.129,1.472,1.472,0,0,0,.172.135h-.692a.167.167,0,0,1-.124-.038.18.18,0,0,1-.037-.127v-.575l0,0v-.463l-.286.154v.846a.219.219,0,0,1-.045.156.2.2,0,0,1-.15.046h-.213a.166.166,0,0,1-.123-.038.178.178,0,0,1-.037-.127v-.575l-.289.151v.424a.179.179,0,0,1-.036.127.168.168,0,0,1-.124.038h-.272a.171.171,0,0,1-.125-.038.175.175,0,0,1-.038-.127v-.067a.627.627,0,0,0-.105-.378.466.466,0,0,0-.683-.039.587.587,0,0,0-.14.417v.067a.181.181,0,0,1-.036.127.168.168,0,0,1-.124.038h-.275a.167.167,0,0,1-.124-.038.178.178,0,0,1-.037-.127v-.575l-.289.151v.424a.181.181,0,0,1-.036.127.168.168,0,0,1-.124.038h-1.082a.17.17,0,0,1-.125-.038.176.176,0,0,1-.038-.127v-.763l-.286.151v.06a.375.375,0,0,0-.156-.032.4.4,0,0,0-.287.119.534.534,0,0,0-.043.683.408.408,0,0,0,.337.158.383.383,0,0,0,.24-.075.4.4,0,0,0,.33.142h1.137a.474.474,0,0,1,.554,0h.33a.434.434,0,0,0,.273-.085.418.418,0,0,0,.325.13.428.428,0,0,0,.326-.13.418.418,0,0,0,.27.085h.33a.474.474,0,0,1,.554,0h.257a.48.48,0,0,0,.309-.1.419.419,0,0,0,.291.1h.754a.462.462,0,0,0,.22-.057.444.444,0,0,0,.22.057h.758a.474.474,0,0,1,.555,0h.256a.45.45,0,0,0,.33-.121.475.475,0,0,0,.135-.355v-1l-.287.154Zm-8.453.167a.151.151,0,0,1-.126-.06.258.258,0,0,1-.046-.16.262.262,0,0,1,.047-.163.147.147,0,0,1,.122-.062.2.2,0,0,1,.135.05v.277a.558.558,0,0,0,0,.057A.164.164,0,0,1,1109.446,1177.911Zm3.174.08q-.177,0-.176-.284t.176-.273q.174,0,.174.273T1112.62,1177.991Zm3.309-.156a.857.857,0,0,1-.248-.273.354.354,0,0,1,.243-.128.4.4,0,0,1,.259.128A1.049,1.049,0,0,1,1115.928,1177.835Z" transform="translate(-1108.99 -1176.626)" fill="#0e3344"/>
        <path id="Path_73" data-name="Path 73" d="M1456.295,1178.222h.289v-1.478l-.289.154Z" transform="translate(-1446.721 -1176.626)" fill="#0e3344"/>
        <path id="Path_74" data-name="Path 74" d="M1490.989,1194.323a.288.288,0,0,1-.088.225.354.354,0,0,1-.246.08.316.316,0,0,1-.245-.1.4.4,0,0,1-.1-.282.635.635,0,0,1,.091-.328l-.275.057a.582.582,0,0,0-.085.316.626.626,0,0,0,.133.4.571.571,0,0,0,.479.218.645.645,0,0,0,.433-.144.547.547,0,0,0,.19-.438v-.871l-.288.151Z" transform="translate(-1479.539 -1192.872)" fill="#0e3344"/>
        <path id="Path_75" data-name="Path 75" d="M1506.487,1183.7a.134.134,0,0,0,.149-.154.138.138,0,0,0-.149-.149.149.149,0,0,0-.11.041.145.145,0,0,0-.041.108.151.151,0,0,0,.041.112A.148.148,0,0,0,1506.487,1183.7Z" transform="translate(-1495.383 -1183.093)" fill="#0e3344"/>
        <path id="Path_76" data-name="Path 76" d="M1551.849,1192.169a.565.565,0,0,0-.348-.131.579.579,0,0,0-.436.211v.254a.626.626,0,0,1,.4-.2.446.446,0,0,1,.378.272.864.864,0,0,1-.642.241h-.41q-.16,0-.16-.151v-.048a.575.575,0,0,0-.138-.392.545.545,0,0,0-.433-.188.737.737,0,0,0-.536.234,1.337,1.337,0,0,0-.321.543c-.078-.011-.117-.065-.117-.163v-.454l-.288.151v.3a.18.18,0,0,1-.037.127.169.169,0,0,1-.124.038h-1.7v-.356a.428.428,0,0,0-.1-.293.4.4,0,0,0-.318-.131.421.421,0,0,0-.321.128.56.56,0,0,0-.137.4.508.508,0,0,0,.108.328.514.514,0,0,0,.364.186l.06.007.057,0a.174.174,0,0,1-.081.127.29.29,0,0,1-.171.053.5.5,0,0,1-.247-.071v.25a.568.568,0,0,0,.282.078.529.529,0,0,0,.321-.1.435.435,0,0,0,.183-.33h1.723a.474.474,0,0,1,.554,0h.99a.475.475,0,0,1,.555,0h.435a1.253,1.253,0,0,0,.537-.115,1.1,1.1,0,0,0,.411-.325v-.115A1.158,1.158,0,0,0,1551.849,1192.169Zm-5.192.646a.783.783,0,0,1-.1-.011.217.217,0,0,1-.2-.247c0-.167.058-.25.174-.25.087,0,.13.05.13.151Zm3.687-.165a.207.207,0,0,1-.031.132.148.148,0,0,1-.114.036h-.713a.928.928,0,0,1,.244-.374.491.491,0,0,1,.333-.137.258.258,0,0,1,.2.087.325.325,0,0,1,.078.225Z" transform="translate(-1534.02 -1191.498)" fill="#0e3344"/>
        <path id="Path_77" data-name="Path 77" d="M1801.573,1172.724a.134.134,0,0,0,.148-.154.139.139,0,0,0-.148-.149.133.133,0,0,0-.152.149.153.153,0,0,0,.041.113A.15.15,0,0,0,1801.573,1172.724Z" transform="translate(-1782.335 -1172.422)" fill="#0e3344"/>
        <path id="Path_78" data-name="Path 78" d="M1788.772,1172.724a.134.134,0,0,0,.148-.154.138.138,0,0,0-.148-.149.133.133,0,0,0-.151.149.154.154,0,0,0,.041.113A.151.151,0,0,0,1788.772,1172.724Z" transform="translate(-1769.886 -1172.422)" fill="#0e3344"/>
        <path id="Path_79" data-name="Path 79" d="M1990.828,1174.386a.134.134,0,0,0,.149-.153.138.138,0,0,0-.149-.149.149.149,0,0,0-.11.041.145.145,0,0,0-.041.108.15.15,0,0,0,.041.112A.147.147,0,0,0,1990.828,1174.386Z" transform="translate(-1966.373 -1174.038)" fill="#0e3344"/>
        <path id="Path_80" data-name="Path 80" d="M1790.74,1186.952a.421.421,0,0,0-.77.257v.19a.181.181,0,0,1-.036.127.168.168,0,0,1-.124.038h-.275a.167.167,0,0,1-.124-.038.179.179,0,0,1-.037-.127v-.575l-.289.151v.424a.181.181,0,0,1-.036.127.169.169,0,0,1-.124.038h-.275c-.107,0-.16-.051-.16-.151v-.048a.576.576,0,0,0-.138-.392.545.545,0,0,0-.433-.188.737.737,0,0,0-.536.234,1.332,1.332,0,0,0-.321.543c-.078-.011-.117-.065-.117-.163v-.454l-.289.151v.3a.181.181,0,0,1-.037.127.168.168,0,0,1-.124.038h-2.158a.172.172,0,0,1-.125-.038.175.175,0,0,1-.038-.127v-.763l-.287.151v.06a.373.373,0,0,0-.156-.032.4.4,0,0,0-.286.119.536.536,0,0,0-.044.683.409.409,0,0,0,.337.158.383.383,0,0,0,.24-.076.4.4,0,0,0,.33.142h2.213a.474.474,0,0,1,.554,0h.99a.475.475,0,0,1,.555,0h.33a.474.474,0,0,1,.554,0h.33a.439.439,0,0,0,.266-.08.523.523,0,0,0,.3.08.408.408,0,0,0,.309-.128.658.658,0,0,0,.027-.76Zm-6.983.577a.15.15,0,0,1-.126-.06.254.254,0,0,1-.046-.16.262.262,0,0,1,.047-.163.146.146,0,0,1,.122-.062.2.2,0,0,1,.135.05v.277a.445.445,0,0,0,0,.057A.164.164,0,0,1,1783.757,1187.529Zm4.445-.133a.205.205,0,0,1-.031.132.145.145,0,0,1-.113.036h-.713a.929.929,0,0,1,.244-.373.492.492,0,0,1,.333-.137.258.258,0,0,1,.2.087.325.325,0,0,1,.078.225Zm2.193.167q-.135,0-.135-.128v-.231c0-.1.043-.151.128-.151q.177,0,.177.25T1790.394,1187.564Z" transform="translate(-1764.714 -1186.244)" fill="#0e3344"/>
      </g>
      <g id="Group_37" data-name="Group 37" transform="translate(20.536 17.539)">
        <g id="Group_24" data-name="Group 24" transform="translate(23.476 2.513)">
          <path id="Path_81" data-name="Path 81" d="M2019.15,1229.471a.433.433,0,0,1-.034.054c0,.006-.027.035-.011.016l-.025.031c-.021.024-.043.047-.067.069l-.037.034-.025.02s-.01.008,0,0l-.018.013a.987.987,0,0,1-.115.071.859.859,0,0,1-.131.058,1.188,1.188,0,0,1-.165.044,1.516,1.516,0,0,1-.483,0,.07.07,0,0,0-.069.069.071.071,0,0,0,.069.069,1.422,1.422,0,0,0,.813-.107,1.014,1.014,0,0,0,.37-.3.5.5,0,0,0,.046-.071c.04-.079-.079-.149-.119-.07Z" transform="translate(-2017.971 -1229.436)" fill="#e49a00"/>
        </g>
        <g id="Group_25" data-name="Group 25" transform="translate(21.841 0.482)">
          <path id="Path_82" data-name="Path 82" d="M1959.741,1155.821a.163.163,0,0,1-.005.017c0,.006,0,.012-.007.018s.005-.011,0,0a.088.088,0,0,0-.006.014.868.868,0,0,1-.085.145l-.01.013-.015.02-.042.048a1.028,1.028,0,0,1-.1.089l-.015.012c.011-.009-.006,0-.007,0l-.027.019c-.023.016-.046.031-.07.045a1.146,1.146,0,0,1-.143.07,1.5,1.5,0,0,1-.472.1c-.089,0-.089.143,0,.138a1.426,1.426,0,0,0,.782-.251,1.013,1.013,0,0,0,.312-.365.634.634,0,0,0,.038-.093.069.069,0,0,0-.133-.037Z" transform="translate(-1958.676 -1155.773)" fill="#e49a00"/>
        </g>
        <g id="Group_26" data-name="Group 26" transform="translate(19.359 0.386)">
          <path id="Path_83" data-name="Path 83" d="M1869.428,1152.333l0,.012-.006.014c0,.013,0-.01,0-.006l0,.012a.656.656,0,0,1-.066.111s-.015.019,0,.005l-.012.016-.031.036a.763.763,0,0,1-.073.068l-.01.008h0l-.022.016c-.017.012-.034.023-.052.034a.826.826,0,0,1-.108.054,1.153,1.153,0,0,1-.358.074c-.088,0-.089.143,0,.138a.969.969,0,0,0,.851-.479.525.525,0,0,0,.031-.075.069.069,0,0,0-.133-.037Z" transform="translate(-1868.613 -1152.285)" fill="#e49a00"/>
        </g>
        <g id="Group_27" data-name="Group 27" transform="translate(7.663 0.462)">
          <path id="Path_84" data-name="Path 84" d="M1445.153,1155.087l0,.011s0,.009-.005.014,0-.01,0-.006l-.005.012a.663.663,0,0,1-.065.111s-.015.019,0,.005l-.013.016-.031.036a.862.862,0,0,1-.073.068l-.01.008s.009-.007,0,0l-.021.015-.053.034a1,1,0,0,1-.107.053,1.147,1.147,0,0,1-.358.074c-.089,0-.089.142,0,.138a.969.969,0,0,0,.851-.479.49.49,0,0,0,.031-.075.069.069,0,0,0-.133-.037Z" transform="translate(-1444.337 -1155.039)" fill="#e49a00"/>
        </g>
        <g id="Group_28" data-name="Group 28" transform="translate(3.498 2.67)">
          <path id="Path_85" data-name="Path 85" d="M1294.132,1235.17l-.007.011-.008.012,0,.007c-.009.013.005-.006,0,0a.914.914,0,0,1-.088.091l-.015.013-.007.005-.039.027a.717.717,0,0,1-.086.048.608.608,0,0,1-.1.038.884.884,0,0,1-.129.029,1.135,1.135,0,0,1-.353-.014.07.07,0,0,0-.085.048.07.07,0,0,0,.048.085.97.97,0,0,0,.942-.262.45.45,0,0,0,.047-.065.069.069,0,0,0-.119-.07Z" transform="translate(-1293.211 -1235.136)" fill="#e49a00"/>
        </g>
        <g id="Group_29" data-name="Group 29" transform="translate(1.423 2.67)">
          <path id="Path_86" data-name="Path 86" d="M1218.89,1235.17l-.007.011-.008.012,0,.007c-.009.013,0-.006,0,0a.911.911,0,0,1-.088.091l-.015.013-.007.005-.039.027a.682.682,0,0,1-.086.048.6.6,0,0,1-.1.038.886.886,0,0,1-.129.029,1.133,1.133,0,0,1-.353-.014.071.071,0,0,0-.085.048.07.07,0,0,0,.048.085.97.97,0,0,0,.942-.262.462.462,0,0,0,.048-.065.069.069,0,0,0-.119-.07Z" transform="translate(-1217.969 -1235.136)" fill="#e49a00"/>
        </g>
        <g id="Group_30" data-name="Group 30" transform="translate(19.615 0.712)">
          <path id="Path_87" data-name="Path 87" d="M1878.6,1164.2s0,.01,0,.014c-.006-.025,0-.01,0,0s0,.014,0,.022a.811.811,0,0,1,0,.117.086.086,0,0,1,0,.014c0,.018,0-.008,0,0s0,.021-.006.031-.006.018-.009.028.007-.01,0,0l-.007.015-.007.01c.011-.018.005,0,0,0s-.016.009,0,0c0,0-.009.008-.012.008l-.006,0s.015,0,.006,0l-.012,0s.015,0,0,0h-.019c-.009,0,.014,0,0,0l-.012,0-.023-.006a.149.149,0,0,1-.04-.017.792.792,0,0,1-.128-.085.071.071,0,0,0-.083-.01.069.069,0,0,0-.032.077c.006.018.01.036.015.054s.008.038.012.057.006.041,0,.016c0,.01,0,.021,0,.032a.471.471,0,0,1,0,.067c0,.006,0,.022,0,0l0,.014s0,.009,0,.013-.007.02,0,.007-.007.009-.009.014c.006-.015.009-.009,0,0s.013-.01,0,0-.012,0,0,0l-.012,0c-.01,0,.018,0,0,0s-.023,0-.011,0-.01,0-.014,0l-.025-.008-.011,0h0l-.027-.014a1.05,1.05,0,0,1-.145-.1.069.069,0,0,0-.094.025.07.07,0,0,0,.025.094c.1.077.313.23.425.085a.392.392,0,0,0,.024-.31c-.006-.027-.012-.054-.02-.081l-.116.067c.106.085.3.23.432.1a.377.377,0,0,0,.074-.292.84.84,0,0,0-.011-.095.069.069,0,0,0-.084-.048.071.071,0,0,0-.049.085Z" transform="translate(-1877.892 -1164.111)" fill="#e49a00"/>
        </g>
        <g id="Group_31" data-name="Group 31" transform="translate(5.392)">
          <path id="Path_88" data-name="Path 88" d="M1362.734,1138.32l0,.011-.005.014c0,.013,0-.01,0-.006a.066.066,0,0,0-.005.011.673.673,0,0,1-.066.111s-.015.019,0,.005l-.013.016c-.01.012-.021.024-.032.036a.75.75,0,0,1-.073.069l-.01.008s.01-.007,0,0l-.022.015c-.017.012-.034.023-.053.034a.822.822,0,0,1-.107.054,1.136,1.136,0,0,1-.358.074c-.088.005-.089.143,0,.138a.969.969,0,0,0,.85-.479.5.5,0,0,0,.031-.076.069.069,0,0,0-.133-.037Z" transform="translate(-1361.919 -1138.272)" fill="#e49a00"/>
        </g>
        <g id="Group_32" data-name="Group 32" transform="translate(5.647 0.326)">
          <path id="Path_89" data-name="Path 89" d="M1371.908,1150.185s0,.009,0,.014c-.005-.024,0-.01,0,0s0,.014,0,.022a.7.7,0,0,1,0,.117s0,.009,0,.014,0-.008,0,0,0,.021-.006.031-.006.018-.008.028.007-.01,0,0a.151.151,0,0,0-.008.015l-.007.01c.011-.018.005,0,0,0s-.015.009,0,0c0,0-.008.008-.012.007l-.006,0s.015,0,.006,0l-.012,0s.015,0,0,0h-.019c-.009,0,.014,0,0,0l-.012,0-.023-.006a.184.184,0,0,1-.04-.017.822.822,0,0,1-.127-.086.071.071,0,0,0-.083-.011.07.07,0,0,0-.032.078c.006.018.01.036.015.054s.008.038.012.058.005.04,0,.016l0,.032c0,.022,0,.044,0,.067,0,.006,0,.023,0,0,0,0,0,.009,0,.014l0,.013s-.007.02,0,.008-.006.009-.008.013c.006-.015.009-.009,0,0s.014-.009,0,0-.012,0,0,0l-.013,0c-.01,0,.018,0,0,0s-.022,0-.01,0-.01,0-.014,0l-.025-.007-.011,0h0l-.028-.014a.982.982,0,0,1-.144-.1.069.069,0,0,0-.094.025.07.07,0,0,0,.025.094c.1.077.314.23.426.085a.391.391,0,0,0,.024-.31c-.006-.027-.012-.055-.021-.081l-.115.067c.106.085.3.231.432.1a.377.377,0,0,0,.074-.292.8.8,0,0,0-.01-.095.069.069,0,0,0-.085-.048.07.07,0,0,0-.048.085Z" transform="translate(-1371.197 -1150.098)" fill="#e49a00"/>
        </g>
        <g id="Group_33" data-name="Group 33" transform="translate(0 0.497)">
          <path id="Path_90" data-name="Path 90" d="M1167.145,1156.336l0,.012-.005.014c0,.013,0-.01,0-.006a.124.124,0,0,0-.005.012.643.643,0,0,1-.065.111s-.015.019,0,.005l-.013.016-.031.036a.751.751,0,0,1-.073.069l-.01.008h0l-.022.016-.052.034a.846.846,0,0,1-.108.054,1.155,1.155,0,0,1-.358.074c-.088,0-.089.143,0,.138a.969.969,0,0,0,.85-.479.478.478,0,0,0,.031-.076.069.069,0,0,0-.133-.037Z" transform="translate(-1166.33 -1156.287)" fill="#e49a00"/>
        </g>
        <g id="Group_34" data-name="Group 34" transform="translate(0.256 0.823)">
          <path id="Path_91" data-name="Path 91" d="M1176.319,1168.2s0,.009,0,.014c-.006-.024,0-.01,0,0s0,.015,0,.022a.758.758,0,0,1,0,.117s0,.009,0,.014,0-.008,0,0,0,.021-.006.031-.006.018-.009.028.007-.01,0,0l-.008.014-.007.01c.011-.018.005,0,0,0s-.016.009,0,0c0,0-.009.008-.011.007l-.006,0s.016,0,.007,0l-.012,0s.015,0,0,0h-.019c-.009,0,.014,0,0,0l-.012,0-.024-.007a.158.158,0,0,1-.039-.017.781.781,0,0,1-.128-.085.071.071,0,0,0-.083-.011.07.07,0,0,0-.032.078c.005.018.01.036.014.054s.009.038.012.057.006.041,0,.016c0,.011,0,.021,0,.032a.5.5,0,0,1,0,.067c0,.006,0,.022,0,0l0,.014,0,.013s-.007.02,0,.008-.006.009-.009.014c.006-.015.009-.009,0,0s.013-.01,0,0-.012,0,0,0l-.012,0c-.01,0,.018,0,0,0s-.022,0-.011,0-.009,0-.014,0l-.025-.007-.011,0c-.012,0,0,0,0,0l-.028-.014a1.082,1.082,0,0,1-.144-.1.069.069,0,0,0-.094.025.071.071,0,0,0,.024.094c.1.077.314.23.426.085a.392.392,0,0,0,.023-.31c-.005-.027-.012-.054-.02-.081l-.115.067c.106.085.3.23.432.1a.377.377,0,0,0,.074-.292.847.847,0,0,0-.011-.095.069.069,0,0,0-.085-.048.071.071,0,0,0-.048.085Z" transform="translate(-1175.609 -1168.113)" fill="#e49a00"/>
        </g>
        <g id="Group_35" data-name="Group 35" transform="translate(15.315 0.661)">
          <path id="Path_92" data-name="Path 92" d="M1721.993,1163.025a.614.614,0,0,0,.515-.464c.017-.107,0-.272-.129-.3s-.246.111-.268.226a.3.3,0,0,0,.032.207c.025.044.05.087.078.128a.069.069,0,1,0,.119-.069c-.024-.035-.045-.071-.066-.107a.219.219,0,0,1-.031-.077.161.161,0,0,1,.109-.174c-.01,0,0,0,0,0-.018,0,.006,0,0,0s0,.007,0,0,0,0,0,0-.005-.008,0,0l.007.011,0,.007c0-.006,0,.01,0,.011s.006.025.006.026,0,.017,0,.022a.327.327,0,0,1-.005.062.392.392,0,0,1-.137.225.592.592,0,0,1-.279.126.07.07,0,0,0-.048.085.07.07,0,0,0,.085.048Z" transform="translate(-1721.906 -1162.258)" fill="#e49a00"/>
        </g>
        <g id="Group_36" data-name="Group 36" transform="translate(13.599 0.661)">
          <path id="Path_93" data-name="Path 93" d="M1659.754,1163.025a.613.613,0,0,0,.515-.464c.017-.107,0-.272-.129-.3s-.246.111-.267.226a.3.3,0,0,0,.032.207c.025.044.051.087.079.128a.071.071,0,0,0,.095.025.07.07,0,0,0,.025-.095c-.024-.035-.045-.071-.066-.107a.2.2,0,0,1-.031-.077.16.16,0,0,1,.109-.174c-.01,0,0,0,0,0-.018,0,.007,0,0,0s.005.007,0,0,0,0,0,0-.005-.008,0,0l.007.011s.006.014,0,.007,0,.01,0,.011.006.025.006.026,0,.017,0,.022a.308.308,0,0,1-.005.062.391.391,0,0,1-.138.225.589.589,0,0,1-.278.126.069.069,0,0,0-.048.085.07.07,0,0,0,.085.048Z" transform="translate(-1659.667 -1162.258)" fill="#e49a00"/>
        </g>
      </g>
      <path id="Path_94" data-name="Path 94" d="M1306.33,723.948l.941-2.447s.527-1.48,1.652-1.417a1.259,1.259,0,0,1,.875.531.542.542,0,0,0-.189-.08,1.747,1.747,0,0,0-.471-.1c-.58-.039-.921.365-1.224.8s-.59.866-.863,1.314A7.44,7.44,0,0,0,1306.33,723.948Z" transform="translate(-1281.587 -714.071)" fill="#469791"/>
      <path id="Path_95" data-name="Path 95" d="M1341.879,735.842c.175-.271.26-.59.459-.857a1.455,1.455,0,0,1,1.423-.683c.352.07.842.242.759.681a.428.428,0,0,1-.644.246,1.269,1.269,0,0,0-1.082-.057A1.6,1.6,0,0,0,1341.879,735.842Z" transform="translate(-1316.156 -727.877)" fill="#fff"/>
      <g id="Group_38" data-name="Group 38" transform="translate(4.554 3.717)">
        <path id="Path_96" data-name="Path 96" d="M580.36,636.853c-.036,0-.071.01-.107.017-.088.016-.175.036-.262.059-.139.036-.277.078-.413.125-.187.064-.371.137-.553.217-.221.1-.438.2-.65.32q-.382.209-.743.452c-.282.19-.555.394-.817.609-.3.245-.587.506-.861.779-.312.31-.609.637-.89.975q-.476.574-.9,1.19-.112.163-.22.329c-.041.063.06.122.1.059.278-.425.573-.839.889-1.236.281-.354.577-.7.89-1.021.275-.286.562-.559.863-.818.261-.224.533-.437.814-.636.245-.173.5-.335.758-.485.219-.126.442-.243.671-.348l.151-.068.076-.033.024-.01.038-.016q.133-.055.269-.1c.146-.053.294-.1.443-.143.1-.028.2-.052.3-.073l.09-.017.028,0h.008a.06.06,0,0,0,.059-.059.059.059,0,0,0-.059-.059Z" transform="translate(-573.937 -636.852)" fill="#fff"/>
      </g>
      <g id="Group_39" data-name="Group 39" transform="translate(3.714 3.036)">
        <path id="Path_97" data-name="Path 97" d="M549.878,612.126c-.036,0-.071.01-.107.017-.088.016-.176.036-.262.059-.139.036-.277.078-.413.125-.187.064-.372.137-.553.217-.221.1-.438.2-.65.32-.255.139-.5.291-.743.452-.282.19-.554.394-.817.609-.3.245-.587.506-.861.779-.312.311-.609.637-.89.976q-.476.573-.9,1.19-.112.163-.22.329c-.041.063.06.122.1.059.278-.425.573-.839.889-1.236.281-.354.577-.7.89-1.021q.412-.429.863-.818c.261-.224.533-.437.814-.636q.368-.26.758-.485.328-.189.671-.348l.151-.068.076-.033.024-.01.038-.016q.133-.055.269-.1c.146-.053.294-.1.443-.143.1-.028.2-.052.3-.073l.09-.017.028,0c.01,0,.029,0,0,0h.006a.06.06,0,0,0,.058-.059.059.059,0,0,0-.058-.059Z" transform="translate(-543.454 -612.126)" fill="#fff"/>
      </g>
    </g>
  </g>
</svg>
