<svg xmlns="http://www.w3.org/2000/svg" width="63.75" height="60" viewBox="0 0 63.75 60">
  <g id="online-course" transform="translate(0 -15.057)">
    <path id="Path_243" data-name="Path 243" d="M61.882,21.62H51.87l-19.4-6.468a1.869,1.869,0,0,0-1.208.009L12.8,21.62H1.868A1.868,1.868,0,0,0,0,23.488v42.2a1.868,1.868,0,0,0,1.868,1.868H18.754V71.32H13.121a1.868,1.868,0,0,0,0,3.736H50.63a1.868,1.868,0,0,0,0-3.736H45V67.555H61.882a1.868,1.868,0,0,0,1.868-1.868v-42.2a1.868,1.868,0,0,0-1.868-1.868Zm-40.329,6.8c10.007,3.51,9.868,3.5,10.322,3.5.433,0,.294.009,10.322-3.34v4.877l-10.322,3.97-10.322-3.97ZM31.89,18.9l13.77,4.59-13.77,4.59-13.114-4.59ZM41.26,71.32H22.491V67.555H41.26V71.32Zm18.754-7.5H3.736V25.357H12.8l5.014,1.755v7.63a1.868,1.868,0,0,0,1.2,1.744C31.48,41.292,31.379,41.3,31.875,41.3s.4,0,12.861-4.814a1.868,1.868,0,0,0,1.2-1.744V27.336L49.7,26.08V36.617a1.868,1.868,0,0,0,3.736,0V25.357h6.578Z" transform="translate(0)" fill="#0e3c54"/>
    <path id="Path_244" data-name="Path 244" d="M69.682,271.059H62.118a1.884,1.884,0,0,0-1.884,1.884v7.564a1.884,1.884,0,0,0,1.884,1.884h7.564a1.884,1.884,0,0,0,1.884-1.884v-7.564A1.884,1.884,0,0,0,69.682,271.059ZM67.8,278.623H64v-3.8h3.8Z" transform="translate(-52.67 -224.181)" fill="#e49a00"/>
    <path id="Path_245" data-name="Path 245" d="M182.589,271.059a1.884,1.884,0,1,0,0,3.767h30.257a1.884,1.884,0,1,0,0-3.767Z" transform="translate(-158.543 -224.137)" fill="#58b6b0"/>
    <path id="Path_246" data-name="Path 246" d="M212.846,331.294H182.589a1.884,1.884,0,0,0,0,3.767h30.257a1.884,1.884,0,0,0,0-3.767Z" transform="translate(-158.543 -276.875)" fill="#58b6b0"/>
  </g>
</svg>
