<svg xmlns="http://www.w3.org/2000/svg" width="60" height="60" viewBox="0 0 60 60">
  <g id="question" transform="translate(0 0)">
    <path id="Path_247" data-name="Path 247" d="M180.308,210.654a1.787,1.787,0,1,1-1.787-1.787A1.787,1.787,0,0,1,180.308,210.654Zm0,0" transform="translate(-156.045 -184.416)" fill="#58b6b0"/>
    <path id="Path_248" data-name="Path 248" d="M49.769,13.18H44.938V10.231A10.225,10.225,0,0,0,34.707,0H10.23A10.224,10.224,0,0,0,0,10.231V43.18a1.758,1.758,0,0,0,2.883,1.35l10.808-9.007h1.371v4.832A10.224,10.224,0,0,0,25.293,50.586H46.309l10.808,9.007A1.758,1.758,0,0,0,60,58.242V23.41A10.224,10.224,0,0,0,49.769,13.18ZM13.054,32.008a1.758,1.758,0,0,0-1.125.407L3.516,39.427v-29.2A6.711,6.711,0,0,1,10.23,3.516H34.707a6.711,6.711,0,0,1,6.715,6.715V25.293a6.722,6.722,0,0,1-6.715,6.714ZM56.484,54.49l-8.414-7.012a1.758,1.758,0,0,0-1.125-.407H25.293a6.716,6.716,0,0,1-6.715-6.715V35.524H34.707a10.176,10.176,0,0,0,5.908-1.883h8.213a1.758,1.758,0,1,0,0-3.516H43.722A10.155,10.155,0,0,0,44.9,26.11h3.923a1.758,1.758,0,1,0,0-3.516H44.937V16.7h4.832a6.714,6.714,0,0,1,6.715,6.714Zm0,0" fill="#0e3c54"/>
    <path id="Path_249" data-name="Path 249" d="M140.14,70.836a3,3,0,1,1,3,3,1.787,1.787,0,0,0-1.787,1.787v1.914a1.787,1.787,0,1,0,3.574,0v-.374a6.574,6.574,0,1,0-8.36-6.328v0a1.787,1.787,0,0,0,3.574,0Zm0,0" transform="translate(-120.636 -56.609)" fill="#58b6b0"/>
    <path id="Path_250" data-name="Path 250" d="M233.625,321.332h-22.97a1.787,1.787,0,0,0,0,3.574h22.97a1.787,1.787,0,1,0,0-3.574Zm0,0" transform="translate(-184.705 -283.715)" fill="#e49a00"/>
  </g>
</svg>
