<svg xmlns="http://www.w3.org/2000/svg">
  <symbol id="snapchat" viewBox="0 0 24 24">
    <path d="M12.206.793c.99 0 4.347.276 5.93 3.821.529 1.193.403 3.219.299 4.847l-.003.06c-.012.18-.022.345-.03.51.075.045.203.09.401.09.3-.016.659-.12 1.033-.301.165-.088.344-.104.464-.104.182 0 .359.029.509.09.45.149.734.479.734.838.015.449-.39.839-1.213 1.168-.089.029-.209.075-.344.119-.45.135-1.139.36-1.333.81-.09.224-.061.524.12.868l.015.015c.06.136 1.526 3.475 4.791 4.014.255.044.435.27.42.509 0 .075-.015.149-.045.225-.24.569-1.273.988-3.146 1.271-.059.091-.12.375-.164.57-.029.179-.074.36-.134.553-.076.271-.27.405-.555.405h-.03c-.135 0-.313-.031-.538-.074-.36-.075-.765-.135-1.273-.135-.3 0-.599.015-.913.074-.6.104-1.123.464-1.723.884-.853.599-1.826 1.288-3.294 1.288-.06 0-.119-.015-.18-.015h-.149c-1.468 0-2.427-.675-3.279-1.288-.599-.42-1.107-.779-1.707-.884-.314-.045-.629-.074-.928-.074-.54 0-.958.089-1.272.149-.211.043-.391.074-.54.074-.374 0-.523-.224-.583-.42-.061-.192-.09-.389-.135-.567-.046-.181-.105-.494-.166-.57-1.918-.222-2.95-.642-3.189-1.226-.031-.063-.052-.15-.055-.225-.015-.243.165-.465.42-.509 3.264-.54 4.73-3.879 4.791-4.02l.016-.029c.18-.345.224-.645.119-.869-.195-.434-.884-.658-1.332-.809-.121-.029-.24-.074-.346-.119-1.107-.435-1.257-.93-1.197-1.273.09-.479.674-.793 1.168-.793.146 0 .27.029.383.074.42.194.789.3 1.104.3.234 0 .384-.06.465-.105l-.046-.569c-.098-1.626-.225-3.651.307-4.837C7.392 1.077 10.739.807 11.727.807l.419-.015h.06z" fill=""/>
  </symbol>
  <symbol id="facebook" viewBox="0 0 10.788 20">
    <path d="M31.4,21.389H28.926c-.4,0-.526-.15-.526-.526V17.835c0-.4.15-.526.526-.526H31.4v-2.2a5.56,5.56,0,0,1,.676-2.829,4.153,4.153,0,0,1,2.228-1.852,5.569,5.569,0,0,1,1.927-.325h2.453c.35,0,.5.15.5.5v2.854c0,.35-.15.5-.5.5-.676,0-1.352,0-2.028.025a.9.9,0,0,0-1.026,1.026c-.025.751,0,1.477,0,2.253h2.9c.4,0,.551.15.551.551v3.029c0,.4-.125.526-.551.526h-2.9v8.16c0,.426-.125.576-.576.576H31.929c-.375,0-.526-.15-.526-.526V21.389Z" transform="translate(-28.4 -10.1)" fill=""/>
  </symbol>
  <symbol id="instagram" viewBox="0 0 20.264 20">
    <path d="M14.384,0H5.89C2.2,0,0,2.17,0,5.81v8.37C0,17.83,2.2,20,5.89,20h8.485c3.69,0,5.89-2.17,5.89-5.81V5.81C20.274,2.17,18.074,0,14.384,0ZM10.137,13.88A3.88,3.88,0,1,1,14.07,10,3.911,3.911,0,0,1,10.137,13.88Zm6-9a1.153,1.153,0,0,1-.213.33,1.173,1.173,0,0,1-.335.21,1.021,1.021,0,0,1-.385.08,1.01,1.01,0,0,1-.72-.29,1.153,1.153,0,0,1-.213-.33.931.931,0,0,1,0-.76.978.978,0,0,1,1.125-.6.618.618,0,0,1,.193.06.772.772,0,0,1,.182.09,1.593,1.593,0,0,1,.152.12,1.031,1.031,0,0,1,.213.33.931.931,0,0,1,0,.76Z" fill=""/>
  </symbol>
  <symbol id="twitter" viewBox="0 0 24.914 20">
    <path d="M34.814,19.866a10.59,10.59,0,0,1-2.927.8,4.927,4.927,0,0,0,2.242-2.8A10.845,10.845,0,0,1,30.89,19.1a5.158,5.158,0,0,0-3.737-1.6,5.076,5.076,0,0,0-5.107,5.038,4.547,4.547,0,0,0,.125,1.137,14.443,14.443,0,0,1-10.5-5.253,5.018,5.018,0,0,0,1.557,6.728,4.956,4.956,0,0,1-2.3-.614,5.108,5.108,0,0,0,4.08,5.008,5.68,5.68,0,0,1-2.3.092,5.12,5.12,0,0,0,4.765,3.5A10.389,10.389,0,0,1,9.9,35.227,14.551,14.551,0,0,0,17.748,37.5,14.3,14.3,0,0,0,32.26,23.184a4.477,4.477,0,0,0-.031-.645,10.06,10.06,0,0,0,2.585-2.673Z" transform="translate(-9.9 -17.5)" fill=""/>
  </symbol>
  <symbol id="youtube" viewBox="0 0 28.619 20">
    <path d="M28.221,62.993a3.174,3.174,0,0,0-2.567-2.581,93.226,93.226,0,0,0-22.687,0A3.174,3.174,0,0,0,.4,62.993a56.91,56.91,0,0,0,0,13.454,3.173,3.173,0,0,0,2.568,2.581,93.225,93.225,0,0,0,22.687,0,3.173,3.173,0,0,0,2.567-2.581A56.9,56.9,0,0,0,28.221,62.993Zm-16.3,11.433V65.015l7.155,4.706Z" transform="translate(0 -59.72)" fill=""/>
  </symbol>

</svg>