<svg id="teacher" xmlns="http://www.w3.org/2000/svg" width="60" height="60" viewBox="0 0 60 60">
  <path id="Path_247" data-name="Path 247" d="M37.884,41.858H1.787A1.787,1.787,0,0,1,0,40.071V1.787A1.787,1.787,0,0,1,1.787,0H49.642a1.787,1.787,0,0,1,1.787,1.787V18.06a1.787,1.787,0,1,1-3.574,0V3.574H3.574v34.71h34.31a1.787,1.787,0,1,1,0,3.574Z" fill="#0e3c54"/>
  <path id="Path_248" data-name="Path 248" d="M166.769,311.946h-.486a5.615,5.615,0,0,1-5.616-5.615,5.617,5.617,0,0,1,5.615-5.618h8.463L180,290.218a1.787,1.787,0,0,1,3.385.8v15.31a1.787,1.787,0,0,1-.189.8,8.669,8.669,0,0,1-7.793,4.818Zm-.487-7.66a2.043,2.043,0,0,0-2.041,2.041,2.041,2.041,0,0,0,2.039,2.044H175.4a5.111,5.111,0,0,0,4.408-2.5v-7.292l-2.361,4.718a1.787,1.787,0,0,1-1.6.987Z" transform="translate(-142.025 -255.771)" fill="#0e3c54"/>
  <path id="Path_249" data-name="Path 249" d="M332.691,249.049a1.786,1.786,0,0,1,.8.189l9.571,4.784a1.787,1.787,0,0,1,.988,1.6v22.97a1.787,1.787,0,0,1-1.787,1.787H323.12a1.787,1.787,0,0,1-1.787-1.787V255.624a1.787,1.787,0,0,1,.988-1.6l9.571-4.787A1.786,1.786,0,0,1,332.691,249.049Zm7.784,7.675-7.784-3.89-7.784,3.894V276.8h15.568Z" transform="translate(-284.049 -220.377)" fill="#0e3c54"/>
  <path id="Line_5" data-name="Line 5" d="M-4.792,5.417a1.787,1.787,0,0,1-1.6-.988l-8.422-16.845a1.787,1.787,0,0,1,.8-2.4,1.787,1.787,0,0,1,2.4.8L-3.195,2.83a1.787,1.787,0,0,1-.8,2.4A1.78,1.78,0,0,1-4.792,5.417Z" transform="translate(26.254 44.875)" fill="#0e3c54"/>
  <path id="Ellipse_23" data-name="Ellipse 23" d="M-6.513-15A8.5,8.5,0,0,1,1.973-6.513,8.5,8.5,0,0,1-6.513,1.973,8.5,8.5,0,0,1-15-6.513,8.5,8.5,0,0,1-6.513-15Zm0,13.4A4.918,4.918,0,0,0-1.6-6.513a4.918,4.918,0,0,0-4.913-4.913,4.918,4.918,0,0,0-4.913,4.913A4.918,4.918,0,0,0-6.513-1.6Z" transform="translate(55.155 30.903)" fill="#0e3c54"/>
  <path id="Line_6" data-name="Line 6" d="M2.1-11.426H-13.213A1.787,1.787,0,0,1-15-13.213,1.787,1.787,0,0,1-13.213-15H2.1a1.787,1.787,0,0,1,1.787,1.787A1.787,1.787,0,0,1,2.1-11.426Z" transform="translate(22.657 22.657)" fill="#58b6b0"/>
  <path id="Line_7" data-name="Line 7" d="M13.725-11.426H-13.213A1.787,1.787,0,0,1-15-13.213,1.787,1.787,0,0,1-13.213-15H13.725a1.787,1.787,0,0,1,1.787,1.787A1.787,1.787,0,0,1,13.725-11.426Z" transform="translate(22.657 30.047)" fill="#e49a00"/>
  <path id="Line_8" data-name="Line 8" d="M7.843-11.426H-13.213A1.787,1.787,0,0,1-15-13.213,1.787,1.787,0,0,1-13.213-15H7.843A1.787,1.787,0,0,1,9.63-13.213,1.787,1.787,0,0,1,7.843-11.426Z" transform="translate(22.657 37.572)" fill="#58b6b0"/>
</svg>
