<svg id="Group_171" data-name="Group 171" xmlns="http://www.w3.org/2000/svg" width="505.514" height="495" viewBox="0 0 505.514 495">
  <g id="Group_48" data-name="Group 48" transform="translate(8.94 7.471)">
    <path id="Path_109" data-name="Path 109" d="M42.425,285.358C24.166,168.559,121.6,50.835,249.536,36.213q2.389-.272,4.783-.51c89.392-8.879,171.1,59.4,194.466,111.484s84.507,101.627,61.844,198.157S426.4,493.308,282.048,508.531s-170.984-26.062-209.3-116.25A461.5,461.5,0,0,1,42.425,285.358Z" transform="translate(-40.22 -34.918)" fill="rgba(88,182,176,0.1)" opacity="0.9"/>
  </g>
  <path id="Path_110" data-name="Path 110" d="M131.517,263.9s4.765-27.795,29.383-33.354,32.559,6.353,37.324,16.676,8.735.794,23.03,0,19.059,9.53,22.236,15.883,4.765,1.588,15.882,2.382,14.3,7.942,15.089,11.118-182.65,0-182.65,0,0-10.324,11.118-17.471S124.369,266.286,131.517,263.9Z" transform="translate(153.21 -8.506)" fill="none" stroke="#e49a00" stroke-linecap="round" stroke-linejoin="round" stroke-width="2"/>
  <path id="Path_111" data-name="Path 111" d="M337.544,319.628s3-17.508,18.509-21.01,20.509,4,23.512,10.5,5.5.5,14.507,0,12.005,6,14.007,10,3,1,10,1.5,9,5,9.5,7-115.055,0-115.055,0,0-6.5,7-11.005S333.043,321.129,337.544,319.628Z" transform="translate(-242.179 -1.819)" fill="none" stroke="#e49a00" stroke-linecap="round" stroke-linejoin="round" stroke-width="2"/>
  <path id="Path_112" data-name="Path 112" d="M90.044,101.8s3-17.508,18.509-21.01,20.509,4,23.511,10.5,5.5.5,14.507,0,12.006,6,14.007,10,3,1,10,1.5,9,5,9.505,7-115.055,0-115.055,0,0-6.5,7-11S85.542,103.3,90.044,101.8Z" transform="translate(276.984 -23.068)" fill="none" stroke="#e49a00" stroke-linecap="round" stroke-linejoin="round" stroke-width="2"/>
  <g id="Group_85" data-name="Group 85" transform="translate(111.9 410.557)">
    <g id="Group_66" data-name="Group 66" transform="translate(28.382 3.564)">
      <g id="Group_49" data-name="Group 49" transform="translate(9.86 9.883)">
        <path id="Path_113" data-name="Path 113" d="M345.28,467.024a.425.425,0,0,1-.556-.144,53.611,53.611,0,0,1-3.019-52.206.422.422,0,1,1,.758.371,52.761,52.761,0,0,0,2.972,51.379.422.422,0,0,1-.127.584Z" transform="translate(-336.327 -414.437)" fill="#0e3c54"/>
      </g>
      <g id="Group_52" data-name="Group 52" transform="translate(2.236 44.191)">
        <g id="Group_50" data-name="Group 50" transform="translate(12.081)">
          <path id="Path_114" data-name="Path 114" d="M338.013,445.884c-5.068,1-4.825,9.333-4.614,9.379q.467,1.246,1,2.476c-.071-1.188,1.4-3.713,4.461-6.118C341.807,449.128,342.8,444.754,338.013,445.884Z" transform="translate(-333.311 -445.701)" fill="#0e3c54"/>
        </g>
        <g id="Group_51" data-name="Group 51" transform="translate(0 3.654)">
          <path id="Path_115" data-name="Path 115" d="M341.993,449.116c-4.935,1.158-.985,6.921,3.1,6.867,4,.081,6.829.675,7.71,1.464q-.617-1.192-1.171-2.41C351.481,455.175,346.706,448.193,341.993,449.116Z" transform="translate(-339.695 -449.031)" fill="#0e3c54"/>
        </g>
      </g>
      <g id="Group_55" data-name="Group 55" transform="translate(0.264 36.79)">
        <g id="Group_53" data-name="Group 53" transform="translate(11.398)">
          <path id="Path_116" data-name="Path 116" d="M340.8,438.974c-5.158.143-6.339,8.314-6.146,8.386q.245,1.289.555,2.57c.138-1.165,2.026-3.379,5.451-5.216C343.995,442.774,345.719,438.666,340.8,438.974Z" transform="translate(-334.638 -438.957)" fill="#0e3c54"/>
        </g>
        <g id="Group_54" data-name="Group 54" transform="translate(0 1.087)">
          <path id="Path_117" data-name="Path 117" d="M345.276,439.949c-5.058.315-2.144,6.6,1.88,7.215,3.923.737,6.6,1.779,7.332,2.689q-.4-1.258-.733-2.533C353.6,447.438,350.08,439.836,345.276,439.949Z" transform="translate(-342.587 -439.948)" fill="#0e3c54"/>
        </g>
      </g>
      <g id="Group_58" data-name="Group 58" transform="translate(0 27.719)">
        <g id="Group_56" data-name="Group 56" transform="translate(10.45 1.416)">
          <path id="Path_118" data-name="Path 118" d="M342.29,432.027c-5.108-.717-7.639,7.11-7.463,7.207q.025,1.3.114,2.605c.334-1.115,2.567-2.967,6.252-4.2C344.8,436.3,347.187,432.548,342.29,432.027Z" transform="translate(-334.818 -431.981)" fill="#0e3c54"/>
        </g>
        <g id="Group_57" data-name="Group 57">
          <path id="Path_119" data-name="Path 119" d="M347.183,430.721c-5.038-.531-3.214,6.133.647,7.4,3.744,1.377,6.211,2.841,6.775,3.851q-.179-1.3-.3-2.6C354.134,439.469,351.941,431.419,347.183,430.721Z" transform="translate(-344.106 -430.691)" fill="#0e3c54"/>
        </g>
      </g>
      <g id="Group_61" data-name="Group 61" transform="translate(1.415 17.588)">
        <g id="Group_59" data-name="Group 59" transform="translate(8.989 3.86)">
          <path id="Path_120" data-name="Path 120" d="M342.757,425.193c-4.919-1.557-8.724,5.751-8.565,5.871q-.194,1.287-.323,2.584c.515-1.041,3.024-2.491,6.863-3.089C344.516,429.841,347.5,426.53,342.757,425.193Z" transform="translate(-333.87 -424.976)" fill="#0e3c54"/>
        </g>
        <g id="Group_60" data-name="Group 60">
          <path id="Path_121" data-name="Path 121" d="M347.611,421.636c-4.88-1.365-4.2,5.532-.6,7.425,3.461,1.984,5.649,3.837,6.037,4.926q.039-1.305.143-2.608C353,431.448,352.182,423.129,347.611,421.636Z" transform="translate(-344.131 -421.458)" fill="#0e3c54"/>
        </g>
      </g>
      <g id="Group_64" data-name="Group 64" transform="translate(4.463 7.74)">
        <g id="Group_62" data-name="Group 62" transform="translate(7.256 6.179)">
          <path id="Path_122" data-name="Path 122" d="M342.009,418.624c-4.59-2.361-9.6,4.265-9.454,4.4q-.407,1.243-.753,2.505c.682-.944,3.4-1.961,7.289-1.914C342.942,423.541,346.453,420.745,342.009,418.624Z" transform="translate(-331.803 -418.116)" fill="#0e3c54"/>
        </g>
        <g id="Group_63" data-name="Group 63">
          <path id="Path_123" data-name="Path 123" d="M346.464,412.9c-4.583-2.167-5.1,4.8-1.87,7.28,3.076,2.546,4.922,4.748,5.12,5.888q.258-1.284.58-2.559C350.09,423.55,350.708,415.149,346.464,412.9Z" transform="translate(-342.531 -412.485)" fill="#0e3c54"/>
        </g>
      </g>
      <g id="Group_65" data-name="Group 65" transform="translate(13.681)">
        <path id="Path_124" data-name="Path 124" d="M332.906,419.38c-.128.049.572-7.466,2.638-11.046,1.927-3.575,5.066-2.975,5.925-1.423.889,1.546-.555,3.981-2.165,5.729C337.575,414.24,332.835,419.277,332.906,419.38Z" transform="translate(-332.616 -405.406)" fill="#0e3c54"/>
        <path id="Path_125" data-name="Path 125" d="M333.053,419.652a.194.194,0,0,1-.033.016.29.29,0,0,1-.319-.082.1.1,0,0,1-.014-.024.2.2,0,0,1-.043-.216c-.111-1.39.894-8.051,2.67-11.127a4.626,4.626,0,0,1,3.866-2.787,2.881,2.881,0,0,1,2.549,1.368c1.2,2.09-1.384,5.164-2.2,6.055-1.685,1.561-6,6.149-6.339,6.644A.274.274,0,0,1,333.053,419.652Zm4.7-13.277a4.963,4.963,0,0,0-1.945,2.118c-1.631,2.824-2.388,8.068-2.573,10.069.392-.443,1.019-1.116,2.007-2.16,1.271-1.344,2.961-3.087,3.887-3.944,1.541-1.676,2.918-3.982,2.112-5.383a2.314,2.314,0,0,0-2.056-1.082A3.024,3.024,0,0,0,337.749,406.375Z" transform="translate(-332.629 -405.431)" fill="#0e3c54"/>
      </g>
    </g>
    <g id="Group_84" data-name="Group 84">
      <g id="Group_67" data-name="Group 67" transform="translate(11.941 13.433)">
        <path id="Path_126" data-name="Path 126" d="M371.169,470.892a.508.508,0,0,1-.683.112,64.593,64.593,0,0,1-28.7-56.092.508.508,0,0,1,1.016.041,63.571,63.571,0,0,0,28.245,55.2.509.509,0,0,1,.144.706Z" transform="translate(-341.737 -414.425)" fill="#0e3c54"/>
      </g>
      <g id="Group_70" data-name="Group 70" transform="translate(16.926 48.671)">
        <g id="Group_68" data-name="Group 68" transform="translate(13.401)">
          <path id="Path_127" data-name="Path 127" d="M347.822,447.715c-5.1,3.564-.786,12.635-.53,12.584q1.121,1.145,2.308,2.242c-.656-1.275-.259-4.775,1.946-8.913C353.582,449.447,352.556,444.141,347.822,447.715Z" transform="translate(-345.344 -446.536)" fill="#0e3c54"/>
        </g>
        <g id="Group_69" data-name="Group 69" transform="translate(0 11.059)">
          <path id="Path_128" data-name="Path 128" d="M349.712,457.693c-4.878,3.675,2.276,8.11,6.75,6.068,4.449-1.855,7.857-2.576,9.212-2.133q-1.261-1.014-2.463-2.087C363.118,459.762,354.459,454.385,349.712,457.693Z" transform="translate(-348.075 -456.614)" fill="#0e3c54"/>
        </g>
      </g>
      <g id="Group_73" data-name="Group 73" transform="translate(9.839 41.341)">
        <g id="Group_71" data-name="Group 71" transform="translate(14.425)">
          <path id="Path_129" data-name="Path 129" d="M353.725,440.6c-5.618,2.663-2.951,12.246-2.7,12.233q.9,1.3,1.861,2.562c-.415-1.351.59-4.708,3.474-8.4C359.09,443.24,358.995,437.874,353.725,440.6Z" transform="translate(-350.174 -439.857)" fill="#0e3c54"/>
        </g>
        <g id="Group_72" data-name="Group 72" transform="translate(0 8.61)">
          <path id="Path_130" data-name="Path 130" d="M357.114,448.247c-5.421,2.806.845,8.319,5.579,7.042,4.685-1.093,8.147-1.249,9.392-.6q-1.052-1.193-2.04-2.436C369.925,452.461,362.357,445.788,357.114,448.247Z" transform="translate(-355.018 -447.702)" fill="#0e3c54"/>
        </g>
      </g>
      <g id="Group_76" data-name="Group 76" transform="translate(4.592 33.267)">
        <g id="Group_74" data-name="Group 74" transform="translate(14.679)">
          <path id="Path_131" data-name="Path 131" d="M358.648,432.865c-5.979,1.693-4.967,11.551-4.725,11.573q.66,1.424,1.391,2.818c-.174-1.393,1.387-4.519,4.852-7.666C363.494,436.353,364.3,431.059,358.648,432.865Z" transform="translate(-353.707 -432.499)" fill="#0e3c54"/>
        </g>
        <g id="Group_75" data-name="Group 75" transform="translate(0 5.799)">
          <path id="Path_132" data-name="Path 132" d="M363.14,437.985c-5.813,1.862-.563,8.324,4.312,7.846,4.8-.3,8.228.114,9.339.954q-.826-1.341-1.588-2.722C375.056,444.252,368.724,436.443,363.14,437.985Z" transform="translate(-360.582 -437.783)" fill="#0e3c54"/>
        </g>
      </g>
      <g id="Group_79" data-name="Group 79" transform="translate(1.283 24.59)">
        <g id="Group_77" data-name="Group 77" transform="translate(14.158)">
          <path id="Path_133" data-name="Path 133" d="M362.554,424.682c-6.179.674-6.822,10.582-6.59,10.635q.413,1.513.9,3.006c.063-1.4,2.124-4.216,6.066-6.74C366.753,428.952,368.43,423.854,362.554,424.682Z" transform="translate(-355.926 -424.592)" fill="#0e3c54"/>
        </g>
        <g id="Group_78" data-name="Group 78" transform="translate(0 2.759)">
          <path id="Path_134" data-name="Path 134" d="M367.707,427.134c-6.044.866-1.942,8.139,2.943,8.479,4.781.506,8.094,1.486,9.05,2.5q-.591-1.457-1.111-2.945C378.414,435.335,373.471,426.56,367.707,427.134Z" transform="translate(-364.687 -427.107)" fill="#0e3c54"/>
        </g>
      </g>
      <g id="Group_82" data-name="Group 82" transform="translate(0 15.075)">
        <g id="Group_80" data-name="Group 80" transform="translate(13.161 0.335)">
          <path id="Path_135" data-name="Path 135" d="M365.087,416.237c-6.21-.373-8.507,9.366-8.283,9.45q.155,1.569.386,3.129c.294-1.373,2.8-3.816,7.106-5.651C368.5,421.206,371.016,416.416,365.087,416.237Z" transform="translate(-356.79 -416.227)" fill="#0e3c54"/>
        </g>
        <g id="Group_81" data-name="Group 81">
          <path id="Path_136" data-name="Path 136" d="M370.749,415.923c-6.106-.164-3.288,7.775,1.476,8.934,4.63,1.314,7.734,2.844,8.508,4q-.339-1.541-.6-3.1C379.924,425.907,376.523,416.344,370.749,415.923Z" transform="translate(-367.258 -415.921)" fill="#0e3c54"/>
        </g>
      </g>
      <g id="Group_83" data-name="Group 83" transform="translate(9.606)">
        <path id="Path_137" data-name="Path 137" d="M366.533,420.939c-.117.117-3-8.509-2.459-13.459.386-4.878,4.139-5.742,5.84-4.449,1.732,1.272,1.322,4.658.4,7.369C369.182,413,366.4,420.861,366.533,420.939Z" transform="translate(-363.671 -402.153)" fill="#0e3c54"/>
        <path id="Path_138" data-name="Path 138" d="M366.822,421.177a.209.209,0,0,1-.03.033.347.347,0,0,1-.391.065.133.133,0,0,1-.029-.019.248.248,0,0,1-.152-.22c-.8-1.478-2.927-9.311-2.462-13.564.19-2.4,1.248-4.209,2.907-4.951a3.47,3.47,0,0,1,3.475.27c2.342,1.721.984,6.365.512,7.747-1.1,2.54-3.625,9.694-3.761,10.406A.335.335,0,0,1,366.822,421.177Zm-1.275-16.921a5.991,5.991,0,0,0-1.114,3.28c-.426,3.905,1.287,10.055,2.055,12.353.217-.679.583-1.726,1.163-3.357.749-2.1,1.765-4.843,2.369-6.237.886-2.6,1.283-5.808-.286-6.962a2.79,2.79,0,0,0-2.793-.193A3.673,3.673,0,0,0,365.547,404.256Z" transform="translate(-363.693 -402.183)" fill="#0e3c54"/>
      </g>
    </g>
  </g>
  <g id="Group_122" data-name="Group 122" transform="translate(79.069 446.858)">
    <g id="Group_103" data-name="Group 103" transform="translate(15.683 1.718)">
      <g id="Group_86" data-name="Group 86" transform="translate(5.449 4.766)">
        <path id="Path_139" data-name="Path 139" d="M390.52,466.525a.253.253,0,0,1-.307-.069,23.033,23.033,0,0,1-1.668-25.17.249.249,0,0,1,.312-.093.192.192,0,0,1,.106.272,22.67,22.67,0,0,0,1.643,24.772.188.188,0,0,1-.07.281Z" transform="translate(-385.573 -441.172)" fill="#0e3c54"/>
      </g>
      <g id="Group_89" data-name="Group 89" transform="translate(1.236 21.307)">
        <g id="Group_87" data-name="Group 87" transform="translate(6.675)">
          <path id="Path_140" data-name="Path 140" d="M386.5,456.334c-2.8.481-2.666,4.5-2.55,4.522q.259.6.554,1.193c-.04-.573.774-1.79,2.465-2.95C388.6,457.9,389.153,455.789,386.5,456.334Z" transform="translate(-383.906 -456.246)" fill="#0e3c54"/>
        </g>
        <g id="Group_88" data-name="Group 88" transform="translate(0 1.762)">
          <path id="Path_141" data-name="Path 141" d="M388.7,457.892c-2.727.559-.545,3.337,1.71,3.311,2.21.039,3.774.325,4.261.706q-.341-.574-.647-1.161C393.947,460.813,391.308,457.447,388.7,457.892Z" transform="translate(-387.434 -457.851)" fill="#0e3c54"/>
        </g>
      </g>
      <g id="Group_92" data-name="Group 92" transform="translate(0.146 17.738)">
        <g id="Group_90" data-name="Group 90" transform="translate(6.299)">
          <path id="Path_142" data-name="Path 142" d="M388.047,453c-2.85.069-3.5,4.008-3.4,4.044q.135.62.307,1.239c.076-.562,1.118-1.63,3.011-2.515C389.81,454.834,390.763,452.854,388.047,453Z" transform="translate(-384.64 -452.994)" fill="#0e3c54"/>
        </g>
        <g id="Group_91" data-name="Group 91" transform="translate(0 0.524)">
          <path id="Path_143" data-name="Path 143" d="M390.517,453.472c-2.794.152-1.184,3.182,1.039,3.479,2.168.356,3.65.857,4.052,1.3q-.221-.606-.406-1.221C395.115,457.082,393.173,453.417,390.517,453.472Z" transform="translate(-389.032 -453.472)" fill="#0e3c54"/>
        </g>
      </g>
      <g id="Group_95" data-name="Group 95" transform="translate(0 13.364)">
        <g id="Group_93" data-name="Group 93" transform="translate(5.774 0.682)">
          <path id="Path_144" data-name="Path 144" d="M388.868,449.652c-2.822-.345-4.221,3.428-4.124,3.475q.013.629.063,1.257c.184-.538,1.419-1.431,3.454-2.023C390.256,451.712,391.574,449.9,388.868,449.652Z" transform="translate(-384.74 -449.63)" fill="#0e3c54"/>
        </g>
        <g id="Group_94" data-name="Group 94">
          <path id="Path_145" data-name="Path 145" d="M391.572,449.022c-2.784-.256-1.777,2.957.358,3.569,2.068.665,3.431,1.371,3.743,1.857q-.1-.624-.162-1.253C395.413,453.241,394.2,449.359,391.572,449.022Z" transform="translate(-389.872 -449.008)" fill="#0e3c54"/>
        </g>
      </g>
      <g id="Group_98" data-name="Group 98" transform="translate(0.781 8.48)">
        <g id="Group_96" data-name="Group 96" transform="translate(4.967 1.861)">
          <path id="Path_146" data-name="Path 146" d="M389.126,446.357c-2.718-.751-4.821,2.774-4.733,2.831-.07.414-.131.828-.178,1.245.284-.5,1.671-1.2,3.793-1.489C390.1,448.6,391.746,447,389.126,446.357Z" transform="translate(-384.216 -446.253)" fill="#0e3c54"/>
        </g>
        <g id="Group_97" data-name="Group 97">
          <path id="Path_147" data-name="Path 147" d="M391.808,444.643c-2.7-.658-2.321,2.667-.332,3.58,1.913.957,3.122,1.85,3.336,2.375q.021-.629.079-1.258C394.785,449.373,394.334,445.362,391.808,444.643Z" transform="translate(-389.885 -444.557)" fill="#0e3c54"/>
        </g>
      </g>
      <g id="Group_101" data-name="Group 101" transform="translate(2.466 3.732)">
        <g id="Group_99" data-name="Group 99" transform="translate(4.01 2.98)">
          <path id="Path_148" data-name="Path 148" d="M388.713,443.191c-2.537-1.139-5.3,2.056-5.224,2.123q-.225.6-.416,1.208c.376-.455,1.88-.946,4.027-.923C389.228,445.561,391.168,444.212,388.713,443.191Z" transform="translate(-383.073 -442.946)" fill="#0e3c54"/>
        </g>
        <g id="Group_100" data-name="Group 100">
          <path id="Path_149" data-name="Path 149" d="M391.174,440.429c-2.532-1.045-2.818,2.316-1.033,3.51,1.7,1.228,2.719,2.289,2.829,2.839q.143-.619.321-1.233C393.178,445.565,393.52,441.515,391.174,440.429Z" transform="translate(-389.001 -440.23)" fill="#0e3c54"/>
        </g>
      </g>
      <g id="Group_102" data-name="Group 102" transform="translate(7.559)">
        <path id="Path_150" data-name="Path 150" d="M383.683,443.555a13.426,13.426,0,0,1,1.457-5.325c1.064-1.724,2.8-1.434,3.274-.686.491.745-.307,1.919-1.2,2.762C386.263,441.077,383.643,443.505,383.683,443.555Z" transform="translate(-383.522 -436.817)" fill="#0e3c54"/>
        <path id="Path_151" data-name="Path 151" d="M383.764,443.687l-.019.008a.178.178,0,0,1-.176-.04l-.009-.012a.09.09,0,0,1-.023-.1,12.952,12.952,0,0,1,1.475-5.365,2.575,2.575,0,0,1,2.137-1.344,1.663,1.663,0,0,1,1.409.661c.664,1.007-.765,2.49-1.218,2.919-.932.753-3.315,2.965-3.5,3.2A.143.143,0,0,1,383.764,443.687Zm2.6-6.4a2.567,2.567,0,0,0-1.074,1.022,13.032,13.032,0,0,0-1.422,4.855c.216-.214.564-.538,1.109-1.041.7-.649,1.636-1.488,2.148-1.9.852-.808,1.612-1.919,1.168-2.6a1.339,1.339,0,0,0-1.137-.521A1.875,1.875,0,0,0,386.359,437.284Z" transform="translate(-383.529 -436.829)" fill="#0e3c54"/>
      </g>
    </g>
    <g id="Group_121" data-name="Group 121">
      <g id="Group_104" data-name="Group 104" transform="translate(6.599 6.477)">
        <path id="Path_152" data-name="Path 152" d="M404.826,468.391a.31.31,0,0,1-.377.054c-10.272-5.941-16.349-16.3-15.858-27.044a.267.267,0,0,1,.292-.235.261.261,0,0,1,.269.255c-.483,10.571,5.5,20.768,15.608,26.615a.227.227,0,0,1,.08.34Z" transform="translate(-388.563 -441.166)" fill="#0e3c54"/>
      </g>
      <g id="Group_107" data-name="Group 107" transform="translate(9.353 23.466)">
        <g id="Group_105" data-name="Group 105" transform="translate(7.405)">
          <path id="Path_153" data-name="Path 153" d="M391.925,457.216c-2.819,1.719-.433,6.091-.293,6.067q.619.551,1.275,1.081c-.362-.616-.143-2.3,1.075-4.3C395.107,458.052,394.541,455.493,391.925,457.216Z" transform="translate(-390.556 -456.648)" fill="#0e3c54"/>
        </g>
        <g id="Group_106" data-name="Group 106" transform="translate(0 5.332)">
          <path id="Path_154" data-name="Path 154" d="M392.969,462.027c-2.7,1.771,1.257,3.91,3.73,2.926,2.458-.894,4.341-1.242,5.091-1.028q-.7-.49-1.361-1.006C400.378,463.025,395.593,460.433,392.969,462.027Z" transform="translate(-392.065 -461.507)" fill="#0e3c54"/>
        </g>
      </g>
      <g id="Group_110" data-name="Group 110" transform="translate(5.437 19.932)">
        <g id="Group_108" data-name="Group 108" transform="translate(7.971)">
          <path id="Path_155" data-name="Path 155" d="M395.187,453.786c-3.1,1.285-1.629,5.9-1.492,5.9q.5.627,1.028,1.236c-.228-.651.327-2.27,1.92-4.049C398.152,455.059,398.1,452.471,395.187,453.786Z" transform="translate(-393.225 -453.427)" fill="#0e3c54"/>
        </g>
        <g id="Group_109" data-name="Group 109" transform="translate(0 4.152)">
          <path id="Path_156" data-name="Path 156" d="M397.061,457.473c-3,1.352.466,4.01,3.082,3.394,2.589-.527,4.5-.6,5.189-.289q-.579-.574-1.127-1.174C404.14,459.5,399.958,456.287,397.061,457.473Z" transform="translate(-395.902 -457.21)" fill="#0e3c54"/>
        </g>
      </g>
      <g id="Group_113" data-name="Group 113" transform="translate(2.538 16.039)">
        <g id="Group_111" data-name="Group 111" transform="translate(8.111)">
          <path id="Path_157" data-name="Path 157" d="M397.908,450.056c-3.3.816-2.744,5.57-2.612,5.58q.365.686.769,1.358c-.1-.67.767-2.178,2.682-3.7C400.585,451.738,401.032,449.186,397.908,450.056Z" transform="translate(-395.177 -449.879)" fill="#0e3c54"/>
        </g>
        <g id="Group_112" data-name="Group 112" transform="translate(0 2.796)">
          <path id="Path_158" data-name="Path 158" d="M400.389,452.525c-3.212.9-.312,4.014,2.382,3.784,2.65-.146,4.546.055,5.161.46q-.458-.647-.878-1.313C406.974,455.547,403.475,451.782,400.389,452.525Z" transform="translate(-398.976 -452.428)" fill="#0e3c54"/>
        </g>
      </g>
      <g id="Group_116" data-name="Group 116" transform="translate(0.709 11.857)">
        <g id="Group_114" data-name="Group 114" transform="translate(7.823)">
          <path id="Path_159" data-name="Path 159" d="M400.067,446.112c-3.415.325-3.77,5.1-3.642,5.127q.229.729.5,1.45c.034-.674,1.173-2.033,3.351-3.25C402.387,448.169,403.313,445.711,400.067,446.112Z" transform="translate(-396.403 -446.068)" fill="#0e3c54"/>
        </g>
        <g id="Group_115" data-name="Group 115" transform="translate(0 1.33)">
          <path id="Path_160" data-name="Path 160" d="M402.914,447.293c-3.339.418-1.073,3.924,1.626,4.088,2.642.244,4.473.717,5,1.2q-.326-.7-.613-1.42C408.83,451.247,406.1,447.017,402.914,447.293Z" transform="translate(-401.245 -447.28)" fill="#0e3c54"/>
        </g>
      </g>
      <g id="Group_119" data-name="Group 119" transform="translate(0 7.268)">
        <g id="Group_117" data-name="Group 117" transform="translate(7.272 0.162)">
          <path id="Path_161" data-name="Path 161" d="M401.466,442.039c-3.431-.18-4.7,4.516-4.577,4.556q.086.757.214,1.509c.162-.662,1.546-1.84,3.927-2.725C403.354,444.435,404.742,442.126,401.466,442.039Z" transform="translate(-396.881 -442.034)" fill="#0e3c54"/>
        </g>
        <g id="Group_118" data-name="Group 118">
          <path id="Path_162" data-name="Path 162" d="M404.594,441.888c-3.373-.079-1.816,3.749.816,4.307,2.558.633,4.273,1.372,4.7,1.931q-.188-.744-.334-1.5C409.664,446.7,407.785,442.091,404.594,441.888Z" transform="translate(-402.665 -441.887)" fill="#0e3c54"/>
        </g>
      </g>
      <g id="Group_120" data-name="Group 120" transform="translate(5.307)">
        <path id="Path_163" data-name="Path 163" d="M402.264,444.306c-.065.057-1.657-4.1-1.358-6.489.214-2.352,2.288-2.769,3.227-2.145.957.613.731,2.246.22,3.553A53.777,53.777,0,0,0,402.264,444.306Z" transform="translate(-400.683 -435.249)" fill="#0e3c54"/>
        <path id="Path_164" data-name="Path 164" d="M402.425,444.421l-.017.015a.213.213,0,0,1-.216.032l-.014-.009c-.045-.024-.079-.043-.084-.105a15.5,15.5,0,0,1-1.362-6.54,2.669,2.669,0,0,1,1.607-2.388,2.158,2.158,0,0,1,1.92.13c1.294.831.544,3.069.284,3.736-.608,1.225-2,4.674-2.078,5.017A.15.15,0,0,1,402.425,444.421Zm-.7-8.159a2.672,2.672,0,0,0-.616,1.581c-.235,1.883.712,4.848,1.137,5.956.12-.328.322-.833.642-1.619.414-1.013.976-2.334,1.309-3.008.489-1.251.709-2.8-.158-3.356a1.734,1.734,0,0,0-1.543-.093A2.008,2.008,0,0,0,401.72,436.263Z" transform="translate(-400.696 -435.263)" fill="#0e3c54"/>
      </g>
    </g>
  </g>
  <g id="Group_159" data-name="Group 159" transform="translate(472.91 442.866)">
    <g id="Group_140" data-name="Group 140" transform="translate(0 1.718)">
      <g id="Group_123" data-name="Group 123" transform="translate(2.743 4.765)">
        <path id="Path_165" data-name="Path 165" d="M43.6,462.888a.255.255,0,0,0,.307-.069,23.033,23.033,0,0,0,1.669-25.171.249.249,0,0,0-.312-.093.192.192,0,0,0-.108.272A22.666,22.666,0,0,1,43.518,462.6a.19.19,0,0,0,.071.282Z" transform="translate(-43.481 -437.534)" fill="#0e3c54"/>
      </g>
      <g id="Group_126" data-name="Group 126" transform="translate(0.914 21.306)">
        <g id="Group_124" data-name="Group 124">
          <path id="Path_166" data-name="Path 166" d="M47.563,452.7c2.8.482,2.667,4.5,2.55,4.522q-.258.6-.554,1.194c.04-.574-.775-1.791-2.465-2.95C45.466,454.26,44.915,452.151,47.563,452.7Z" transform="translate(-45.725 -452.608)" fill="#0e3c54"/>
        </g>
        <g id="Group_125" data-name="Group 125" transform="translate(3.871 1.762)">
          <path id="Path_167" data-name="Path 167" d="M45.612,454.254c2.727.559.545,3.337-1.71,3.311-2.21.04-3.774.326-4.261.706q.341-.575.647-1.161C40.369,457.175,43.008,453.809,45.612,454.254Z" transform="translate(-39.642 -454.213)" fill="#0e3c54"/>
        </g>
      </g>
      <g id="Group_129" data-name="Group 129" transform="translate(1.719 17.737)">
        <g id="Group_127" data-name="Group 127">
          <path id="Path_168" data-name="Path 168" d="M46.08,449.364c2.85.069,3.5,4.009,3.4,4.044q-.135.62-.307,1.239c-.077-.562-1.119-1.63-3.012-2.515C44.317,451.2,43.363,449.216,46.08,449.364Z" transform="translate(-44.388 -449.356)" fill="#0e3c54"/>
        </g>
        <g id="Group_128" data-name="Group 128" transform="translate(4.82 0.524)">
          <path id="Path_169" data-name="Path 169" d="M43.739,449.834c2.795.153,1.185,3.182-1.038,3.479-2.168.356-3.65.858-4.053,1.3q.221-.606.4-1.22C39.143,453.444,41.085,449.779,43.739,449.834Z" transform="translate(-38.649 -449.834)" fill="#0e3c54"/>
        </g>
      </g>
      <g id="Group_132" data-name="Group 132" transform="translate(1.828 13.363)">
        <g id="Group_130" data-name="Group 130" transform="translate(0 0.683)">
          <path id="Path_170" data-name="Path 170" d="M45.308,446.015c2.823-.346,4.222,3.428,4.125,3.474-.01.419-.031.837-.064,1.256-.184-.538-1.418-1.43-3.454-2.023C43.92,448.074,42.6,446.266,45.308,446.015Z" transform="translate(-43.778 -445.993)" fill="#0e3c54"/>
        </g>
        <g id="Group_131" data-name="Group 131" transform="translate(5.633)">
          <path id="Path_171" data-name="Path 171" d="M42.617,445.384c2.784-.256,1.776,2.957-.358,3.57-2.069.664-3.433,1.369-3.743,1.857q.1-.626.162-1.254C38.775,449.6,39.988,445.722,42.617,445.384Z" transform="translate(-38.516 -445.37)" fill="#0e3c54"/>
        </g>
      </g>
      <g id="Group_135" data-name="Group 135" transform="translate(1.254 8.479)">
        <g id="Group_133" data-name="Group 133" transform="translate(0 1.861)">
          <path id="Path_172" data-name="Path 172" d="M45.1,442.719c2.718-.751,4.821,2.774,4.733,2.831q.107.62.179,1.245c-.285-.5-1.672-1.2-3.794-1.489C44.131,444.96,42.484,443.365,45.1,442.719Z" transform="translate(-43.754 -442.615)" fill="#0e3c54"/>
        </g>
        <g id="Group_134" data-name="Group 134" transform="translate(6.222)">
          <path id="Path_173" data-name="Path 173" d="M42.309,441c2.7-.658,2.321,2.667.334,3.58-1.913.957-3.122,1.85-3.336,2.375q-.021-.629-.079-1.258C39.333,445.735,39.784,441.725,42.309,441Z" transform="translate(-39.228 -440.919)" fill="#0e3c54"/>
        </g>
      </g>
      <g id="Group_138" data-name="Group 138" transform="translate(0 3.731)">
        <g id="Group_136" data-name="Group 136" transform="translate(0 2.98)">
          <path id="Path_174" data-name="Path 174" d="M45.563,439.553c2.537-1.139,5.3,2.056,5.224,2.123q.225.6.416,1.208c-.377-.455-1.88-.946-4.027-.923C45.048,441.923,43.108,440.576,45.563,439.553Z" transform="translate(-44.417 -439.308)" fill="#0e3c54"/>
        </g>
        <g id="Group_137" data-name="Group 137" transform="translate(6.505)">
          <path id="Path_175" data-name="Path 175" d="M42.88,436.791c2.533-1.045,2.818,2.318,1.034,3.51-1.7,1.228-2.719,2.289-2.83,2.839q-.142-.619-.32-1.233C40.877,441.927,40.535,437.877,42.88,436.791Z" transform="translate(-40.763 -436.592)" fill="#0e3c54"/>
        </g>
      </g>
      <g id="Group_139" data-name="Group 139" transform="translate(0.501)">
        <path id="Path_176" data-name="Path 176" d="M50.425,439.917a13.445,13.445,0,0,0-1.457-5.325c-1.066-1.724-2.8-1.434-3.274-.686-.492.745.307,1.919,1.2,2.762C47.846,437.439,50.465,439.867,50.425,439.917Z" transform="translate(-45.385 -433.18)" fill="#0e3c54"/>
        <path id="Path_177" data-name="Path 177" d="M50.371,440.048l.019.008a.175.175,0,0,0,.177-.039l.008-.012a.088.088,0,0,0,.024-.1,12.96,12.96,0,0,0-1.476-5.365,2.569,2.569,0,0,0-2.135-1.343,1.657,1.657,0,0,0-1.409.66c-.664,1.007.765,2.49,1.218,2.92.932.752,3.315,2.964,3.5,3.2A.143.143,0,0,0,50.371,440.048Zm-2.594-6.4a2.58,2.58,0,0,1,1.074,1.022,13.058,13.058,0,0,1,1.422,4.855c-.217-.214-.564-.538-1.109-1.041-.7-.647-1.636-1.488-2.148-1.9-.852-.808-1.613-1.919-1.168-2.6a1.338,1.338,0,0,1,1.136-.521A1.878,1.878,0,0,1,47.777,433.646Z" transform="translate(-45.404 -433.192)" fill="#0e3c54"/>
      </g>
    </g>
    <g id="Group_158" data-name="Group 158" transform="translate(6.024)">
      <g id="Group_141" data-name="Group 141" transform="translate(0 6.476)">
        <path id="Path_178" data-name="Path 178" d="M30.3,464.753a.309.309,0,0,0,.377.054c10.273-5.94,16.349-16.3,15.859-27.044a.267.267,0,0,0-.292-.235.263.263,0,0,0-.27.255c.483,10.571-5.5,20.77-15.608,26.615a.227.227,0,0,0-.079.34Z" transform="translate(-30.237 -437.528)" fill="#0e3c54"/>
      </g>
      <g id="Group_144" data-name="Group 144" transform="translate(2.187 23.466)">
        <g id="Group_142" data-name="Group 142">
          <path id="Path_179" data-name="Path 179" d="M42.1,453.579c2.819,1.718.433,6.091.293,6.067q-.621.553-1.276,1.081c.363-.615.144-2.3-1.074-4.3C38.919,454.414,39.486,451.855,42.1,453.579Z" transform="translate(-39.495 -453.01)" fill="#0e3c54"/>
        </g>
        <g id="Group_143" data-name="Group 143" transform="translate(1.656 5.333)">
          <path id="Path_180" data-name="Path 180" d="M41.567,458.389c2.7,1.772-1.258,3.911-3.729,2.926-2.459-.894-4.342-1.241-5.091-1.028q.7-.489,1.361-1.006C34.159,459.388,38.944,456.795,41.567,458.389Z" transform="translate(-32.748 -457.869)" fill="#0e3c54"/>
        </g>
      </g>
      <g id="Group_147" data-name="Group 147" transform="translate(5.116 19.932)">
        <g id="Group_145" data-name="Group 145">
          <path id="Path_181" data-name="Path 181" d="M38.877,450.149c3.1,1.284,1.631,5.9,1.493,5.9q-.5.627-1.028,1.236c.228-.652-.327-2.27-1.92-4.05C35.913,451.421,35.965,448.834,38.877,450.149Z" transform="translate(-36.443 -449.79)" fill="#0e3c54"/>
        </g>
        <g id="Group_146" data-name="Group 146" transform="translate(2.937 4.151)">
          <path id="Path_182" data-name="Path 182" d="M37.451,453.835c3,1.353-.466,4.011-3.082,3.4-2.589-.528-4.5-.6-5.19-.29q.581-.574,1.127-1.174C30.372,455.867,34.554,452.649,37.451,453.835Z" transform="translate(-29.178 -453.572)" fill="#0e3c54"/>
        </g>
      </g>
      <g id="Group_150" data-name="Group 150" transform="translate(7.259 16.039)">
        <g id="Group_148" data-name="Group 148">
          <path id="Path_183" data-name="Path 183" d="M36.211,446.419c3.3.816,2.744,5.569,2.611,5.58q-.364.686-.769,1.359c.1-.672-.766-2.179-2.681-3.7C33.534,448.1,33.087,445.549,36.211,446.419Z" transform="translate(-33.928 -446.242)" fill="#0e3c54"/>
        </g>
        <g id="Group_149" data-name="Group 149" transform="translate(4.169 2.795)">
          <path id="Path_184" data-name="Path 184" d="M34.079,448.887c3.212.9.312,4.014-2.382,3.784-2.65-.145-4.546.055-5.161.46q.456-.647.877-1.312C27.5,451.909,30.993,448.144,34.079,448.887Z" transform="translate(-26.536 -448.79)" fill="#0e3c54"/>
        </g>
      </g>
      <g id="Group_153" data-name="Group 153" transform="translate(8.604 11.856)">
        <g id="Group_151" data-name="Group 151">
          <path id="Path_185" data-name="Path 185" d="M34.122,442.474c3.415.325,3.77,5.1,3.641,5.128q-.227.729-.5,1.448c-.034-.674-1.174-2.033-3.352-3.249C31.8,444.532,30.875,442.073,34.122,442.474Z" transform="translate(-31.999 -442.43)" fill="#0e3c54"/>
        </g>
        <g id="Group_152" data-name="Group 152" transform="translate(5.313 1.33)">
          <path id="Path_186" data-name="Path 186" d="M31.5,443.655c3.339.418,1.073,3.924-1.627,4.088-2.641.245-4.473.717-5,1.2q.328-.7.613-1.42C25.581,447.609,28.312,443.379,31.5,443.655Z" transform="translate(-24.87 -443.642)" fill="#0e3c54"/>
        </g>
      </g>
      <g id="Group_156" data-name="Group 156" transform="translate(9.128 7.268)">
        <g id="Group_154" data-name="Group 154" transform="translate(0 0.162)">
          <path id="Path_187" data-name="Path 187" d="M32.788,438.4c3.43-.18,4.7,4.516,4.576,4.557q-.086.756-.213,1.508c-.162-.662-1.546-1.839-3.927-2.725C30.9,440.8,29.511,438.488,32.788,438.4Z" transform="translate(-30.852 -438.397)" fill="#0e3c54"/>
        </g>
        <g id="Group_155" data-name="Group 155" transform="translate(6.348)">
          <path id="Path_188" data-name="Path 188" d="M29.74,438.25c3.374-.078,1.817,3.749-.815,4.308-2.558.633-4.273,1.371-4.7,1.93q.188-.742.334-1.5C24.67,443.064,26.549,438.453,29.74,438.25Z" transform="translate(-24.224 -438.249)" fill="#0e3c54"/>
        </g>
      </g>
      <g id="Group_157" data-name="Group 157" transform="translate(13.314)">
        <path id="Path_189" data-name="Path 189" d="M31.757,440.669c.066.056,1.657-4.1,1.36-6.49-.214-2.352-2.288-2.769-3.227-2.145-.957.613-.731,2.246-.219,3.553A53.859,53.859,0,0,1,31.757,440.669Z" transform="translate(-29.039 -431.612)" fill="#0e3c54"/>
        <path id="Path_190" data-name="Path 190" d="M31.631,440.783l.016.016a.213.213,0,0,0,.216.031l.015-.009c.045-.024.078-.043.084-.105a15.482,15.482,0,0,0,1.361-6.54,2.666,2.666,0,0,0-1.607-2.388,2.159,2.159,0,0,0-1.92.131c-1.294.83-.543,3.069-.283,3.735.608,1.225,2,4.674,2.078,5.017A.148.148,0,0,0,31.631,440.783Zm.7-8.158a2.662,2.662,0,0,1,.616,1.581c.236,1.882-.711,4.848-1.136,5.955-.12-.328-.322-.832-.643-1.619-.414-1.013-.974-2.334-1.309-3.007-.488-1.252-.708-2.8.159-3.357a1.734,1.734,0,0,1,1.543-.093A2.019,2.019,0,0,1,32.336,432.626Z" transform="translate(-29.061 -431.626)" fill="#0e3c54"/>
      </g>
    </g>
  </g>
  <g id="Group_161" data-name="Group 161" transform="translate(0)">
    <path id="Path_191" data-name="Path 191" d="M271.893,252.808c2.52-2.654,5.622-8.035,7.833-12.411.437-1.26.9-2.506,1.435-3.726.431-.99.909-1.953,1.41-2.9-.006-.043-.02-.069-.053-.059-.769.218-6.04,1.168-3.621-3.955s12.6-10.242,12.6-10.242-2.6-2.307-.181-3.55A54.158,54.158,0,0,1,302,212.639c1.354-.109,15.047-8.446,19-8.187s.658,2.306.658,2.306a35.9,35.9,0,0,1,7.687-2.191,24.985,24.985,0,0,1,4.9-.29s9.041-.36,15.078,4.292,6.179,9.043,9,12.119,16.323.889,22.1,5.613,1.935,9.7,2.959,11.348,10.792,7.73,5.7,14.168c-3.915,4.951-17.877,5.539-23.517,6.391q-1.121.515-2.333.963c1.323,1.855,8.973.5.662,5.367-7.532,4.408-15.812,2.2-20.624,4.553-3.65,2.566-6.252,5.188-7.148,7.647-2.165,5.938-3.783,11.674-3.783,11.674s-10.7-7.029-16.919-9.541a10.487,10.487,0,0,0-5.3.167c-4.8,1.644-16.587,12.763-20.21,10.749s-1.717-5.052-1.717-5.052-8.017,3.948-10.1,1.495a6.046,6.046,0,0,1-1.022-5.527s-8.783-1.652-12.036-10.145S267.205,257.747,271.893,252.808Z" transform="translate(-151.934 -10.929)" fill="#58b6b0"/>
    <g id="Group_160" data-name="Group 160">
      <path id="Path_192" data-name="Path 192" d="M136.653,121.887c10.409-5.243,25.136-17.422,36.126-27.568,2.528-3.074,5.14-6.089,7.933-8.981,2.268-2.347,4.658-4.59,7.112-6.774.018-.119,0-.2-.116-.2-2.641,0-20.246-1.5-7.923-13.507s49.294-18.01,49.294-18.01-6.162-8.255,2.64-9.755,32.569-1.5,36.971-.751,55.455-11.257,67.778-7.5,0,6.753,0,6.753,14.965-1.5,26.408,0,15.845,3,15.845,3,29.048,6,44.011,23.263,11.443,29.266,17.6,39.772,51.054,15.007,65.139,32.268-2.641,27.764-.881,33.017,27.288,29.266,5.282,42.774c-16.923,10.388-61.813,1.2-80.5-.849q-4.031.53-8.285.808c2.522,6.044,28.049,8.3-2.759,15.05-27.922,6.121-52.229-6.249-69.644-3.594-13.921,4.13-24.56,9.224-29.636,15.193-12.256,14.409-22.589,28.7-22.589,28.7s-27.626-27.3-45.111-38.9c-5.252-2.257-11.173-3.9-16.99-3.643-16.725.751-64.259,21.762-73.94,13.507s-.88-15.008-.88-15.008-29.048,4.5-33.449-3.752,1.76-15.758,1.76-15.758-26.407-11.257-29.048-36.77S117.287,131.643,136.653,121.887Z" transform="translate(-98.577 -28.109)" fill="#58b6b0"/>
      <path id="Path_193" data-name="Path 193" d="M136.636,121.887c10.409-5.243,25.136-17.422,36.126-27.568,2.528-3.074,5.14-6.089,7.933-8.981,2.268-2.347,4.658-4.59,7.112-6.774.018-.119,0-.2-.117-.2-2.64,0-20.245-1.5-7.922-13.507s49.294-18.01,49.294-18.01-6.162-8.255,2.64-9.755,32.569-1.5,36.971-.751,55.455-11.257,67.778-7.5,0,6.753,0,6.753,14.965-1.5,26.408,0,15.845,3,15.845,3,29.048,6,44.011,23.263,11.443,29.266,17.6,39.772,51.054,15.007,65.139,32.268-2.641,27.764-.881,33.017,27.288,29.266,5.282,42.774c-.578.356-1.2.683-1.839.994-9.584.191-23.265-4.792-41.986-22.51-44.733-42.337-60.71-43.935-60.71-43.935s41.538,3.994,31.953-5.592-46.331-20.77-56.717-21.568-42.337-.8-42.337-.8,24.764-11.982,13.58-15.177-31.953-.8-42.337,2.4S284.7,116.275,284.7,116.275s-49.527-15.976-47.929-10.384,8.788,11.982,8.788,11.982-51.923,4.793-48.728,15.976,8.786,4.793,3.2,11.184-14.38,22.366-39.941,32.751-58.313,7.189-46.331,0,47.13-20.77,13.58-20.77c-10.08,0-19.864,2.749-28.631,6.582C96.76,138.947,117.545,131.5,136.636,121.887Z" transform="translate(-98.561 -28.109)" fill="#fff" opacity="0.3"/>
    </g>
    <path id="Path_194" data-name="Path 194" d="M287.93,303.474c1.429-34.581,2.66-63.428,2.66-63.428l-7.3-22.775s-15.361-26.351-24.279-34.944S226.8,146.811,226.8,146.811s19.819,16.613,24.775,21.768,12.387,8.019,12.387,8.019S260.991,166.288,260,164.57s-7.432-33.8-7.432-33.8,9.414,30.36,15.856,44.109,28.242,44.682,28.242,44.682l3.469-13.748s.991-22.342.495-24.633-15.36-42.963-15.36-42.963l20.315,32.08,8.423-60.149-.991,66.45a56.8,56.8,0,0,1,5.449-4.01c1.983-1.146,26.757-20.05,29.235-23.487s15.36-20.05,15.36-20.05l-9.909,22.341,25.27-10.885s-57.972,36.662-60.45,47.547-3.261,32.512-3.261,32.512-.561,105.461-.051,126.117,6.125,91.484,6.637,109.781-1.041,44.122-1.041,44.122h-49.5s11.742-52.976,13.274-97.832c.658-19.29,1.963-52.079,3.237-83.191l-30.15-60.3Z" transform="translate(-98.935 -20.055)" fill="#0e3c54" stroke="#0e3c54" stroke-linecap="round" stroke-linejoin="round" stroke-width="1"/>
  </g>
  <path id="Path_195" data-name="Path 195" d="M433.767,461.758H421.334l2.59-5.179-8.289,6.215-.518-8.287-4.662,5.7-3.108-8.287-3.108,8.287-11.4-7.251,2.59,9.323-8.807-4.662-1.554,4.662-9.325-3.626-1.036,4.662h-195.3v-4.144l-6.216,3.626-3.108-7.251-2.59,4.662-9.325-15.021-1.036,14.5L150.4,451.4l-.518,6.733-4.144-5.7v8.287l-4.144-11.913-6.735,12.949L139,442.076,127.087,463.83,124.5,446.22l-2.59,15.539-8.289-22.272,1.036,21.236L95.486,449.845l4.144,9.841-5.7.518-16.577,3.108-5.7-6.216-1.036,5.7H20.889l63.2,7.251-31.6,4.144,59.575,2.072-2.59,3.626H133.3l33.673,3.108-20.2-6.733,64.237,5.179,34.709,1.036h27.974L259.187,477.3H288.2l-10.879-3.108,55.948,1.036-16.059,2.59,68.381-4.144-15.541-5.18,82.368-1.554Z" transform="translate(53.098 12.005)" fill="#58b6b0"/>
  <g id="Group_170" data-name="Group 170" transform="translate(182.903 294.909)">
    <g id="Group_162" data-name="Group 162" transform="translate(33.879 8.859)">
      <path id="Path_196" data-name="Path 196" d="M265.889,304.868s16.291,7.083,21.072,15.938,2.3,15.229-3.188,19.832-6.374,6.021-3.01,10.625,4.072,11.333,0,15.407-11.688,6.729-11.333,9.917,7.083,2.124,5.312,10.625-8.5,9.739-21.427,5.312-22.842-15.76-25.322-28.51,6.021-28.156,18.062-38.957A214.307,214.307,0,0,0,265.889,304.868Z" transform="translate(-227.562 -304.868)" fill="#e49a00" stroke="#263238" stroke-linecap="round" stroke-linejoin="round" stroke-width="1"/>
      <path id="Path_197" data-name="Path 197" d="M252.266,364.217a9.015,9.015,0,0,1-6.767-1.463" transform="translate(-210.01 -299.233)" fill="none" stroke="#263238" stroke-linecap="round" stroke-linejoin="round" stroke-width="1"/>
      <path id="Path_198" data-name="Path 198" d="M241.327,320.868c2.838,3.405,5.648,8.244,3.208,12.21-4.252,6.91-10.364,9.419-10.9,13.289s11.96,11.428,5.05,18.339a16.327,16.327,0,0,1-1.6,1.408" transform="translate(-190.175 -303.31)" fill="none" stroke="#263238" stroke-linecap="round" stroke-linejoin="round" stroke-width="1"/>
      <path id="Path_199" data-name="Path 199" d="M239,316.978a33.059,33.059,0,0,1,2.471,2.314" transform="translate(-192.081 -303.689)" fill="none" stroke="#263238" stroke-linecap="round" stroke-linejoin="round" stroke-width="1"/>
    </g>
    <path id="Path_200" data-name="Path 200" d="M152.487,408.582s21-7.271,33.391-11.31,14.542-4.847,17.773-2.154,31.776,32.045,37.162,36.353,8.348,7.271,8.348,7.271l-4.039,7s-12.387-5.655-28.005-12.926-23.427-14.541-23.427-14.541-22.082,15.887-31.237,21-19.927,11.04-19.927,11.04a125.236,125.236,0,0,1-11.31-8.617c-3.769-3.5-4.308-17.5-4.308-17.5Z" transform="translate(-42.887 -287.376)" fill="#0e3c54" stroke="#263238" stroke-linecap="round" stroke-linejoin="round" stroke-width="1"/>
    <path id="Path_201" data-name="Path 201" d="M161.264,435.656s6.195,1.922,35.248,1.922,28.838.427,39.306,2.777,31.616,4.486,35.461,4.486H279.4l.213,13.244s-16.235,2.563-32.043,4.273-35.034-1.282-43.579-1.5-27.557,4.913-52.123,6.409-36.744-3.845-38.452-4.486S161.264,435.656,161.264,435.656Z" transform="translate(-58.483 -283.277)" fill="#0e3c54" stroke="#263238" stroke-linecap="round" stroke-linejoin="round" stroke-width="1"/>
    <path id="Path_202" data-name="Path 202" d="M88.142,444.872l.386,17.762c-.114.407,9.145-.7,17.375-1.352,9.5-.749,10.04-2.316,10.618-3.668s1.738-13.128,1.738-13.128,5.406-11.778,5.019-17.183-6.178-16.989-7.336-15.059-7.337,16.99-7.337,16.99-7.915,9.653-12.549,11.97S88.142,444.872,88.142,444.872Z" transform="translate(125.512 -285.577)" fill="#e49a00" stroke="#263238" stroke-linecap="round" stroke-linejoin="round" stroke-width="1"/>
    <path id="Path_203" data-name="Path 203" d="M95.73,418.094c1.676,3.742,3.909,9,3.909,10.458,0,2.33-5.719,17.157-6.567,20.97s-1.059,7.625-3.177,9.32" transform="translate(147.249 -284.987)" fill="none" stroke="#263238" stroke-linecap="round" stroke-linejoin="round" stroke-width="1"/>
    <path id="Path_204" data-name="Path 204" d="M94.648,414.5s.192.4.5,1.079" transform="translate(146.52 -285.337)" fill="none" stroke="#263238" stroke-linecap="round" stroke-linejoin="round" stroke-width="1"/>
    <g id="Group_163" data-name="Group 163" transform="translate(15.251 73.328)">
      <path id="Path_205" data-name="Path 205" d="M277.707,414.9s4.494-.236,14.9-3.074,17.028-6.622,17.5-4.494-9.223,15.609-14.427,21.284a26.484,26.484,0,0,1-11.588,7.331,97,97,0,0,1,13.953,5.913c6.622,3.548,10.879,4.258,8.751,6.15s-27.434,19.392-41.151,25.069a86.944,86.944,0,0,1-25.069,6.385s-11.116.709-14.9-3.548-13.953-17.5-13.953-21.521,2.128-5.677,3.311-7.331,5.2-25.779,5.2-29.8.664-9.7-3.12-12.77-8.429-15.886-9.375-21.563-1.647-14.624,3.281-18.281,15.914,3.577,19.147,3.657,29.326,13.717,34.765,24.6A247.918,247.918,0,0,0,277.707,414.9Z" transform="translate(-207.067 -363.618)" fill="#58b6b0" stroke="#263238" stroke-linecap="round" stroke-linejoin="round" stroke-width="1"/>
      <path id="Path_206" data-name="Path 206" d="M283.084,407.739c-4.281-3.558-10.689-8.984-16.3-14.144-9.446-8.691-16.247-16.248-16.247-16.248" transform="translate(-227.731 -362.282)" fill="none" stroke="#263238" stroke-linecap="round" stroke-linejoin="round" stroke-width="1"/>
      <path id="Path_207" data-name="Path 207" d="M248.846,408.88s-1.035-.835-2.737-2.236" transform="translate(-188.631 -359.43)" fill="none" stroke="#263238" stroke-linecap="round" stroke-linejoin="round" stroke-width="1"/>
      <path id="Path_208" data-name="Path 208" d="M251.777,439.6a35.024,35.024,0,0,1-3.363,2.426" transform="translate(-194.092 -356.221)" fill="none" stroke="#263238" stroke-linecap="round" stroke-linejoin="round" stroke-width="1"/>
      <path id="Path_209" data-name="Path 209" d="M246.952,427.805a35.959,35.959,0,0,1-7.758,10.845" transform="translate(-179.149 -357.37)" fill="none" stroke="#263238" stroke-linecap="round" stroke-linejoin="round" stroke-width="1"/>
    </g>
    <path id="Path_210" data-name="Path 210" d="M274.538,368.008s.884-1.593-4.428-4.958a159.555,159.555,0,0,1-13.281-10.093l-4.249,7.083s11.51,8.853,15.051,9.739S274.538,368.008,274.538,368.008Z" transform="translate(-206.228 -291.328)" fill="#fff" stroke="#263238" stroke-linecap="round" stroke-linejoin="round" stroke-width="1"/>
    <g id="Group_164" data-name="Group 164" transform="translate(41.039 18.954)">
      <path id="Path_211" data-name="Path 211" d="M278.271,317.43s3.364,9.209,2.657,13.459-4.427,9.739-4.959,12.4,1.949,6.2.886,7.615-4.958,1.062-4.958,1.062-3.01,2.833-5.136,4.6-8.146,5.135-9.562,4.6a13.126,13.126,0,0,1-3.188-2.125L251,362.41l-9.917-8.323s0-6.2,6.552-10.979,21.072-15.051,24.615-19.656a35.872,35.872,0,0,0,5.135-9.385Z" transform="translate(-241.084 -314.067)" fill="#fff" stroke="#263238" stroke-linecap="round" stroke-linejoin="round" stroke-width="1"/>
      <path id="Path_212" data-name="Path 212" d="M251.248,336.422s-.178-3.541-4.427-2.656" transform="translate(-217.602 -312.163)" fill="none" stroke="#263238" stroke-linecap="round" stroke-linejoin="round" stroke-width="2"/>
      <path id="Path_213" data-name="Path 213" d="M253.685,338.6l-1.063,1.771s-2.656-.354-3.541-1.594" transform="translate(-222.518 -311.679)" fill="none" stroke="#263238" stroke-linecap="round" stroke-linejoin="round" stroke-width="1"/>
      <path id="Path_214" data-name="Path 214" d="M271.722,355.73l-6.021-7.614,3.01,10.979Z" transform="translate(-258.795 -310.753)" fill="#263238" stroke="#263238" stroke-linecap="round" stroke-linejoin="round" stroke-width="1"/>
    </g>
    <path id="Path_215" data-name="Path 215" d="M266.255,372.612s2.48,4.25,8.854,13.281,9.386,18.77,8.853,20.718-6.551,2.3-7.26,1.771-7.968-15.229-20.01-26.562-15.582-17-15.406-17.885S266.255,372.612,266.255,372.612Z" transform="translate(-203.258 -290.264)" fill="#fff" stroke="#263238" stroke-linecap="round" stroke-linejoin="round" stroke-width="1"/>
    <path id="Path_216" data-name="Path 216" d="M261.841,348.044S269.455,357.076,273,359.2s14.7,8.677,15.938,8.677,2.3,1.239,1.239,2.833a45.238,45.238,0,0,0-3.719,6.729c-.177.886-1.948,3.365-4.6,2.657s-16.115-6.73-21.958-12.042-8.855-10.8-6.907-15.051S260.6,345.211,261.841,348.044Z" transform="translate(-222.041 -291.905)" fill="#fff" stroke="#263238" stroke-linecap="round" stroke-linejoin="round" stroke-width="1"/>
    <g id="Group_165" data-name="Group 165">
      <path id="Path_217" data-name="Path 217" d="M321.667,319.112s-5.312,18.771-16.468,24.438-17.531,8.853-18.417,13.812,5.667,5.667,3.9,12.749-11.156,16.469-30.989,11.51-17.176-19.656-14.166-29.926,8.676-13.989,17.351-19.3c6.569-4.021,9.653-11.912,12.708-18.593,3.107-6.793,8.847-14.284,16.292-16.44,9.058-2.623,24.984,4.214,28.375,13.607C322.553,317.342,321.667,319.112,321.667,319.112Z" transform="translate(-243.441 -296.795)" fill="#e49a00" stroke="#263238" stroke-linecap="round" stroke-linejoin="round" stroke-width="1"/>
      <path id="Path_218" data-name="Path 218" d="M306.011,353.622A13.581,13.581,0,0,0,304.988,357" transform="translate(-295.156 -291.263)" fill="none" stroke="#263238" stroke-linecap="round" stroke-linejoin="round" stroke-width="1"/>
      <path id="Path_219" data-name="Path 219" d="M308.137,326.908s-3.987,10.9-26.047,17.276c-16.26,4.7-25.156,5.217-29.455,9.313" transform="translate(-239.832 -293.863)" fill="none" stroke="#263238" stroke-linecap="round" stroke-linejoin="round" stroke-width="1"/>
      <path id="Path_220" data-name="Path 220" d="M316.934,316.337a42.1,42.1,0,0,0-2.355,4.956c-5.582,13.821-18.606,20.731-32.426,23.654s-21.262,7.708-20.466,15.681" transform="translate(-258.5 -294.893)" fill="none" stroke="#263238" stroke-linecap="round" stroke-linejoin="round" stroke-width="1"/>
      <path id="Path_221" data-name="Path 221" d="M260.989,309.472s-3.642-.791-7.87,5.2" transform="translate(-193.216 -295.564)" fill="none" stroke="#263238" stroke-linecap="round" stroke-linejoin="round" stroke-width="1"/>
    </g>
    <g id="Group_167" data-name="Group 167" transform="translate(68.583 71.646)">
      <g id="Group_166" data-name="Group 166" transform="translate(35.875)">
        <path id="Path_222" data-name="Path 222" d="M220.888,362.085a22.858,22.858,0,0,0-8.037,3.029,28.57,28.57,0,0,0-5.475,4.659l4.193,5.59Z" transform="translate(-207.376 -362.085)" fill="#fff" stroke="#263238" stroke-linecap="round" stroke-linejoin="round" stroke-width="1"/>
        <path id="Path_223" data-name="Path 223" d="M208.541,376.062l8.153-13.977-9.318,13.278Z" transform="translate(-203.184 -362.085)" fill="#92e3a9" stroke="#263238" stroke-linecap="round" stroke-linejoin="round" stroke-width="1"/>
        <path id="Path_224" data-name="Path 224" d="M216.695,362.085s-4.194,2.1-5.941,4.543-3.378,7.92-3.378,7.92Z" transform="translate(-203.183 -362.085)" fill="#fff" stroke="#263238" stroke-linecap="round" stroke-linejoin="round" stroke-width="1"/>
      </g>
      <path id="Path_225" data-name="Path 225" d="M256.04,375.732l-22.364,25.159-18.869-10.133,20.733-25.276Z" transform="translate(-214.807 -361.754)" fill="#58b6b0" stroke="#263238" stroke-linecap="round" stroke-linejoin="round" stroke-width="1"/>
      <path id="Path_226" data-name="Path 226" d="M255.47,375.27a15.77,15.77,0,0,0-3.378-5.59c-2.33-2.33-15.609-6.64-15.609-6.64l-20.5,26.092-.116,1.048,20.267-24.46Z" transform="translate(-215.402 -361.992)" fill="#fff" stroke="#263238" stroke-linecap="round" stroke-linejoin="round" stroke-width="1"/>
    </g>
    <path id="Path_227" data-name="Path 227" d="M218.757,401.857s3.378-2.68,3.96-4.077,2.911-6.989,3.843-8.037a35.968,35.968,0,0,0,4.31-5.941c1.164-2.212,2.446-2.446,3.145-.815s-.234,3.96-1.4,5.825-2.213,3.727-2.213,3.727,3.029-2.679,4.776-4.309,5.242-5.94,6.057-6.29,1.863.932.815,3.378S237.043,394.4,235.3,397.2a21.767,21.767,0,0,1-6.872,6.406c-1.864,1.048-6.64,4.426-6.64,4.426Z" transform="translate(-137.012 -288.512)" fill="#fff" stroke="#263238" stroke-linecap="round" stroke-linejoin="round" stroke-width="1"/>
    <g id="Group_168" data-name="Group 168" transform="translate(6.241 67.024)">
      <path id="Path_228" data-name="Path 228" d="M256.413,359.031s4.6,1.417,6.906,9.739,4.959,19.125,4.959,19.125,3.541,1.771,4.249,3.9-.708,4.6-1.062,5.843,2.657,1.771,4.6,3.719a10.344,10.344,0,0,1,2.656,4.428c.178.531,1.063.353,2.657.353a60.7,60.7,0,0,0,13.458.178c9.386-.709,13.458-3.9,15.052-3.188s5.843,8.5,6.374,12.4,0,4.6-.886,5.136a10.4,10.4,0,0,1-3.187.708,285.091,285.091,0,0,1-29.927,7.969c-16.291,3.364-19.656,1.593-23.2-1.062a22.49,22.49,0,0,1-4.958-4.782s-5.667-11.687-6.729-14.166-4.781-11.333-7.792-17-9.385-12.927-1.239-25.854S256.413,359.031,256.413,359.031Z" transform="translate(-234.364 -357.873)" fill="#58b6b0" stroke="#263238" stroke-linecap="round" stroke-linejoin="round" stroke-width="1"/>
      <path id="Path_229" data-name="Path 229" d="M275.818,403.026s0,6.611-5.61,10.018" transform="translate(-233.038 -353.477)" fill="none" stroke="#263238" stroke-linecap="round" stroke-linejoin="round" stroke-width="1"/>
      <path id="Path_230" data-name="Path 230" d="M282.487,395.058s3.807-2.8.8-2.8-7.012,7.615-7.012,7.615" transform="translate(-248.322 -354.526)" fill="none" stroke="#263238" stroke-linecap="round" stroke-linejoin="round" stroke-width="1"/>
      <path id="Path_231" data-name="Path 231" d="M238.58,401.149s5.67,5.866,5.069,13.48" transform="translate(-166.207 -353.66)" fill="none" stroke="#263238" stroke-linecap="round" stroke-linejoin="round" stroke-width="1"/>
    </g>
    <g id="Group_169" data-name="Group 169" transform="translate(192.996 144.621)">
      <path id="Path_232" data-name="Path 232" d="M102.151,428.586,90.76,441.908s6.95,7.915,10.039,11.39,8.881,12.356,11.392,12.549,10.425-4.826,12.934-6.178,12.163-8.108,15.059-14.673,5.407-14.093,1.545-13.708-8.688,5.407-14.48,7.144-5.213,1.93-10.04-.193S102.151,428.586,102.151,428.586Z" transform="translate(-90.76 -428.586)" fill="#e49a00" stroke="#263238" stroke-linecap="round" stroke-linejoin="round" stroke-width="1"/>
      <path id="Path_233" data-name="Path 233" d="M110.163,441.02a4.59,4.59,0,0,0,3.484-.656" transform="translate(-81.997 -427.44)" fill="none" stroke="#263238" stroke-linecap="round" stroke-linejoin="round" stroke-width="1"/>
      <path id="Path_234" data-name="Path 234" d="M115.374,431.292s6.567,4.659,11.651,8.049a26.2,26.2,0,0,0,2.966,1.748" transform="translate(-104.059 -428.323)" fill="none" stroke="#263238" stroke-linecap="round" stroke-linejoin="round" stroke-width="1"/>
      <line id="Line_2" data-name="Line 2" x1="1.958" y2="1.875" transform="translate(5.172 13.804)" fill="none" stroke="#263238" stroke-linecap="round" stroke-linejoin="round" stroke-width="1"/>
      <line id="Line_3" data-name="Line 3" x1="5.917" y2="5.666" transform="translate(9.21 6.146)" fill="none" stroke="#263238" stroke-linecap="round" stroke-linejoin="round" stroke-width="1"/>
      <path id="Path_235" data-name="Path 235" d="M121.385,459.955c-1.587.647-2.471.955-2.471.955" transform="translate(-99.338 -425.532)" fill="none" stroke="#263238" stroke-linecap="round" stroke-linejoin="round" stroke-width="1"/>
      <path id="Path_236" data-name="Path 236" d="M119.917,433.415s-1.906,7.626-4.659,12.286-6.778,8.473-14.192,12.285c-3.348,1.723-6.178,3.012-8.275,3.909" transform="translate(-69.205 -428.116)" fill="none" stroke="#263238" stroke-linecap="round" stroke-linejoin="round" stroke-width="1"/>
    </g>
  </g>
</svg>
