<svg xmlns="http://www.w3.org/2000/svg" width="406.817" height="395.974" viewBox="0 0 406.817 395.974">
  <g id="Group_219" data-name="Group 219" transform="translate(-286.615 -185.884)">
    <g id="Group_218" data-name="Group 218" transform="translate(286.615 185.884)">
      <path id="Path_261" data-name="Path 261" d="M850.017,430.58s-30.483-1.491-14.312,91.414c0,0,10.879,31.536-2.854,51.862h202.157V430.58Z" transform="translate(-738.994 -364.938)" fill="#58b6b0"/>
      <g id="Group_202" data-name="Group 202" transform="translate(0 192.42)">
        <g id="Group_197" data-name="Group 197" transform="translate(107.915 80.598)">
          <path id="Path_262" data-name="Path 262" d="M961.511,1237.8s-14.123-16.477-.871-26.943c0,0,9.68-5.86,17.573-5.384,0,0-11.184,18.754-7.565,20.62s10.956-21.8,10.956-21.8,22.028-2.136,29.115,1.271c0,0-18.831,15.41-14.866,16.328s24.306-14.208,24.306-14.208,20.5,3.489,19.409,16-8.158,16.369-11.262,16.036-21.268-7.266-21.664-4.721,10.537,10.858,18.193,11.247c0,0-14.454,15.941-24.061,11.34s-10.427-11.893-16.415-14.628-11.1-2.728-8.628.061,13.31,5.5,16.734,11.558,6.5,10.143-3.441,8.648-26.095-8.768-26.8-17.1Z" transform="translate(-937.64 -1203.639)" fill="#599dad"/>
          <g id="Group_196" data-name="Group 196" transform="translate(0 20.288)">
            <path id="Path_263" data-name="Path 263" d="M1013.536,1279.365s-55.686-2.146-67.983,13.779a40.273,40.273,0,0,1-11.089,15.563l-1.3,3.555s9.65-10.174,13.1-10.79C946.262,1301.472,940.863,1281.742,1013.536,1279.365Z" transform="translate(-921.682 -1279.269)" fill="#599dad"/>
            <path id="Path_264" data-name="Path 264" d="M903.155,1385.187s-11.952,8.839-12.782,24.633l2.169.194s3.818-16.331,10.717-22.718S903.155,1385.187,903.155,1385.187Z" transform="translate(-890.373 -1355.748)" fill="#599dad"/>
          </g>
        </g>
        <g id="Group_199" data-name="Group 199" transform="translate(0 35.863)">
          <path id="Path_265" data-name="Path 265" d="M570.5,1095.054s22.466-12.581,11.982-29.656c0,0-8.387-10.484-17.374-13.18,0,0,4.793,25.462,0,26.061s-3.3-28.757-3.3-28.757-23.664-11.383-32.951-10.484c0,0,14.678,24.863,9.885,24.264s-21.268-25.761-21.268-25.761-24.264-4.493-28.158,9.885,2.4,21.568,5.991,22.466,26.66.6,26.061,3.595-16.176,7.788-24.862,5.092c0,0,9.586,23.665,22.167,22.466s16.475-8.986,24.264-9.585,13.48,1.5,9.585,3.594-17.074.688-23.365,6.035-11.383,8.643.3,11.039,32.651.9,36.845-8.088Z" transform="translate(-488.089 -1036.875)" fill="#0e3c54"/>
          <g id="Group_198" data-name="Group 198" transform="translate(12.312 15.043)">
            <path id="Path_266" data-name="Path 266" d="M533.985,1092.953s62.906,20.369,70.095,43.135c0,0-.3,10.185,5.991,21.867v4.493s-6.59-15.277-10.185-17.374C599.886,1145.075,613.965,1125.3,533.985,1092.953Z" transform="translate(-533.985 -1092.953)" fill="#164863"/>
            <path id="Path_267" data-name="Path 267" d="M809.419,1327.641s9.7,14.732,4.171,32.664l-2.5-.671s2.423-19.751-2.653-29.685S809.419,1327.641,809.419,1327.641Z" transform="translate(-733.333 -1262.638)" fill="#0e3c54"/>
          </g>
        </g>
        <g id="Group_201" data-name="Group 201" transform="translate(98.68 0)">
          <path id="Path_268" data-name="Path 268" d="M875.415,979.877S845.8,963.292,859.62,940.785c0,0,11.056-13.82,22.9-17.374,0,0-6.318,33.563,0,34.353s4.343-37.907,4.343-37.907,31.194-15,43.435-13.82c0,0-19.348,32.773-13.031,31.983s28.035-33.958,28.035-33.958,31.984-5.923,37.117,13.031-3.159,28.43-7.9,29.615-35.143.79-34.353,4.738,21.322,10.266,32.774,6.713c0,0-12.636,31.194-29.22,29.615s-21.718-11.846-31.984-12.636-17.769,1.975-12.636,4.738,22.507.906,30.8,7.955,15,11.393-.395,14.552-43.041,1.185-48.568-10.661Z" transform="translate(-855.946 -903.187)" fill="#4faaa4"/>
          <g id="Group_200" data-name="Group 200" transform="translate(3.828 19.83)">
            <path id="Path_269" data-name="Path 269" d="M999.379,977.108s-82.921,26.851-92.4,56.86c0,0,.395,13.425-7.9,28.825v5.923s8.687-20.138,13.425-22.9C912.509,1045.814,893.95,1019.753,999.379,977.108Z" transform="translate(-891.34 -977.108)" fill="#4faaa4"/>
            <path id="Path_270" data-name="Path 270" d="M877.96,1286.469s-12.788,19.419-5.5,43.057l3.29-.884s-3.194-26.036,3.5-39.131S877.96,1286.469,877.96,1286.469Z" transform="translate(-870.216 -1200.784)" fill="#4faaa4"/>
          </g>
        </g>
        <path id="Path_271" data-name="Path 271" d="M766.563,1489.88a58.01,58.01,0,0,0,58.01-58.011H708.552A58.01,58.01,0,0,0,766.563,1489.88Z" transform="translate(-649.412 -1290.048)" fill="#378f8a"/>
        <path id="Path_272" data-name="Path 272" d="M800.122,1489.436a58.051,58.051,0,0,1-65.215-57.567h14.412A58.02,58.02,0,0,0,800.122,1489.436Z" transform="translate(-668.697 -1290.047)" fill="#58b6b0"/>
        <path id="Path_273" data-name="Path 273" d="M823.188,1639.6H705.565a7.157,7.157,0,0,1,7.157-7.157H816.031a7.157,7.157,0,0,1,7.157,7.157Z" transform="translate(-647.226 -1436.817)" fill="#0e3c54"/>
        <rect id="Rectangle_10" data-name="Rectangle 10" width="119.248" height="1.78" transform="translate(57.233 141.822)" fill="#0e3c54"/>
      </g>
      <g id="Group_204" data-name="Group 204" transform="translate(294.954 85.089)">
        <path id="Path_274" data-name="Path 274" d="M1698.262,531.661s-10.162-19.175,5.064-26.476c0,0,10.73-3.593,18.326-1.4,0,0-15.028,15.842-11.907,18.456s15.473-18.86,15.473-18.86,21.96,2.751,28.126,7.63c0,0-21.754,10.9-18.087,12.667s26.833-8.527,26.833-8.527,19.237,7.9,15.425,19.866-11.551,14.18-14.508,13.174-19.154-11.757-20.1-9.362,7.9,12.907,15.281,14.966c0,0-17.6,12.379-25.963,5.782s-7.562-13.892-12.8-17.874-10.231-5.1-8.431-1.834,11.778,8.288,13.79,14.95,4.112,11.322-5.256,7.681-23.534-14.282-22.4-22.562Z" transform="translate(-1666.15 -503.077)" fill="#0e3c54"/>
        <g id="Group_203" data-name="Group 203" transform="translate(0 23.238)">
          <path id="Path_275" data-name="Path 275" d="M1732.244,596.527s-53.857-14.316-69.35-1.479A40.271,40.271,0,0,1,1648.66,607.8l-2.053,3.183s11.647-7.808,15.151-7.651C1661.758,603.329,1660.821,582.9,1732.244,596.527Z" transform="translate(-1630.782 -589.702)" fill="#164863"/>
          <path id="Path_276" data-name="Path 276" d="M1605.494,655.155s-13.6,6-17.878,21.227l2.074.666s7.309-15.095,15.442-19.811S1605.494,655.155,1605.494,655.155Z" transform="translate(-1587.616 -637.061)" fill="#599dad"/>
        </g>
      </g>
      <g id="Group_206" data-name="Group 206" transform="translate(239.88)">
        <path id="Path_277" data-name="Path 277" d="M1402.586,264.971s-30.1-15.7-16.951-38.6c0,0,10.64-14.143,22.375-18.048,0,0-5.315,33.737,1.023,34.338s3.213-38.02,3.213-38.02,30.734-15.927,43-15.107c0,0-18.364,33.335-12.073,32.357s27.012-34.778,27.012-34.778,31.793-6.872,37.489,11.92-2.311,28.512-7.012,29.836-35.1,1.836-34.2,5.759,21.619,9.627,32.959,5.734c0,0-11.7,31.557-28.325,30.471s-22.061-11.194-32.346-11.678-17.7,2.5-12.489,5.112,22.524.235,31.022,7.035,15.337,10.941.039,14.557-42.986,2.466-48.864-9.211Z" transform="translate(-1382.312 -185.884)" fill="#4faaa4"/>
        <g id="Group_205" data-name="Group 205" transform="translate(6.312 19.502)">
          <path id="Path_278" data-name="Path 278" d="M1529.362,258.582s-82.085,29.307-90.664,59.585c0,0,.795,13.408-7.035,29.047l.176,5.92s8.084-20.387,12.738-23.292C1444.576,329.843,1425.25,304.347,1529.362,258.582Z" transform="translate(-1424.736 -258.582)" fill="#6bb7bf"/>
          <path id="Path_279" data-name="Path 279" d="M1412.768,578.632s-12.2,19.791-4.214,43.2l3.262-.981s-3.967-25.93,2.331-39.217S1412.768,578.632,1412.768,578.632Z" transform="translate(-1405.841 -489.999)" fill="#6bb7bf"/>
        </g>
      </g>
      <rect id="Rectangle_11" data-name="Rectangle 11" width="211.059" height="275.249" transform="translate(123.841 120.632)" fill="#58b6b0"/>
      <rect id="Rectangle_12" data-name="Rectangle 12" width="207.51" height="275.249" transform="translate(130.741 120.632)" fill="#fcfcfc"/>
      <path id="Path_281" data-name="Path 281" d="M1134.3,485.567l0,0H926.782c1.148-15.692-.581-27.087-3.353-35.281-5.322-15.756-14.494-19.709-14.494-19.709h195.7c16.7,0,29.655,10.063,33.18,23.419.131.5.254,1,.36,1.5C1141.526,470.783,1134.433,485.288,1134.3,485.567Z" transform="translate(-796.042 -364.939)" fill="#acdad7"/>
      <path id="Path_282" data-name="Path 282" d="M1173.832,539.33l0,0H966.318c1.148-15.692-.581-27.087-3.353-35.281,21.207,3.883,73.73,12.158,129.949,10.764,36.37-.9,65.111-3.336,84.8-5.551C1181.061,524.546,1173.969,539.051,1173.832,539.33Z" transform="translate(-835.577 -418.702)" fill="rgba(88,182,176,0.1)"/>
      <g id="Group_208" data-name="Group 208" transform="translate(157.68 178.939)">
        <path id="Rectangle_13" data-name="Rectangle 13" d="M2.581,0H111.574a2.581,2.581,0,0,1,2.581,2.581v0a2.581,2.581,0,0,1-2.581,2.581H2.581A2.581,2.581,0,0,1,0,2.581v0A2.581,2.581,0,0,1,2.581,0Z" transform="translate(13.657)" fill="#e49a00"/>
        <rect id="Rectangle_14" data-name="Rectangle 14" width="71.13" height="5.162" rx="2.581" transform="translate(13.657 8.685)" fill="#e49a00"/>
        <g id="Group_207" data-name="Group 207" transform="translate(0 0)">
          <path id="Path_283" data-name="Path 283" d="M1078.944,865.943V855.4h-1.391q-1.266,0-1.266-1.054,0-.759.991-1.075a7.344,7.344,0,0,1,1.613-.253q1.107-.084,1.782-.084.654,0,.823.264a3.15,3.15,0,0,1,.168,1.339v11.408h1.434q1.392,0,1.392,1.2,0,1.265-1.392,1.265h-5.778a1.591,1.591,0,0,1-1.023-.327,1.106,1.106,0,0,1-.411-.917q0-1.223,1.413-1.223Z" transform="translate(-1075.886 -852.932)" fill="#0e3c54"/>
        </g>
      </g>
      <g id="Group_210" data-name="Group 210" transform="translate(157.593 233.3)">
        <rect id="Rectangle_15" data-name="Rectangle 15" width="114.155" height="5.162" rx="2.581" transform="translate(13.744 0)" fill="#e49a00"/>
        <path id="Rectangle_16" data-name="Rectangle 16" d="M2.58,0H68.549A2.581,2.581,0,0,1,71.13,2.581v0a2.581,2.581,0,0,1-2.581,2.581H2.581A2.581,2.581,0,0,1,0,2.581v0A2.58,2.58,0,0,1,2.58,0Z" transform="translate(13.744 8.685)" fill="#e49a00"/>
        <g id="Group_209" data-name="Group 209" transform="translate(0 0)">
          <path id="Path_284" data-name="Path 284" d="M1084.471,1068.372q0,1.054-1.472,1.053h-6.113q-1.323,0-1.323-1.062a1.343,1.343,0,0,1,.354-.783q.521-.6,1.528-1.789,1.528-1.919,2.554-3.317.354-.465,1.006-1.416a3.427,3.427,0,0,0,.54-1.6,1.646,1.646,0,0,0-.466-1.2,1.6,1.6,0,0,0-1.192-.475,1.829,1.829,0,0,0-1.23.447,2.12,2.12,0,0,0-.559,1.118q-.261,1.062-.336,1.23a.945.945,0,0,1-.913.6,1.047,1.047,0,0,1-.876-.41,1.4,1.4,0,0,1-.3-.932,4.5,4.5,0,0,1,.2-1.323,3.976,3.976,0,0,1,1.584-2.2,4.6,4.6,0,0,1,2.628-.727,4.07,4.07,0,0,1,2.833,1.027,3.59,3.59,0,0,1,1.174,2.762,4.815,4.815,0,0,1-.839,2.576q-.466.728-1.919,2.576-.746.952-2.348,2.762h4.026Q1084.471,1067.282,1084.471,1068.372Z" transform="translate(-1075.563 -1055.579)" fill="#0e3c54"/>
        </g>
      </g>
      <g id="Group_212" data-name="Group 212" transform="translate(157.358 278.074)">
        <path id="Rectangle_17" data-name="Rectangle 17" d="M2.581,0H111.574a2.581,2.581,0,0,1,2.581,2.581v0a2.581,2.581,0,0,1-2.581,2.581H2.581A2.581,2.581,0,0,1,0,2.581v0A2.581,2.581,0,0,1,2.581,0Z" transform="translate(13.979 0.574)" fill="#e49a00"/>
        <path id="Rectangle_18" data-name="Rectangle 18" d="M2.581,0H68.549A2.581,2.581,0,0,1,71.13,2.581v0a2.581,2.581,0,0,1-2.581,2.581H2.581A2.581,2.581,0,0,1,0,2.581v0A2.581,2.581,0,0,1,2.581,0Z" transform="translate(13.979 9.258)" fill="#e49a00"/>
        <g id="Group_211" data-name="Group 211" transform="translate(0 0)">
          <path id="Path_285" data-name="Path 285" d="M1083.829,1232.581a4,4,0,0,1-1.391,3.181,4.9,4.9,0,0,1-3.334,1.143,4.669,4.669,0,0,1-2.667-.742,3.4,3.4,0,0,1-1.753-2.838,1.192,1.192,0,0,1,.3-.819,1,1,0,0,1,.781-.343,1.194,1.194,0,0,1,.934.667q.7,1.1.819,1.219a2.126,2.126,0,0,0,1.619.666,2.023,2.023,0,0,0,1.9-.99,2.634,2.634,0,0,0,.267-1.258q0-1.866-2.191-2.076-1.239-.114-1.238-1.048a1,1,0,0,1,.719-.971q1.343-.5,1.362-.514a1.839,1.839,0,0,0,.719-1.658,1.49,1.49,0,0,0-.417-1.114,1.531,1.531,0,0,0-1.12-.409,2.047,2.047,0,0,0-1.367.418,2.745,2.745,0,0,0-.7,1.238.868.868,0,0,1-.873.667.9.9,0,0,1-.75-.4,1.447,1.447,0,0,1-.294-.876,2.434,2.434,0,0,1,.324-1.181,3.654,3.654,0,0,1,1.638-1.543,4.8,4.8,0,0,1,2.21-.514,3.85,3.85,0,0,1,2.7.981,3.328,3.328,0,0,1,1.076,2.581,3.537,3.537,0,0,1-1.6,3.048A3.453,3.453,0,0,1,1083.829,1232.581Z" transform="translate(-1074.685 -1222.485)" fill="#0e3c54"/>
        </g>
      </g>
      <g id="Group_213" data-name="Group 213" transform="translate(181.572 132.917)">
        <path id="Rectangle_19" data-name="Rectangle 19" d="M3,0H69.823a3,3,0,0,1,3,3V3a3,3,0,0,1-3,3H3A3,3,0,0,1,0,3V3A3,3,0,0,1,3,0Z" transform="translate(18.36)" fill="#e49a00"/>
        <path id="Rectangle_20" data-name="Rectangle 20" d="M3,0H106.542a3,3,0,0,1,3,3V3a3,3,0,0,1-3,3H3A3,3,0,0,1,0,3V3A3,3,0,0,1,3,0Z" transform="translate(0 9.246)" fill="#e49a00"/>
      </g>
      <g id="Group_214" data-name="Group 214" transform="translate(143.392 158.681)">
        <path id="Path_286" data-name="Path 286" d="M1107.534,830.667c-22.605,0-44.057-2.837-60.05-6.891-16.156-4.1-24.859-10.791-24.859-16.73,0-5.382,7.092-10.332,20.511-14.315h0c-12.859,3.817-19.736,9.422-19.736,14.315,0,5.43,8.914,10.8,24.457,14.745,15.936,4.04,37.13,6.265,59.677,6.265s43.741-2.225,59.677-6.265c15.543-3.941,24.457-9.315,24.457-14.745,0-5.75-9.387-12.9-24.5-18.65-17.181-6.542-38.361-8.969-59.637-8.969-39.944,0-56.388,4.663-70.654,10.506h0c14.328-5.869,30.568-12.52,70.654-12.52,21.362,0,42.633,3.62,59.894,10.192,15.429,5.875,25.015,13.324,25.015,19.441,0,5.938-8.9,11.464-25.054,15.561C1151.4,826.662,1130.139,830.667,1107.534,830.667Z" transform="translate(-1022.625 -777.413)" fill="#0e3c54"/>
      </g>
      <g id="Group_217" data-name="Group 217" transform="translate(247.153 146.096)">
        <path id="Path_287" data-name="Path 287" d="M1826.007,1169.434s-.744,7.237-1.561,8.606-4.294,5.743-5.776,6.6.9-5.763.6-7.052-1.22,2.351-1.872,2.437-.485-3.191-.509-4.383,3.177-4.135,4.305-6.674S1826.007,1169.434,1826.007,1169.434Z" transform="translate(-1707.584 -1050.601)" fill="#fff" stroke="#03151e" stroke-width="1"/>
        <path id="Path_288" data-name="Path 288" d="M1486.35,890.5l-1.664-3.138s.826-5.592-6.181-9.129c0,0-2.561-1.043-4.006,1.046-1.332,1.924,2.537,1.576,2.33,4.867a6.052,6.052,0,0,0,3.529,6.294l1.8,2.082Z" transform="translate(-1456.837 -838.409)" fill="#fff" stroke="#03151e" stroke-width="1"/>
        <path id="Path_289" data-name="Path 289" d="M1567.295,893.748s-6.017,29.533-39.13,39.182c-10.336,3.012-33.819-31.018-33.819-31.018s.826-3.137,6-2.416c0,0,22.865,15.137,25.743,16.781,2.554,1.459,19.352-18.756,27.009-22.018A19.545,19.545,0,0,1,1567.295,893.748Z" transform="translate(-1471.565 -849.163)" fill="#4caca6" stroke="#03151e" stroke-width="1"/>
        <g id="Group_216" data-name="Group 216" transform="translate(60.72 111.429)">
          <path id="Path_292" data-name="Path 292" d="M1873.057,1583.942s4.108,3.749,3.307,6.413-4.509,4.439-5.01,7.695-2.5,5.031-4.308,5.031h-8.6s-1.328-2.291,1.879-2.981,4.414-4.516,4.214-8.068a62.617,62.617,0,0,1,.3-8.286l6.813-1.578Z" transform="translate(-1798.515 -1465.131)" fill="#e49a00" stroke="#03151e" stroke-width="1"/>
          <path id="Path_293" data-name="Path 293" d="M1659.921,1615.923s.737,8.531-1.066,9.419l-23.08-.047s0-2.664,3.707-3.256,10.219-2.762,11.321-7.6S1659.921,1615.923,1659.921,1615.923Z" transform="translate(-1635.775 -1487.417)" fill="#e49a00" stroke="#03151e" stroke-width="1"/>
          <path id="Path_294" data-name="Path 294" d="M1653.147,1170.022s1.217,14.955,2.648,32.932c1.945,24.419,4.283,54.415,4.514,60.1.4,9.867,2.005,25.651,2.005,25.651s3.805,3.75,11.422,2.17a254.723,254.723,0,0,0,8.725-46.371c.03-.391.06-.785.091-1.178,1.8-24.269,4.607-75.372,4.607-75.372Z" transform="translate(-1648.487 -1162.031)" fill="#0e3c54" stroke="#03151e" stroke-width="1"/>
          <path id="Path_295" data-name="Path 295" d="M1653.147,1170.022s1.217,14.955,2.648,32.932l26.667,41.547c.03-.391.06-.785.091-1.178,1.8-24.269,4.607-75.372,4.607-75.372Z" transform="translate(-1648.487 -1162.031)" fill="#13435b"/>
          <path id="Path_296" data-name="Path 296" d="M1673.871,1155.652s21.942,54.16,36.369,79.613,18.936,32.556,18.936,32.556,8.266-3.256,9.017-5.476c0,0-5.517-49.137-15.179-61.115-5.459-6.769-11.872-27.08-12.173-34.183s-1.953-21.161-1.953-21.161Z" transform="translate(-1663.652 -1145.885)" fill="#0e3c54" stroke="#03151e" stroke-width="1"/>
        </g>
        <path id="Path_297" data-name="Path 297" d="M1717.645,822.08s-14.846,7.163-23.405,4.505a20.2,20.2,0,0,1,5.794-4.635c-.3-1.718-.527-3.209-.659-4.473a41.339,41.339,0,0,1-.362-4.57l5.728-4.505,5.432-4.311C1709.745,816.213,1717.645,822.08,1717.645,822.08Z" transform="translate(-1617.836 -784.35)" fill="#fff" stroke="#03151e" stroke-width="1"/>
        <path id="Path_298" data-name="Path 298" d="M1692.034,938.439c.033.907-1.909,1.945-2.765,2.333a60.641,60.641,0,0,1-18.994,5.381c-7.933.81-17.315-.973-20.541-.908a1.345,1.345,0,0,1-.889-.356c-.23-.163-.395-9.724-.23-21.749,0-.486,0-.973.033-1.459v-.162c.066-4.7.23-9.626.461-14.553.461-10.826,1.317-21.263,2.765-27.033a29.308,29.308,0,0,1,9.283-14.586l2.963-2.593a14.233,14.233,0,0,0,9.217-1.1c3.423-1.654,7.11-3.436,7.7-2.983,4.477,3.274,7.505,10.632,9.118,20.032a104.168,104.168,0,0,1,1.35,17.827c0,2.334-.066,4.733-.2,7.1a223.878,223.878,0,0,0,.461,30.435C1691.9,935.943,1692,937.4,1692.034,938.439Z" transform="translate(-1584.402 -824.235)" fill="#58b6b0" stroke="#03151e" stroke-width="1"/>
        <path id="Path_299" data-name="Path 299" d="M1739.069,992.686c-51.987-.1-9.589-56.412-9.589-56.412l8.422-2.735a163.59,163.59,0,0,1,.976,19.046c0,2.494-.047,5.056-.142,7.584C1738.164,973.883,1738.736,985.795,1739.069,992.686Z" transform="translate(-1631.7 -879.073)" fill="#4caca6"/>
        <path id="Path_301" data-name="Path 301" d="M1694.759,773.287s14.163,2.317,15.493-6.39,4.052-14.272-4.934-16.118-11.255,1.214-12.416,4.014S1691.11,772.46,1694.759,773.287Z" transform="translate(-1616.194 -744.927)" fill="#fff" stroke="#03151e" stroke-width="1"/>
        <path id="Path_302" data-name="Path 302" d="M1702.914,735.308c.129-.147.425-.266,1.085-.3a2.676,2.676,0,0,0-1.232-.347,3.32,3.32,0,0,0-2.206-2.937,1.979,1.979,0,0,1,.959,1.428c-1.829-1.879-5.749-3.247-16.6-2.39-14.3,1.129-9.59,10.287-7.738,11.379s6.513-1.9,9.964-1.628,4.107,5.26,5.277,5.944.71-.526,2.294-1.242,1.735,1.909,1.277,3.615,1.718,3.957,1.718,3.957l2.2-2.368c2.2-2.368,4.272-12.4,3.272-14.537C1703.091,735.691,1703,735.5,1702.914,735.308Z" transform="translate(-1603.709 -730.499)" fill="#e49a00" stroke="#03151e" stroke-width="1"/>
        <path id="Path_303" data-name="Path 303" d="M1751.142,858.6s8.961,4.243,13.257,10.767c6.664,10.119,14.389,47,14.532,50.412s-5.638,27.524-5.638,27.524-5.864-.386-7.376-3.346c0,0,1.172-24.772.429-26.364s-24.444-33.229-21.779-39.98S1751.142,858.6,1751.142,858.6Z" transform="translate(-1654.511 -824.235)" fill="#58b6b0" stroke="#03151e" stroke-width="1"/>
      </g>
      <g id="Logo" transform="translate(-220.841 -181.039)">
        <g id="Group_4" data-name="Group 4" transform="translate(476.054 503.429)">
          <g id="Group_2" data-name="Group 2">
            <g id="Group_1" data-name="Group 1">
              <path id="Path_1" data-name="Path 1" d="M1743.286,552.813q.171-1.759.342-3.513.276-2.808.555-5.615a.913.913,0,0,1,.014-.131.742.742,0,0,0-.437-1.007.773.773,0,0,1-.4-.649c-.208-1.319-.414-2.639-.627-3.958a1.056,1.056,0,0,1,.5-1.083,3.865,3.865,0,0,1,1.573-.643.8.8,0,0,1,.426.082c.467.2.926.416,1.434.647,0-.215-.005-.394,0-.573a.483.483,0,0,1,.5-.526c.191-.02.382-.029.595-.044,0-.11.013-.2.013-.3,0-1.125,0-2.251,0-3.376a.8.8,0,0,0-.089-.347.965.965,0,0,1,1.126-1.413.941.941,0,0,1,.651.924c0,.059,0,.119,0,.186.49,0,.963-.02,1.434.006.393.022.783.1,1.174.154a.441.441,0,0,1,.412.384c.024.162.122.178.242.167.507-.048,1.015-.087,1.518-.157a.525.525,0,0,1,.577.208.488.488,0,0,1-.063.608c-.2.263-.4.53-.627.826.185.188.363.378.552.556a.521.521,0,0,1,.188.563.509.509,0,0,1-.454.342,8.113,8.113,0,0,1-3.273,0,.531.531,0,0,1-.465-.4.26.26,0,0,0-.194-.151c-.36.009-.72.034-1.077.074a.249.249,0,0,0-.161.177,6.117,6.117,0,0,0,0,.817c0,.061.1.149.169.164a3.777,3.777,0,0,0,.446.037.461.461,0,0,1,.48.511c0,.181,0,.363,0,.59.52-.236.994-.458,1.474-.663a.73.73,0,0,1,.4-.065,4.053,4.053,0,0,1,1.574.644,1.067,1.067,0,0,1,.479,1.138c-.213,1.247-.415,2.5-.59,3.75a1.206,1.206,0,0,1-.719.992c-.183.087-.2.2-.186.373q.468,4.7.926,9.393c.009.1.014.192.021.3m-1.889-14.417a.4.4,0,0,1-.1.021c-.568-.062-1.134-.13-1.7-.187-.165-.016-.17-.114-.169-.237,0-.466-.009-.932.006-1.4.007-.223-.076-.3-.287-.292-.193.006-.387-.024-.579-.014s-.254-.054-.253-.255c.009-1.336,0-2.672,0-4.008v-.276l-.094-.038c-.049.069-.129.133-.14.208a3.154,3.154,0,0,0-.013.474q0,3.9.005,7.806c0,.357,0,.354-.357.369a11.832,11.832,0,0,0-3.244.511,4.782,4.782,0,0,0-.965.51c-.079.049-.1.2-.142.3a3,3,0,0,1,.427-.411,2.19,2.19,0,0,1,.557-.231,10.035,10.035,0,0,1,2.55-.362c.382-.013.765,0,1.171,0,0,.122,0,.208,0,.294,0,1.327-.006,2.655.008,3.982,0,.246-.074.321-.312.361a2.349,2.349,0,0,0-1.974,2.191c.022,1.591.084,3.181.123,4.771,0,.177.072.22.237.219.932-.007,1.864-.01,2.8,0,.221,0,.284-.065.283-.282-.01-1.521-.01-3.041-.011-4.562a1.659,1.659,0,0,0-.665-1.372,8.452,8.452,0,0,0-.855-.516c.127-.009.246-.025.365-.025a2.051,2.051,0,0,1,2.16,2.082c-.055,1.466-.007,2.936-.014,4.4,0,.2.049.275.264.271.685-.013,1.371-.01,2.057,0,.193,0,.261-.042.24-.252-.315-3.157-.621-6.314-.938-9.471a.588.588,0,0,0-.182-.353,3.738,3.738,0,0,0-1.535-.839c-.559-.14-1.126-.249-1.677-.368-.005,0,.007-.01.019-.011a6.591,6.591,0,0,1,3.63.794.347.347,0,0,0,.538-.13c.141-.229-.05-.33-.2-.438a1.334,1.334,0,0,0-.207-.116,7.43,7.43,0,0,0-2.354-.639c-.366-.049-.733-.088-1.1-.131a10.445,10.445,0,0,1,4,.594.371.371,0,0,0,.043-.084c.184-1.154.373-2.307.54-3.463a.546.546,0,0,0-.151-.4,3.121,3.121,0,0,0-1.537-.709Zm-6.92-1.717c.085.523.182.985.227,1.452.026.271.128.3.364.262.388-.065.782-.093,1.173-.138.085-.01.169-.024.254-.037l.04-.073c-.567.079-.6-.281-.634-.656a.272.272,0,0,0-.1-.2C1745.814,537.083,1745.386,536.893,1744.911,536.676Zm-1.283,15.986c.2.059.311.039.317-.183s.037-.473.057-.709q.279-3.244.558-6.489c.05-.58.093-1.161.14-1.741l-.048,0Zm.118-11.124h.072a1.73,1.73,0,0,0,0-.233c-.152-1.114-.29-2.23-.472-3.338a.629.629,0,0,1,.289-.694,3.445,3.445,0,0,1,.433-.25c.164-.082.335-.151.5-.225a2.148,2.148,0,0,0-1.173.426.669.669,0,0,0-.287.69c.054.3.092.608.146.911C1743.417,539.729,1743.582,540.634,1743.746,541.538Zm5.236-10.23a.486.486,0,0,0-.465-.5.223.223,0,0,0-.263.25.48.48,0,0,0,.466.475C1748.887,531.53,1748.991,531.462,1748.982,531.308Z" transform="translate(-1742.722 -530.314)" fill="#0e3c54"/>
              <path id="Path_2" data-name="Path 2" d="M1772.179,564.646l.277-1.709a3.122,3.122,0,0,1,1.537.709.546.546,0,0,1,.151.4c-.167,1.156-.356,2.309-.54,3.463a.376.376,0,0,1-.043.084,10.446,10.446,0,0,0-4-.594c.366.043.734.082,1.1.131a7.434,7.434,0,0,1,2.354.639,1.341,1.341,0,0,1,.207.116c.145.108.337.209.2.438a.347.347,0,0,1-.538.13,6.591,6.591,0,0,0-3.63-.794c-.012,0-.024.014-.019.011.55.12,1.117.228,1.677.368a3.736,3.736,0,0,1,1.535.839.588.588,0,0,1,.182.353c.317,3.156.623,6.314.938,9.471.021.21-.047.255-.24.252-.686-.01-1.371-.013-2.057,0-.215,0-.265-.067-.264-.271.007-1.468-.041-2.938.014-4.4a2.051,2.051,0,0,0-2.16-2.082c-.119,0-.238.016-.365.025a8.436,8.436,0,0,1,.854.516,1.66,1.66,0,0,1,.665,1.372c0,1.521,0,3.042.011,4.562,0,.217-.062.285-.283.282-.932-.011-1.863-.008-2.8,0-.165,0-.233-.042-.237-.219-.039-1.59-.1-3.18-.123-4.771a2.349,2.349,0,0,1,1.974-2.191c.238-.039.314-.114.312-.361-.014-1.327-.007-2.655-.008-3.982v-.294c-.406,0-.789-.011-1.171,0a10.039,10.039,0,0,0-2.55.363,2.187,2.187,0,0,0-.557.231,3.024,3.024,0,0,0-.427.411c.046-.1.063-.251.143-.3a4.778,4.778,0,0,1,.965-.51,11.833,11.833,0,0,1,3.244-.511c.357-.015.357-.012.356-.369q0-3.9-.005-7.806a3.153,3.153,0,0,1,.012-.474c.011-.075.091-.139.14-.208l.094.038v.276c0,1.336.005,2.672,0,4.008,0,.2.058.265.253.255s.387.02.58.014c.211-.006.294.069.287.291-.016.465,0,.932-.007,1.4,0,.123,0,.221.169.237.568.056,1.135.125,1.7.187A.4.4,0,0,0,1772.179,564.646Z" transform="translate(-1763.07 -556.568)" fill="#fff"/>
              <path id="Path_3" data-name="Path 3" d="M1786.093,656.344c.475.217.9.407,1.323.612a.272.272,0,0,1,.1.2c.03.375.066.735.634.656l-.04.073c-.084.012-.169.027-.254.037-.391.045-.785.074-1.173.138-.236.039-.337.009-.364-.262C1786.275,657.329,1786.178,656.867,1786.093,656.344Z" transform="translate(-1783.904 -649.983)" fill="#fff"/>
              <path id="Path_4" data-name="Path 4" d="M1760.666,801.371l1.023-9.127.048,0c-.046.581-.09,1.161-.14,1.741q-.277,3.244-.558,6.489c-.02.236-.051.473-.057.709S1760.868,801.43,1760.666,801.371Z" transform="translate(-1759.76 -779.024)" fill="#fff"/>
              <path id="Path_5" data-name="Path 5" d="M1750.808,663.5c-.164-.9-.329-1.809-.49-2.714-.054-.3-.091-.608-.146-.911a.669.669,0,0,1,.287-.69,2.148,2.148,0,0,1,1.173-.426c-.168.075-.339.143-.5.225a3.427,3.427,0,0,0-.433.25.629.629,0,0,0-.289.694c.182,1.109.319,2.225.471,3.338a1.73,1.73,0,0,1,0,.233Z" transform="translate(-1749.784 -652.275)" fill="#fff"/>
              <path id="Path_6" data-name="Path 6" d="M1853.063,540.525c.009.153-.1.221-.261.221a.48.48,0,0,1-.466-.475.223.223,0,0,1,.263-.25A.486.486,0,0,1,1853.063,540.525Z" transform="translate(-1846.803 -539.531)" fill="#fff"/>
            </g>
            <path id="Path_7" data-name="Path 7" d="M1754.849,640.912c-.024-.195.146-.333.294-.437a3.377,3.377,0,0,1,.753-.375,3.056,3.056,0,0,0,.349-.132,1.191,1.191,0,0,0,.179-.1l.222,1.451a.462.462,0,0,0,.092.245c.094.1.238.024.349,0,.165-.03.334-.032.5-.054s.353-.046.53-.061c.129-.01.277.005.363-.113-.017.024-.145,0-.171,0a.509.509,0,0,1-.416-.35c-.049-.157.006-.356-.116-.486l.4-.369c0-.367-.125-1.035.411-1.086l.684-.057.185,4.776s-2.816-.043-4.115,1.229Z" transform="translate(-1754.235 -633.504)" fill="#e49a00"/>
            <path id="Path_8" data-name="Path 8" d="M1768.865,739.15l.008,4.276s.036.274-.312.361a2.316,2.316,0,0,0-1.966,2l.065,3.189-2.088-1.427.483-5.736s-.327-1.5-.9-1.653c0,0,.171-.185.313-.323a1.6,1.6,0,0,1,.44-.245,8.119,8.119,0,0,1,1.768-.371A11.522,11.522,0,0,1,1768.865,739.15Z" transform="translate(-1763.078 -728.585)" fill="#e49a00"/>
          </g>
          <path id="Path_9" data-name="Path 9" d="M1887.356,567.266c0-.089.857-.109.918-.107a2.665,2.665,0,0,1,.887.182c.34.136.6.471.965.531a1.068,1.068,0,0,0,.489-.055,2.607,2.607,0,0,0,.253-.131.265.265,0,0,1,.129-.033c.089.012,0,.114-.02.147-.038.068-.076.137-.11.207a.81.81,0,0,0-.077.658.327.327,0,0,1,.007.31.9.9,0,0,1-.432.241,2.562,2.562,0,0,1-1.207.16,1.887,1.887,0,0,1-.577-.1c-.173-.079-.188-.2-.3-.342-.173-.237-.906-.1-.9.227Z" transform="translate(-1880.056 -565.299)" fill="#fff"/>
          <g id="Group_3" data-name="Group 3" transform="translate(8.504 8.185)">
            <circle id="Ellipse_1" data-name="Ellipse 1" cx="0.584" cy="0.584" r="0.584" fill="#0e3c54"/>
            <circle id="Ellipse_2" data-name="Ellipse 2" cx="0.431" cy="0.431" r="0.431" transform="translate(1.314)" fill="#0e3c54"/>
            <circle id="Ellipse_3" data-name="Ellipse 3" cx="0.282" cy="0.282" r="0.282" transform="translate(1.031 1.167)" fill="#0e3c54"/>
          </g>
          <path id="Path_10" data-name="Path 10" d="M1756.487,656.344l-.341.171a4.259,4.259,0,0,0-1.047.52.436.436,0,0,0-.185.341l.216,1.8.158,1.3.122,1,.14-.128a6.051,6.051,0,0,1,.706-.451l-.643.149-.527-3.434a.481.481,0,0,1,.293-.509Z" transform="translate(-1754.298 -649.983)" fill="#cd8800"/>
          <path id="Path_11" data-name="Path 11" d="M1813.311,640.977l-.4.369.067.146s-.04.781.636.691c-.083.011-.243-.112-.3-.156a.572.572,0,0,1-.226-.331c-.016-.071,0-.145-.007-.213-.009-.051-.049-.079-.087-.117l.381-.336.021-.4c.011-.2-.022-.45.146-.6a.6.6,0,0,1,.329-.15.608.608,0,0,0-.407.123s-.172.135-.16.555Z" transform="translate(-1809.364 -634.349)" fill="#cd8800"/>
          <path id="Path_12" data-name="Path 12" d="M1764.5,740.256a7.155,7.155,0,0,1,.62,1.345,3.743,3.743,0,0,1,.045,1.625l-.125,1.717-.2,2.768-.008.113-.136-.091.169-2.034.283-3.336a2.58,2.58,0,0,0-.282-1.341,1.586,1.586,0,0,0-.578-.69,1.727,1.727,0,0,1,.99-.631,8.481,8.481,0,0,1,.981-.228,15.1,15.1,0,0,1,2.727-.136S1764.972,739.664,1764.5,740.256Z" transform="translate(-1763.198 -728.774)" fill="#cd8800"/>
        </g>
        <g id="Group_11" data-name="Group 11" transform="translate(408.723 501.999)">
          <g id="Group_6" data-name="Group 6" transform="translate(18.827 10.066)">
            <path id="Path_13" data-name="Path 13" d="M871.161,742.249c-.244.033-.46.049-.671.094a13.4,13.4,0,0,1-5.907-.144,14.489,14.489,0,0,1-8.828-5.524,7.887,7.887,0,0,1-1.566-4.419c-1.6.407-3.128.832-4.672,1.168-.616.134-.723.417-.622.956a8.842,8.842,0,0,0,1.94,4.152c4.015,4.734,9.26,6.6,15.335,6.5a2.836,2.836,0,0,1,.831.256c-.272.121-.544.244-.817.362a.391.391,0,0,1-.131.006,20.609,20.609,0,0,1-10.914-2.642,3.7,3.7,0,0,0-1.676-.432c-2.192-.027-6.536-.018-9.866-.01a35.971,35.971,0,0,0-1.058-8.186,8.661,8.661,0,0,0-1.829-3.849,2.069,2.069,0,0,0-3.2-.137,4.741,4.741,0,0,0-1.116,1.461c-.638,1.5-1.166,3.038-1.739,4.56-.047.124-.111.241-.168.361l-.147-.029v-4.214l-2.756.316a2.331,2.331,0,0,0-.04.315q.133,4.137.27,8.275a3.485,3.485,0,0,1,0,.722c-.051.281-.344.3-.576.278a4.992,4.992,0,0,1-.705-.261c-.274-.07-1.416-.347-1.592.021.179-.374.322-.927.456-1.22a6,6,0,0,0-3.767-8.52,7.588,7.588,0,0,0-8.568,4.3c-1.706,3.826.195,8.1,4.526,8.754a3.329,3.329,0,0,1,.443.148l-12.05,10.025,5.253,5.219c.016-.023.051-.079.092-.132q4.013-5.18,8.028-10.359.983-1.267,1.967-2.533.511-.656,1.025-1.31c.232-.3.6-.867.984-.953s.388.2.388.477v2.436h2.454c0-.013,0-.026,0-.039.015.014.033.026.05.039h41.056V742.8Zm-47.574-1.937a1.452,1.452,0,0,1-1.487-1.369,1.245,1.245,0,0,1,1.31-1.2,1.457,1.457,0,0,1,1.454,1.33A1.261,1.261,0,0,1,823.587,740.312Zm15.6-3.458q-.692,2.034-1.389,4.065-.353,1.026-.709,2.052c-.115.329-.232.658-.339.99-.071.22-.126.675-.4.746a.291.291,0,0,1-.322-.245.564.564,0,0,1,.007-.234,1.76,1.76,0,0,1,.062-.207l1.41-4.077.712-2.06.356-1.03c.07-.2.144-.514.433-.476a.265.265,0,0,1,.219.2A.52.52,0,0,1,839.183,736.853Z" transform="translate(-808.548 -728.278)" fill="#0e3c54"/>
            <g id="Group_5" data-name="Group 5">
              <path id="Path_14" data-name="Path 14" d="M844.338,713.978c-.432.056-.861.111-1.289.193-.2.038-.395.074-.594.1.361-.044-.039,0-.094.006q-.178.018-.356.03a14.348,14.348,0,0,1-2.483-.065c-.383-.039.2.036-.032,0-.1-.016-.2-.03-.294-.046q-.294-.049-.587-.109c-.374-.077-.745-.166-1.114-.265a18.576,18.576,0,0,1-1.864-.6c-.1-.038-.332-.189-.427-.171.02,0,.323.142.089.036l-.251-.112q-.435-.2-.856-.425a13.969,13.969,0,0,1-1.576-.985c-.074-.053-.146-.108-.219-.162-.174-.128.081.039.073.057.006-.014-.311-.253-.354-.289q-.387-.327-.748-.684-.333-.329-.642-.681-.157-.179-.307-.363c-.051-.062-.1-.125-.15-.187q-.1-.125.076.1l-.116-.155a9.315,9.315,0,0,1-.616-.947q-.131-.233-.248-.475a1.051,1.051,0,0,1-.121-.265q.111.267.051.117-.027-.068-.053-.136a7.579,7.579,0,0,1-.33-1.131q-.02-.1-.038-.2t-.034-.2q-.035-.239.01.078a1.81,1.81,0,0,1-.049-.621,1.45,1.45,0,0,0-1.811-1.38c-1.182.3-2.359.621-3.544.908a8.383,8.383,0,0,0-1.768.5,1.979,1.979,0,0,0-1.062,1.725,5.6,5.6,0,0,0,.293,1.647,11.442,11.442,0,0,0,.633,1.658,11.07,11.07,0,0,0,1.915,2.745,19.216,19.216,0,0,0,9.906,5.8,24.254,24.254,0,0,0,3.346.51q.818.07,1.639.086.406.008.812,0a1.106,1.106,0,0,0,.193,0c-.041.046-.288-.085-.07,0,.171.07.346.139.52.2l-.342-2.615c-.2.091-.412.176-.612.273-.413.2.728-.078.276-.1-.108,0-.22.006-.329.008q-.652.011-1.3-.018-.59-.026-1.177-.087c-.175-.018-.357-.03-.53-.062.391.072.033,0-.041-.008q-.21-.032-.419-.068a20.208,20.208,0,0,1-2.37-.56q-.56-.168-1.11-.368-.3-.109-.6-.228l-.2-.08q-.221-.092.045.02l-.2-.085c-.836-.367-1.62-.85-2.465-1.192a6.213,6.213,0,0,0-2.311-.356c-1.376-.012-2.753-.013-4.129-.013q-2.605,0-5.21.008l1.431,1.431a42.693,42.693,0,0,0-.472-5.429,22.653,22.653,0,0,0-1.154-4.8c-.63-1.618-1.68-3.454-3.476-3.95-1.9-.524-3.6.811-4.556,2.343a9.428,9.428,0,0,0-.674,1.511c-.177.442-.347.887-.514,1.333s-.33.894-.494,1.341q-.123.336-.247.671c-.041.112-.084.223-.125.335q-.094.247.022-.048-.044.089-.087.179l1.616-.658-.147-.029,1.05,1.38V705.7a1.438,1.438,0,0,0-1.431-1.431l-2.756.316c-.568.065-1.281.394-1.38,1.05a5.7,5.7,0,0,0-.079,1.06q.016.487.031.973.032.973.063,1.947.062,1.886.123,3.772l.032.973c0,.15.012.3.018.451.005.126-.062.508.037.134a1.158,1.158,0,0,1,.712-.729q.392-.041.163-.039l.218.03q-.219-.071.079.044l-.173-.081q-.213-.093-.43-.18c-.065-.022-.13-.038-.2-.054-1.066-.264-2.445-.391-3.1.7l2.471,1.444c.18-.393.322-.792.462-1.2.018-.053.039-.106.056-.16.092-.287-.159.354-.026.057.11-.246.216-.5.309-.749a8.1,8.1,0,0,0,.44-2.1,7.643,7.643,0,0,0-.739-3.88,7.346,7.346,0,0,0-6.519-4.064,9.056,9.056,0,0,0-7.169,3.364,8.441,8.441,0,0,0-1.659,7.626,7.073,7.073,0,0,0,2.247,3.427,8.081,8.081,0,0,0,2.094,1.228c.645.261,1.329.338,1.979.568l-.631-2.391-9.413,7.831-2.637,2.194a1.444,1.444,0,0,0,0,2.023l5.253,5.219a1.451,1.451,0,0,0,2.247-.29c.132-.2-.154.194-.019.013.061-.082.125-.161.188-.242l.3-.387.75-.968,1.35-1.743,2.776-3.582q2.731-3.524,5.469-7.041c.145-.186.292-.371.432-.561.172-.233-.171.2-.04.05.058-.068.114-.138.176-.2.032-.034.147-.111.157-.15l-.159.128q.151-.081-.036.01l-.1.047q-1.42-.1-1.429-1.106c0,.066.005.137.006.2.006.812,0,1.624,0,2.436a1.452,1.452,0,0,0,1.431,1.431h2.454a1.441,1.441,0,0,0,1.431-1.431l0-.039-2.442,1.012a1.783,1.783,0,0,0,1.115.458c.066,0,.131,0,.2,0h35.723c1.67,0,3.344.032,5.014,0h.069a1.452,1.452,0,0,0,1.431-1.431v-5.2a7.318,7.318,0,0,0-.158-1.459,1.439,1.439,0,0,0-1.76-1,1.467,1.467,0,0,0-1,1.76c.025.126.04.258.075.382.049.176-.015-.213-.019-.207s0,.057,0,.075c0,.12,0,.24,0,.359v5.292l1.431-1.431H808.43c-1.655,0-3.318-.049-4.972,0h-.069l1.012.419-.05-.039a1.469,1.469,0,0,0-1.563-.3,1.411,1.411,0,0,0-.88,1.307l0,.039,1.431-1.431h-2.454l1.431,1.431c0-.812.006-1.624,0-2.436a2.011,2.011,0,0,0-.384-1.286,1.725,1.725,0,0,0-1.884-.551,2.44,2.44,0,0,0-1.144.78c-.157.181-.3.376-.443.566l-.1.13q-.121.16.063-.082l-.147.187q-.733.935-1.461,1.874-3.06,3.939-6.113,7.885l-1.725,2.227c-.6.779-1.267,1.54-1.816,2.358l2.247-.29-5.253-5.219v2.023l9.348-7.777,2.7-2.248a1.411,1.411,0,0,0,.368-1.392,1.478,1.478,0,0,0-1-1c-.523-.185-1.072-.249-1.6-.426-.127-.043-.252-.1-.38-.142.412.121.065.024-.056-.036a5.885,5.885,0,0,1-.7-.409c-.042-.029-.082-.059-.124-.087-.236-.16.267.223.05.041-.076-.064-.154-.127-.228-.194a5.633,5.633,0,0,1-.564-.584c-.031-.037-.06-.079-.093-.114.267.286.133.179.069.085s-.126-.18-.185-.272a7.208,7.208,0,0,1-.367-.673c-.141-.285.121.319-.012-.029q-.065-.172-.12-.347a6.087,6.087,0,0,1-.177-.719c-.011-.061-.018-.123-.031-.184-.039-.188.041.4.017.12-.011-.126-.024-.25-.03-.376a6.564,6.564,0,0,1,.006-.766c.009-.129.032-.259.037-.387,0,.015-.061.379-.018.147.012-.065.022-.13.034-.195a7.092,7.092,0,0,1,.207-.819q.056-.176.121-.35a1.615,1.615,0,0,0,.076-.194c-.067.3-.1.216-.046.11a8.7,8.7,0,0,1,.424-.811q.1-.166.21-.328c.048-.071.1-.141.149-.211.066-.095.149-.11-.068.084.207-.185.369-.443.566-.643s.414-.389.631-.574c.18-.153-.066.054-.089.066a1.889,1.889,0,0,0,.205-.151q.173-.123.353-.236a7.794,7.794,0,0,1,.739-.413,2.428,2.428,0,0,0,.307-.142c-.29.2-.161.067-.029.016q.118-.046.238-.087a7.585,7.585,0,0,1,.768-.223q.184-.043.371-.077c.069-.013.138-.023.207-.034q.169-.025-.172.023l.167-.018a7.058,7.058,0,0,1,.757-.033c.141,0,.281.007.422.017l.169.014.169.018q-.339-.048-.17-.022a7.906,7.906,0,0,1,.791.17q.2.056.4.127l.154.058c.268.1-.281-.134-.043-.017a6.994,6.994,0,0,1,.7.381c.1.063.191.138.291.2.161.1-.285-.237-.073-.057.059.05.12.1.178.15a5.683,5.683,0,0,1,.518.519c.042.048.082.1.125.147.148.171-.072-.093-.081-.108.076.131.181.251.263.379a6.962,6.962,0,0,1,.4.745c.1.207-.049-.113-.053-.128.021.085.067.171.1.254q.071.2.128.409t.1.419q.019.1.036.194c.022.132-.008.33-.007-.067,0,.293.047.585.04.88q-.006.244-.031.488c-.005.055-.014.109-.019.164.04-.44.02-.159,0-.053a6.7,6.7,0,0,1-.227.9,4.078,4.078,0,0,0-.181.49c.046-.26.093-.213.038-.1-.078.166-.148.337-.212.508-.057.151-.106.3-.158.457-.02.06-.041.119-.062.179s-.042.117-.065.175q.133-.3.041-.1a1.431,1.431,0,1,0,2.471,1.444,1.21,1.21,0,0,1-.4.4q-.41.153-.2.1c-.461.113-.245.025-.081.028.09,0,.18.017.27.019-.475-.012-.183-.025-.048,0s.269.053.4.088c.34.092-.227-.134.039.008a2.98,2.98,0,0,0,.6.245,1.926,1.926,0,0,0,2.405-1.185,7.072,7.072,0,0,0,.049-2.031q-.064-1.947-.127-3.894-.032-.974-.064-1.947l-.031-.974c-.005-.162-.013-.324-.016-.487-.009-.469-.062.26-.015-.056l-1.38,1.05,2.756-.316-1.431-1.431v4.214a1.448,1.448,0,0,0,1.05,1.38l.147.029a1.465,1.465,0,0,0,1.616-.658c.371-.766.638-1.58.931-2.379.274-.745.55-1.489.847-2.225q.056-.138.113-.275l.023-.055q.094-.226-.006.013a1.274,1.274,0,0,1,.239-.443c.014-.022.118-.167.116-.17.021.031-.185.225,0,0,.123-.146.254-.284.389-.419.06-.061.122-.121.185-.179l.038-.036q.181-.153-.055.033c.04-.009.4-.248.4-.24,0,.032-.341.106-.1.047.068-.016.14-.035.207-.054.185-.054-.379.014-.09.014.079,0,.171.011.249.006-.318.022-.243-.039-.092,0,.041.01.171.075.2.064-.121.041-.261-.136-.1-.036.077.048.158.095.236.141.169.1,0-.047-.06-.049.046,0,.151.137.186.171a3.817,3.817,0,0,0,.381.432c-.057.011-.168-.228-.008,0q.073.105.143.213.124.194.234.4t.207.408c.032.068.2.372.02.031a2.673,2.673,0,0,1,.112.284,22.672,22.672,0,0,1,1.062,4.352q.052.32.1.642c.012.082.059.351.005.029.019.116.03.235.044.351q.078.643.134,1.289c.078.9.123,1.8.144,2.707a1.454,1.454,0,0,0,1.431,1.431c3.017-.008,6.035-.02,9.052,0,.251,0,.5,0,.752.007.088,0,.175.008.263.009.342,0-.31-.078.028,0,.2.048.4.1.6.163.325.1-.254-.153.033.017.091.054.188.1.281.152q.241.13.484.254.627.319,1.273.6a22.153,22.153,0,0,0,5.015,1.547,23.212,23.212,0,0,0,3.036.332q.707.028,1.415.008c.1,0,.193,0,.288-.005a2.31,2.31,0,0,0,.888-.248c.239-.1.477-.211.715-.318a1.416,1.416,0,0,0,.683-1.426,1.458,1.458,0,0,0-1.025-1.189,4.768,4.768,0,0,0-.727-.25,5.588,5.588,0,0,0-1.012-.053q-.686,0-1.372-.039-.649-.036-1.3-.106l-.319-.038c-.363-.045.232.036-.027,0-.225-.034-.449-.068-.673-.108a19.534,19.534,0,0,1-2.516-.615q-.589-.187-1.165-.414c-.1-.038-.19-.08-.286-.116.39.146.069.028-.023-.012q-.3-.134-.6-.279a17.1,17.1,0,0,1-2.223-1.3q-.26-.18-.513-.369l-.109-.082c-.126-.093.113.088.109.085-.093-.079-.192-.151-.286-.228q-.522-.424-1.011-.887t-.969-.984q-.231-.252-.453-.511c-.076-.089-.15-.181-.225-.271-.1-.123.067.088.068.089a1.137,1.137,0,0,1-.148-.2,8.56,8.56,0,0,1-.733-1.25,1.711,1.711,0,0,0-.124-.273c.146.2.072.179.029.065-.018-.047-.036-.093-.054-.14q-.133-.353-.237-.717-.112-.392-.191-.793a1.222,1.222,0,0,0-.032-.176c.01.027.026.36.031.174.006-.217-.04.21-.039.2.042-.177-.093.191-.094.192.085-.165-.136.17-.131.165-.011.011-.312.212-.148.122-.377.207-.141.059.016.022.319-.076.64-.143.959-.219,1.243-.3,2.475-.633,3.713-.949l-1.811-1.38a9.485,9.485,0,0,0,1.429,4.65,13.757,13.757,0,0,0,2.935,3.295,17.51,17.51,0,0,0,8.02,3.569,15.785,15.785,0,0,0,3.213.261,15.232,15.232,0,0,0,1.685-.162q.358-.052.713-.122a1.8,1.8,0,0,0,.3-.057q-.337.044-.095.015l.2-.025a1.573,1.573,0,0,0,1.012-.419,1.454,1.454,0,0,0,.419-1.012C845.738,714.716,845.133,713.875,844.338,713.978Z" transform="translate(-781.725 -701.437)" fill="#0e3c54"/>
              <path id="Path_15" data-name="Path 15" d="M1024.788,863.274a1.613,1.613,0,0,1-.217-.013l.38.051a1.571,1.571,0,0,1-.375-.1l.342.144a1.6,1.6,0,0,1-.344-.2l.29.224a1.551,1.551,0,0,1-.276-.276l.224.29a1.438,1.438,0,0,1-.177-.3l.144.342a1.321,1.321,0,0,1-.088-.323l.051.38a1.232,1.232,0,0,1,0-.3l-.051.38a1.175,1.175,0,0,1,.075-.281l-.144.342a1.206,1.206,0,0,1,.152-.262l-.224.29a1.287,1.287,0,0,1,.217-.217l-.29.224a1.379,1.379,0,0,1,.3-.176l-.342.144a1.469,1.469,0,0,1,.353-.1l-.38.051a1.509,1.509,0,0,1,.384,0l-.38-.051a1.54,1.54,0,0,1,.383.105l-.342-.144a1.635,1.635,0,0,1,.339.2l-.29-.224a1.589,1.589,0,0,1,.275.272l-.224-.29a1.428,1.428,0,0,1,.183.311l-.144-.342a1.261,1.261,0,0,1,.081.294l-.051-.38a1.189,1.189,0,0,1,0,.306l.051-.38a1.206,1.206,0,0,1-.078.288l.144-.342a1.268,1.268,0,0,1-.158.27l.224-.29a1.338,1.338,0,0,1-.236.234l.29-.224a1.38,1.38,0,0,1-.294.169l.342-.144a1.41,1.41,0,0,1-.338.091l.38-.051a1.51,1.51,0,0,1-.163.012,1.471,1.471,0,0,0-1.431,1.431l.051.38a1.429,1.429,0,0,0,.368.631l.29.224a1.424,1.424,0,0,0,.722.2,4.182,4.182,0,0,0,.578-.068,1.33,1.33,0,0,0,.222-.055,2.643,2.643,0,0,0,.7-.334,3.777,3.777,0,0,0,.429-.344,3.62,3.62,0,0,0,.353-.44,1.2,1.2,0,0,0,.1-.169,3.37,3.37,0,0,0,.218-.526,3.321,3.321,0,0,0,.09-.56,1.208,1.208,0,0,0,.008-.221,3.487,3.487,0,0,0-.078-.565,3.253,3.253,0,0,0-.207-.536,2.736,2.736,0,0,0-.439-.642,2.929,2.929,0,0,0-.6-.507,1.553,1.553,0,0,0-.185-.109,4.161,4.161,0,0,0-.542-.226,1.453,1.453,0,0,0-.211-.053,3.886,3.886,0,0,0-.6-.071,1.573,1.573,0,0,0-.2.011,2.6,2.6,0,0,0-1.109.3,1.389,1.389,0,0,0-.192.1,3.877,3.877,0,0,0-.434.332,1.218,1.218,0,0,0-.146.151,3.627,3.627,0,0,0-.325.434,3.373,3.373,0,0,0-.228.515,1.114,1.114,0,0,0-.053.187,3.315,3.315,0,0,0-.071.578,3.575,3.575,0,0,0,.064.567,1.3,1.3,0,0,0,.05.212,2.589,2.589,0,0,0,.356.74,3.7,3.7,0,0,0,.37.454,4.043,4.043,0,0,0,.461.366,1.538,1.538,0,0,0,.207.125,4.032,4.032,0,0,0,.552.23,1.566,1.566,0,0,0,.242.057,3.922,3.922,0,0,0,.615.067,1.47,1.47,0,0,0,1.431-1.431l-.051-.38a1.428,1.428,0,0,0-.368-.631l-.29-.224A1.424,1.424,0,0,0,1024.788,863.274Z" transform="translate(-1009.749 -852.671)" fill="#0e3c54"/>
              <path id="Path_16" data-name="Path 16" d="M1300.8,835.017q-.53,1.558-1.062,3.115t-1.064,3.084c-.1.286-.2.572-.295.86-.056.172-.086.351-.156.518l.144-.342a.756.756,0,0,1-.083.149l.224-.29a.437.437,0,0,1-.073.075l.29-.224a.342.342,0,0,1-.066.038l.342-.144a.326.326,0,0,1-.054.016l.38-.051a.285.285,0,0,1-.052,0l.38.051a.292.292,0,0,1-.067-.017l.342.144a.366.366,0,0,1-.061-.036l.289.224a.408.408,0,0,1-.064-.065l.224.29a.43.43,0,0,1-.045-.08l.144.342a.449.449,0,0,1-.02-.076l.051.38a.615.615,0,0,1,0-.141l-.051.38a1.968,1.968,0,0,1,.107-.373l.136-.393.264-.763.532-1.538,1.059-3.063.3-.858c.078-.225.145-.458.237-.678l-.144.342a.71.71,0,0,1,.075-.134l-.224.29a.4.4,0,0,1,.064-.067l-.29.224a.334.334,0,0,1,.056-.034l-.342.144a.322.322,0,0,1,.066-.019l-.38.051a.39.39,0,0,1,.094,0l-.38-.051a.318.318,0,0,1,.067.019l-.342-.144a.352.352,0,0,1,.06.036l-.29-.224a.368.368,0,0,1,.048.05l-.224-.29a.342.342,0,0,1,.034.061l-.144-.342a.369.369,0,0,1,.014.056l-.051-.38a.442.442,0,0,1,0,.093l.051-.38a1.027,1.027,0,0,1-.043.161,1.083,1.083,0,0,0-.025.57,1.064,1.064,0,0,0,.17.532,1.6,1.6,0,0,0,.855.658l.38.051a1.424,1.424,0,0,0,.722-.2l.29-.224a1.427,1.427,0,0,0,.368-.631c.013-.038.026-.076.035-.114.018-.077.025-.163.034-.237a2.072,2.072,0,0,0,.029-.237,1.689,1.689,0,0,0-.236-.872,1.761,1.761,0,0,0-.269-.343,2.971,2.971,0,0,0-.3-.235c-.015-.01-.028-.02-.044-.029a1.709,1.709,0,0,0-.854-.225,1.944,1.944,0,0,0-.439.057,1.546,1.546,0,0,0-.223.089,1.451,1.451,0,0,0-.555.365,2.23,2.23,0,0,0-.49.85c-.1.26-.181.526-.272.789l-.322.931-1.307,3.78c-.219.634-.45,1.266-.658,1.9a2.192,2.192,0,0,0-.076.4,1.6,1.6,0,0,0-.029.284c0,.077.021.169.03.237a1.625,1.625,0,0,0,.039.249,1.772,1.772,0,0,0,1.192,1.2l.033.009.017,0,.38.051.052,0,.19-.026a1.414,1.414,0,0,0,.208-.029,1.5,1.5,0,0,0,.589-.307,1.663,1.663,0,0,0,.441-.477.767.767,0,0,0,.071-.122,3.831,3.831,0,0,0,.235-.612c.025-.092.047-.184.077-.275.1-.316.214-.629.324-.943q.324-.931.644-1.863.652-1.894,1.3-3.79l.158-.464a1.083,1.083,0,0,0,.026-.57,1.065,1.065,0,0,0-.17-.532,1.6,1.6,0,0,0-.855-.658l-.38-.051a1.425,1.425,0,0,0-.722.2l-.29.224A1.43,1.43,0,0,0,1300.8,835.017Z" transform="translate(-1271.547 -826.822)" fill="#0e3c54"/>
            </g>
          </g>
          <g id="Group_8" data-name="Group 8" transform="translate(0 0)">
            <path id="Path_17" data-name="Path 17" d="M457.393,557.193a12.744,12.744,0,0,0-.7-9.409l-.122-.273-5.342,1.6a6.475,6.475,0,0,1,.142,1.354c0,1.95-1.33,2.716-3.018,1.755-1.069-.609-2.713-2.1-2.839-3.432-.223-2.349,4.584-5.685,6.151-6.8,1.9-1.353,4.04-2.246,6.027-3.45.908-.55,1.706-1.271,2.554-1.906.979-.732,1.952-1.469,2.914-2.223.464-.364,1.57-1,.9-1.706a3.2,3.2,0,0,0-1.308-.527q-.861-.271-1.726-.526c-1.154-.34-2.313-.667-3.48-.957a6.381,6.381,0,0,0-2.4-.345,5.506,5.506,0,0,0-2.711.488c-.757.3-1.484.681-2.094.989-.581.293-1.144.6-1.68.908a26.987,26.987,0,0,0-4.736,3.437,28.737,28.737,0,0,0-5.038,5.662c-1.144,1.8-2.162,4.456-1.645,6.627.9,3.778,4.927,7.786,7.942,9.966a12.3,12.3,0,0,0,6.612,2.619A5.134,5.134,0,0,0,457.393,557.193Z" transform="translate(-435.672 -528.885)" fill="#0e3c54"/>
            <g id="Group_7" data-name="Group 7">
              <path id="Path_18" data-name="Path 18" d="M431.824,530.687a13.865,13.865,0,0,0-.009-8.35,21.942,21.942,0,0,0-.953-2.435l-.224-.29a1.072,1.072,0,0,0-.46-.3,1.394,1.394,0,0,0-.932-.072l-1.8.54-2.877.86-.661.2a1.47,1.47,0,0,0-.855.658,1.572,1.572,0,0,0-.144,1.1q.051.245.085.493l-.051-.38a5.389,5.389,0,0,1,.027,1.34l.051-.38a2.8,2.8,0,0,1-.181.7l.144-.342a1.973,1.973,0,0,1-.248.426l.224-.29a1.636,1.636,0,0,1-.258.258l.29-.224a1.519,1.519,0,0,1-.333.193l.342-.144a1.638,1.638,0,0,1-.383.1l.38-.051a2.008,2.008,0,0,1-.5,0l.38.051a2.861,2.861,0,0,1-.7-.2l.342.144a5.5,5.5,0,0,1-1.159-.715l.29.224a7.649,7.649,0,0,1-1.342-1.327l.224.29a4.341,4.341,0,0,1-.552-.918l.144.342a2.5,2.5,0,0,1-.169-.594l.051.38a1.929,1.929,0,0,1,0-.476l-.051.38a2.754,2.754,0,0,1,.193-.685l-.144.342a5.554,5.554,0,0,1,.737-1.211l-.224.29a18.084,18.084,0,0,1,3.29-3.091l-.29.224c.908-.7,1.841-1.392,2.814-2,1.591-1,3.306-1.772,4.92-2.728a27.671,27.671,0,0,0,2.794-2.056l-.29.224c1.159-.9,2.335-1.768,3.492-2.667l-.29.224a3.9,3.9,0,0,0,1.727-1.948,2.084,2.084,0,0,0-.588-2.015,3.274,3.274,0,0,0-1.412-.732c-1.751-.488-3.48-1.049-5.241-1.5-.494-.127-.988-.265-1.487-.372a8.575,8.575,0,0,0-1.047-.157,4.738,4.738,0,0,0-1.095.066h.761a5.424,5.424,0,0,0-1.062-.076,7.442,7.442,0,0,0-1.088.15,8.561,8.561,0,0,0-1.511.491,33.324,33.324,0,0,0-3.078,1.493,30.419,30.419,0,0,0-5.372,3.689,33.412,33.412,0,0,0-4.3,4.376,19.279,19.279,0,0,0-1.835,2.638,13.928,13.928,0,0,0-1.207,2.849,8.85,8.85,0,0,0-.389,3.058,9.144,9.144,0,0,0,.817,3.019,18.015,18.015,0,0,0,3.132,4.659,28.142,28.142,0,0,0,3.837,3.6,23.432,23.432,0,0,0,2.428,1.7,14.713,14.713,0,0,0,2.841,1.3,11.54,11.54,0,0,0,3.12.564,7.189,7.189,0,0,0,1.16-.039,7.707,7.707,0,0,0,1.406-.267,6.36,6.36,0,0,0,3.785-3.235,10.039,10.039,0,0,0,.559-1.362,1.431,1.431,0,1,0-2.759-.761q-.1.308-.225.607l.144-.342a6.183,6.183,0,0,1-.788,1.37l.224-.29a4.943,4.943,0,0,1-.851.854l.29-.224a4.755,4.755,0,0,1-1.028.6l.342-.144a5.518,5.518,0,0,1-1.4.372l.38-.051a8.174,8.174,0,0,1-2.09-.026l.38.051a10.8,10.8,0,0,1-2.739-.759l.342.144a17.135,17.135,0,0,1-3.72-2.259l.29.224a28.287,28.287,0,0,1-3.856-3.594q-.518-.584-1-1.2l.224.29a15.193,15.193,0,0,1-2-3.307l.144.342a7.648,7.648,0,0,1-.55-1.858l.051.38a6.481,6.481,0,0,1,.013-1.7l-.051.38a10.293,10.293,0,0,1,.734-2.578l-.144.342a15.147,15.147,0,0,1,1.99-3.307l-.224.29a32.9,32.9,0,0,1,4.284-4.459q.67-.591,1.377-1.138l-.29.224A31.918,31.918,0,0,1,424.453,506c.507-.257,1.017-.509,1.541-.73l-.342.144a7.87,7.87,0,0,1,1.921-.569l-.38.051a3.888,3.888,0,0,1,.954-.014l-.38-.051.431.058.434-.059-.38.051a3.522,3.522,0,0,1,.883.018l-.38-.051a15.242,15.242,0,0,1,1.494.342q.788.2,1.571.413,1.58.434,3.147.92c.238.074.475.152.717.215a5.227,5.227,0,0,1,.654.2l-.342-.144a1.493,1.493,0,0,1,.314.178l-.29-.224a1.091,1.091,0,0,1,.14.14l-.224-.29a.878.878,0,0,1,.115.192l-.144-.342a.737.737,0,0,1,.034.126l-.051-.38a.665.665,0,0,1,0,.153l.051-.38a.8.8,0,0,1-.041.149l.144-.342a1.117,1.117,0,0,1-.133.228l.224-.29a2.68,2.68,0,0,1-.477.455l.29-.224c-.468.361-.939.717-1.406,1.078l.29-.224q-.951.734-1.913,1.454c-.688.516-1.356,1.055-2.036,1.581l.29-.224a22.906,22.906,0,0,1-3.348,2.026c-1.138.6-2.284,1.195-3.358,1.906-.61.4-1.2.837-1.79,1.273-.778.578-1.545,1.173-2.275,1.812a14.507,14.507,0,0,0-1.849,1.886,8.473,8.473,0,0,0-.846,1.217,4.469,4.469,0,0,0-.486,1.251,3.451,3.451,0,0,0,.065,1.736,5.767,5.767,0,0,0,1.045,1.827,7.435,7.435,0,0,0,1.1,1.111,8.03,8.03,0,0,0,1.417.991,3.449,3.449,0,0,0,3.575.029,3.311,3.311,0,0,0,.84-.857,3.4,3.4,0,0,0,.387-.824,4.553,4.553,0,0,0,.188-1.007,4.922,4.922,0,0,0,.006-.883,9.575,9.575,0,0,0-.177-1.269l-1,1.76,1.8-.54,2.877-.86.661-.2-1.616-.658c.088.2.176.394.26.593l-.144-.342a14.926,14.926,0,0,1,1.046,3.718l-.051-.38a12.187,12.187,0,0,1,.011,3.189l.051-.38a12.559,12.559,0,0,1-.5,2.182,1.431,1.431,0,1,0,2.759.761Z" transform="translate(-408.723 -501.999)" fill="#0e3c54"/>
            </g>
          </g>
          <g id="Group_10" data-name="Group 10" transform="translate(17.543 9.095)">
            <path id="Path_19" data-name="Path 19" d="M788.69,710.551a3.979,3.979,0,0,0-4.058,3.916,4.5,4.5,0,0,0,4.5,4.321,3.982,3.982,0,0,0,4.124-3.845A4.5,4.5,0,0,0,788.69,710.551Z" transform="translate(-783.201 -709.12)" fill="#0e3c54"/>
            <g id="Group_9" data-name="Group 9">
              <path id="Path_20" data-name="Path 20" d="M761.776,682.191a6.571,6.571,0,0,0-1.055.1,4.093,4.093,0,0,0-.648.157c-.105.035-.209.074-.311.117-.208.087-.417.17-.618.274a4.084,4.084,0,0,0-.549.34,6.44,6.44,0,0,0-.762.631,6.32,6.32,0,0,0-.631.769,3.891,3.891,0,0,0-.325.538,6.05,6.05,0,0,0-.378.929,5.964,5.964,0,0,0-.183,1,3.813,3.813,0,0,0-.025.666,6.418,6.418,0,0,0,.136,1.027,4.116,4.116,0,0,0,.184.617,6.768,6.768,0,0,0,.419.921,6.852,6.852,0,0,0,.576.816,6.057,6.057,0,0,0,2.717,1.879,4.546,4.546,0,0,0,.641.178c.232.047.469.074.7.1q.173.022.348.03a4.471,4.471,0,0,0,.7-.021,6.874,6.874,0,0,0,1.031-.173,6.692,6.692,0,0,0,.951-.358,4.2,4.2,0,0,0,.573-.306q.137-.088.267-.186c.178-.135.359-.27.527-.418a3.948,3.948,0,0,0,.434-.449,6.1,6.1,0,0,0,.579-.8,5.972,5.972,0,0,0,.408-.9,3.628,3.628,0,0,0,.172-.612,5.856,5.856,0,0,0,.113-1.019,6.69,6.69,0,0,0-.094-1.014,4.186,4.186,0,0,0-.144-.638,6.8,6.8,0,0,0-.37-.92,4.343,4.343,0,0,0-.315-.551c-.123-.183-.262-.356-.4-.53-.066-.085-.135-.167-.206-.247a4.549,4.549,0,0,0-.458-.443,6.083,6.083,0,0,0-2.976-1.413,7.7,7.7,0,0,0-1.033-.1,1.47,1.47,0,0,0-1.431,1.431l.051.38a1.428,1.428,0,0,0,.368.631l.29.224a1.424,1.424,0,0,0,.722.2,4.948,4.948,0,0,1,.608.042l-.38-.051a4.779,4.779,0,0,1,1.2.327l-.342-.144a4.715,4.715,0,0,1,1.044.61l-.29-.224a4.6,4.6,0,0,1,.807.806l-.224-.29a4.41,4.41,0,0,1,.573.98l-.144-.342a4.268,4.268,0,0,1,.29,1.062l-.051-.38a3.992,3.992,0,0,1,0,1.057l.051-.38a3.7,3.7,0,0,1-.253.923l.144-.342a3.828,3.828,0,0,1-.5.844l.224-.29a4.048,4.048,0,0,1-.71.707l.29-.224a4.225,4.225,0,0,1-.928.541l.342-.144a4.362,4.362,0,0,1-1.108.3l.38-.051a4.532,4.532,0,0,1-1.188,0l.38.051a4.606,4.606,0,0,1-1.146-.314l.342.144a4.711,4.711,0,0,1-1.037-.6l.29.224a4.666,4.666,0,0,1-.828-.825l.224.29a4.434,4.434,0,0,1-.571-.973l.144.342a4.174,4.174,0,0,1-.288-1.045l.051.38a3.94,3.94,0,0,1,0-1.035l-.051.38a3.813,3.813,0,0,1,.266-.97l-.144.342a3.939,3.939,0,0,1,.5-.855l-.224.289a4.082,4.082,0,0,1,.727-.725l-.29.224a4.144,4.144,0,0,1,.9-.525l-.342.144a4.16,4.16,0,0,1,1.046-.287l-.38.051a4.3,4.3,0,0,1,.587-.038,1.47,1.47,0,0,0,1.431-1.431l-.051-.38a1.43,1.43,0,0,0-.368-.631l-.29-.224A1.424,1.424,0,0,0,761.776,682.191Z" transform="translate(-756.287 -682.19)" fill="#0e3c54"/>
            </g>
          </g>
        </g>
        <path id="Path_21" data-name="Path 21" d="M804.021,705.393a3.982,3.982,0,0,1-4.124,3.845,4.5,4.5,0,0,1-4.5-4.321A3.979,3.979,0,0,1,799.458,701,4.5,4.5,0,0,1,804.021,705.393Z" transform="translate(-367.16 -188.958)" fill="#e49a00"/>
        <g id="Group_12" data-name="Group 12" transform="translate(431.463 538.429)">
          <circle id="Ellipse_4" data-name="Ellipse 4" cx="0.584" cy="0.584" r="0.584" transform="translate(0)" fill="#fff"/>
          <circle id="Ellipse_5" data-name="Ellipse 5" cx="0.431" cy="0.431" r="0.431" transform="translate(1.314)" fill="#fff"/>
          <circle id="Ellipse_6" data-name="Ellipse 6" cx="0.282" cy="0.282" r="0.282" transform="translate(1.031 1.167)" fill="#fff"/>
        </g>
        <path id="Path_22" data-name="Path 22" d="M1344.338,751.428c.32-.5.476-1.079.84-1.568a2.665,2.665,0,0,1,2.605-1.25c.644.128,1.542.444,1.39,1.247a.784.784,0,0,1-1.18.451,2.322,2.322,0,0,0-1.981-.1A2.935,2.935,0,0,0,1344.338,751.428Z" transform="translate(-888.391 -234.123)" fill="#fff"/>
        <g id="Group_13" data-name="Group 13" transform="translate(462.655 509.7)">
          <path id="Path_23" data-name="Path 23" d="M1477.867,661.911l-.609-.728,2.083-1.9c-.248-.218-.476-.4-.677-.6a2.384,2.384,0,0,1-.3-2.723,2.352,2.352,0,0,1,2.361-1.386,1.948,1.948,0,0,1,1.616,2.358,3.544,3.544,0,0,1-.872,1.747C1480.354,659.8,1479.122,660.8,1477.867,661.911Zm1.18-4.668c0,.026,0,.051,0,.075.085.946,1.048,1.122,1.753.665a1.343,1.343,0,0,0-.083-2.251C1479.732,655.094,1479.019,656.374,1479.047,657.243Z" transform="translate(-1477.258 -654.557)" fill="#0e3c54"/>
          <path id="Path_24" data-name="Path 24" d="M1524.891,660.381c-.091-.177-.124-.379-.229-.555a.9.9,0,0,0-.833-.508c-.22.021-.533.1-.509.372a.265.265,0,0,0,.381.191.784.784,0,0,1,.669.032A.991.991,0,0,1,1524.891,660.381Z" transform="translate(-1520.993 -659.074)" fill="#fff"/>
        </g>
        <path id="Path_25" data-name="Path 25" d="M2003.582,969.172s0,.149-.61.218" transform="translate(-1513.782 -443.593)" fill="#cd8800"/>
        <g id="Group_20" data-name="Group 20" transform="translate(410.699 502.915)">
          <g id="Group_14" data-name="Group 14" transform="translate(18.82 10.095)">
            <path id="Path_26" data-name="Path 26" d="M881.928,732.7c-.244.033-.46.049-.671.094a13.4,13.4,0,0,1-5.907-.144,14.49,14.49,0,0,1-8.828-5.524,7.887,7.887,0,0,1-1.566-4.419c-1.6.407-3.128.832-4.672,1.168-.616.134-.723.417-.622.956a8.842,8.842,0,0,0,1.939,4.152c4.015,4.734,9.26,6.6,15.335,6.5a2.83,2.83,0,0,1,.831.256c-.272.121-.543.244-.817.362a.394.394,0,0,1-.131.006A20.609,20.609,0,0,1,865.9,733.46a3.7,3.7,0,0,0-1.676-.432c-2.192-.027-6.536-.018-9.866-.01a35.968,35.968,0,0,0-1.058-8.186,8.66,8.66,0,0,0-1.829-3.849,2.069,2.069,0,0,0-3.2-.137,4.741,4.741,0,0,0-1.115,1.461c-.638,1.5-1.166,3.038-1.74,4.56-.047.124-.111.241-.168.361l-.147-.029v-4.214l-2.756.316a2.32,2.32,0,0,0-.04.315q.133,4.137.27,8.275a3.489,3.489,0,0,1,0,.722c-.051.281-.344.3-.576.278a5,5,0,0,1-.705-.261c-.274-.07-1.416-.347-1.592.021.179-.374.322-.927.456-1.22a6.005,6.005,0,0,0-3.767-8.52,7.588,7.588,0,0,0-8.568,4.3c-1.706,3.826.195,8.1,4.526,8.754a3.338,3.338,0,0,1,.443.148l-12.05,10.025,5.253,5.219c.016-.023.051-.079.092-.132q4.013-5.18,8.028-10.359.983-1.267,1.967-2.533.511-.656,1.024-1.31c.232-.3.6-.867.984-.953s.388.2.388.477v2.436h2.454c0-.013,0-.026,0-.039.015.014.033.026.05.039h41.056v-5.734Zm-47.574-1.937a1.452,1.452,0,0,1-1.487-1.369,1.245,1.245,0,0,1,1.31-1.2,1.457,1.457,0,0,1,1.454,1.33A1.261,1.261,0,0,1,834.354,730.761Zm12.445,3.915a1.76,1.76,0,0,1,.062-.207l1.41-4.077.712-2.06.356-1.03c.07-.2.143-.514.433-.476a.265.265,0,0,1,.219.2.521.521,0,0,1-.041.278q-.692,2.034-1.389,4.065-.353,1.026-.709,2.052c-.115.329-.232.658-.339.99-.071.22-.126.675-.4.746a.291.291,0,0,1-.322-.245A.562.562,0,0,1,846.8,734.676Z" transform="translate(-820.741 -720.154)" fill="#58b6b0"/>
          </g>
          <path id="Path_27" data-name="Path 27" d="M463.2,521.283a5.506,5.506,0,0,1,2.711-.488,6.379,6.379,0,0,1,2.4.345c1.167.29,2.326.617,3.48.957q.865.255,1.726.526a3.2,3.2,0,0,1,1.308.527c.672.707-.433,1.343-.9,1.706-.962.754-1.935,1.491-2.914,2.223-.848.634-1.646,1.355-2.554,1.906-1.987,1.2-4.122,2.1-6.027,3.45-1.567,1.113-6.374,4.449-6.151,6.8.126,1.329,1.77,2.823,2.839,3.432,1.687.961,3.016.2,3.018-1.755a6.467,6.467,0,0,0-.142-1.354l5.342-1.6.122.273a12.744,12.744,0,0,1,.7,9.409,5.134,5.134,0,0,1-5.6,3.848,12.305,12.305,0,0,1-6.612-2.619c-3.015-2.18-7.041-6.188-7.942-9.966-.517-2.171.5-4.822,1.645-6.627a28.738,28.738,0,0,1,5.038-5.662,26.982,26.982,0,0,1,4.736-3.437c.536-.3,1.1-.615,1.68-.908C461.719,521.964,462.446,521.584,463.2,521.283Z" transform="translate(-447.872 -520.733)" fill="#58b6b0"/>
          <g id="Group_19" data-name="Group 19" transform="translate(0.011 0)">
            <path id="Path_28" data-name="Path 28" d="M1591.411,803.883s.052,3.823,4.472,7.07c0,0,4.163,4.131,12.824,4.028C1608.708,814.981,1594.18,813.656,1591.411,803.883Z" transform="translate(-1533.703 -789.562)" fill="#469791"/>
            <g id="Group_18" data-name="Group 18">
              <path id="Path_29" data-name="Path 29" d="M802.934,527.171q-.96.737-1.928,1.462c-.674.5-1.318,1.062-2.009,1.547a7.97,7.97,0,0,0-1.736-.665c.363-.694,1.348-.887,1.711-1.581a6.566,6.566,0,0,1-2.373-.534c.568-.41,1.341-.536,1.7-1.23a10.973,10.973,0,0,0-2.162-.6c.429-.483,1.064-.681,1.288-1.448a4.826,4.826,0,0,1-2.029-.177,12.732,12.732,0,0,0,1.68-1.544c.419.078.834.2,1.224.294,1.167.29,2.326.617,3.48.957.119.035.237.073.356.108A3.875,3.875,0,0,0,802.934,527.171Z" transform="translate(-777.87 -522.285)" fill="#fff" opacity="0.5"/>
              <path id="Path_30" data-name="Path 30" d="M929.2,550.285c.672.707-.433,1.343-.9,1.706-.327.256-.657.508-.986.761a3.876,3.876,0,0,1-.794-3.412c.457.137.915.274,1.37.417A3.2,3.2,0,0,1,929.2,550.285Z" transform="translate(-902.253 -547.868)" fill="#e49a00"/>
              <g id="Group_15" data-name="Group 15" transform="translate(58.377 14.063)">
                <circle id="Ellipse_7" data-name="Ellipse 7" cx="0.584" cy="0.584" r="0.584" fill="#fff"/>
                <circle id="Ellipse_8" data-name="Ellipse 8" cx="0.431" cy="0.431" r="0.431" transform="translate(1.314)" fill="#fff"/>
                <circle id="Ellipse_9" data-name="Ellipse 9" cx="0.282" cy="0.282" r="0.282" transform="translate(1.031 1.167)" fill="#fff"/>
              </g>
              <path id="Path_31" data-name="Path 31" d="M1071.013,804.818c-.269-.525-.366-1.121-.68-1.644a2.665,2.665,0,0,0-2.468-1.5c-.653.063-1.578.288-1.507,1.1a.784.784,0,0,0,1.129.566,2.322,2.322,0,0,1,1.981.094A2.935,2.935,0,0,1,1071.013,804.818Z" transform="translate(-1035.148 -787.451)" fill="#fff"/>
              <path id="Path_32" data-name="Path 32" d="M1912.608,1027.011c.527.264.958.688,1.521.923a2.665,2.665,0,0,0,2.879-.248c.489-.438,1.1-1.166.563-1.781a.784.784,0,0,0-1.245.211c-.377.72-.935.862-1.653,1.1A2.936,2.936,0,0,1,1912.608,1027.011Z" transform="translate(-1838.689 -1000.162)" fill="#fff"/>
              <path id="Path_33" data-name="Path 33" d="M801.167,701.443s-3.89,3.993-3.007,7.48a4.163,4.163,0,0,1-2.178-4.646,3.533,3.533,0,0,1,1.147-1.894,4.2,4.2,0,0,1,1.816-1,5.042,5.042,0,0,1,2.105.034Z" transform="translate(-778.345 -692.145)" fill="#cd8800"/>
              <path id="Path_34" data-name="Path 34" d="M465.9,537.868l1.657-.5a13.28,13.28,0,0,1,1.042,8.895,6.853,6.853,0,0,1-1.192,2.711,5.93,5.93,0,0,1-5.331,1.932,12.3,12.3,0,0,1-5.395-2.3,27.35,27.35,0,0,1-6.236-5.911,10.527,10.527,0,0,1-2.283-4.666c-.449-2.921,1.126-5.772,2.973-8.08a31.191,31.191,0,0,1,10.75-8.567,8.916,8.916,0,0,1,5.412-1.14,5.1,5.1,0,0,0-1.709.474q-.882.275-1.744.609a28.563,28.563,0,0,0-9.313,5.882c-2.482,2.35-4.958,5.341-5.347,8.864a7.026,7.026,0,0,0,1.308,4.773A24.478,24.478,0,0,0,459.608,549c1.366.7,2.99,1.282,4.49.629a6.431,6.431,0,0,0,3.479-7.263,18.3,18.3,0,0,0-1.7-4.49Z" transform="translate(-448.084 -520.149)" fill="#469791"/>
              <path id="Path_35" data-name="Path 35" d="M723.622,1043.5c.58.108,1.111.4,1.717.466a2.665,2.665,0,0,0,2.7-1.036c.349-.556.736-1.426.048-1.867a.783.783,0,0,0-1.138.548c-.163.8-.66,1.087-1.285,1.511A2.936,2.936,0,0,1,723.622,1043.5Z" transform="translate(-709.715 -1014.668)" fill="#fff"/>
              <g id="Group_16" data-name="Group 16" transform="translate(17.53 18.554)">
                <circle id="Ellipse_10" data-name="Ellipse 10" cx="0.584" cy="0.584" r="0.584" fill="#fff"/>
                <circle id="Ellipse_11" data-name="Ellipse 11" cx="0.431" cy="0.431" r="0.431" transform="translate(1.314)" fill="#fff"/>
                <circle id="Ellipse_12" data-name="Ellipse 12" cx="0.282" cy="0.282" r="0.282" transform="translate(1.031 1.167)" fill="#fff"/>
              </g>
              <g id="Group_17" data-name="Group 17" transform="translate(21.841 11.266)">
                <circle id="Ellipse_13" data-name="Ellipse 13" cx="0.584" cy="0.584" r="0.584" fill="#fff"/>
                <circle id="Ellipse_14" data-name="Ellipse 14" cx="0.431" cy="0.431" r="0.431" transform="translate(1.314)" fill="#fff"/>
                <circle id="Ellipse_15" data-name="Ellipse 15" cx="0.282" cy="0.282" r="0.282" transform="translate(1.031 1.167)" fill="#fff"/>
              </g>
              <path id="Path_36" data-name="Path 36" d="M950.08,834.824a7.626,7.626,0,0,0-1.344,4.238,5.9,5.9,0,0,0,5.508,5.9S947.491,841.344,950.08,834.824Z" transform="translate(-923.466 -818.941)" fill="#469791"/>
              <path id="Path_37" data-name="Path 37" d="M832.612,1039.243l-11.871,9.876,1.756,1.744,3.5,3.474-4.43-5.2Z" transform="translate(-801.932 -1013.042)" fill="#469791"/>
              <path id="Path_38" data-name="Path 38" d="M1241.829,776.26l-2.756.316.241,9.2s0,.626-.758.349c0,0,.5.578.94-.221l-.145-9.031Z" transform="translate(-1198.657 -763.333)" fill="#469791"/>
            </g>
          </g>
        </g>
        <g id="Group_21" data-name="Group 21" transform="translate(430.959 538.73)">
          <circle id="Ellipse_16" data-name="Ellipse 16" cx="0.584" cy="0.584" r="0.584" transform="translate(0 0)" fill="#fff"/>
          <circle id="Ellipse_17" data-name="Ellipse 17" cx="0.431" cy="0.431" r="0.431" transform="translate(1.314 0)" fill="#fff"/>
          <circle id="Ellipse_18" data-name="Ellipse 18" cx="0.282" cy="0.282" r="0.282" transform="translate(1.031 1.167)" fill="#fff"/>
        </g>
        <g id="Group_22" data-name="Group 22" transform="translate(443.43 541.071)">
          <path id="Path_39" data-name="Path 39" d="M1122.823,1279.732h-.492v-2.414h.492v.969h1.037v-.969h.5v2.414h-.5v-1.045h-1.037Z" transform="translate(-1122.331 -1277.258)" fill="#0e3344"/>
          <path id="Path_40" data-name="Path 40" d="M1171.838,1289.934a.8.8,0,0,1,.663.3.962.962,0,0,1,.2.614.878.878,0,0,1-.294.686.846.846,0,0,1-1.2-.061.9.9,0,0,1-.229-.625.925.925,0,0,1,.255-.679A.813.813,0,0,1,1171.838,1289.934Zm0,1.464q.37,0,.37-.549,0-.572-.37-.572t-.37.572Q1171.468,1291.4,1171.838,1291.4Z" transform="translate(-1168.521 -1289.236)" fill="#0e3344"/>
          <path id="Path_41" data-name="Path 41" d="M1211.531,1290.4a.763.763,0,0,0-.427-.122q-.183,0-.183.156t.248.206a1.078,1.078,0,0,1,.419.172.512.512,0,0,1,.16.412.481.481,0,0,1-.173.389.705.705,0,0,1-.467.145,1.065,1.065,0,0,1-.7-.236l.175-.267a.746.746,0,0,0,.477.156.284.284,0,0,0,.179-.053.17.17,0,0,0,.069-.141q0-.16-.271-.21-.58-.11-.579-.564a.449.449,0,0,1,.177-.362.679.679,0,0,1,.444-.145.988.988,0,0,1,.629.21Z" transform="translate(-1205.961 -1289.236)" fill="#0e3344"/>
          <path id="Path_42" data-name="Path 42" d="M1242.39,1289.934a.8.8,0,0,1,.663.3.962.962,0,0,1,.2.614.878.878,0,0,1-.294.686.846.846,0,0,1-1.2-.061.9.9,0,0,1-.229-.625.926.926,0,0,1,.255-.679A.813.813,0,0,1,1242.39,1289.934Zm0,1.464q.37,0,.37-.549,0-.572-.37-.572t-.37.572Q1242.02,1291.4,1242.39,1291.4Z" transform="translate(-1235.512 -1289.236)" fill="#0e3344"/>
          <path id="Path_43" data-name="Path 43" d="M1284.353,1292.374a.627.627,0,0,1-.522.244.572.572,0,0,1-.467-.17.906.906,0,0,1-.139-.57v-1.037h.473v.911a.7.7,0,0,0,.069.364.261.261,0,0,0,.236.1.43.43,0,0,0,.164-.038.2.2,0,0,0,.111-.08v-1.262h.48v1.731h-.358l-.042-.2Z" transform="translate(-1274.927 -1290.098)" fill="#0e3344"/>
          <path id="Path_44" data-name="Path 44" d="M1323.875,1290.147a.6.6,0,0,1,.229-.151.762.762,0,0,1,.29-.063.58.58,0,0,1,.475.179.915.915,0,0,1,.147.579v1.018h-.484v-1q0-.374-.332-.374a.505.505,0,0,0-.179.036.289.289,0,0,0-.13.082v1.254h-.48v-1.731h.408c.013.066.025.122.038.168Z" transform="translate(-1313.041 -1289.236)" fill="#0e3344"/>
          <path id="Path_45" data-name="Path 45" d="M1382.025,1277.319h1.578v.4h-1.079v.568h.9v.4h-.9v.644h1.129v.4h-1.628Z" transform="translate(-1368.633 -1277.258)" fill="#0e3344"/>
          <path id="Path_46" data-name="Path 46" d="M1419.18,1279.015l-.069-.183a.448.448,0,0,1-.2.164.654.654,0,0,1-.282.065.744.744,0,0,1-.621-.271.9.9,0,0,1-.179-.58,1,1,0,0,1,.29-.77.741.741,0,0,1,.522-.2.681.681,0,0,1,.442.145v-.553l.48-.267v2.451Zm-.1-.66v-.484a.372.372,0,0,0-.12-.208.322.322,0,0,0-.219-.082.366.366,0,0,0-.309.153.671.671,0,0,0-.114.412q0,.568.37.568a.372.372,0,0,0,.255-.109A.408.408,0,0,0,1419.084,1278.356Z" transform="translate(-1402.591 -1276.541)" fill="#0e3344"/>
          <path id="Path_47" data-name="Path 47" d="M1463.146,1292.374a.626.626,0,0,1-.522.244.572.572,0,0,1-.467-.17.907.907,0,0,1-.139-.57v-1.037h.473v.911a.7.7,0,0,0,.068.364.261.261,0,0,0,.236.1.43.43,0,0,0,.164-.038.2.2,0,0,0,.111-.08v-1.262h.48v1.731h-.358l-.042-.2Z" transform="translate(-1444.501 -1290.098)" fill="#0e3344"/>
          <path id="Path_48" data-name="Path 48" d="M1501.5,1291.489a.882.882,0,0,1-.641.267.905.905,0,0,1-.7-.282.964.964,0,0,1,.065-1.308.872.872,0,0,1,.614-.233.857.857,0,0,1,.644.252l-.145.259a.627.627,0,0,0-.423-.172.435.435,0,0,0-.351.166.645.645,0,0,0-.137.425.577.577,0,0,0,.135.395.439.439,0,0,0,.345.154.575.575,0,0,0,.431-.187Z" transform="translate(-1480.465 -1289.236)" fill="#0e3344"/>
          <path id="Path_49" data-name="Path 49" d="M1537.025,1291.71h-.385l-.038-.164a.8.8,0,0,1-.511.21.5.5,0,0,1-.576-.561.491.491,0,0,1,.24-.435,1.321,1.321,0,0,1,.721-.16h.08v-.008a.294.294,0,0,0-.069-.225.379.379,0,0,0-.248-.061.743.743,0,0,0-.461.16q-.069-.126-.13-.248a1.5,1.5,0,0,1,.379-.227,1.133,1.133,0,0,1,.387-.059q.61,0,.61.762Zm-.484-.816h-.057a.7.7,0,0,0-.351.076.228.228,0,0,0-.134.2q0,.236.206.236a.355.355,0,0,0,.221-.073.284.284,0,0,0,.114-.183Z" transform="translate(-1514.209 -1289.236)" fill="#0e3344"/>
          <path id="Path_50" data-name="Path 50" d="M1573.749,1280.609h-.5v.858q0,.191.126.191a.608.608,0,0,0,.286-.1l.16.244a.943.943,0,0,1-.6.214q-.458,0-.458-.5v-.9h-.24v-.385h.244v-.309q.191-.1.484-.255v.564h.492Z" transform="translate(-1549.317 -1279.481)" fill="#0e3344"/>
          <path id="Path_51" data-name="Path 51" d="M1603.271,1276.412a.3.3,0,0,1,.086-.212.273.273,0,0,1,.2-.09.3.3,0,0,1,.215.088.287.287,0,0,1,.09.214.291.291,0,0,1-.086.217.3.3,0,0,1-.219.084.275.275,0,0,1-.208-.086A.3.3,0,0,1,1603.271,1276.412Zm.541.442v1.731h-.484v-1.731Z" transform="translate(-1578.481 -1276.111)" fill="#0e3344"/>
          <path id="Path_52" data-name="Path 52" d="M1621.96,1289.934a.8.8,0,0,1,.663.3.962.962,0,0,1,.2.614.879.879,0,0,1-.293.686.846.846,0,0,1-1.2-.061.9.9,0,0,1-.229-.625.926.926,0,0,1,.255-.679A.814.814,0,0,1,1621.96,1289.934Zm0,1.464q.37,0,.37-.549,0-.572-.37-.572t-.37.572Q1621.59,1291.4,1621.96,1291.4Z" transform="translate(-1595.376 -1289.236)" fill="#0e3344"/>
          <path id="Path_53" data-name="Path 53" d="M1663.26,1290.147a.6.6,0,0,1,.229-.151.761.761,0,0,1,.29-.063.579.579,0,0,1,.475.179.914.914,0,0,1,.147.579v1.018h-.484v-1q0-.374-.332-.374a.506.506,0,0,0-.179.036.288.288,0,0,0-.13.082v1.254h-.48v-1.731h.408c.013.066.025.122.038.168Z" transform="translate(-1634.925 -1289.236)" fill="#0e3344"/>
          <path id="Path_54" data-name="Path 54" d="M1703.282,1291.71h-.385l-.038-.164a.8.8,0,0,1-.511.21.5.5,0,0,1-.576-.561.491.491,0,0,1,.24-.435,1.321,1.321,0,0,1,.72-.16h.08v-.008a.293.293,0,0,0-.069-.225.379.379,0,0,0-.248-.061.743.743,0,0,0-.461.16q-.069-.126-.13-.248a1.5,1.5,0,0,1,.379-.227,1.134,1.134,0,0,1,.387-.059q.61,0,.61.762Zm-.484-.816h-.057a.7.7,0,0,0-.351.076.228.228,0,0,0-.133.2q0,.236.206.236a.355.355,0,0,0,.221-.073.286.286,0,0,0,.115-.183Z" transform="translate(-1671.893 -1289.236)" fill="#0e3344"/>
          <path id="Path_55" data-name="Path 55" d="M1741.984,1276.412v2.459h-.48v-2.208Z" transform="translate(-1709.591 -1276.397)" fill="#0e3344"/>
          <path id="Path_56" data-name="Path 56" d="M1779.423,1278.871v-2.41q.053-.011.3-.031t.377-.019q.923,0,.923.755a.77.77,0,0,1-.32.686.858.858,0,0,1-.5.149.719.719,0,0,1-.278-.03v.9Zm.5-2.032v.728a.69.69,0,0,0,.248.038.292.292,0,0,0,.24-.109.464.464,0,0,0,.088-.3q0-.385-.339-.385A.593.593,0,0,0,1779.922,1276.839Z" transform="translate(-1745.538 -1276.397)" fill="#0e3344"/>
          <path id="Path_57" data-name="Path 57" d="M1819.333,1276.412v2.459h-.48v-2.208Z" transform="translate(-1782.953 -1276.397)" fill="#0e3344"/>
          <path id="Path_58" data-name="Path 58" d="M1837.433,1291.71h-.385l-.038-.164a.8.8,0,0,1-.511.21.5.5,0,0,1-.576-.561.492.492,0,0,1,.24-.435,1.322,1.322,0,0,1,.721-.16h.08v-.008a.294.294,0,0,0-.069-.225.38.38,0,0,0-.248-.061.744.744,0,0,0-.461.16q-.068-.126-.13-.248a1.5,1.5,0,0,1,.379-.227,1.133,1.133,0,0,1,.387-.059q.61,0,.61.762Zm-.484-.816h-.057a.7.7,0,0,0-.351.076.228.228,0,0,0-.134.2q0,.236.206.236a.355.355,0,0,0,.221-.073.285.285,0,0,0,.114-.183Z" transform="translate(-1799.126 -1289.236)" fill="#0e3344"/>
          <path id="Path_59" data-name="Path 59" d="M1874.157,1280.609h-.5v.858q0,.191.126.191a.608.608,0,0,0,.286-.1l.16.244a.944.944,0,0,1-.6.214q-.457,0-.458-.5v-.9h-.24v-.385h.244v-.309q.19-.1.484-.255v.564h.492Z" transform="translate(-1834.061 -1279.481)" fill="#0e3344"/>
          <path id="Path_60" data-name="Path 60" d="M1902.547,1277.529v-.389h.271v-.229q0-.5.465-.5a.9.9,0,0,1,.568.206l-.175.252a.506.506,0,0,0-.259-.1q-.118,0-.118.191v.179h.473v.389h-.473v1.342h-.48v-1.342Z" transform="translate(-1862.176 -1276.397)" fill="#0e3344"/>
          <path id="Path_61" data-name="Path 61" d="M1930.9,1289.934a.8.8,0,0,1,.664.3.962.962,0,0,1,.2.614.878.878,0,0,1-.294.686.846.846,0,0,1-1.2-.061.9.9,0,0,1-.229-.625.926.926,0,0,1,.255-.679A.814.814,0,0,1,1930.9,1289.934Zm0,1.464q.37,0,.37-.549,0-.572-.37-.572t-.37.572Q1930.534,1291.4,1930.9,1291.4Z" transform="translate(-1888.284 -1289.236)" fill="#0e3344"/>
          <path id="Path_62" data-name="Path 62" d="M1972.147,1289.98l.046.152a.328.328,0,0,1,.147-.139.463.463,0,0,1,.223-.059.544.544,0,0,1,.511.324l-.4.221a.357.357,0,0,0-.267-.145.2.2,0,0,0-.191.133v1.243h-.473v-1.731Z" transform="translate(-1927.876 -1289.236)" fill="#0e3344"/>
          <path id="Path_63" data-name="Path 63" d="M2002.491,1290.147a.725.725,0,0,1,.534-.214.8.8,0,0,1,.391.094.5.5,0,0,1,.235.25.623.623,0,0,1,.261-.248.8.8,0,0,1,.387-.1q.61,0,.61.74v1.037h-.484v-.907a.647.647,0,0,0-.074-.36.285.285,0,0,0-.25-.1.5.5,0,0,0-.408.2v1.174h-.48v-.961a.493.493,0,0,0-.08-.318.346.346,0,0,0-.274-.093.664.664,0,0,0-.216.034.24.24,0,0,0-.132.084v1.254h-.48v-1.731h.408l.034.168Z" transform="translate(-1956.638 -1289.236)" fill="#0e3344"/>
        </g>
        <g id="Group_23" data-name="Group 23" transform="translate(443.43 535.838)">
          <path id="Path_64" data-name="Path 64" d="M1127.388,1172.976a.245.245,0,0,0,.273-.281.254.254,0,0,0-.273-.273.243.243,0,0,0-.277.273.278.278,0,0,0,.076.206A.272.272,0,0,0,1127.388,1172.976Z" transform="translate(-1126.196 -1172.422)" fill="#0e3344"/>
          <path id="Path_65" data-name="Path 65" d="M1114.587,1172.976a.245.245,0,0,0,.273-.281.253.253,0,0,0-.273-.273.243.243,0,0,0-.277.273.278.278,0,0,0,.075.206A.273.273,0,0,0,1114.587,1172.976Z" transform="translate(-1114.042 -1172.422)" fill="#0e3344"/>
          <path id="Path_66" data-name="Path 66" d="M1194.069,1237.924a.243.243,0,0,0-.277.273.278.278,0,0,0,.075.206.272.272,0,0,0,.2.076.245.245,0,0,0,.273-.281.253.253,0,0,0-.273-.273Z" transform="translate(-1189.512 -1234.618)" fill="#0e3344"/>
          <path id="Path_67" data-name="Path 67" d="M1181.268,1237.924a.243.243,0,0,0-.277.273.278.278,0,0,0,.075.206.272.272,0,0,0,.2.076.245.245,0,0,0,.273-.281.253.253,0,0,0-.273-.273Z" transform="translate(-1177.357 -1234.618)" fill="#0e3344"/>
          <path id="Path_68" data-name="Path 68" d="M1268.631,1237.924a.243.243,0,0,0-.277.273.278.278,0,0,0,.075.206.272.272,0,0,0,.2.076.245.245,0,0,0,.273-.281.253.253,0,0,0-.273-.273Z" transform="translate(-1260.31 -1234.618)" fill="#0e3344"/>
          <path id="Path_69" data-name="Path 69" d="M1281.433,1237.924a.243.243,0,0,0-.277.273.278.278,0,0,0,.075.206.272.272,0,0,0,.2.076.245.245,0,0,0,.273-.281.253.253,0,0,0-.273-.273Z" transform="translate(-1272.466 -1234.618)" fill="#0e3344"/>
          <path id="Path_70" data-name="Path 70" d="M1403.208,1175.719a.245.245,0,0,0,.273-.281.253.253,0,0,0-.273-.273.274.274,0,0,0-.2.075.263.263,0,0,0-.078.2.28.28,0,0,0,.075.2A.268.268,0,0,0,1403.208,1175.719Z" transform="translate(-1388.095 -1175.027)" fill="#0e3344"/>
          <path id="Path_71" data-name="Path 71" d="M1390.49,1175.719a.245.245,0,0,0,.273-.281.254.254,0,0,0-.273-.273.272.272,0,0,0-.2.075.267.267,0,0,0-.076.2.278.278,0,0,0,.076.206A.272.272,0,0,0,1390.49,1175.719Z" transform="translate(-1376.019 -1175.027)" fill="#0e3344"/>
          <path id="Path_72" data-name="Path 72" d="M1125.3,1178.574a.4.4,0,0,1-.082.285.374.374,0,0,1-.275.084h-.39a.307.307,0,0,1-.227-.069.328.328,0,0,1-.067-.233v-1.053l-.529.277v.776a.329.329,0,0,1-.067.233.307.307,0,0,1-.227.069h-1.288a2.879,2.879,0,0,0,.629-.571v-.231a1.47,1.47,0,0,0-.487-.455,1.139,1.139,0,0,0-1.194,0,1.393,1.393,0,0,0-.476.449v.239l.075.088a2.618,2.618,0,0,0,.218.235,2.739,2.739,0,0,0,.315.247h-1.267a.307.307,0,0,1-.227-.069.329.329,0,0,1-.067-.233v-1.053l0,0v-.848l-.524.281v1.548a.4.4,0,0,1-.082.285.373.373,0,0,1-.275.084h-.39a.307.307,0,0,1-.227-.069.328.328,0,0,1-.067-.233v-1.053l-.529.277v.776a.328.328,0,0,1-.067.233.307.307,0,0,1-.227.069h-.5a.315.315,0,0,1-.229-.069.322.322,0,0,1-.069-.233v-.122a1.146,1.146,0,0,0-.193-.692.852.852,0,0,0-1.25-.071,1.072,1.072,0,0,0-.256.763v.122a.329.329,0,0,1-.067.233.307.307,0,0,1-.227.069h-.5a.307.307,0,0,1-.227-.069.328.328,0,0,1-.067-.233v-1.053l-.529.277v.776a.328.328,0,0,1-.067.233.307.307,0,0,1-.226.069h-1.981a.315.315,0,0,1-.229-.069.321.321,0,0,1-.069-.233v-1.4l-.524.277v.109a.685.685,0,0,0-.285-.059.734.734,0,0,0-.524.218.977.977,0,0,0-.08,1.25.748.748,0,0,0,.617.289.7.7,0,0,0,.441-.138.738.738,0,0,0,.6.26h2.082a.87.87,0,0,1,1.015,0h.6a.793.793,0,0,0,.5-.155.766.766,0,0,0,.6.239.783.783,0,0,0,.6-.239.764.764,0,0,0,.5.155h.6a.869.869,0,0,1,1.015,0h.47a.877.877,0,0,0,.566-.185.766.766,0,0,0,.533.185h1.38a.848.848,0,0,0,.4-.1.816.816,0,0,0,.4.1h1.389a.87.87,0,0,1,1.015,0h.47a.825.825,0,0,0,.6-.222.871.871,0,0,0,.248-.65v-1.833l-.525.281Zm-15.478.306a.275.275,0,0,1-.231-.109.47.47,0,0,1-.084-.294.48.48,0,0,1,.086-.3.269.269,0,0,1,.224-.113.373.373,0,0,1,.248.092v.508a.946.946,0,0,0,0,.1A.3.3,0,0,1,1109.825,1178.88Zm5.812.147q-.323,0-.323-.52,0-.5.323-.5t.319.5Q1115.955,1179.027,1115.636,1179.027Zm6.058-.285a1.566,1.566,0,0,1-.453-.5.649.649,0,0,1,.445-.235.724.724,0,0,1,.474.235A1.9,1.9,0,0,1,1121.695,1178.742Z" transform="translate(-1108.99 -1176.527)" fill="#0e3344"/>
          <path id="Path_73" data-name="Path 73" d="M1456.295,1179.451h.529v-2.706l-.529.281Z" transform="translate(-1438.765 -1176.526)" fill="#0e3344"/>
          <path id="Path_74" data-name="Path 74" d="M1491.776,1195.046a.528.528,0,0,1-.161.411.646.646,0,0,1-.451.147.579.579,0,0,1-.449-.189.735.735,0,0,1-.18-.516,1.166,1.166,0,0,1,.168-.6l-.5.1a1.066,1.066,0,0,0-.155.579,1.148,1.148,0,0,0,.243.73,1.047,1.047,0,0,0,.877.4,1.181,1.181,0,0,0,.793-.264,1,1,0,0,0,.348-.8v-1.594l-.529.277Z" transform="translate(-1470.81 -1192.391)" fill="#0e3344"/>
          <path id="Path_75" data-name="Path 75" d="M1506.613,1183.949a.245.245,0,0,0,.273-.281.282.282,0,0,0-.474-.2.266.266,0,0,0-.075.2.277.277,0,0,0,.075.205A.272.272,0,0,0,1506.613,1183.949Z" transform="translate(-1486.281 -1182.841)" fill="#0e3344"/>
          <path id="Path_76" data-name="Path 76" d="M1556.653,1192.278a1.036,1.036,0,0,0-.638-.239,1.058,1.058,0,0,0-.8.386v.466a1.144,1.144,0,0,1,.734-.365.817.817,0,0,1,.692.5,1.579,1.579,0,0,1-1.175.441h-.751q-.294,0-.294-.277v-.088a1.055,1.055,0,0,0-.252-.718,1,1,0,0,0-.793-.344,1.35,1.35,0,0,0-.982.428,2.441,2.441,0,0,0-.587.994q-.214-.029-.214-.3v-.831l-.529.277v.554a.33.33,0,0,1-.067.233.308.308,0,0,1-.227.069h-3.1v-.65a.785.785,0,0,0-.18-.537.735.735,0,0,0-.583-.239.771.771,0,0,0-.587.235,1.024,1.024,0,0,0-.252.73.906.906,0,0,0,.864.94l.109.013q.071,0,.1.008a.318.318,0,0,1-.149.231.528.528,0,0,1-.312.1.9.9,0,0,1-.453-.13v.457a1.036,1.036,0,0,0,.516.143.967.967,0,0,0,.587-.185.8.8,0,0,0,.335-.6h3.155a.87.87,0,0,1,1.015,0h1.812a.869.869,0,0,1,1.015,0h.8a2.3,2.3,0,0,0,.984-.21,2.027,2.027,0,0,0,.753-.6v-.21A2.111,2.111,0,0,0,1556.653,1192.278Zm-9.507,1.183a1.442,1.442,0,0,1-.189-.021.4.4,0,0,1-.369-.453q0-.457.319-.457.239,0,.239.277Zm6.75-.3a.377.377,0,0,1-.057.241.267.267,0,0,1-.208.065h-1.3a1.7,1.7,0,0,1,.447-.684.9.9,0,0,1,.61-.252.473.473,0,0,1,.369.159.594.594,0,0,1,.143.411Z" transform="translate(-1524.007 -1191.049)" fill="#0e3344"/>
          <path id="Path_77" data-name="Path 77" d="M1801.7,1172.976a.245.245,0,0,0,.273-.281.254.254,0,0,0-.273-.273.243.243,0,0,0-.277.273.278.278,0,0,0,.075.206A.273.273,0,0,0,1801.7,1172.976Z" transform="translate(-1766.473 -1172.422)" fill="#0e3344"/>
          <path id="Path_78" data-name="Path 78" d="M1788.9,1172.976a.245.245,0,0,0,.273-.281.254.254,0,0,0-.273-.273.243.243,0,0,0-.277.273.278.278,0,0,0,.075.206A.273.273,0,0,0,1788.9,1172.976Z" transform="translate(-1754.318 -1172.422)" fill="#0e3344"/>
          <path id="Path_79" data-name="Path 79" d="M1990.954,1174.638a.245.245,0,0,0,.273-.281.282.282,0,0,0-.474-.2.267.267,0,0,0-.075.2.278.278,0,0,0,.075.206A.273.273,0,0,0,1990.954,1174.638Z" transform="translate(-1946.175 -1174)" fill="#0e3344"/>
          <path id="Path_80" data-name="Path 80" d="M1796.923,1187.215a.772.772,0,0,0-1.41.47v.348a.329.329,0,0,1-.067.233.308.308,0,0,1-.227.069h-.5a.308.308,0,0,1-.227-.069.329.329,0,0,1-.067-.233v-1.053l-.529.277v.776a.329.329,0,0,1-.067.233.308.308,0,0,1-.227.069h-.5q-.294,0-.294-.277v-.088a1.055,1.055,0,0,0-.252-.718,1,1,0,0,0-.793-.344,1.35,1.35,0,0,0-.982.428,2.442,2.442,0,0,0-.587.994q-.214-.029-.214-.3v-.831l-.529.277v.554a.328.328,0,0,1-.067.233.308.308,0,0,1-.227.069H1785.2a.316.316,0,0,1-.229-.069.322.322,0,0,1-.069-.233v-1.4l-.524.277v.109a.687.687,0,0,0-.285-.059.734.734,0,0,0-.524.218.977.977,0,0,0-.08,1.25.748.748,0,0,0,.617.29.7.7,0,0,0,.441-.138.738.738,0,0,0,.6.26h4.052a.869.869,0,0,1,1.015,0h1.813a.87.87,0,0,1,1.015,0h.6a.869.869,0,0,1,1.015,0h.6a.8.8,0,0,0,.487-.147.951.951,0,0,0,.55.147.745.745,0,0,0,.566-.235,1.206,1.206,0,0,0,.05-1.393Zm-12.787,1.057a.275.275,0,0,1-.231-.109.469.469,0,0,1-.084-.294.479.479,0,0,1,.086-.3.269.269,0,0,1,.224-.113.373.373,0,0,1,.248.092v.508a.9.9,0,0,0,0,.1A.3.3,0,0,1,1784.136,1188.272Zm8.138-.243a.378.378,0,0,1-.057.241.268.268,0,0,1-.208.065h-1.3a1.7,1.7,0,0,1,.447-.684.9.9,0,0,1,.61-.252.473.473,0,0,1,.369.159.594.594,0,0,1,.143.411Zm4.015.306q-.248,0-.248-.235v-.424q0-.277.235-.277.323,0,.323.457Q1796.6,1188.335,1796.289,1188.335Z" transform="translate(-1749.266 -1185.919)" fill="#0e3344"/>
        </g>
        <g id="Group_37" data-name="Group 37" transform="translate(446.324 534.114)">
          <g id="Group_24" data-name="Group 24" transform="translate(42.985 4.601)">
            <path id="Path_81" data-name="Path 81" d="M2020.129,1229.5a.775.775,0,0,1-.062.1c-.008.012-.049.064-.02.029-.016.019-.031.038-.047.057a1.665,1.665,0,0,1-.122.127c-.022.021-.045.042-.069.061l-.046.037h0l-.033.025a1.819,1.819,0,0,1-.209.131,1.523,1.523,0,0,1-.24.105,2.143,2.143,0,0,1-.3.081,2.762,2.762,0,0,1-.883.009c-.068-.009-.126.065-.126.126a.129.129,0,0,0,.126.126,2.608,2.608,0,0,0,1.488-.2,1.852,1.852,0,0,0,.678-.558.916.916,0,0,0,.084-.13c.073-.145-.145-.273-.218-.127Z" transform="translate(-2017.971 -1229.436)" fill="#e49a00"/>
          </g>
          <g id="Group_25" data-name="Group 25" transform="translate(39.992 0.883)">
            <path id="Path_82" data-name="Path 82" d="M1960.627,1155.862c0,.01-.006.02-.01.03l-.013.033c-.01.027.01-.021,0-.007l-.011.026a1.562,1.562,0,0,1-.156.265c-.005.007-.039.051-.017.024l-.029.036q-.037.045-.077.088a1.818,1.818,0,0,1-.175.162l-.027.022-.012.009-.049.036q-.063.044-.129.083a2.015,2.015,0,0,1-.262.129,2.736,2.736,0,0,1-.864.178c-.161.009-.162.261,0,.252a2.617,2.617,0,0,0,1.432-.46,1.86,1.86,0,0,0,.571-.668,1.1,1.1,0,0,0,.07-.171.126.126,0,0,0-.243-.067Z" transform="translate(-1958.676 -1155.773)" fill="#e49a00"/>
          </g>
          <g id="Group_26" data-name="Group 26" transform="translate(35.447 0.707)">
            <path id="Path_83" data-name="Path 83" d="M1870.106,1152.374l-.007.021-.01.025c-.009.024.009-.018,0-.011s-.006.014-.01.021a1.188,1.188,0,0,1-.12.2c0,.007-.027.035-.007.009l-.023.029c-.019.023-.038.044-.058.066a1.448,1.448,0,0,1-.134.125l-.018.015,0,0-.039.028c-.031.022-.063.042-.1.062a1.536,1.536,0,0,1-.2.1,2.086,2.086,0,0,1-.655.136c-.161.009-.162.261,0,.252a1.774,1.774,0,0,0,1.558-.877.888.888,0,0,0,.057-.138.126.126,0,0,0-.243-.067Z" transform="translate(-1868.614 -1152.285)" fill="#e49a00"/>
          </g>
          <g id="Group_27" data-name="Group 27" transform="translate(14.032 0.846)">
            <path id="Path_84" data-name="Path 84" d="M1445.83,1155.128c0,.007,0,.014-.007.021l-.01.025c-.009.024.009-.018,0-.011s-.006.015-.009.021a1.2,1.2,0,0,1-.12.2c0,.007-.027.035-.007.01l-.023.029q-.028.034-.058.066a1.433,1.433,0,0,1-.134.125l-.018.015,0,0-.039.028q-.047.033-.1.062a1.536,1.536,0,0,1-.2.1,2.083,2.083,0,0,1-.655.136c-.162.009-.162.261,0,.252a1.774,1.774,0,0,0,1.558-.877.891.891,0,0,0,.057-.138.126.126,0,0,0-.243-.067Z" transform="translate(-1444.337 -1155.039)" fill="#e49a00"/>
          </g>
          <g id="Group_28" data-name="Group 28" transform="translate(6.404 4.889)">
            <path id="Path_85" data-name="Path 85" d="M1294.9,1235.2l-.012.02-.015.022-.009.012c-.017.024.009-.01,0,0a1.745,1.745,0,0,1-.162.166l-.028.023c-.024.02.013-.009-.012.009s-.047.034-.071.049a1.372,1.372,0,0,1-.157.088,1.131,1.131,0,0,1-.18.069,1.543,1.543,0,0,1-.236.052,2.077,2.077,0,0,1-.647-.026.13.13,0,0,0-.155.088.127.127,0,0,0,.088.155,1.775,1.775,0,0,0,1.724-.48.86.86,0,0,0,.087-.119.126.126,0,0,0-.218-.127Z" transform="translate(-1293.211 -1235.137)" fill="#e49a00"/>
          </g>
          <g id="Group_29" data-name="Group 29" transform="translate(2.606 4.889)">
            <path id="Path_86" data-name="Path 86" d="M1219.655,1235.2l-.012.02-.015.022-.009.012c-.017.024.009-.01,0,0a1.716,1.716,0,0,1-.162.166l-.028.023c-.023.02.014-.009-.012.009s-.047.034-.071.049a1.372,1.372,0,0,1-.157.088,1.131,1.131,0,0,1-.18.069,1.543,1.543,0,0,1-.236.052,2.077,2.077,0,0,1-.647-.026.13.13,0,0,0-.155.088.127.127,0,0,0,.088.155,1.774,1.774,0,0,0,1.724-.48.861.861,0,0,0,.087-.119.126.126,0,0,0-.218-.127Z" transform="translate(-1217.969 -1235.137)" fill="#e49a00"/>
          </g>
          <g id="Group_30" data-name="Group 30" transform="translate(35.915 1.304)">
            <path id="Path_87" data-name="Path 87" d="M1879.193,1164.271c0,.008,0,.017,0,.026-.01-.045,0-.019,0,0s0,.027,0,.04a1.278,1.278,0,0,1,0,.214l0,.026c0,.034,0-.015,0,0s-.007.038-.012.057-.011.034-.016.051.012-.018,0,0a.272.272,0,0,0-.014.026c0,.007-.009.012-.012.019.02-.034.009-.008,0,0s-.029.016,0,0c-.005,0-.015.014-.021.013l-.011.006s.028-.006.012-.006a.084.084,0,0,0-.023.006s.027,0,0,0h-.035c-.017,0,.025.005.008,0l-.022,0-.043-.012a.291.291,0,0,1-.072-.031,1.447,1.447,0,0,1-.234-.156.131.131,0,0,0-.153-.02.128.128,0,0,0-.058.142c.01.033.019.066.027.1s.016.07.022.105c0,.012.01.074.005.03,0,.019,0,.039.006.058a.978.978,0,0,1,0,.123c0,.011-.007.041,0,0,0,.009,0,.017,0,.026s0,.016-.006.025-.012.036,0,.014-.012.016-.015.025c.011-.028.015-.016,0,0s.025-.017,0,0-.022,0,0,0c-.008,0-.015.005-.023.006s.033,0,0,0c-.006,0-.042,0-.02,0s-.017,0-.024-.005l-.046-.014-.02-.007c-.022-.008.008,0-.006,0l-.051-.025a1.93,1.93,0,0,1-.264-.175.127.127,0,0,0-.173.045.129.129,0,0,0,.045.173c.186.141.575.422.779.156a.718.718,0,0,0,.044-.568c-.01-.05-.022-.1-.038-.149l-.211.123c.194.155.553.421.791.189a.689.689,0,0,0,.136-.534,1.536,1.536,0,0,0-.02-.174.127.127,0,0,0-.155-.088.129.129,0,0,0-.088.155Z" transform="translate(-1877.892 -1164.111)" fill="#e49a00"/>
          </g>
          <g id="Group_31" data-name="Group 31" transform="translate(9.872)">
            <path id="Path_88" data-name="Path 88" d="M1363.412,1138.361l-.007.021-.01.025c-.009.024.009-.018.005-.011s-.006.015-.01.021a1.189,1.189,0,0,1-.12.2c0,.007-.027.035-.007.01l-.023.029q-.028.034-.058.066a1.466,1.466,0,0,1-.135.125l-.018.015,0,0-.039.028c-.031.022-.063.043-.1.062a1.536,1.536,0,0,1-.2.1,2.083,2.083,0,0,1-.655.136c-.161.009-.163.261,0,.252a1.774,1.774,0,0,0,1.558-.877.867.867,0,0,0,.057-.138.126.126,0,0,0-.243-.067Z" transform="translate(-1361.919 -1138.272)" fill="#e49a00"/>
          </g>
          <g id="Group_32" data-name="Group 32" transform="translate(10.34 0.597)">
            <path id="Path_89" data-name="Path 89" d="M1372.5,1150.258c0,.008,0,.017,0,.026-.01-.045,0-.019,0,0s0,.027,0,.04a1.278,1.278,0,0,1,0,.214l0,.026c0,.034,0-.015,0,0s-.007.038-.012.057-.011.034-.016.051.012-.018,0,0a.258.258,0,0,0-.014.026c0,.007-.009.012-.013.019.02-.034.009-.008,0,0s-.029.016,0,0c-.005,0-.015.014-.021.013l-.011.006s.028-.006.012-.006a.089.089,0,0,0-.023.006s.027,0,0,0h-.035c-.017,0,.025.005.008,0l-.022,0-.043-.012a.284.284,0,0,1-.073-.031,1.442,1.442,0,0,1-.234-.156.131.131,0,0,0-.153-.02.128.128,0,0,0-.058.142c.01.033.019.066.026.1s.016.07.022.105c0,.013.01.074.005.03,0,.019,0,.039.006.058a1,1,0,0,1,0,.123c0,.011-.007.041,0,0,0,.009,0,.017,0,.026s0,.016-.006.025-.013.036,0,.014-.012.017-.015.025c.011-.028.016-.016,0,0s.025-.017,0,0-.022,0,0,0c-.008,0-.016.005-.023.006s.033,0,0,0c-.006,0-.042,0-.02,0s-.017,0-.025-.005l-.046-.014-.02-.007c-.022-.008.008,0-.006,0l-.051-.025a1.916,1.916,0,0,1-.264-.175.127.127,0,0,0-.173.045.129.129,0,0,0,.045.173c.186.141.575.422.779.156a.717.717,0,0,0,.044-.568c-.01-.05-.022-.1-.038-.149l-.211.123c.194.155.553.422.79.189a.689.689,0,0,0,.136-.534,1.564,1.564,0,0,0-.02-.174.127.127,0,0,0-.155-.088.129.129,0,0,0-.088.155Z" transform="translate(-1371.198 -1150.099)" fill="#e49a00"/>
          </g>
          <g id="Group_33" data-name="Group 33" transform="translate(0 0.909)">
            <path id="Path_90" data-name="Path 90" d="M1167.823,1156.376l-.007.021-.01.025c-.009.024.009-.018,0-.011s-.006.014-.01.021a1.2,1.2,0,0,1-.12.2c-.005.007-.027.035-.007.01l-.023.029q-.028.034-.058.066a1.451,1.451,0,0,1-.135.125l-.018.014,0,0-.039.029c-.031.022-.063.042-.1.062a1.527,1.527,0,0,1-.2.1,2.083,2.083,0,0,1-.655.136c-.161.009-.163.261,0,.252a1.774,1.774,0,0,0,1.558-.877.871.871,0,0,0,.057-.138.126.126,0,0,0-.243-.067Z" transform="translate(-1166.33 -1156.287)" fill="#e49a00"/>
          </g>
          <g id="Group_34" data-name="Group 34" transform="translate(0.468 1.506)">
            <path id="Path_91" data-name="Path 91" d="M1176.909,1168.273c0,.009,0,.017,0,.026-.01-.045,0-.019,0,0s0,.027,0,.04a1.278,1.278,0,0,1,0,.214c0,.009,0,.017,0,.026,0,.033,0-.015,0,0s-.007.038-.012.057-.011.034-.016.051.012-.019,0,0-.01.018-.014.026-.009.012-.012.019c.02-.033.009-.008,0,0s-.029.016,0,0c-.005,0-.015.014-.021.013l-.011.006s.028-.006.012-.006a.089.089,0,0,0-.023.006s.027,0,0,0h-.035c-.017,0,.025.005.008,0l-.022,0-.043-.012a.293.293,0,0,1-.073-.031,1.444,1.444,0,0,1-.234-.156.131.131,0,0,0-.153-.02.128.128,0,0,0-.058.142c.01.032.019.066.027.1s.016.07.022.105c0,.012.01.074.005.03,0,.02,0,.039.006.058a.979.979,0,0,1,0,.123c0,.011-.007.041,0,0,0,.009,0,.017,0,.026s0,.016-.006.025-.013.036,0,.014-.012.016-.015.025c.011-.028.016-.016,0,0s.025-.017,0,0-.022,0,0,0c-.007,0-.015.005-.023.006s.033,0,0,0c-.006,0-.042,0-.02,0s-.017,0-.024-.005a.434.434,0,0,1-.046-.014l-.02-.007c-.022-.008.008,0-.006,0l-.051-.025a1.939,1.939,0,0,1-.264-.175.127.127,0,0,0-.173.045.129.129,0,0,0,.045.173c.185.141.575.422.779.156a.717.717,0,0,0,.044-.568c-.01-.05-.022-.1-.038-.149l-.211.123c.194.155.553.421.791.189a.69.69,0,0,0,.136-.534,1.542,1.542,0,0,0-.02-.174.127.127,0,0,0-.155-.088.129.129,0,0,0-.088.155Z" transform="translate(-1175.609 -1168.114)" fill="#e49a00"/>
          </g>
          <g id="Group_35" data-name="Group 35" transform="translate(28.042 1.211)">
            <path id="Path_92" data-name="Path 92" d="M1722.065,1163.662a1.124,1.124,0,0,0,.943-.85c.031-.2,0-.5-.237-.548s-.45.2-.489.413a.55.55,0,0,0,.058.379c.045.08.092.16.144.235a.129.129,0,0,0,.173.045.127.127,0,0,0,.045-.172c-.043-.064-.083-.13-.121-.2a.387.387,0,0,1-.057-.141.294.294,0,0,1,.2-.318c-.018.005,0,0,0,0-.033,0,.012.007-.005,0s.009.013,0,0,.006.005.008.008-.01-.015,0,0l.012.02s.011.025.007.013.005.018.006.021.011.046.011.047,0,.031,0,.042a.552.552,0,0,1-.01.114.72.72,0,0,1-.251.413,1.085,1.085,0,0,1-.51.23.127.127,0,0,0-.088.155.129.129,0,0,0,.155.088Z" transform="translate(-1721.906 -1162.258)" fill="#e49a00"/>
          </g>
          <g id="Group_36" data-name="Group 36" transform="translate(24.9 1.211)">
            <path id="Path_93" data-name="Path 93" d="M1659.826,1163.662a1.124,1.124,0,0,0,.943-.85c.031-.2,0-.5-.237-.548s-.45.2-.49.413a.551.551,0,0,0,.058.379c.045.08.092.16.144.235a.129.129,0,0,0,.173.045.127.127,0,0,0,.045-.172c-.043-.064-.083-.13-.121-.2a.389.389,0,0,1-.057-.141.294.294,0,0,1,.2-.318c-.018.005,0,0,0,0-.033,0,.012.007-.005,0s.009.013,0,0,.005.005.008.008-.01-.015,0,0l.012.02s.012.025.007.013.006.018.006.021.011.046.011.047,0,.031,0,.042a.552.552,0,0,1-.01.114.719.719,0,0,1-.251.413,1.084,1.084,0,0,1-.51.23.127.127,0,0,0-.088.155.129.129,0,0,0,.155.088Z" transform="translate(-1659.667 -1162.258)" fill="#e49a00"/>
          </g>
        </g>
        <path id="Path_94" data-name="Path 94" d="M1306.33,727.161l1.722-4.48s.966-2.711,3.025-2.6a2.306,2.306,0,0,1,1.6.971.993.993,0,0,0-.346-.147,3.2,3.2,0,0,0-.863-.187c-1.062-.071-1.687.669-2.241,1.463s-1.081,1.586-1.58,2.405A13.657,13.657,0,0,0,1306.33,727.161Z" transform="translate(-852.302 -207.075)" fill="#469791"/>
        <path id="Path_95" data-name="Path 95" d="M1341.879,737.14c.32-.5.476-1.079.84-1.568a2.665,2.665,0,0,1,2.605-1.25c.643.128,1.542.444,1.39,1.247a.784.784,0,0,1-1.18.451,2.322,2.322,0,0,0-1.981-.1A2.935,2.935,0,0,0,1341.879,737.14Z" transform="translate(-886.057 -220.556)" fill="#fff"/>
        <g id="Group_38" data-name="Group 38" transform="translate(417.062 508.806)">
          <path id="Path_96" data-name="Path 96" d="M585.7,636.853c-.065.008-.13.019-.2.031-.161.03-.321.067-.48.108-.255.066-.507.143-.757.229-.343.118-.68.251-1.012.4-.405.177-.8.374-1.191.586-.466.255-.919.532-1.36.828-.516.347-1.015.721-1.5,1.115-.549.449-1.074.926-1.577,1.426-.572.568-1.115,1.166-1.63,1.786-.581.7-1.128,1.428-1.642,2.179q-.2.3-.4.6c-.076.116.11.224.185.108.509-.778,1.049-1.536,1.627-2.264.514-.648,1.057-1.273,1.63-1.869.5-.523,1.03-1.024,1.58-1.5.478-.411.975-.8,1.491-1.164.449-.317.912-.614,1.388-.888.4-.23.81-.444,1.229-.638q.138-.064.277-.125l.138-.06.044-.019.069-.029q.245-.1.493-.191c.267-.1.537-.186.811-.262.181-.05.364-.1.548-.133.055-.011.11-.021.165-.031l.052-.008c.019,0,.052-.008,0,0h.01a.111.111,0,0,0,.107-.107.108.108,0,0,0-.107-.107Z" transform="translate(-573.937 -636.853)" fill="#fff"/>
        </g>
        <g id="Group_39" data-name="Group 39" transform="translate(415.523 507.558)">
          <path id="Path_97" data-name="Path 97" d="M555.216,612.126c-.065.008-.13.019-.2.031-.161.03-.321.067-.48.108-.255.066-.507.143-.757.229-.343.117-.68.251-1.012.4-.405.177-.8.374-1.191.586-.466.255-.919.532-1.36.828-.516.347-1.015.721-1.5,1.115-.549.449-1.074.927-1.577,1.426-.572.568-1.115,1.166-1.63,1.786-.581.7-1.128,1.428-1.642,2.179q-.2.3-.4.6c-.076.116.11.224.185.108.508-.778,1.049-1.536,1.627-2.264.514-.648,1.057-1.273,1.63-1.869.5-.523,1.03-1.024,1.58-1.5.478-.411.975-.8,1.491-1.164q.673-.475,1.388-.888c.4-.23.81-.444,1.229-.638q.138-.064.277-.125l.138-.06.044-.019.069-.029q.244-.1.493-.191c.267-.1.537-.185.811-.262.181-.05.364-.1.548-.133l.165-.031.052-.008c.019,0,.052-.008,0,0h.01a.111.111,0,0,0,.107-.107.108.108,0,0,0-.107-.107Z" transform="translate(-543.454 -612.126)" fill="#fff"/>
        </g>
      </g>
    </g>
  </g>
</svg>
