<svg xmlns="http://www.w3.org/2000/svg" width="141.066" height="75" viewBox="0 0 141.066 75">
  <g id="Logo" transform="translate(-408.723 -501.999)">
    <g id="Group_4" data-name="Group 4" transform="translate(523.189 504.429)">
      <g id="Group_2" data-name="Group 2">
        <g id="Group_1" data-name="Group 1">
          <path id="Path_1" data-name="Path 1" d="M1743.682,568.562q.291-2.99.582-5.972.47-4.773.944-9.546a1.582,1.582,0,0,1,.024-.223,1.262,1.262,0,0,0-.743-1.712,1.313,1.313,0,0,1-.675-1.1c-.354-2.243-.7-4.487-1.065-6.729a1.8,1.8,0,0,1,.847-1.842,6.57,6.57,0,0,1,2.674-1.093,1.36,1.36,0,0,1,.724.14c.794.339,1.575.708,2.438,1.1,0-.365-.009-.67,0-.974a.821.821,0,0,1,.848-.9c.324-.034.65-.049,1.011-.074.008-.187.022-.347.022-.508,0-1.913.005-3.826-.005-5.74a1.353,1.353,0,0,0-.152-.589,1.64,1.64,0,0,1,1.915-2.4,1.6,1.6,0,0,1,1.107,1.572c0,.1,0,.2,0,.316.834,0,1.638-.035,2.437.011.668.038,1.332.164,2,.262a.75.75,0,0,1,.7.652c.041.275.208.3.412.283.861-.081,1.725-.149,2.581-.268a.892.892,0,0,1,.982.354.83.83,0,0,1-.107,1.033c-.347.448-.685.9-1.066,1.4.315.319.617.643.938.946a.885.885,0,0,1,.319.957.865.865,0,0,1-.772.581,13.79,13.79,0,0,1-5.564,0,.9.9,0,0,1-.791-.685.441.441,0,0,0-.329-.258c-.611.014-1.223.057-1.831.126a.423.423,0,0,0-.274.3,10.392,10.392,0,0,0,0,1.388c.007.1.171.253.286.279a6.445,6.445,0,0,0,.758.062.784.784,0,0,1,.816.869c.008.308,0,.617,0,1,.884-.4,1.689-.778,2.506-1.126a1.242,1.242,0,0,1,.684-.11,6.889,6.889,0,0,1,2.676,1.1,1.814,1.814,0,0,1,.814,1.934c-.362,2.12-.706,4.245-1,6.375a2.049,2.049,0,0,1-1.223,1.687c-.311.148-.346.334-.316.635q.8,7.984,1.575,15.969c.016.163.023.326.036.509m-3.211-24.509a.676.676,0,0,1-.167.036c-.965-.106-1.928-.222-2.894-.318-.281-.028-.288-.194-.287-.4,0-.792-.016-1.585.011-2.376.013-.378-.129-.506-.488-.5-.328.01-.658-.04-.985-.024s-.432-.092-.429-.433c.015-2.271.007-4.542.006-6.813v-.469l-.16-.065c-.083.117-.219.226-.238.353a5.375,5.375,0,0,0-.021.805q0,6.635.009,13.27c0,.606,0,.6-.606.626a20.114,20.114,0,0,0-5.515.869,8.134,8.134,0,0,0-1.641.867c-.135.083-.165.336-.242.509a5.115,5.115,0,0,1,.726-.7,3.72,3.72,0,0,1,.947-.393,17.064,17.064,0,0,1,4.335-.616c.649-.022,1.3,0,1.991,0,0,.207,0,.354,0,.5,0,2.256-.01,4.513.013,6.769,0,.419-.126.546-.53.613a3.993,3.993,0,0,0-3.356,3.724c.038,2.7.143,5.407.208,8.111.007.3.122.374.4.372,1.584-.011,3.168-.017,4.752,0,.375,0,.483-.11.481-.48-.018-2.585-.017-5.171-.02-7.756a2.821,2.821,0,0,0-1.13-2.333,14.41,14.41,0,0,0-1.453-.877c.215-.015.417-.042.62-.043a3.487,3.487,0,0,1,3.672,3.54c-.094,2.492-.012,4.991-.024,7.486,0,.347.083.468.448.461,1.165-.022,2.331-.017,3.5,0,.329,0,.445-.071.409-.429-.536-5.367-1.056-10.735-1.6-16.1a1,1,0,0,0-.31-.6,6.353,6.353,0,0,0-2.609-1.427c-.951-.238-1.915-.423-2.851-.626-.009.005.012-.018.033-.018a11.206,11.206,0,0,1,6.172,1.35.59.59,0,0,0,.915-.221c.24-.389-.085-.56-.332-.744a2.264,2.264,0,0,0-.351-.2,12.634,12.634,0,0,0-4-1.086c-.622-.083-1.246-.149-1.87-.223a17.757,17.757,0,0,1,6.807,1.009.631.631,0,0,0,.073-.143c.313-1.962.634-3.922.918-5.888a.929.929,0,0,0-.257-.675,5.307,5.307,0,0,0-2.612-1.205Zm-11.764-2.918c.144.889.31,1.674.386,2.468.045.461.218.512.618.446.66-.11,1.329-.158,1.994-.235.144-.017.288-.041.431-.062l.068-.125c-.964.135-1.026-.478-1.077-1.115a.461.461,0,0,0-.171-.335C1747.978,541.821,1747.251,541.5,1746.443,541.129Zm-2.182,27.177c.343.1.529.066.539-.311.011-.4.062-.8.1-1.206q.475-5.516.949-11.031c.084-.986.158-1.974.237-2.96l-.082-.007Zm.2-18.911h.122a2.946,2.946,0,0,0,0-.4c-.259-1.893-.493-3.79-.8-5.675a1.069,1.069,0,0,1,.491-1.18,5.85,5.85,0,0,1,.736-.424c.279-.14.57-.256.856-.383a3.652,3.652,0,0,0-1.994.724,1.137,1.137,0,0,0-.488,1.173c.092.515.156,1.034.248,1.549C1743.9,546.32,1744.184,547.857,1744.463,549.4Zm8.9-17.391a.827.827,0,0,0-.79-.856.38.38,0,0,0-.447.425.815.815,0,0,0,.792.808C1753.2,532.38,1753.379,532.265,1753.364,532Z" transform="translate(-1742.722 -530.314)" fill="#0e3c54"/>
          <path id="Path_2" data-name="Path 2" d="M1777.8,569.324l.471-2.906a5.307,5.307,0,0,1,2.612,1.205.929.929,0,0,1,.257.675c-.284,1.966-.605,3.926-.918,5.888a.619.619,0,0,1-.073.143,17.757,17.757,0,0,0-6.807-1.009c.623.074,1.247.14,1.87.223a12.633,12.633,0,0,1,4,1.086,2.267,2.267,0,0,1,.352.2c.247.184.572.355.332.744a.59.59,0,0,1-.915.221,11.206,11.206,0,0,0-6.171-1.35c-.021,0-.042.024-.033.018.936.2,1.9.388,2.851.626a6.352,6.352,0,0,1,2.609,1.427,1,1,0,0,1,.31.6c.539,5.366,1.059,10.734,1.595,16.1.036.357-.08.433-.409.429-1.165-.016-2.331-.022-3.5,0-.365.007-.45-.114-.449-.461.012-2.5-.07-4.994.024-7.486a3.487,3.487,0,0,0-3.672-3.54c-.2,0-.4.027-.62.043a14.387,14.387,0,0,1,1.453.877,2.821,2.821,0,0,1,1.13,2.333c0,2.585,0,5.171.02,7.756,0,.37-.105.485-.481.48-1.584-.019-3.168-.013-4.752,0-.281,0-.4-.072-.4-.372-.065-2.7-.171-5.407-.208-8.111a3.993,3.993,0,0,1,3.356-3.724c.4-.067.534-.195.53-.613-.023-2.256-.012-4.513-.013-6.769v-.5c-.691,0-1.342-.018-1.991,0a17.063,17.063,0,0,0-4.335.616,3.718,3.718,0,0,0-.947.393,5.115,5.115,0,0,0-.726.7c.078-.173.108-.427.242-.509a8.123,8.123,0,0,1,1.64-.867,20.117,20.117,0,0,1,5.515-.869c.606-.025.606-.02.606-.626q0-6.635-.009-13.27a5.375,5.375,0,0,1,.021-.805c.019-.127.155-.236.238-.353l.16.065v.469c0,2.271.009,4.542-.006,6.813,0,.341.1.45.429.433s.657.033.985.024c.359-.011.5.117.488.5-.026.791-.007,1.584-.011,2.376,0,.209.007.375.287.4.966.1,1.929.212,2.894.318A.678.678,0,0,0,1777.8,569.324Z" transform="translate(-1762.313 -555.591)" fill="#fff"/>
          <path id="Path_3" data-name="Path 3" d="M1786.093,656.344c.808.37,1.535.693,2.25,1.041a.461.461,0,0,1,.171.335c.052.637.113,1.25,1.077,1.115l-.068.125c-.144.021-.287.046-.431.062-.665.076-1.335.125-1.994.235-.4.066-.574.016-.618-.446C1786.4,658.018,1786.237,657.233,1786.093,656.344Z" transform="translate(-1782.371 -645.53)" fill="#fff"/>
          <path id="Path_4" data-name="Path 4" d="M1760.666,807.76l1.74-15.516.082.007c-.079.987-.153,1.974-.237,2.96q-.472,5.516-.949,11.031c-.035.4-.086.8-.1,1.206C1761.2,807.826,1761.009,807.86,1760.666,807.76Z" transform="translate(-1759.126 -769.769)" fill="#fff"/>
          <path id="Path_5" data-name="Path 5" d="M1751.262,666.817c-.278-1.538-.56-3.075-.833-4.614-.092-.515-.156-1.034-.248-1.549a1.138,1.138,0,0,1,.488-1.173,3.654,3.654,0,0,1,1.994-.724c-.286.127-.577.243-.856.383a5.875,5.875,0,0,0-.736.424,1.069,1.069,0,0,0-.491,1.18c.309,1.885.543,3.782.8,5.675a2.966,2.966,0,0,1,0,.4Z" transform="translate(-1749.521 -647.737)" fill="#fff"/>
          <path id="Path_6" data-name="Path 6" d="M1853.572,540.877c.015.261-.162.376-.444.376a.816.816,0,0,1-.792-.808.38.38,0,0,1,.447-.425A.827.827,0,0,1,1853.572,540.877Z" transform="translate(-1842.93 -539.188)" fill="#fff"/>
        </g>
        <path id="Path_7" data-name="Path 7" d="M1754.851,642.258c-.04-.331.249-.567.5-.743a5.736,5.736,0,0,1,1.28-.637,5.2,5.2,0,0,0,.593-.224,2.027,2.027,0,0,0,.3-.175l.378,2.467a.784.784,0,0,0,.156.417c.16.169.4.041.594.006.281-.051.568-.054.849-.091.3-.039.6-.079.9-.1.219-.018.472.009.617-.191-.029.041-.247.005-.291,0a.864.864,0,0,1-.707-.6c-.084-.268.011-.6-.2-.826l.688-.627c0-.623-.213-1.759.7-1.846l1.162-.1.314,8.119s-4.787-.074-7,2.089Z" transform="translate(-1753.806 -629.664)" fill="#e49a00"/>
        <path id="Path_8" data-name="Path 8" d="M1772.158,739.167l.013,7.269s.061.466-.53.613a3.937,3.937,0,0,0-3.342,3.4l.111,5.421-3.549-2.426.821-9.752s-.555-2.546-1.522-2.81c0,0,.29-.314.531-.549a2.731,2.731,0,0,1,.748-.416,13.8,13.8,0,0,1,3.006-.631A19.591,19.591,0,0,1,1772.158,739.167Z" transform="translate(-1762.321 -721.207)" fill="#e49a00"/>
      </g>
      <path id="Path_9" data-name="Path 9" d="M1887.356,567.341c0-.151,1.458-.186,1.561-.182a4.529,4.529,0,0,1,1.508.31c.579.231,1.021.8,1.641.9a1.817,1.817,0,0,0,.831-.093,4.442,4.442,0,0,0,.431-.223.451.451,0,0,1,.219-.056c.151.02,0,.193-.035.251-.065.116-.129.233-.188.351a1.377,1.377,0,0,0-.131,1.118.556.556,0,0,1,.012.528,1.534,1.534,0,0,1-.734.41,4.356,4.356,0,0,1-2.052.272,3.208,3.208,0,0,1-.981-.172c-.295-.134-.32-.333-.5-.581-.294-.4-1.54-.163-1.532.385Z" transform="translate(-1874.945 -563.997)" fill="#fff"/>
      <g id="Group_3" data-name="Group 3" transform="translate(14.458 13.915)">
        <circle id="Ellipse_1" data-name="Ellipse 1" cx="0.992" cy="0.992" r="0.992" fill="#0e3c54"/>
        <circle id="Ellipse_2" data-name="Ellipse 2" cx="0.732" cy="0.732" r="0.732" transform="translate(2.233)" fill="#0e3c54"/>
        <circle id="Ellipse_3" data-name="Ellipse 3" cx="0.48" cy="0.48" r="0.48" transform="translate(1.754 1.984)" fill="#0e3c54"/>
      </g>
      <path id="Path_10" data-name="Path 10" d="M1757.589,656.344l-.58.29a7.243,7.243,0,0,0-1.78.884.741.741,0,0,0-.315.579l.367,3.06.268,2.2.208,1.7.239-.217a10.284,10.284,0,0,1,1.2-.766l-1.094.253-.9-5.838a.817.817,0,0,1,.5-.865Z" transform="translate(-1753.867 -645.53)" fill="#cd8800"/>
      <path id="Path_11" data-name="Path 11" d="M1813.594,641.745l-.688.627.114.249s-.068,1.328,1.082,1.174c-.141.019-.413-.19-.514-.266a.973.973,0,0,1-.384-.562c-.027-.122.007-.246-.013-.362-.015-.086-.083-.134-.148-.2l.649-.571.036-.688c.018-.344-.037-.765.249-1.013a1.022,1.022,0,0,1,.56-.254,1.034,1.034,0,0,0-.692.209s-.293.229-.272.943Z" transform="translate(-1806.884 -630.477)" fill="#cd8800"/>
      <path id="Path_12" data-name="Path 12" d="M1764.651,740.909a12.161,12.161,0,0,1,1.054,2.286,6.364,6.364,0,0,1,.077,2.763l-.213,2.919-.343,4.706-.014.192-.232-.154.287-3.458.48-5.671a4.388,4.388,0,0,0-.48-2.279,2.7,2.7,0,0,0-.983-1.173,2.936,2.936,0,0,1,1.682-1.073,14.419,14.419,0,0,1,1.668-.388,25.67,25.67,0,0,1,4.637-.231S1765.452,739.9,1764.651,740.909Z" transform="translate(-1762.436 -721.389)" fill="#cd8800"/>
    </g>
    <g id="Group_11" data-name="Group 11" transform="translate(408.723 501.999)">
      <g id="Group_6" data-name="Group 6" transform="translate(32.006 17.113)">
        <path id="Path_13" data-name="Path 13" d="M913.995,751.031c-.414.057-.783.084-1.141.16a22.785,22.785,0,0,1-10.043-.245c-6.058-1.42-11.275-4.249-15.009-9.392a13.408,13.408,0,0,1-2.663-7.512c-2.726.692-5.318,1.415-7.943,1.986-1.047.228-1.229.708-1.057,1.626a15.031,15.031,0,0,0,3.3,7.059c6.826,8.048,15.743,11.218,26.071,11.044a4.819,4.819,0,0,1,1.412.435c-.463.206-.924.416-1.389.615a.665.665,0,0,1-.224.011,35.036,35.036,0,0,1-18.554-4.492,6.292,6.292,0,0,0-2.849-.735c-3.726-.045-11.111-.031-16.773-.016a61.15,61.15,0,0,0-1.8-13.917,14.724,14.724,0,0,0-3.109-6.543,3.517,3.517,0,0,0-5.443-.232,8.064,8.064,0,0,0-1.9,2.483c-1.085,2.542-1.982,5.164-2.957,7.753-.079.21-.189.409-.285.614l-.25-.05v-7.164l-4.685.538a3.972,3.972,0,0,0-.068.536q.226,7.034.459,14.067a5.919,5.919,0,0,1-.006,1.227c-.086.477-.584.51-.978.472a8.5,8.5,0,0,1-1.2-.444c-.466-.119-2.407-.59-2.706.035.3-.636.548-1.577.775-2.074,2.789-6.1-.229-12.924-6.4-14.484a12.9,12.9,0,0,0-14.565,7.306c-2.9,6.5.331,13.762,7.7,14.882a5.645,5.645,0,0,1,.753.252l-20.485,17.043,8.931,8.872c.027-.039.087-.135.157-.224q6.823-8.806,13.648-17.61,1.671-2.155,3.344-4.307.869-1.115,1.742-2.227c.394-.5,1.012-1.474,1.673-1.62s.66.34.66.812v4.141H844.3c0-.022,0-.045-.006-.067.026.024.056.045.086.067h69.8v-9.748Zm-80.879-3.293a2.468,2.468,0,0,1-2.528-2.328,2.116,2.116,0,0,1,2.227-2.032,2.477,2.477,0,0,1,2.472,2.261A2.143,2.143,0,0,1,833.116,747.737Zm26.515-5.88q-1.176,3.457-2.361,6.911-.6,1.745-1.206,3.488c-.195.56-.394,1.119-.576,1.683-.12.374-.214,1.148-.678,1.268a.5.5,0,0,1-.547-.416.957.957,0,0,1,.011-.4,3,3,0,0,1,.105-.352l2.4-6.931,1.211-3.5.606-1.751c.119-.344.244-.874.736-.81a.451.451,0,0,1,.371.339A.884.884,0,0,1,859.631,741.858Z" transform="translate(-807.55 -727.279)" fill="#0e3c54"/>
        <g id="Group_5" data-name="Group 5">
          <path id="Path_14" data-name="Path 14" d="M888.17,722.757c-.735.1-1.464.189-2.192.329-.334.064-.672.126-1.01.167.614-.075-.067,0-.161.01q-.3.03-.605.051a24.408,24.408,0,0,1-4.221-.11c-.651-.067.348.061-.054-.006-.166-.028-.334-.05-.5-.078q-.5-.083-1-.185c-.636-.13-1.267-.282-1.894-.45a31.572,31.572,0,0,1-3.169-1.026c-.167-.064-.564-.321-.726-.291.034-.006.548.241.151.062-.142-.064-.284-.126-.426-.191q-.739-.338-1.456-.723a23.746,23.746,0,0,1-2.679-1.674c-.125-.091-.249-.184-.373-.276-.3-.218.137.066.125.1.01-.023-.529-.43-.6-.491q-.658-.556-1.271-1.163-.566-.559-1.091-1.158-.266-.3-.522-.617c-.086-.105-.169-.212-.255-.318q-.166-.212.13.168-.1-.131-.2-.264a15.83,15.83,0,0,1-1.048-1.61q-.223-.4-.421-.807a1.787,1.787,0,0,1-.206-.451q.189.454.086.2-.046-.115-.09-.231a12.889,12.889,0,0,1-.561-1.924q-.035-.166-.065-.334t-.057-.338q-.06-.407.017.133a3.074,3.074,0,0,1-.083-1.056,2.465,2.465,0,0,0-3.079-2.345c-2.009.511-4.01,1.056-6.026,1.544a14.259,14.259,0,0,0-3.006.846,3.365,3.365,0,0,0-1.806,2.933,9.516,9.516,0,0,0,.5,2.8A19.453,19.453,0,0,0,849.4,716.8a18.818,18.818,0,0,0,3.256,4.667,32.669,32.669,0,0,0,16.841,9.867,41.239,41.239,0,0,0,5.688.867q1.391.119,2.787.146.69.014,1.381.007a1.878,1.878,0,0,0,.327,0c-.069.078-.489-.144-.118.007.291.119.588.236.884.341l-.581-4.446c-.346.154-.7.3-1.041.464-.7.34,1.238-.132.469-.163-.184-.008-.375.011-.559.014q-1.108.019-2.216-.03-1-.045-2-.148c-.3-.031-.606-.051-.9-.1.664.122.056.005-.07-.014q-.357-.054-.713-.116a34.358,34.358,0,0,1-4.03-.952q-.952-.286-1.887-.626-.512-.186-1.018-.387l-.338-.136q-.375-.156.076.034l-.336-.145c-1.422-.623-2.754-1.446-4.191-2.026a10.561,10.561,0,0,0-3.929-.606c-2.34-.02-4.68-.022-7.02-.021q-4.429,0-8.858.014l2.432,2.432a72.565,72.565,0,0,0-.8-9.229,38.5,38.5,0,0,0-1.961-8.156c-1.071-2.75-2.856-5.872-5.91-6.714-3.23-.891-6.118,1.379-7.746,3.983a16.032,16.032,0,0,0-1.146,2.569c-.3.751-.59,1.508-.873,2.266s-.561,1.52-.84,2.28q-.209.57-.42,1.14c-.07.19-.144.379-.212.569q-.16.421.038-.082-.075.152-.149.3l2.747-1.118-.25-.05L828,715.841v-7.164a2.445,2.445,0,0,0-2.432-2.432l-4.685.538c-.966.111-2.178.669-2.345,1.786a9.706,9.706,0,0,0-.135,1.8q.027.827.054,1.655.054,1.655.108,3.31.1,3.206.21,6.413.027.828.054,1.655c.008.256.02.511.031.767.009.215-.106.864.063.227a1.97,1.97,0,0,1,1.21-1.239q.666-.069.278-.066l.37.052q-.373-.12.134.074-.146-.071-.294-.138-.363-.158-.73-.306c-.111-.037-.221-.065-.334-.093-1.812-.45-4.157-.665-5.272,1.2l4.2,2.455c.306-.668.547-1.346.786-2.038.031-.09.066-.181.1-.272.157-.487-.27.6-.045.1.187-.418.367-.843.525-1.273a13.771,13.771,0,0,0,.747-3.572,12.994,12.994,0,0,0-1.257-6.6,12.488,12.488,0,0,0-11.083-6.908,15.4,15.4,0,0,0-12.188,5.719,14.349,14.349,0,0,0-2.82,12.965,12.023,12.023,0,0,0,3.82,5.826,13.739,13.739,0,0,0,3.56,2.087c1.1.444,2.259.575,3.364.965l-1.073-4.065-16,13.313-4.483,3.729a2.455,2.455,0,0,0,0,3.44l8.931,8.872a2.467,2.467,0,0,0,3.82-.492c.224-.334-.262.329-.032.021.1-.139.213-.274.319-.411l.51-.658,1.275-1.646,2.3-2.963,4.719-6.09q4.643-5.99,9.3-11.97c.247-.316.5-.631.734-.953.292-.4-.291.346-.068.085.1-.116.194-.235.3-.346.055-.058.249-.188.266-.255l-.27.217q.257-.138-.061.017l-.175.081q-2.414-.172-2.429-1.88c-.007.113.009.233.01.346.01,1.38,0,2.76,0,4.141A2.468,2.468,0,0,0,814.3,738.3h4.172a2.45,2.45,0,0,0,2.432-2.432l-.006-.067-4.152,1.72a3.031,3.031,0,0,0,1.9.779c.112,0,.224,0,.335,0h60.731c2.839,0,5.685.055,8.523,0h.117a2.468,2.468,0,0,0,2.432-2.432v-8.845a12.437,12.437,0,0,0-.269-2.481,2.447,2.447,0,0,0-2.992-1.7,2.494,2.494,0,0,0-1.7,2.992c.042.215.068.439.127.649.084.3-.025-.363-.032-.352s0,.1,0,.127c-.008.2,0,.408,0,.611v9l2.432-2.432H827.125c-2.813,0-5.64-.084-8.452,0-.039,0-.078,0-.117,0l1.72.712-.085-.067a2.5,2.5,0,0,0-2.657-.5,2.4,2.4,0,0,0-1.5,2.223l.006.067,2.432-2.432H814.3l2.432,2.432c0-1.38.01-2.761,0-4.141a3.417,3.417,0,0,0-.652-2.186,2.933,2.933,0,0,0-3.2-.937,4.148,4.148,0,0,0-1.944,1.326c-.266.307-.51.639-.754.963l-.165.221q-.206.272.108-.139l-.249.318q-1.246,1.59-2.484,3.185-5.2,6.7-10.392,13.4l-2.933,3.785c-1.026,1.324-2.154,2.618-3.087,4.008l3.82-.492-8.931-8.872v3.44l15.892-13.221,4.594-3.822a2.4,2.4,0,0,0,.625-2.367,2.512,2.512,0,0,0-1.7-1.7c-.888-.314-1.822-.423-2.717-.724-.216-.073-.429-.177-.647-.241.7.206.111.042-.1-.061a10.009,10.009,0,0,1-1.191-.7c-.071-.048-.14-.1-.211-.148-.4-.271.454.38.084.069-.13-.109-.261-.216-.387-.329a9.578,9.578,0,0,1-.959-.994c-.053-.063-.1-.134-.157-.194.454.486.227.3.118.145s-.214-.305-.314-.463a12.246,12.246,0,0,1-.624-1.144c-.241-.485.205.542-.021-.05q-.111-.292-.2-.59a10.354,10.354,0,0,1-.3-1.222c-.019-.1-.031-.21-.052-.313-.066-.321.07.675.029.2-.019-.213-.04-.426-.051-.64a11.128,11.128,0,0,1,.011-1.3c.015-.219.055-.44.063-.658,0,.026-.1.644-.03.25.021-.11.037-.221.058-.331a12.034,12.034,0,0,1,.352-1.392q.1-.3.206-.595a2.737,2.737,0,0,0,.128-.329c-.114.5-.162.367-.077.187a14.822,14.822,0,0,1,.721-1.378q.171-.283.357-.557c.082-.121.17-.239.253-.359.112-.161.253-.187-.115.143.352-.315.628-.753.962-1.093s.7-.661,1.073-.975c.305-.26-.111.092-.151.112a3.21,3.21,0,0,0,.349-.257q.294-.209.6-.4a13.26,13.26,0,0,1,1.257-.7,4.127,4.127,0,0,0,.522-.242c-.494.339-.274.113-.05.027q.2-.077.4-.148a12.907,12.907,0,0,1,1.306-.379q.313-.073.63-.131c.117-.021.235-.038.353-.058q.287-.043-.292.038.142-.017.284-.031a12.012,12.012,0,0,1,1.287-.057q.359,0,.717.029.143.01.287.024t.287.031q-.576-.081-.289-.038a13.468,13.468,0,0,1,1.344.29q.339.1.672.215c.088.031.174.065.261.1.456.171-.477-.228-.073-.03a11.86,11.86,0,0,1,1.189.648c.168.108.326.235.5.339.273.168-.485-.4-.124-.1.1.085.2.168.3.255a9.66,9.66,0,0,1,.88.882c.072.082.14.167.212.249.252.291-.123-.158-.138-.184.128.223.308.426.447.644a11.856,11.856,0,0,1,.683,1.267c.168.352-.084-.191-.09-.218.035.145.113.29.163.432q.121.343.218.695t.169.713q.033.164.061.329c.038.225-.013.56-.011-.114,0,.5.08.995.068,1.5q-.01.416-.052.83c-.009.093-.023.185-.031.278.069-.749.034-.271,0-.089a11.372,11.372,0,0,1-.386,1.535,6.924,6.924,0,0,0-.307.833c.079-.443.158-.362.065-.167-.133.282-.251.572-.36.864-.1.257-.18.518-.269.777-.035.1-.069.2-.105.3s-.072.2-.11.3q.226-.515.07-.169a2.433,2.433,0,1,0,4.2,2.455,2.057,2.057,0,0,1-.673.678q-.7.26-.343.163c-.783.192-.417.043-.137.047.154,0,.306.028.459.032-.807-.021-.31-.043-.081,0s.458.09.682.15c.578.156-.385-.227.066.014a5.073,5.073,0,0,0,1.028.416,3.274,3.274,0,0,0,4.089-2.014,12.023,12.023,0,0,0,.084-3.452q-.108-3.31-.217-6.62-.054-1.655-.108-3.31-.027-.827-.054-1.655c-.009-.276-.022-.552-.027-.827-.014-.8-.106.442-.026-.1l-2.345,1.786,4.685-.538-2.432-2.432v7.164a2.461,2.461,0,0,0,1.786,2.345l.25.05a2.491,2.491,0,0,0,2.747-1.118c.63-1.3,1.084-2.687,1.582-4.044.465-1.267.935-2.532,1.44-3.783q.095-.234.191-.468l.038-.093q.161-.384-.01.022a2.166,2.166,0,0,1,.406-.753c.024-.038.2-.284.2-.288.035.052-.315.382,0,.007.21-.247.432-.483.661-.713.1-.1.207-.205.314-.3l.065-.061q.308-.26-.093.056c.068-.015.684-.422.684-.408,0,.054-.58.179-.162.079.116-.028.237-.059.352-.092.315-.092-.644.023-.152.024.134,0,.291.019.423.01-.542.037-.414-.067-.156,0,.069.018.29.127.347.108-.206.069-.444-.232-.171-.062.131.082.268.161.4.24.287.171-.006-.08-.1-.083.078,0,.257.233.316.291a6.485,6.485,0,0,0,.648.735c-.1.018-.285-.387-.013,0q.125.179.243.363.21.329.4.673t.353.694c.055.116.336.632.034.052a4.5,4.5,0,0,1,.191.483,38.539,38.539,0,0,1,1.805,7.4q.089.545.167,1.091c.02.139.1.6.009.049.033.2.051.4.075.6q.133,1.094.227,2.192c.132,1.531.209,3.066.245,4.6a2.471,2.471,0,0,0,2.432,2.432c5.13-.013,10.26-.034,15.389,0,.426,0,.852.005,1.279.012.149,0,.3.014.447.016.582.006-.526-.133.048,0,.348.082.684.172,1.026.277.552.17-.432-.26.056.029.155.092.319.172.478.258q.409.22.823.431,1.066.543,2.165,1.018a37.661,37.661,0,0,0,8.526,2.63,39.461,39.461,0,0,0,5.161.564q1.2.048,2.4.014c.162,0,.328,0,.489-.008a3.928,3.928,0,0,0,1.51-.422c.406-.177.81-.359,1.215-.54a2.407,2.407,0,0,0,1.161-2.424,2.478,2.478,0,0,0-1.742-2.022,8.109,8.109,0,0,0-1.236-.425,9.509,9.509,0,0,0-1.72-.091q-1.167,0-2.332-.066-1.1-.061-2.2-.181-.272-.03-.543-.064c-.617-.077.394.061-.047-.006-.382-.058-.763-.116-1.143-.183a33.2,33.2,0,0,1-4.278-1.045q-1-.318-1.98-.7c-.162-.064-.323-.136-.486-.2.663.248.117.048-.039-.02q-.514-.227-1.02-.474a29.076,29.076,0,0,1-3.78-2.213q-.442-.306-.873-.627c-.062-.046-.123-.094-.185-.139-.215-.158.192.15.186.144-.157-.134-.326-.257-.486-.387q-.887-.721-1.719-1.508-.854-.806-1.648-1.674-.392-.428-.77-.869c-.13-.152-.255-.308-.383-.462-.176-.21.113.149.116.152a1.936,1.936,0,0,1-.252-.347,14.557,14.557,0,0,1-1.245-2.126,2.908,2.908,0,0,0-.212-.463c.248.336.123.3.049.11-.03-.08-.062-.159-.092-.238q-.227-.6-.4-1.219-.191-.667-.325-1.348a2.1,2.1,0,0,0-.055-.3c.018.045.044.612.053.3.01-.369-.069.358-.066.346.072-.3-.159.324-.16.326.145-.281-.23.289-.222.28-.019.019-.53.361-.252.208-.64.352-.239.1.027.037.542-.13,1.088-.243,1.63-.373,2.113-.5,4.208-1.077,6.313-1.613l-3.079-2.345a16.125,16.125,0,0,0,2.429,7.906,23.391,23.391,0,0,0,4.99,5.6,29.768,29.768,0,0,0,13.634,6.068,26.835,26.835,0,0,0,5.462.443,25.879,25.879,0,0,0,2.865-.276q.609-.088,1.212-.207a3.06,3.06,0,0,0,.512-.1q-.572.075-.161.025.173-.02.345-.043a2.674,2.674,0,0,0,1.72-.712,2.471,2.471,0,0,0,.712-1.72C890.55,724.012,889.521,722.581,888.17,722.757Z" transform="translate(-781.725 -701.437)" fill="#0e3c54"/>
          <path id="Path_15" data-name="Path 15" d="M1026.83,865.07a2.731,2.731,0,0,1-.369-.023l.646.087a2.676,2.676,0,0,1-.637-.173l.581.245a2.711,2.711,0,0,1-.585-.338l.492.38a2.634,2.634,0,0,1-.47-.469l.38.492a2.441,2.441,0,0,1-.3-.517l.245.581a2.236,2.236,0,0,1-.149-.549l.087.647a2.1,2.1,0,0,1,0-.515l-.087.647a2,2,0,0,1,.128-.478l-.245.581a2.058,2.058,0,0,1,.259-.446l-.38.492a2.186,2.186,0,0,1,.369-.369l-.492.38a2.336,2.336,0,0,1,.513-.3l-.581.245a2.507,2.507,0,0,1,.6-.162l-.647.087a2.56,2.56,0,0,1,.652,0l-.647-.087a2.615,2.615,0,0,1,.651.179l-.581-.245a2.774,2.774,0,0,1,.576.337l-.492-.38a2.7,2.7,0,0,1,.467.463l-.38-.492a2.432,2.432,0,0,1,.311.529l-.245-.581a2.142,2.142,0,0,1,.138.5l-.087-.647a2.018,2.018,0,0,1,0,.52l.087-.647a2.045,2.045,0,0,1-.134.49l.245-.581a2.157,2.157,0,0,1-.268.46l.38-.492a2.269,2.269,0,0,1-.4.4l.492-.38a2.352,2.352,0,0,1-.5.288l.581-.245a2.388,2.388,0,0,1-.575.154l.647-.087a2.585,2.585,0,0,1-.277.02,2.5,2.5,0,0,0-2.432,2.432l.087.647a2.43,2.43,0,0,0,.626,1.073l.492.38a2.421,2.421,0,0,0,1.228.332,7.127,7.127,0,0,0,.983-.116,2.275,2.275,0,0,0,.377-.094,4.491,4.491,0,0,0,1.2-.568,6.407,6.407,0,0,0,.729-.584,6.141,6.141,0,0,0,.6-.749,2.047,2.047,0,0,0,.176-.287,5.72,5.72,0,0,0,.371-.894,5.63,5.63,0,0,0,.154-.952,2.051,2.051,0,0,0,.014-.376,5.915,5.915,0,0,0-.133-.961,5.506,5.506,0,0,0-.352-.911,4.645,4.645,0,0,0-.747-1.091,4.969,4.969,0,0,0-1.026-.863,2.656,2.656,0,0,0-.315-.184,7.069,7.069,0,0,0-.921-.385,2.484,2.484,0,0,0-.358-.09,6.611,6.611,0,0,0-1.018-.121,2.682,2.682,0,0,0-.342.019,4.414,4.414,0,0,0-1.885.51,2.358,2.358,0,0,0-.327.174,6.587,6.587,0,0,0-.738.564,2.071,2.071,0,0,0-.249.256,6.177,6.177,0,0,0-.552.738,5.736,5.736,0,0,0-.387.875,1.888,1.888,0,0,0-.09.317,5.637,5.637,0,0,0-.121.983,6.072,6.072,0,0,0,.108.964,2.22,2.22,0,0,0,.085.361,4.4,4.4,0,0,0,.606,1.257,6.29,6.29,0,0,0,.63.771,6.886,6.886,0,0,0,.783.622,2.612,2.612,0,0,0,.353.212,6.845,6.845,0,0,0,.939.391,2.657,2.657,0,0,0,.411.1,6.67,6.67,0,0,0,1.046.114,2.5,2.5,0,0,0,2.432-2.432l-.087-.646a2.429,2.429,0,0,0-.625-1.073l-.492-.38A2.421,2.421,0,0,0,1026.83,865.07Z" transform="translate(-1001.264 -847.043)" fill="#0e3c54"/>
          <path id="Path_16" data-name="Path 16" d="M1303.056,836.089q-.9,2.649-1.806,5.3-.9,2.624-1.809,5.244c-.17.487-.342.972-.5,1.463-.1.292-.147.6-.265.88l.245-.581a1.294,1.294,0,0,1-.141.254l.38-.492a.75.75,0,0,1-.124.128l.492-.38a.591.591,0,0,1-.112.065l.581-.245a.567.567,0,0,1-.093.027l.647-.087a.5.5,0,0,1-.089,0l.647.087a.5.5,0,0,1-.113-.029l.581.245a.619.619,0,0,1-.1-.061l.492.38a.7.7,0,0,1-.108-.11l.38.492a.732.732,0,0,1-.077-.136l.245.581a.751.751,0,0,1-.034-.129l.087.647a1.05,1.05,0,0,1,0-.239l-.087.647a3.331,3.331,0,0,1,.181-.633l.231-.669.448-1.3.9-2.614,1.8-5.208.5-1.458c.132-.383.246-.78.4-1.153l-.245.581a1.207,1.207,0,0,1,.127-.229l-.38.492a.682.682,0,0,1,.109-.113l-.492.38a.562.562,0,0,1,.1-.057l-.581.245a.546.546,0,0,1,.112-.033l-.646.087a.656.656,0,0,1,.159,0l-.646-.087a.543.543,0,0,1,.114.032l-.581-.245a.605.605,0,0,1,.1.061l-.492-.38a.616.616,0,0,1,.082.085l-.38-.492a.574.574,0,0,1,.057.1l-.245-.581a.627.627,0,0,1,.024.1l-.087-.647a.758.758,0,0,1,0,.159l.087-.647a1.779,1.779,0,0,1-.074.274,1.843,1.843,0,0,0-.043.97,1.809,1.809,0,0,0,.289.9,2.721,2.721,0,0,0,1.454,1.118l.646.087a2.422,2.422,0,0,0,1.228-.332l.492-.38a2.429,2.429,0,0,0,.625-1.073c.022-.064.043-.129.059-.195.03-.13.042-.278.058-.4a3.511,3.511,0,0,0,.05-.4,2.869,2.869,0,0,0-.4-1.482,2.981,2.981,0,0,0-.457-.583,5.031,5.031,0,0,0-.515-.4c-.025-.017-.048-.034-.074-.049a2.9,2.9,0,0,0-1.451-.382,3.3,3.3,0,0,0-.746.1,2.631,2.631,0,0,0-.379.151,2.468,2.468,0,0,0-.943.621,3.79,3.79,0,0,0-.832,1.445c-.166.442-.308.895-.463,1.341l-.547,1.582-2.222,6.427c-.373,1.078-.766,2.152-1.118,3.237a3.711,3.711,0,0,0-.129.679,2.717,2.717,0,0,0-.05.483c.006.131.036.287.051.4a2.781,2.781,0,0,0,.067.423,3.013,3.013,0,0,0,2.026,2.046l.057.015.029,0,.647.087a.875.875,0,0,0,.089,0l.323-.043a2.381,2.381,0,0,0,.353-.05,2.54,2.54,0,0,0,1-.522,2.831,2.831,0,0,0,.75-.81,1.278,1.278,0,0,0,.12-.208,6.507,6.507,0,0,0,.4-1.04c.042-.157.08-.313.13-.467.175-.537.365-1.069.55-1.6q.551-1.582,1.1-3.167,1.108-3.22,2.2-6.444l.268-.789a1.84,1.84,0,0,0,.043-.97,1.81,1.81,0,0,0-.289-.9,2.721,2.721,0,0,0-1.454-1.118l-.647-.087a2.421,2.421,0,0,0-1.228.332l-.492.38A2.432,2.432,0,0,0,1303.056,836.089Z" transform="translate(-1253.32 -822.156)" fill="#0e3c54"/>
        </g>
      </g>
      <g id="Group_8" data-name="Group 8" transform="translate(0 0)">
        <path id="Path_17" data-name="Path 17" d="M471.6,576.009c1.788-5.494,1.121-10.8-1.184-16l-.207-.465-9.082,2.716a11,11,0,0,1,.241,2.3c0,3.315-2.262,4.618-5.13,2.984-1.817-1.035-4.612-3.576-4.826-5.835-.379-3.993,7.793-9.664,10.458-11.557,3.238-2.3,6.869-3.818,10.247-5.865,1.544-.936,2.9-2.161,4.342-3.24,1.664-1.245,3.319-2.5,4.955-3.78.789-.618,2.669-1.7,1.526-2.9a5.434,5.434,0,0,0-2.224-.9q-1.463-.46-2.934-.894c-1.961-.578-3.932-1.134-5.916-1.627a10.847,10.847,0,0,0-4.083-.587,9.361,9.361,0,0,0-4.609.829c-1.287.512-2.522,1.158-3.56,1.682-.987.5-1.945,1.026-2.856,1.544a45.88,45.88,0,0,0-8.052,5.843,48.855,48.855,0,0,0-8.565,9.625c-1.945,3.068-3.676,7.575-2.8,11.266,1.531,6.424,8.375,13.236,13.5,16.943,3.362,2.431,7,4.233,11.241,4.452C466.872,582.8,470.12,580.546,471.6,576.009Z" transform="translate(-434.669 -527.885)" fill="#0e3c54"/>
        <g id="Group_7" data-name="Group 7">
          <path id="Path_18" data-name="Path 18" d="M448,550.77a23.572,23.572,0,0,0-.016-14.195,37.282,37.282,0,0,0-1.62-4.14l-.38-.492a1.824,1.824,0,0,0-.783-.5,2.37,2.37,0,0,0-1.584-.123l-3.068.917-4.891,1.463-1.123.336a2.5,2.5,0,0,0-1.454,1.118,2.672,2.672,0,0,0-.245,1.874q.087.417.145.839l-.087-.647a9.162,9.162,0,0,1,.046,2.278l.087-.647a4.762,4.762,0,0,1-.308,1.185l.245-.581a3.353,3.353,0,0,1-.421.725l.38-.492a2.785,2.785,0,0,1-.439.439l.492-.38a2.586,2.586,0,0,1-.567.329l.581-.245a2.79,2.79,0,0,1-.652.17l.647-.087a3.415,3.415,0,0,1-.843-.008l.647.087a4.86,4.86,0,0,1-1.185-.339l.581.245a9.346,9.346,0,0,1-1.97-1.216l.492.38a13,13,0,0,1-2.282-2.256l.38.492a7.376,7.376,0,0,1-.939-1.561l.245.581a4.243,4.243,0,0,1-.287-1.01l.087.647a3.275,3.275,0,0,1,0-.81l-.087.647a4.683,4.683,0,0,1,.328-1.165l-.245.581a9.445,9.445,0,0,1,1.254-2.058l-.38.492a30.744,30.744,0,0,1,5.592-5.255l-.492.38c1.544-1.191,3.13-2.366,4.784-3.4,2.705-1.692,5.62-3.012,8.364-4.637a47.056,47.056,0,0,0,4.75-3.5l-.492.38c1.971-1.522,3.97-3.007,5.937-4.534l-.492.38c1.188-.908,2.534-1.761,2.937-3.311a3.543,3.543,0,0,0-1-3.425,5.568,5.568,0,0,0-2.4-1.244c-2.977-.83-5.916-1.783-8.911-2.554-.84-.216-1.68-.451-2.528-.633a14.612,14.612,0,0,0-1.78-.267,8.059,8.059,0,0,0-1.861.112h1.293a9.217,9.217,0,0,0-1.8-.129,12.648,12.648,0,0,0-1.849.254,14.559,14.559,0,0,0-2.569.835,56.65,56.65,0,0,0-5.233,2.537,51.719,51.719,0,0,0-9.132,6.272,56.814,56.814,0,0,0-7.306,7.439,32.774,32.774,0,0,0-3.12,4.485,23.674,23.674,0,0,0-2.052,4.844,15.046,15.046,0,0,0-.661,5.2,15.546,15.546,0,0,0,1.39,5.133,30.628,30.628,0,0,0,5.324,7.921,47.845,47.845,0,0,0,6.523,6.115,39.831,39.831,0,0,0,4.128,2.885,25.016,25.016,0,0,0,4.83,2.216,19.622,19.622,0,0,0,5.3.959,12.221,12.221,0,0,0,1.972-.066,13.111,13.111,0,0,0,2.389-.453,10.812,10.812,0,0,0,6.435-5.5,17.066,17.066,0,0,0,.95-2.315,2.433,2.433,0,1,0-4.691-1.293q-.172.523-.383,1.032l.245-.581a10.511,10.511,0,0,1-1.339,2.329l.38-.492a8.4,8.4,0,0,1-1.447,1.452l.492-.38a8.084,8.084,0,0,1-1.748,1.02l.581-.245a9.378,9.378,0,0,1-2.377.632l.647-.087a13.894,13.894,0,0,1-3.554-.045l.647.087a18.36,18.36,0,0,1-4.656-1.291l.581.245a29.131,29.131,0,0,1-6.324-3.841l.492.38a48.084,48.084,0,0,1-6.555-6.109q-.88-.992-1.693-2.041l.38.492a25.828,25.828,0,0,1-3.394-5.622l.245.581a13,13,0,0,1-.935-3.159l.087.647a11.019,11.019,0,0,1,.022-2.892l-.087.647a17.5,17.5,0,0,1,1.247-4.384l-.245.581A25.752,25.752,0,0,1,418,522.809l-.38.492a55.941,55.941,0,0,1,7.283-7.581q1.139-1,2.341-1.935l-.492.38a54.267,54.267,0,0,1,8.715-5.363c.862-.437,1.729-.865,2.62-1.241l-.581.245a13.382,13.382,0,0,1,3.266-.967l-.647.087a6.61,6.61,0,0,1,1.622-.023l-.647-.087.733.1q.37-.048.739-.1l-.647.087a5.988,5.988,0,0,1,1.5.031l-.647-.087a25.92,25.92,0,0,1,2.54.581q1.339.335,2.67.7,2.687.738,5.349,1.564c.405.125.808.258,1.218.366a8.9,8.9,0,0,1,1.112.343l-.581-.245a2.53,2.53,0,0,1,.534.3l-.492-.38a1.852,1.852,0,0,1,.238.239l-.38-.492a1.491,1.491,0,0,1,.2.327l-.245-.581a1.253,1.253,0,0,1,.057.213l-.087-.647a1.126,1.126,0,0,1,0,.261l.087-.647a1.348,1.348,0,0,1-.069.253l.245-.581a1.9,1.9,0,0,1-.226.388l.38-.492a4.557,4.557,0,0,1-.812.774l.492-.38c-.8.613-1.6,1.218-2.391,1.833l.492-.38q-1.617,1.249-3.253,2.473c-1.169.877-2.305,1.793-3.461,2.687l.492-.38a38.931,38.931,0,0,1-5.693,3.444c-1.935,1.022-3.883,2.031-5.709,3.241-1.036.686-2.044,1.424-3.042,2.165-1.323.982-2.627,1.995-3.867,3.08a24.666,24.666,0,0,0-3.143,3.207,14.4,14.4,0,0,0-1.438,2.068,7.6,7.6,0,0,0-.826,2.128,5.865,5.865,0,0,0,.111,2.952,9.8,9.8,0,0,0,1.776,3.106,12.633,12.633,0,0,0,1.867,1.889,13.651,13.651,0,0,0,2.41,1.686c1.848.948,4.278,1.366,6.078.05a5.631,5.631,0,0,0,1.428-1.457,5.779,5.779,0,0,0,.657-1.4,7.737,7.737,0,0,0,.32-1.712,8.363,8.363,0,0,0,.01-1.5,16.266,16.266,0,0,0-.3-2.157l-1.7,2.992,3.068-.918,4.891-1.463,1.123-.336-2.747-1.118c.15.335.3.671.442,1.009l-.245-.581a25.371,25.371,0,0,1,1.778,6.321l-.087-.647a20.718,20.718,0,0,1,.018,5.421l.087-.647a21.35,21.35,0,0,1-.847,3.709A2.433,2.433,0,1,0,448,550.77Z" transform="translate(-408.723 -501.999)" fill="#0e3c54"/>
        </g>
      </g>
      <g id="Group_10" data-name="Group 10" transform="translate(29.823 15.462)">
        <path id="Path_19" data-name="Path 19" d="M791.531,710.551a6.765,6.765,0,0,0-6.9,6.658,7.642,7.642,0,0,0,7.646,7.345,6.769,6.769,0,0,0,7.011-6.537A7.657,7.657,0,0,0,791.531,710.551Z" transform="translate(-782.2 -708.118)" fill="#0e3c54"/>
        <g id="Group_9" data-name="Group 9">
          <path id="Path_20" data-name="Path 20" d="M765.619,682.192a11.189,11.189,0,0,0-1.793.173,6.972,6.972,0,0,0-1.1.267c-.179.059-.355.126-.529.2-.353.148-.71.29-1.05.465a6.931,6.931,0,0,0-.933.578,10.943,10.943,0,0,0-1.3,1.072,10.742,10.742,0,0,0-1.072,1.307,6.614,6.614,0,0,0-.553.914,10.277,10.277,0,0,0-.643,1.579,10.135,10.135,0,0,0-.312,1.7,6.5,6.5,0,0,0-.042,1.131,10.9,10.9,0,0,0,.231,1.746,7.006,7.006,0,0,0,.313,1.049,11.507,11.507,0,0,0,.713,1.565,11.665,11.665,0,0,0,.979,1.387,10.3,10.3,0,0,0,4.62,3.195,7.725,7.725,0,0,0,1.089.3c.4.079.8.126,1.2.177q.294.037.591.051a7.6,7.6,0,0,0,1.186-.036,11.693,11.693,0,0,0,1.753-.294,11.385,11.385,0,0,0,1.617-.609,7.12,7.12,0,0,0,.974-.521q.233-.149.454-.316c.3-.23.61-.458.9-.711a6.733,6.733,0,0,0,.738-.763,10.381,10.381,0,0,0,.984-1.358,10.153,10.153,0,0,0,.693-1.522,6.166,6.166,0,0,0,.292-1.04,9.945,9.945,0,0,0,.193-1.733,11.352,11.352,0,0,0-.159-1.723,7.12,7.12,0,0,0-.244-1.085,11.57,11.57,0,0,0-.63-1.565,7.378,7.378,0,0,0-.535-.937c-.21-.312-.445-.606-.676-.9-.112-.144-.229-.284-.351-.42a7.731,7.731,0,0,0-.779-.754,10.341,10.341,0,0,0-5.06-2.4,13.1,13.1,0,0,0-1.755-.169,2.5,2.5,0,0,0-2.432,2.432l.087.647a2.429,2.429,0,0,0,.626,1.073l.492.38a2.421,2.421,0,0,0,1.228.332,8.423,8.423,0,0,1,1.034.072l-.647-.087a8.125,8.125,0,0,1,2.044.555l-.581-.245a8.017,8.017,0,0,1,1.775,1.036l-.492-.38a7.816,7.816,0,0,1,1.372,1.37l-.38-.492a7.5,7.5,0,0,1,.975,1.666l-.245-.581a7.256,7.256,0,0,1,.493,1.806l-.087-.647a6.79,6.79,0,0,1,.008,1.8l.087-.647a6.279,6.279,0,0,1-.43,1.569l.245-.581a6.507,6.507,0,0,1-.842,1.434l.38-.492a6.876,6.876,0,0,1-1.207,1.2l.492-.38a7.18,7.18,0,0,1-1.578.92l.581-.245a7.419,7.419,0,0,1-1.883.51l.647-.087a7.7,7.7,0,0,1-2.019,0l.647.087a7.83,7.83,0,0,1-1.949-.533l.581.245a8.008,8.008,0,0,1-1.762-1.027l.492.38a7.935,7.935,0,0,1-1.408-1.4l.38.492a7.542,7.542,0,0,1-.971-1.654l.245.581a7.093,7.093,0,0,1-.489-1.777l.087.647a6.7,6.7,0,0,1-.006-1.759l-.087.647a6.488,6.488,0,0,1,.452-1.649l-.245.581a6.7,6.7,0,0,1,.853-1.454l-.38.492a6.942,6.942,0,0,1,1.235-1.232l-.492.38a7.048,7.048,0,0,1,1.527-.892l-.581.245a7.073,7.073,0,0,1,1.778-.489l-.647.087a7.283,7.283,0,0,1,1-.064,2.5,2.5,0,0,0,2.432-2.432l-.087-.647a2.431,2.431,0,0,0-.625-1.073l-.492-.38A2.421,2.421,0,0,0,765.619,682.192Z" transform="translate(-756.287 -682.19)" fill="#0e3c54"/>
        </g>
      </g>
    </g>
    <path id="Path_21" data-name="Path 21" d="M810.057,708.468a6.77,6.77,0,0,1-7.011,6.537,7.642,7.642,0,0,1-7.646-7.346A6.765,6.765,0,0,1,802.3,701,7.657,7.657,0,0,1,810.057,708.468Z" transform="translate(-353.497 -181.926)" fill="#e49a00"/>
    <g id="Group_12" data-name="Group 12" transform="translate(447.382 563.931)">
      <circle id="Ellipse_4" data-name="Ellipse 4" cx="0.992" cy="0.992" r="0.992" transform="translate(0)" fill="#fff"/>
      <circle id="Ellipse_5" data-name="Ellipse 5" cx="0.732" cy="0.732" r="0.732" transform="translate(2.233)" fill="#fff"/>
      <circle id="Ellipse_6" data-name="Ellipse 6" cx="0.48" cy="0.48" r="0.48" transform="translate(1.754 1.984)" fill="#fff"/>
    </g>
    <path id="Path_22" data-name="Path 22" d="M1344.338,753.431c.544-.843.809-1.835,1.429-2.666a4.531,4.531,0,0,1,4.429-2.126c1.094.218,2.621.755,2.363,2.12a1.332,1.332,0,0,1-2.005.767c-1.174-.729-2.114-.453-3.368-.177A4.99,4.99,0,0,0,1344.338,753.431Z" transform="translate(-855.333 -225.411)" fill="#fff"/>
    <g id="Group_13" data-name="Group 13" transform="translate(500.411 515.09)">
      <path id="Path_23" data-name="Path 23" d="M1478.293,667.06l-1.035-1.237,3.542-3.229c-.421-.37-.809-.673-1.151-1.021a4.052,4.052,0,0,1-.517-4.63,4,4,0,0,1,4.014-2.357,3.312,3.312,0,0,1,2.747,4.008,6.024,6.024,0,0,1-1.482,2.969C1482.521,663.468,1480.427,665.169,1478.293,667.06Zm2.006-7.937q0,.066.008.128c.145,1.609,1.781,1.908,2.98,1.131a2.284,2.284,0,0,0-.141-3.828C1481.463,655.471,1480.251,657.646,1480.3,659.123Z" transform="translate(-1477.258 -654.557)" fill="#0e3c54"/>
      <path id="Path_24" data-name="Path 24" d="M1525.992,661.127c-.154-.3-.21-.644-.39-.944a1.53,1.53,0,0,0-1.416-.863c-.375.036-.906.165-.865.633a.45.45,0,0,0,.648.325,1.333,1.333,0,0,1,1.137.054A1.684,1.684,0,0,1,1525.992,661.127Z" transform="translate(-1519.366 -658.906)" fill="#fff"/>
    </g>
    <path id="Path_25" data-name="Path 25" d="M2004.009,969.172s0,.254-1.037.371" transform="translate(-1457.451 -427.086)" fill="#cd8800"/>
    <g id="Group_20" data-name="Group 20" transform="translate(412.082 503.557)">
      <g id="Group_14" data-name="Group 14" transform="translate(31.995 17.162)">
        <path id="Path_26" data-name="Path 26" d="M924.762,741.48c-.414.057-.783.084-1.141.16a22.784,22.784,0,0,1-10.043-.245c-6.058-1.42-11.275-4.249-15.009-9.392a13.408,13.408,0,0,1-2.663-7.512c-2.726.692-5.318,1.415-7.943,1.985-1.047.228-1.229.708-1.057,1.626a15.032,15.032,0,0,0,3.3,7.059c6.826,8.048,15.742,11.218,26.071,11.044a4.812,4.812,0,0,1,1.412.435c-.463.206-.924.415-1.389.615a.665.665,0,0,1-.224.011,35.036,35.036,0,0,1-18.554-4.492,6.292,6.292,0,0,0-2.849-.735c-3.726-.045-11.111-.031-16.773-.017a61.148,61.148,0,0,0-1.8-13.916,14.724,14.724,0,0,0-3.109-6.543,3.517,3.517,0,0,0-5.443-.232,8.061,8.061,0,0,0-1.9,2.483c-1.085,2.542-1.982,5.164-2.957,7.753-.079.21-.189.409-.285.614l-.25-.05v-7.164l-4.685.538a3.95,3.95,0,0,0-.068.536q.226,7.034.459,14.067a5.932,5.932,0,0,1-.006,1.227c-.086.477-.584.51-.979.472a8.5,8.5,0,0,1-1.2-.444c-.466-.119-2.407-.59-2.706.035.3-.636.548-1.577.775-2.074,2.789-6.1-.229-12.924-6.4-14.484a12.9,12.9,0,0,0-14.565,7.306c-2.9,6.5.331,13.762,7.7,14.882a5.661,5.661,0,0,1,.753.252l-20.485,17.043,8.931,8.872c.027-.039.087-.135.157-.224q6.823-8.806,13.648-17.61,1.671-2.154,3.344-4.307.869-1.115,1.742-2.227c.394-.5,1.012-1.474,1.673-1.62s.66.34.66.812v4.141h4.172c0-.022,0-.045-.006-.067.026.024.056.045.086.067h69.8v-9.748Zm-80.879-3.293a2.468,2.468,0,0,1-2.528-2.328,2.116,2.116,0,0,1,2.227-2.032,2.477,2.477,0,0,1,2.472,2.26A2.143,2.143,0,0,1,843.883,738.187Zm21.158,6.656a3.013,3.013,0,0,1,.1-.352l2.4-6.931,1.211-3.5.606-1.751c.119-.344.244-.874.736-.81a.451.451,0,0,1,.371.339.884.884,0,0,1-.069.472q-1.176,3.457-2.361,6.911-.6,1.745-1.206,3.488c-.195.56-.394,1.119-.576,1.683-.12.374-.214,1.148-.678,1.267a.5.5,0,0,1-.547-.416A.957.957,0,0,1,865.041,744.843Z" transform="translate(-820.741 -720.154)" fill="#58b6b0"/>
      </g>
      <path id="Path_27" data-name="Path 27" d="M473.936,521.646a9.361,9.361,0,0,1,4.609-.829,10.847,10.847,0,0,1,4.083.587c1.984.494,3.955,1.049,5.916,1.627q1.471.434,2.934.894a5.434,5.434,0,0,1,2.224.9c1.143,1.2-.737,2.282-1.526,2.9-1.636,1.282-3.29,2.535-4.955,3.78-1.442,1.078-2.8,2.3-4.342,3.24-3.378,2.047-7.008,3.565-10.247,5.865-2.664,1.892-10.836,7.564-10.458,11.557.214,2.259,3.009,4.8,4.826,5.835,2.869,1.634,5.127.332,5.13-2.984a11,11,0,0,0-.241-2.3L480.973,550l.207.465c2.3,5.194,2.972,10.5,1.184,16-1.477,4.538-4.725,6.79-9.515,6.542-4.24-.219-7.879-2.021-11.241-4.452-5.126-3.707-11.97-10.519-13.5-16.943-.88-3.691.852-8.2,2.8-11.266a48.857,48.857,0,0,1,8.565-9.625,45.875,45.875,0,0,1,8.052-5.843c.911-.518,1.868-1.045,2.856-1.544C471.414,522.8,472.648,522.159,473.936,521.646Z" transform="translate(-447.872 -520.711)" fill="#58b6b0"/>
      <g id="Group_19" data-name="Group 19" transform="translate(0.018 0)">
        <path id="Path_28" data-name="Path 28" d="M1591.411,803.883s.088,6.5,7.6,12.02c0,0,7.078,7.024,21.8,6.849C1620.816,822.751,1596.119,820.5,1591.411,803.883Z" transform="translate(-1493.305 -779.537)" fill="#469791"/>
        <g id="Group_18" data-name="Group 18">
          <path id="Path_29" data-name="Path 29" d="M808.208,530.511q-1.631,1.252-3.278,2.485c-1.146.857-2.24,1.805-3.415,2.629a13.547,13.547,0,0,0-2.951-1.131c.617-1.18,2.291-1.507,2.908-2.687a11.162,11.162,0,0,1-4.034-.907c.966-.7,2.28-.912,2.9-2.092a18.66,18.66,0,0,0-3.675-1.02c.73-.821,1.808-1.158,2.189-2.462a8.2,8.2,0,0,1-3.449-.3,21.644,21.644,0,0,0,2.856-2.626c.713.132,1.418.335,2.08.5,1.984.494,3.955,1.049,5.916,1.627.2.06.4.124.606.184A6.588,6.588,0,0,0,808.208,530.511Z" transform="translate(-765.598 -522.206)" fill="#fff" opacity="0.5"/>
          <path id="Path_30" data-name="Path 30" d="M931.165,550.946c1.143,1.2-.737,2.282-1.526,2.9-.556.436-1.117.864-1.677,1.294a6.588,6.588,0,0,1-1.35-5.8c.778.232,1.555.466,2.329.71A5.434,5.434,0,0,1,931.165,550.946Z" transform="translate(-885.352 -546.836)" fill="#e49a00"/>
          <g id="Group_15" data-name="Group 15" transform="translate(99.243 23.908)">
            <circle id="Ellipse_7" data-name="Ellipse 7" cx="0.992" cy="0.992" r="0.992" fill="#fff"/>
            <circle id="Ellipse_8" data-name="Ellipse 8" cx="0.732" cy="0.732" r="0.732" transform="translate(2.233)" fill="#fff"/>
            <circle id="Ellipse_9" data-name="Ellipse 9" cx="0.48" cy="0.48" r="0.48" transform="translate(1.754 1.984)" fill="#fff"/>
          </g>
          <path id="Path_31" data-name="Path 31" d="M1074.274,807.029c-.457-.893-.622-1.906-1.156-2.8a4.531,4.531,0,0,0-4.2-2.556c-1.11.108-2.683.49-2.563,1.875a1.332,1.332,0,0,0,1.919.963c1.241-.608,2.149-.241,3.369.16A4.99,4.99,0,0,1,1074.274,807.029Z" transform="translate(-1013.302 -777.505)" fill="#fff"/>
          <path id="Path_32" data-name="Path 32" d="M1912.608,1027.944c.9.449,1.629,1.169,2.586,1.57a4.531,4.531,0,0,0,4.895-.422c.831-.744,1.873-1.983.957-3.028a1.332,1.332,0,0,0-2.117.359c-.641,1.225-1.59,1.465-2.81,1.865A4.99,4.99,0,0,1,1912.608,1027.944Z" transform="translate(-1786.942 -982.3)" fill="#fff"/>
          <path id="Path_33" data-name="Path 33" d="M804.854,701.552s-6.614,6.788-5.112,12.716a7.077,7.077,0,0,1-3.7-7.9,6.007,6.007,0,0,1,1.949-3.219,7.148,7.148,0,0,1,3.087-1.7,8.571,8.571,0,0,1,3.579.057Z" transform="translate(-766.055 -685.745)" fill="#cd8800"/>
          <path id="Path_34" data-name="Path 34" d="M478.371,550.272l2.817-.847a22.576,22.576,0,0,1,1.771,15.121,11.651,11.651,0,0,1-2.027,4.609c-2.08,2.635-5.728,3.675-9.062,3.285a20.907,20.907,0,0,1-9.172-3.912,46.5,46.5,0,0,1-10.6-10.048,17.9,17.9,0,0,1-3.881-7.932c-.763-4.966,1.914-9.813,5.054-13.736a53.027,53.027,0,0,1,18.275-14.564c2.873-1.387,6.067-2.533,9.2-1.938-.729-.138-2.195.585-2.9.807q-1.5.468-2.964,1.035a48.558,48.558,0,0,0-15.833,10c-4.219,4-8.429,9.081-9.09,15.068a11.945,11.945,0,0,0,2.224,8.115,41.613,41.613,0,0,0,15.5,13.862c2.323,1.2,5.083,2.179,7.634,1.069,4.849-2.11,6.842-7.433,5.914-12.347a31.118,31.118,0,0,0-2.895-7.632Z" transform="translate(-448.084 -520.149)" fill="#469791"/>
          <path id="Path_35" data-name="Path 35" d="M723.622,1045.277c.986.183,1.889.672,2.919.792a4.531,4.531,0,0,0,4.587-1.76c.593-.945,1.251-2.424.081-3.174a1.332,1.332,0,0,0-1.935.931c-.277,1.354-1.122,1.848-2.184,2.57A4.991,4.991,0,0,1,723.622,1045.277Z" transform="translate(-699.979 -996.266)" fill="#fff"/>
          <g id="Group_16" data-name="Group 16" transform="translate(29.802 31.543)">
            <circle id="Ellipse_10" data-name="Ellipse 10" cx="0.992" cy="0.992" r="0.992" fill="#fff"/>
            <circle id="Ellipse_11" data-name="Ellipse 11" cx="0.732" cy="0.732" r="0.732" transform="translate(2.233)" fill="#fff"/>
            <circle id="Ellipse_12" data-name="Ellipse 12" cx="0.48" cy="0.48" r="0.48" transform="translate(1.754 1.984)" fill="#fff"/>
          </g>
          <g id="Group_17" data-name="Group 17" transform="translate(37.13 19.153)">
            <circle id="Ellipse_13" data-name="Ellipse 13" cx="0.992" cy="0.992" r="0.992" fill="#fff"/>
            <circle id="Ellipse_14" data-name="Ellipse 14" cx="0.732" cy="0.732" r="0.732" transform="translate(2.233)" fill="#fff"/>
            <circle id="Ellipse_15" data-name="Ellipse 15" cx="0.48" cy="0.48" r="0.48" transform="translate(1.754 1.984)" fill="#fff"/>
          </g>
          <path id="Path_36" data-name="Path 36" d="M951.021,834.824a12.964,12.964,0,0,0-2.285,7.2s-.273,8.744,9.364,10.035C958.1,852.063,946.62,845.908,951.021,834.824Z" transform="translate(-905.776 -807.823)" fill="#469791"/>
          <path id="Path_37" data-name="Path 37" d="M840.922,1039.243l-20.181,16.79,2.985,2.966,5.946,5.906-7.531-8.837Z" transform="translate(-788.765 -994.701)" fill="#469791"/>
          <path id="Path_38" data-name="Path 38" d="M1244.12,776.26l-4.685.538.409,15.643s.006,1.064-1.289.594c0,0,.857.983,1.6-.376l-.247-15.353Z" transform="translate(-1170.727 -754.284)" fill="#469791"/>
        </g>
      </g>
    </g>
    <g id="Group_21" data-name="Group 21" transform="translate(446.526 564.443)">
      <circle id="Ellipse_16" data-name="Ellipse 16" cx="0.992" cy="0.992" r="0.992" transform="translate(0 0)" fill="#fff"/>
      <circle id="Ellipse_17" data-name="Ellipse 17" cx="0.732" cy="0.732" r="0.732" transform="translate(2.233 0)" fill="#fff"/>
      <circle id="Ellipse_18" data-name="Ellipse 18" cx="0.48" cy="0.48" r="0.48" transform="translate(1.754 1.984)" fill="#fff"/>
    </g>
    <g id="Group_22" data-name="Group 22" transform="translate(467.727 568.424)">
      <path id="Path_39" data-name="Path 39" d="M1123.167,1281.422h-.836v-4.1h.836v1.646h1.763v-1.646h.849v4.1h-.849v-1.776h-1.763Z" transform="translate(-1122.331 -1277.215)" fill="#0e3344"/>
      <path id="Path_40" data-name="Path 40" d="M1172.441,1289.934a1.352,1.352,0,0,1,1.128.512,1.635,1.635,0,0,1,.337,1.044,1.493,1.493,0,0,1-.5,1.167,1.438,1.438,0,0,1-2.042-.1,1.536,1.536,0,0,1-.389-1.063,1.573,1.573,0,0,1,.434-1.154A1.382,1.382,0,0,1,1172.441,1289.934Zm0,2.489q.629,0,.629-.933,0-.972-.629-.972t-.629.972Q1171.812,1292.423,1172.441,1292.423Z" transform="translate(-1166.802 -1288.748)" fill="#0e3344"/>
      <path id="Path_41" data-name="Path 41" d="M1212.318,1290.725a1.3,1.3,0,0,0-.726-.208q-.311,0-.311.266,0,.246.421.35a1.833,1.833,0,0,1,.713.292.871.871,0,0,1,.272.7.817.817,0,0,1-.295.661,1.2,1.2,0,0,1-.794.246,1.809,1.809,0,0,1-1.193-.4l.3-.454a1.269,1.269,0,0,0,.81.266.482.482,0,0,0,.3-.091.289.289,0,0,0,.117-.24q0-.272-.46-.356-.985-.188-.985-.959a.764.764,0,0,1,.3-.616,1.154,1.154,0,0,1,.755-.246,1.68,1.68,0,0,1,1.07.357Z" transform="translate(-1202.849 -1288.748)" fill="#0e3344"/>
      <path id="Path_42" data-name="Path 42" d="M1242.993,1289.934a1.352,1.352,0,0,1,1.128.512,1.635,1.635,0,0,1,.337,1.044,1.493,1.493,0,0,1-.5,1.167,1.438,1.438,0,0,1-2.042-.1,1.535,1.535,0,0,1-.389-1.063,1.574,1.574,0,0,1,.434-1.154A1.382,1.382,0,0,1,1242.993,1289.934Zm0,2.489q.629,0,.629-.933,0-.972-.629-.972t-.629.972Q1242.364,1292.423,1242.993,1292.423Z" transform="translate(-1231.3 -1288.748)" fill="#0e3344"/>
      <path id="Path_43" data-name="Path 43" d="M1285.143,1293.447a1.065,1.065,0,0,1-.888.415.972.972,0,0,1-.794-.288,1.541,1.541,0,0,1-.237-.969v-1.763h.8v1.549a1.193,1.193,0,0,0,.117.619.443.443,0,0,0,.4.178.732.732,0,0,0,.279-.065.343.343,0,0,0,.188-.136v-2.145h.817v2.943h-.609l-.071-.337Z" transform="translate(-1269.119 -1289.577)" fill="#0e3344"/>
      <path id="Path_44" data-name="Path 44" d="M1324.2,1290.3a1.021,1.021,0,0,1,.389-.256,1.292,1.292,0,0,1,.493-.107.985.985,0,0,1,.807.3,1.555,1.555,0,0,1,.25.985v1.731h-.823v-1.7q0-.635-.564-.635a.861.861,0,0,0-.3.062.491.491,0,0,0-.22.139v2.132h-.817v-2.943h.693c.022.112.043.207.065.285Z" transform="translate(-1305.782 -1288.748)" fill="#0e3344"/>
      <path id="Path_45" data-name="Path 45" d="M1382.025,1277.319h2.683V1278h-1.834v.966h1.53v.681h-1.53v1.1h1.919v.681h-2.768Z" transform="translate(-1359.258 -1277.215)" fill="#0e3344"/>
      <path id="Path_46" data-name="Path 46" d="M1420.125,1280.732l-.117-.311a.761.761,0,0,1-.337.279,1.111,1.111,0,0,1-.48.11,1.265,1.265,0,0,1-1.057-.46,1.533,1.533,0,0,1-.3-.985,1.7,1.7,0,0,1,.493-1.309,1.258,1.258,0,0,1,.888-.344,1.157,1.157,0,0,1,.752.246v-.94l.817-.454v4.168Zm-.162-1.121v-.823a.632.632,0,0,0-.2-.353.548.548,0,0,0-.373-.139.622.622,0,0,0-.525.259,1.14,1.14,0,0,0-.194.7q0,.966.629.966a.631.631,0,0,0,.434-.185A.7.7,0,0,0,1419.962,1279.61Z" transform="translate(-1391.923 -1276.525)" fill="#0e3344"/>
      <path id="Path_47" data-name="Path 47" d="M1463.936,1293.447a1.065,1.065,0,0,1-.888.415.972.972,0,0,1-.794-.288,1.541,1.541,0,0,1-.237-.969v-1.763h.8v1.549a1.2,1.2,0,0,0,.117.619.443.443,0,0,0,.4.178.733.733,0,0,0,.279-.065.341.341,0,0,0,.188-.136v-2.145h.817v2.943h-.609l-.071-.337Z" transform="translate(-1432.239 -1289.577)" fill="#0e3344"/>
      <path id="Path_48" data-name="Path 48" d="M1502.6,1292.578a1.5,1.5,0,0,1-1.089.454,1.54,1.54,0,0,1-1.193-.48,1.638,1.638,0,0,1,.11-2.223,1.482,1.482,0,0,1,1.044-.4,1.457,1.457,0,0,1,1.1.428l-.246.441a1.066,1.066,0,0,0-.72-.292.74.74,0,0,0-.6.282,1.1,1.1,0,0,0-.233.723.981.981,0,0,0,.23.671.745.745,0,0,0,.587.262.979.979,0,0,0,.733-.318Z" transform="translate(-1466.834 -1288.748)" fill="#0e3344"/>
      <path id="Path_49" data-name="Path 49" d="M1538.082,1292.954h-.655l-.065-.279a1.353,1.353,0,0,1-.869.356.854.854,0,0,1-.979-.953.836.836,0,0,1,.408-.739,2.246,2.246,0,0,1,1.225-.272h.136v-.013a.5.5,0,0,0-.117-.382.644.644,0,0,0-.421-.1,1.263,1.263,0,0,0-.784.272q-.117-.214-.22-.421a2.541,2.541,0,0,1,.645-.386,1.922,1.922,0,0,1,.658-.1q1.037,0,1.037,1.3Zm-.823-1.387h-.1a1.2,1.2,0,0,0-.6.13.388.388,0,0,0-.227.344q0,.4.35.4a.6.6,0,0,0,.376-.123.483.483,0,0,0,.194-.311Z" transform="translate(-1499.294 -1288.748)" fill="#0e3344"/>
      <path id="Path_50" data-name="Path 50" d="M1574.6,1281.274h-.843v1.458q0,.324.214.324a1.034,1.034,0,0,0,.486-.168l.272.415a1.6,1.6,0,0,1-1.018.363q-.778,0-.778-.856v-1.536h-.408v-.655h.415v-.525q.324-.175.823-.434v.959h.836Z" transform="translate(-1533.067 -1279.355)" fill="#0e3344"/>
      <path id="Path_51" data-name="Path 51" d="M1603.271,1276.623a.5.5,0,0,1,.146-.36.464.464,0,0,1,.347-.152.5.5,0,0,1,.366.149.524.524,0,0,1,.006.732.511.511,0,0,1-.373.143.468.468,0,0,1-.353-.146A.509.509,0,0,1,1603.271,1276.623Zm.92.752v2.943h-.823v-2.943Z" transform="translate(-1561.127 -1276.111)" fill="#0e3344"/>
      <path id="Path_52" data-name="Path 52" d="M1622.563,1289.934a1.352,1.352,0,0,1,1.128.512,1.635,1.635,0,0,1,.337,1.044,1.493,1.493,0,0,1-.5,1.167,1.438,1.438,0,0,1-2.042-.1,1.536,1.536,0,0,1-.389-1.063,1.574,1.574,0,0,1,.434-1.154A1.382,1.382,0,0,1,1622.563,1289.934Zm0,2.489q.629,0,.629-.933,0-.972-.629-.972t-.629.972Q1621.934,1292.423,1622.563,1292.423Z" transform="translate(-1577.37 -1288.748)" fill="#0e3344"/>
      <path id="Path_53" data-name="Path 53" d="M1663.586,1290.3a1.021,1.021,0,0,1,.389-.256,1.292,1.292,0,0,1,.493-.107.985.985,0,0,1,.807.3,1.555,1.555,0,0,1,.25.985v1.731h-.823v-1.7q0-.635-.564-.635a.861.861,0,0,0-.3.062.489.489,0,0,0-.22.139v2.132h-.817v-2.943h.694c.021.112.043.207.065.285Z" transform="translate(-1615.414 -1288.748)" fill="#0e3344"/>
      <path id="Path_54" data-name="Path 54" d="M1704.339,1292.954h-.655l-.065-.279a1.354,1.354,0,0,1-.869.356.854.854,0,0,1-.979-.953.836.836,0,0,1,.408-.739,2.247,2.247,0,0,1,1.225-.272h.136v-.013a.5.5,0,0,0-.117-.382.645.645,0,0,0-.421-.1,1.263,1.263,0,0,0-.784.272q-.117-.214-.22-.421a2.539,2.539,0,0,1,.645-.386,1.922,1.922,0,0,1,.658-.1q1.037,0,1.037,1.3Zm-.823-1.387h-.1a1.2,1.2,0,0,0-.6.13.388.388,0,0,0-.227.344q0,.4.35.4a.6.6,0,0,0,.376-.123.485.485,0,0,0,.195-.311Z" transform="translate(-1650.976 -1288.748)" fill="#0e3344"/>
      <path id="Path_55" data-name="Path 55" d="M1742.321,1276.412v4.181h-.817v-3.753Z" transform="translate(-1687.25 -1276.386)" fill="#0e3344"/>
      <path id="Path_56" data-name="Path 56" d="M1779.423,1280.593v-4.1q.09-.019.512-.052t.642-.032q1.569,0,1.569,1.283a1.309,1.309,0,0,1-.544,1.167,1.459,1.459,0,0,1-.856.253,1.22,1.22,0,0,1-.473-.052v1.53Zm.849-3.455v1.238a1.179,1.179,0,0,0,.421.065.5.5,0,0,0,.408-.185.788.788,0,0,0,.149-.509q0-.655-.577-.655A1.008,1.008,0,0,0,1780.272,1277.138Z" transform="translate(-1721.817 -1276.386)" fill="#0e3344"/>
      <path id="Path_57" data-name="Path 57" d="M1819.67,1276.412v4.181h-.817v-3.753Z" transform="translate(-1757.822 -1276.386)" fill="#0e3344"/>
      <path id="Path_58" data-name="Path 58" d="M1838.49,1292.954h-.655l-.065-.279a1.353,1.353,0,0,1-.868.356.854.854,0,0,1-.979-.953.836.836,0,0,1,.408-.739,2.247,2.247,0,0,1,1.225-.272h.136v-.013a.5.5,0,0,0-.117-.382.644.644,0,0,0-.421-.1,1.264,1.264,0,0,0-.784.272q-.117-.214-.22-.421a2.539,2.539,0,0,1,.645-.386,1.921,1.921,0,0,1,.658-.1q1.037,0,1.037,1.3Zm-.823-1.387h-.1a1.2,1.2,0,0,0-.6.13.388.388,0,0,0-.227.344q0,.4.35.4a.6.6,0,0,0,.376-.123.484.484,0,0,0,.194-.311Z" transform="translate(-1773.367 -1288.748)" fill="#0e3344"/>
      <path id="Path_59" data-name="Path 59" d="M1875.011,1281.274h-.843v1.458q0,.324.214.324a1.033,1.033,0,0,0,.486-.168l.272.415a1.6,1.6,0,0,1-1.018.363q-.778,0-.778-.856v-1.536h-.408v-.655h.415v-.525q.324-.175.823-.434v.959h.836Z" transform="translate(-1806.846 -1279.355)" fill="#0e3344"/>
      <path id="Path_60" data-name="Path 60" d="M1902.547,1278.311v-.661h.46v-.389q0-.849.791-.849a1.536,1.536,0,0,1,.966.35l-.3.428a.859.859,0,0,0-.441-.169q-.2,0-.2.324v.3h.8v.661h-.8v2.281h-.817v-2.281Z" transform="translate(-1833.915 -1276.386)" fill="#0e3344"/>
      <path id="Path_61" data-name="Path 61" d="M1931.507,1289.934a1.352,1.352,0,0,1,1.128.512,1.634,1.634,0,0,1,.337,1.044,1.493,1.493,0,0,1-.5,1.167,1.438,1.438,0,0,1-2.042-.1,1.536,1.536,0,0,1-.389-1.063,1.573,1.573,0,0,1,.434-1.154A1.382,1.382,0,0,1,1931.507,1289.934Zm0,2.489q.629,0,.629-.933,0-.972-.629-.972t-.629.972Q1930.878,1292.423,1931.507,1292.423Z" transform="translate(-1859.051 -1288.748)" fill="#0e3344"/>
      <path id="Path_62" data-name="Path 62" d="M1972.433,1290.012l.078.259a.554.554,0,0,1,.25-.237.785.785,0,0,1,.379-.1.924.924,0,0,1,.868.551l-.687.376a.606.606,0,0,0-.454-.246.341.341,0,0,0-.324.227v2.113h-.8v-2.943Z" transform="translate(-1897.17 -1288.748)" fill="#0e3344"/>
      <path id="Path_63" data-name="Path 63" d="M2002.814,1290.3a1.232,1.232,0,0,1,.907-.363,1.355,1.355,0,0,1,.664.159.859.859,0,0,1,.4.424,1.062,1.062,0,0,1,.444-.421,1.368,1.368,0,0,1,.658-.162q1.037,0,1.037,1.257v1.763h-.823v-1.543a1.1,1.1,0,0,0-.126-.612.484.484,0,0,0-.425-.178.842.842,0,0,0-.694.337v2h-.817v-1.633a.838.838,0,0,0-.136-.541.588.588,0,0,0-.467-.159,1.13,1.13,0,0,0-.366.058.408.408,0,0,0-.224.143v2.132h-.817v-2.943h.693l.058.285Z" transform="translate(-1924.862 -1288.748)" fill="#0e3344"/>
    </g>
    <g id="Group_23" data-name="Group 23" transform="translate(467.727 559.526)">
      <path id="Path_64" data-name="Path 64" d="M1127.582,1173.364a.416.416,0,0,0,.464-.478.431.431,0,0,0-.464-.464.413.413,0,0,0-.471.464.472.472,0,0,0,.129.349A.462.462,0,0,0,1127.582,1173.364Z" transform="translate(-1125.556 -1172.422)" fill="#0e3344"/>
      <path id="Path_65" data-name="Path 65" d="M1114.781,1173.364a.416.416,0,0,0,.464-.478.431.431,0,0,0-.464-.464.413.413,0,0,0-.471.464.472.472,0,0,0,.128.349A.463.463,0,0,0,1114.781,1173.364Z" transform="translate(-1113.854 -1172.422)" fill="#0e3344"/>
      <path id="Path_66" data-name="Path 66" d="M1194.263,1237.924a.413.413,0,0,0-.471.464.473.473,0,0,0,.128.35.463.463,0,0,0,.342.128.416.416,0,0,0,.464-.478.431.431,0,0,0-.464-.464Z" transform="translate(-1186.515 -1232.303)" fill="#0e3344"/>
      <path id="Path_67" data-name="Path 67" d="M1181.462,1237.924a.413.413,0,0,0-.471.464.473.473,0,0,0,.128.35.463.463,0,0,0,.342.128.416.416,0,0,0,.464-.478.431.431,0,0,0-.464-.464Z" transform="translate(-1174.813 -1232.303)" fill="#0e3344"/>
      <path id="Path_68" data-name="Path 68" d="M1268.825,1237.924a.413.413,0,0,0-.471.464.472.472,0,0,0,.128.35.463.463,0,0,0,.342.128.416.416,0,0,0,.464-.478.431.431,0,0,0-.464-.464Z" transform="translate(-1254.679 -1232.303)" fill="#0e3344"/>
      <path id="Path_69" data-name="Path 69" d="M1281.627,1237.924a.413.413,0,0,0-.471.464.473.473,0,0,0,.128.35.463.463,0,0,0,.342.128.416.416,0,0,0,.464-.478.431.431,0,0,0-.464-.464Z" transform="translate(-1266.383 -1232.303)" fill="#0e3344"/>
      <path id="Path_70" data-name="Path 70" d="M1403.4,1176.107a.416.416,0,0,0,.464-.478.431.431,0,0,0-.464-.464.465.465,0,0,0-.339.128.447.447,0,0,0-.132.335.475.475,0,0,0,.128.346A.456.456,0,0,0,1403.4,1176.107Z" transform="translate(-1377.709 -1174.93)" fill="#0e3344"/>
      <path id="Path_71" data-name="Path 71" d="M1390.684,1176.107a.416.416,0,0,0,.464-.478.431.431,0,0,0-.464-.464.463.463,0,0,0-.342.128.454.454,0,0,0-.128.335.473.473,0,0,0,.128.35A.463.463,0,0,0,1390.684,1176.107Z" transform="translate(-1366.082 -1174.93)" fill="#0e3344"/>
      <path id="Path_72" data-name="Path 72" d="M1136.723,1179.855a.684.684,0,0,1-.139.485.635.635,0,0,1-.467.143h-.663a.522.522,0,0,1-.385-.118.558.558,0,0,1-.114-.4v-1.791l-.9.471v1.32a.559.559,0,0,1-.114.4.523.523,0,0,1-.385.118h-2.19a4.895,4.895,0,0,0,1.07-.97v-.392a2.5,2.5,0,0,0-.827-.774,1.937,1.937,0,0,0-2.029,0,2.37,2.37,0,0,0-.809.763v.407l.128.15a4.406,4.406,0,0,0,.371.4,4.658,4.658,0,0,0,.535.421h-2.154a.522.522,0,0,1-.385-.118.559.559,0,0,1-.114-.4v-1.791l-.007.007v-1.441l-.892.478v2.632a.684.684,0,0,1-.139.485.635.635,0,0,1-.467.143h-.663a.522.522,0,0,1-.385-.118.559.559,0,0,1-.114-.4v-1.791l-.9.471v1.32a.559.559,0,0,1-.114.4.523.523,0,0,1-.385.118h-.849a.536.536,0,0,1-.389-.118.547.547,0,0,1-.118-.4v-.207a1.949,1.949,0,0,0-.328-1.177,1.45,1.45,0,0,0-2.125-.121,1.824,1.824,0,0,0-.435,1.3v.207a.559.559,0,0,1-.114.4.523.523,0,0,1-.385.118h-.856a.522.522,0,0,1-.385-.118.558.558,0,0,1-.114-.4v-1.791l-.9.471v1.32a.559.559,0,0,1-.114.4.522.522,0,0,1-.385.118h-3.368a.535.535,0,0,1-.389-.118.546.546,0,0,1-.118-.4v-2.375l-.891.471v.186a1.165,1.165,0,0,0-.485-.1,1.247,1.247,0,0,0-.892.371,1.661,1.661,0,0,0-.135,2.125,1.272,1.272,0,0,0,1.048.492,1.2,1.2,0,0,0,.749-.235,1.255,1.255,0,0,0,1.027.442h3.539a1.478,1.478,0,0,1,1.726,0h1.027a1.349,1.349,0,0,0,.849-.264,1.3,1.3,0,0,0,1.013.407,1.331,1.331,0,0,0,1.013-.407,1.3,1.3,0,0,0,.842.264h1.027a1.478,1.478,0,0,1,1.726,0h.8a1.492,1.492,0,0,0,.963-.314,1.3,1.3,0,0,0,.906.314h2.347a1.443,1.443,0,0,0,.685-.178,1.388,1.388,0,0,0,.685.178h2.361a1.478,1.478,0,0,1,1.726,0h.8a1.4,1.4,0,0,0,1.027-.378,1.48,1.48,0,0,0,.421-1.106v-3.117l-.892.478Zm-26.313.521a.468.468,0,0,1-.392-.185.8.8,0,0,1-.143-.5.815.815,0,0,1,.146-.506.457.457,0,0,1,.382-.193.634.634,0,0,1,.421.157v.863a1.6,1.6,0,0,0,.007.178A.51.51,0,0,1,1110.409,1180.375Zm9.88.25q-.549,0-.549-.884,0-.849.549-.849t.542.849Q1120.832,1180.625,1120.289,1180.625Zm10.3-.485a2.663,2.663,0,0,1-.77-.849,1.1,1.1,0,0,1,.756-.4,1.23,1.23,0,0,1,.806.4A3.236,3.236,0,0,1,1130.589,1180.14Z" transform="translate(-1108.99 -1176.374)" fill="#0e3344"/>
      <path id="Path_73" data-name="Path 73" d="M1456.295,1181.345h.9v-4.6l-.9.478Z" transform="translate(-1426.494 -1176.374)" fill="#0e3344"/>
      <path id="Path_74" data-name="Path 74" d="M1492.989,1196.163a.9.9,0,0,1-.275.7,1.1,1.1,0,0,1-.767.25.984.984,0,0,1-.763-.321,1.249,1.249,0,0,1-.307-.877,1.98,1.98,0,0,1,.285-1.02l-.856.178a1.813,1.813,0,0,0-.264.984,1.953,1.953,0,0,0,.414,1.241,1.781,1.781,0,0,0,1.491.678,2.007,2.007,0,0,0,1.348-.449,1.7,1.7,0,0,0,.592-1.362v-2.711l-.9.471Z" transform="translate(-1457.346 -1191.647)" fill="#0e3344"/>
      <path id="Path_75" data-name="Path 75" d="M1506.807,1184.337a.416.416,0,0,0,.464-.478.479.479,0,0,0-.806-.335.453.453,0,0,0-.128.335.472.472,0,0,0,.128.349A.462.462,0,0,0,1506.807,1184.337Z" transform="translate(-1472.241 -1182.453)" fill="#0e3344"/>
      <path id="Path_76" data-name="Path 76" d="M1564.063,1192.446a1.761,1.761,0,0,0-1.084-.407,1.8,1.8,0,0,0-1.355.656v.792a1.944,1.944,0,0,1,1.248-.62,1.388,1.388,0,0,1,1.177.849,2.684,2.684,0,0,1-2,.749h-1.277q-.5,0-.5-.471v-.15a1.793,1.793,0,0,0-.428-1.22,1.7,1.7,0,0,0-1.348-.585,2.3,2.3,0,0,0-1.669.728,4.152,4.152,0,0,0-1,1.69q-.364-.05-.364-.506v-1.412l-.9.471v.942a.559.559,0,0,1-.114.4.522.522,0,0,1-.385.118h-5.278v-1.106a1.335,1.335,0,0,0-.307-.913,1.25,1.25,0,0,0-.991-.407,1.311,1.311,0,0,0-1,.4,1.741,1.741,0,0,0-.428,1.241,1.54,1.54,0,0,0,1.469,1.6l.186.021c.081,0,.14.01.178.014a.541.541,0,0,1-.253.392.9.9,0,0,1-.531.164,1.537,1.537,0,0,1-.77-.221v.777a1.761,1.761,0,0,0,.877.242,1.643,1.643,0,0,0,1-.314,1.354,1.354,0,0,0,.571-1.027h5.364a1.478,1.478,0,0,1,1.726,0h3.081a1.478,1.478,0,0,1,1.726,0h1.355a3.916,3.916,0,0,0,1.673-.357,3.448,3.448,0,0,0,1.28-1.013v-.357A3.588,3.588,0,0,0,1564.063,1192.446Zm-16.162,2.011a2.458,2.458,0,0,1-.321-.036.673.673,0,0,1-.628-.77q0-.777.542-.777.406,0,.407.471Zm11.476-.514a.641.641,0,0,1-.1.41.453.453,0,0,1-.353.111h-2.218a2.889,2.889,0,0,1,.76-1.163,1.536,1.536,0,0,1,1.038-.428.8.8,0,0,1,.628.271,1.009,1.009,0,0,1,.243.7Z" transform="translate(-1508.564 -1190.356)" fill="#0e3344"/>
      <path id="Path_77" data-name="Path 77" d="M1801.893,1173.364a.416.416,0,0,0,.464-.478.431.431,0,0,0-.464-.464.413.413,0,0,0-.471.464.473.473,0,0,0,.128.349A.463.463,0,0,0,1801.893,1173.364Z" transform="translate(-1742.006 -1172.422)" fill="#0e3344"/>
      <path id="Path_78" data-name="Path 78" d="M1789.092,1173.364a.416.416,0,0,0,.464-.478.431.431,0,0,0-.464-.464.413.413,0,0,0-.471.464.472.472,0,0,0,.128.349A.463.463,0,0,0,1789.092,1173.364Z" transform="translate(-1730.304 -1172.422)" fill="#0e3344"/>
      <path id="Path_79" data-name="Path 79" d="M1991.148,1175.026a.416.416,0,0,0,.464-.478.479.479,0,0,0-.806-.335.454.454,0,0,0-.128.335.473.473,0,0,0,.128.35A.463.463,0,0,0,1991.148,1175.026Z" transform="translate(-1915.022 -1173.941)" fill="#0e3344"/>
      <path id="Path_80" data-name="Path 80" d="M1806.459,1187.62a1.312,1.312,0,0,0-2.4.8v.592a.559.559,0,0,1-.114.4.523.523,0,0,1-.385.118h-.856a.522.522,0,0,1-.385-.118.559.559,0,0,1-.114-.4v-1.79l-.9.471v1.32a.559.559,0,0,1-.114.4.523.523,0,0,1-.385.118h-.856q-.5,0-.5-.471v-.15a1.793,1.793,0,0,0-.428-1.22,1.7,1.7,0,0,0-1.348-.585,2.3,2.3,0,0,0-1.669.728,4.152,4.152,0,0,0-1,1.691q-.364-.05-.364-.506V1187.6l-.9.471v.942a.559.559,0,0,1-.114.4.523.523,0,0,1-.385.118h-6.717a.536.536,0,0,1-.389-.118.547.547,0,0,1-.118-.4v-2.375l-.892.471v.185a1.166,1.166,0,0,0-.485-.1,1.247,1.247,0,0,0-.892.371,1.661,1.661,0,0,0-.135,2.126,1.272,1.272,0,0,0,1.048.492,1.193,1.193,0,0,0,.749-.235,1.255,1.255,0,0,0,1.027.442h6.888a1.478,1.478,0,0,1,1.726,0h3.081a1.478,1.478,0,0,1,1.726,0h1.027a1.478,1.478,0,0,1,1.726,0h1.027a1.366,1.366,0,0,0,.828-.25,1.616,1.616,0,0,0,.934.25,1.268,1.268,0,0,0,.963-.4,2.051,2.051,0,0,0,.086-2.368Zm-21.739,1.8a.468.468,0,0,1-.392-.185.8.8,0,0,1-.143-.5.815.815,0,0,1,.146-.506.457.457,0,0,1,.381-.193.634.634,0,0,1,.421.157v.863a1.557,1.557,0,0,0,.007.178A.511.511,0,0,1,1784.72,1189.418Zm13.836-.414a.643.643,0,0,1-.1.41.455.455,0,0,1-.353.111h-2.218a2.89,2.89,0,0,1,.76-1.163,1.535,1.535,0,0,1,1.038-.428.8.8,0,0,1,.628.271,1.01,1.01,0,0,1,.243.7Zm6.826.521q-.421,0-.421-.4v-.72q0-.471.4-.471.549,0,.549.777Q1805.91,1189.525,1805.382,1189.525Z" transform="translate(-1725.44 -1185.416)" fill="#0e3344"/>
    </g>
    <g id="Group_37" data-name="Group 37" transform="translate(472.647 556.596)">
      <g id="Group_24" data-name="Group 24" transform="translate(73.077 7.823)">
        <path id="Path_81" data-name="Path 81" d="M2021.641,1229.545a1.378,1.378,0,0,1-.105.169c-.014.02-.083.109-.035.049-.026.032-.052.065-.079.1a2.8,2.8,0,0,1-.207.216q-.057.054-.117.1l-.077.063,0,0-.057.042a3.091,3.091,0,0,1-.356.222,2.577,2.577,0,0,1-.408.179,3.614,3.614,0,0,1-.514.138,4.7,4.7,0,0,1-1.5.015c-.115-.016-.214.11-.214.214a.22.22,0,0,0,.214.214,4.433,4.433,0,0,0,2.529-.334,3.147,3.147,0,0,0,1.153-.949,1.538,1.538,0,0,0,.143-.221c.124-.246-.246-.463-.37-.216Z" transform="translate(-2017.971 -1229.436)" fill="#e49a00"/>
      </g>
      <g id="Group_25" data-name="Group 25" transform="translate(67.989 1.502)">
        <path id="Path_82" data-name="Path 82" d="M1961.993,1155.924c-.005.017-.011.034-.017.051s-.015.038-.022.057c-.017.046.017-.035.005-.012s-.013.029-.019.044a2.645,2.645,0,0,1-.265.45c-.009.012-.066.087-.029.04l-.049.061q-.063.077-.132.149a3.086,3.086,0,0,1-.3.276l-.046.037c.034-.027-.019.014-.021.016l-.084.061c-.071.05-.145.1-.22.14a3.441,3.441,0,0,1-.445.219,4.655,4.655,0,0,1-1.469.3c-.275.015-.276.444,0,.429a4.45,4.45,0,0,0,2.435-.782,3.161,3.161,0,0,0,.97-1.135,1.843,1.843,0,0,0,.119-.29.215.215,0,0,0-.414-.114Z" transform="translate(-1958.676 -1155.773)" fill="#e49a00"/>
      </g>
      <g id="Group_26" data-name="Group 26" transform="translate(60.261 1.202)">
        <path id="Path_83" data-name="Path 83" d="M1871.151,1152.436c0,.012-.008.024-.012.036s-.011.028-.016.043c-.015.041.015-.031.008-.019s-.011.025-.016.036a2.019,2.019,0,0,1-.2.345c-.008.011-.045.06-.011.016l-.039.049q-.047.057-.1.112a2.446,2.446,0,0,1-.228.213l-.031.025,0,0-.067.048q-.08.056-.164.105a2.614,2.614,0,0,1-.335.167,3.547,3.547,0,0,1-1.114.232c-.275.015-.276.444,0,.429a3.015,3.015,0,0,0,2.648-1.491,1.511,1.511,0,0,0,.1-.235.215.215,0,0,0-.414-.114Z" transform="translate(-1868.614 -1152.285)" fill="#e49a00"/>
      </g>
      <g id="Group_27" data-name="Group 27" transform="translate(23.855 1.439)">
        <path id="Path_84" data-name="Path 84" d="M1446.875,1155.19c0,.012-.008.024-.012.036l-.016.043c-.015.041.015-.031.008-.02s-.011.025-.016.036a2.02,2.02,0,0,1-.2.345c-.008.012-.046.06-.011.016l-.039.049q-.047.057-.1.112a2.463,2.463,0,0,1-.229.213l-.031.025,0,0-.067.048q-.08.056-.164.105a2.622,2.622,0,0,1-.335.167,3.544,3.544,0,0,1-1.114.232c-.275.015-.276.444,0,.429a3.016,3.016,0,0,0,2.648-1.491,1.5,1.5,0,0,0,.1-.235.215.215,0,0,0-.414-.114Z" transform="translate(-1444.338 -1155.039)" fill="#e49a00"/>
      </g>
      <g id="Group_28" data-name="Group 28" transform="translate(10.887 8.312)">
        <path id="Path_85" data-name="Path 85" d="M1296.078,1235.241c-.007.011-.014.022-.021.033l-.026.037-.015.02c-.029.041.015-.017,0,0a2.957,2.957,0,0,1-.275.282l-.048.039c-.04.034.023-.015-.021.016s-.079.057-.12.084a2.368,2.368,0,0,1-.268.15,1.925,1.925,0,0,1-.306.117,2.632,2.632,0,0,1-.4.089,3.531,3.531,0,0,1-1.1-.043.22.22,0,0,0-.264.15.217.217,0,0,0,.15.264,3.017,3.017,0,0,0,2.932-.815,1.489,1.489,0,0,0,.149-.2.215.215,0,0,0-.37-.217Z" transform="translate(-1293.211 -1235.137)" fill="#e49a00"/>
      </g>
      <g id="Group_29" data-name="Group 29" transform="translate(4.431 8.312)">
        <path id="Path_86" data-name="Path 86" d="M1220.836,1235.241c-.007.011-.014.022-.021.033l-.026.037-.015.02c-.029.041.015-.017,0,0a2.928,2.928,0,0,1-.275.282l-.048.039c-.04.034.023-.015-.021.016s-.079.057-.12.084a2.349,2.349,0,0,1-.268.15,1.922,1.922,0,0,1-.305.117,2.636,2.636,0,0,1-.4.089,3.53,3.53,0,0,1-1.1-.043.22.22,0,0,0-.264.15.217.217,0,0,0,.15.264,3.016,3.016,0,0,0,2.932-.815,1.48,1.48,0,0,0,.149-.2.215.215,0,0,0-.37-.217Z" transform="translate(-1217.969 -1235.137)" fill="#e49a00"/>
      </g>
      <g id="Group_30" data-name="Group 30" transform="translate(61.057 2.217)">
        <path id="Path_87" data-name="Path 87" d="M1880.1,1164.382c0,.014,0,.029.006.043-.017-.076,0-.032,0,0s.005.046.007.069a2.194,2.194,0,0,1,0,.364c0,.015,0,.03,0,.044-.005.057.006-.025,0,.006s-.012.065-.02.1-.018.057-.027.086.021-.031,0,0a.474.474,0,0,0-.024.045c-.006.011-.015.021-.021.032.033-.057.016-.013,0,0s-.049.027,0,0c-.009,0-.026.024-.036.023l-.019.01c.008,0,.048-.011.02-.01a.149.149,0,0,0-.039.01s.046,0,0,0c-.02,0-.04,0-.06,0s.043.009.014,0l-.038-.007c-.025-.006-.049-.013-.073-.021a.493.493,0,0,1-.123-.053,2.458,2.458,0,0,1-.4-.266.224.224,0,0,0-.26-.034.217.217,0,0,0-.1.242c.017.055.032.112.045.168s.027.119.037.179c0,.021.017.126.009.051,0,.033.008.066.011.1a1.7,1.7,0,0,1,0,.208c0,.019-.012.07,0,0,0,.015,0,.03-.008.044s-.007.028-.01.042-.021.062-.006.023-.02.028-.026.043c.019-.047.026-.028,0-.008-.039.033.042-.029,0,0s-.038,0,.008,0c-.013,0-.026.009-.039.011-.031,0,.056,0,0,0-.01,0-.071,0-.034,0s-.03-.006-.042-.009-.052-.015-.078-.024l-.034-.012c-.037-.014.013.006-.011-.005l-.086-.042a3.291,3.291,0,0,1-.449-.3.216.216,0,0,0-.294.077.22.22,0,0,0,.077.293c.315.24.977.717,1.325.266a1.22,1.22,0,0,0,.074-.966c-.018-.085-.038-.17-.064-.252l-.359.209c.33.264.94.716,1.344.321a1.171,1.171,0,0,0,.231-.908,2.666,2.666,0,0,0-.033-.3.216.216,0,0,0-.264-.15.22.22,0,0,0-.15.264Z" transform="translate(-1877.892 -1164.111)" fill="#e49a00"/>
      </g>
      <g id="Group_31" data-name="Group 31" transform="translate(16.783)">
        <path id="Path_88" data-name="Path 88" d="M1364.457,1138.423c0,.012-.008.024-.012.036s-.011.028-.016.043c-.015.041.015-.031.008-.02s-.011.025-.016.036a2.033,2.033,0,0,1-.2.345c-.008.011-.046.06-.011.016l-.039.049q-.047.057-.1.112a2.48,2.48,0,0,1-.229.213l-.031.025,0,0-.067.048c-.053.037-.108.072-.164.105a2.616,2.616,0,0,1-.335.167,3.543,3.543,0,0,1-1.114.232c-.275.015-.276.444,0,.429a3.015,3.015,0,0,0,2.648-1.491,1.489,1.489,0,0,0,.1-.235.215.215,0,0,0-.414-.114Z" transform="translate(-1361.919 -1138.272)" fill="#e49a00"/>
      </g>
      <g id="Group_32" data-name="Group 32" transform="translate(17.579 1.015)">
        <path id="Path_89" data-name="Path 89" d="M1373.408,1150.369c0,.014,0,.029.007.043-.017-.076,0-.032,0,0s0,.046.007.069a2.168,2.168,0,0,1,0,.364c0,.015,0,.03,0,.044-.005.057.006-.025,0,.006s-.012.065-.02.1-.018.057-.027.086.021-.031,0,0a.487.487,0,0,0-.024.044c-.006.011-.015.021-.021.032.033-.057.016-.013,0,0s-.049.027,0,0c-.009,0-.026.024-.036.023l-.019.01c.008,0,.048-.011.02-.01a.155.155,0,0,0-.039.01s.046,0,0,0c-.02,0-.04,0-.06,0s.043.009.014,0l-.038-.007c-.025-.005-.049-.013-.073-.021a.489.489,0,0,1-.123-.054,2.45,2.45,0,0,1-.4-.266.223.223,0,0,0-.26-.034.218.218,0,0,0-.1.242c.017.055.032.112.045.168s.026.119.037.179c0,.021.017.126.009.051,0,.033.008.066.01.1a1.694,1.694,0,0,1,0,.208c0,.019-.012.07,0,0,0,.015,0,.03-.008.044s-.007.028-.01.042-.021.062-.006.023-.02.028-.026.043c.019-.047.026-.028,0-.008-.039.033.042-.029,0,0s-.038,0,.008,0c-.013,0-.026.009-.039.011-.031,0,.056,0,0,0-.01,0-.071,0-.034,0s-.03-.006-.042-.009-.052-.015-.078-.024l-.034-.013c-.037-.014.013.006-.011,0s-.058-.027-.086-.042a3.287,3.287,0,0,1-.449-.3.216.216,0,0,0-.293.077.22.22,0,0,0,.077.293c.315.24.978.717,1.325.266a1.22,1.22,0,0,0,.074-.966c-.018-.085-.038-.17-.064-.252l-.358.209c.33.264.94.717,1.344.321a1.172,1.172,0,0,0,.231-.908,2.7,2.7,0,0,0-.033-.3.216.216,0,0,0-.264-.15.22.22,0,0,0-.15.264Z" transform="translate(-1371.198 -1150.099)" fill="#e49a00"/>
      </g>
      <g id="Group_33" data-name="Group 33" transform="translate(0 1.546)">
        <path id="Path_90" data-name="Path 90" d="M1168.867,1156.438c0,.012-.008.024-.012.036s-.011.028-.016.043c-.015.041.015-.031.008-.019s-.011.024-.016.036a2.026,2.026,0,0,1-.2.345c-.008.011-.046.06-.011.016l-.039.049q-.047.057-.1.111a2.464,2.464,0,0,1-.229.213l-.031.025,0,0-.067.048c-.053.037-.108.072-.164.105a2.6,2.6,0,0,1-.335.167,3.543,3.543,0,0,1-1.114.232c-.275.015-.276.444,0,.429a3.015,3.015,0,0,0,2.648-1.491,1.5,1.5,0,0,0,.1-.235.215.215,0,0,0-.414-.114Z" transform="translate(-1166.33 -1156.287)" fill="#e49a00"/>
      </g>
      <g id="Group_34" data-name="Group 34" transform="translate(0.796 2.561)">
        <path id="Path_91" data-name="Path 91" d="M1177.82,1168.384c0,.014,0,.029.006.043-.017-.076,0-.032,0,0s0,.046.007.069a2.166,2.166,0,0,1,0,.364c0,.015,0,.029,0,.044-.005.057.006-.025,0,.006s-.012.065-.02.1-.018.057-.027.086.021-.031,0,0a.488.488,0,0,0-.024.045c-.006.011-.015.021-.021.032.033-.057.016-.013,0,0s-.049.027,0,0c-.009,0-.026.024-.036.023l-.019.01c.008,0,.048-.011.021-.01a.152.152,0,0,0-.039.01s.046,0,0,0h-.06c-.029,0,.043.009.014,0l-.038-.007c-.025-.006-.049-.013-.073-.021a.493.493,0,0,1-.123-.054,2.457,2.457,0,0,1-.4-.266.223.223,0,0,0-.26-.033.218.218,0,0,0-.1.242c.017.055.032.112.045.168s.027.119.037.179c0,.021.017.126.009.051,0,.033.008.066.011.1a1.674,1.674,0,0,1,0,.208c0,.019-.012.07,0,0,0,.015,0,.03-.008.044s-.007.028-.01.042-.022.062-.006.023-.02.028-.026.043c.019-.047.026-.028,0-.008-.039.033.042-.029,0,0s-.038,0,.008,0c-.013,0-.026.009-.039.011-.031,0,.056,0,0,0-.01,0-.071,0-.034,0s-.029-.006-.042-.009a.8.8,0,0,1-.078-.024l-.034-.013c-.037-.014.013.006-.011,0l-.086-.042a3.275,3.275,0,0,1-.449-.3.216.216,0,0,0-.293.077.22.22,0,0,0,.077.293c.315.24.977.717,1.325.266a1.219,1.219,0,0,0,.074-.966c-.018-.085-.038-.17-.064-.252l-.359.209c.33.264.94.716,1.344.321a1.172,1.172,0,0,0,.231-.908,2.669,2.669,0,0,0-.033-.3.216.216,0,0,0-.264-.15.219.219,0,0,0-.15.264Z" transform="translate(-1175.609 -1168.114)" fill="#e49a00"/>
      </g>
      <g id="Group_35" data-name="Group 35" transform="translate(47.672 2.058)">
        <path id="Path_92" data-name="Path 92" d="M1722.177,1164.645a1.911,1.911,0,0,0,1.6-1.445c.053-.333.006-.847-.4-.931s-.765.346-.832.7a.936.936,0,0,0,.1.644c.077.136.157.271.245.4a.22.22,0,0,0,.294.077.216.216,0,0,0,.077-.293c-.074-.108-.141-.221-.206-.334a.66.66,0,0,1-.1-.24.5.5,0,0,1,.339-.54c-.031.009,0,0,.006,0-.056-.006.021.013-.009,0s.016.022,0,0,.009.009.013.014c.021.026-.016-.026,0,0,.008.011.014.023.021.035s.02.043.011.022.009.031.011.035c.006.02.019.079.019.08s0,.054,0,.071a.933.933,0,0,1-.017.194,1.222,1.222,0,0,1-.427.7,1.845,1.845,0,0,1-.867.391.216.216,0,0,0-.15.264.219.219,0,0,0,.264.15Z" transform="translate(-1721.906 -1162.258)" fill="#e49a00"/>
      </g>
      <g id="Group_36" data-name="Group 36" transform="translate(42.332 2.058)">
        <path id="Path_93" data-name="Path 93" d="M1659.938,1164.645a1.911,1.911,0,0,0,1.6-1.445c.053-.333.006-.847-.4-.931s-.765.346-.832.7a.936.936,0,0,0,.1.644c.077.136.157.271.245.4a.22.22,0,0,0,.293.077.216.216,0,0,0,.077-.293c-.074-.108-.141-.221-.206-.334a.66.66,0,0,1-.1-.24.5.5,0,0,1,.339-.54c-.031.009,0,0,.006,0-.056-.006.021.013-.009,0s.016.022,0,0,.009.009.013.014c.021.026-.016-.026,0,0,.008.011.014.023.021.035s.02.043.011.022.01.031.011.035c.006.02.019.079.019.08s0,.054,0,.071a.925.925,0,0,1-.017.194,1.222,1.222,0,0,1-.427.7,1.845,1.845,0,0,1-.867.391.217.217,0,0,0-.15.264.219.219,0,0,0,.264.15Z" transform="translate(-1659.667 -1162.258)" fill="#e49a00"/>
      </g>
    </g>
    <path id="Path_94" data-name="Path 94" d="M1306.33,732.117l2.928-7.616s1.642-4.608,5.142-4.412c0,0,1.236-.043,2.723,1.652a1.686,1.686,0,0,0-.588-.25,5.44,5.44,0,0,0-1.467-.318c-1.8-.121-2.868,1.137-3.81,2.487s-1.837,2.7-2.686,4.089A23.214,23.214,0,0,0,1306.33,732.117Z" transform="translate(-820.586 -199.37)" fill="#469791"/>
    <path id="Path_95" data-name="Path 95" d="M1341.879,739.142c.544-.843.809-1.835,1.429-2.666a4.531,4.531,0,0,1,4.429-2.126c1.094.218,2.621.755,2.363,2.12a1.332,1.332,0,0,1-2.005.767c-1.175-.729-2.114-.453-3.368-.177A4.99,4.99,0,0,0,1341.879,739.142Z" transform="translate(-853.085 -212.349)" fill="#fff"/>
    <g id="Group_38" data-name="Group 38" transform="translate(422.899 513.571)">
      <path id="Path_96" data-name="Path 96" d="M593.932,636.853c-.111.013-.222.032-.332.052-.274.05-.546.113-.816.183-.434.112-.863.243-1.286.389-.583.2-1.156.427-1.721.674-.689.3-1.364.635-2.024,1-.792.433-1.563.9-2.312,1.408-.878.59-1.726,1.225-2.544,1.9-.933.764-1.826,1.575-2.681,2.425-.972.966-1.9,1.982-2.771,3.037-.988,1.19-1.917,2.428-2.792,3.7q-.348.508-.685,1.024c-.129.2.187.38.315.184.865-1.323,1.784-2.611,2.766-3.849.874-1.1,1.8-2.164,2.772-3.178.855-.89,1.75-1.741,2.686-2.545.813-.7,1.658-1.361,2.534-1.979.763-.539,1.55-1.044,2.36-1.51.68-.391,1.377-.755,2.089-1.084q.234-.108.471-.212l.235-.1.076-.032.118-.049q.416-.171.838-.325c.454-.165.914-.315,1.379-.445.308-.086.619-.163.932-.226.093-.019.187-.036.281-.052l.088-.014c.032,0,.089-.014.008,0l.017,0a.188.188,0,0,0,.182-.182.183.183,0,0,0-.182-.182Z" transform="translate(-573.937 -636.853)" fill="#fff"/>
    </g>
    <g id="Group_39" data-name="Group 39" transform="translate(420.284 511.449)">
      <path id="Path_97" data-name="Path 97" d="M563.449,612.127c-.111.013-.222.032-.332.052-.274.05-.546.113-.816.183-.434.112-.863.243-1.286.389-.583.2-1.156.427-1.721.674-.689.3-1.364.635-2.024,1-.792.433-1.563.9-2.312,1.408-.878.59-1.726,1.225-2.544,1.9-.933.764-1.826,1.575-2.681,2.425-.972.966-1.9,1.982-2.771,3.037-.988,1.19-1.917,2.428-2.792,3.7q-.348.508-.685,1.024c-.129.2.187.38.315.184.865-1.323,1.783-2.611,2.766-3.849.874-1.1,1.8-2.164,2.772-3.178.855-.89,1.75-1.741,2.686-2.545.813-.7,1.658-1.361,2.534-1.979.763-.539,1.55-1.044,2.36-1.51.68-.391,1.377-.755,2.089-1.084q.234-.108.471-.212l.235-.1.076-.032.118-.049q.416-.171.838-.325c.454-.165.914-.315,1.379-.445.308-.086.619-.163.932-.226q.14-.028.281-.052l.088-.014c.032,0,.089-.014.007,0l.017,0a.188.188,0,0,0,.182-.182.183.183,0,0,0-.182-.182Z" transform="translate(-543.454 -612.126)" fill="#fff"/>
    </g>
  </g>
</svg>
