<svg xmlns="http://www.w3.org/2000/svg" width="19.526" height="26.107" viewBox="0 0 19.526 26.107">
  <g id="zip" transform="translate(-99.753 0)">
    <g id="Vrstva_x0020_1_31_" transform="translate(99.753 0)">
      <path id="Path_9048" data-name="Path 9048" d="M103.148,0h8.732l7.4,7.712v15a3.4,3.4,0,0,1-3.395,3.395H103.148a3.4,3.4,0,0,1-3.395-3.395V3.395A3.391,3.391,0,0,1,103.148,0Z" transform="translate(-99.753 0)" fill="#ffb11f" fill-rule="evenodd"/>
      <g id="Group_3454" data-name="Group 3454" transform="translate(4.229 0)">
        <path id="Path_9049" data-name="Path 9049" d="M467.136,0V7.648h7.408Z" transform="translate(-459.247)" fill="#fff" fill-rule="evenodd" opacity="0.302"/>
        <path id="Path_9050" data-name="Path 9050" d="M230.933,68.147V66.365a.343.343,0,0,0-.345-.345h-.963a.343.343,0,0,0-.345.345v1.782l-.538,1.573a1.442,1.442,0,1,0,2.729,0Zm-.225,2.472a.77.77,0,0,1-1.212,0,.747.747,0,0,1-.1-.674l.177-.53h1.051l.185.53A.749.749,0,0,1,230.709,70.619Zm-2.737-14.165v.979a.343.343,0,0,0,.345.345h1.308v1.461h-1.308a.343.343,0,0,0-.345.345v.754a.349.349,0,0,0,.345.353h1.308v1.453h-1.308a.343.343,0,0,0-.345.345v.762a.343.343,0,0,0,.345.345h1.308V64.7a.349.349,0,0,0,.353.345H231.9a.348.348,0,0,0,.345-.345v-.762a.353.353,0,0,0-.345-.345H230.58V62.144H231.9a.348.348,0,0,0,.345-.345v-.762a.348.348,0,0,0-.345-.345H230.58V59.239H231.9a.355.355,0,0,0,.345-.353v-.754a.355.355,0,0,0-.345-.353H230.58V56.446Z" transform="translate(-227.972 -54.584)" fill="#fff"/>
      </g>
    </g>
  </g>
</svg>
